<?xml version="1.0" encoding="utf-8"?>
<!-- Generator: Adobe Illustrator 19.0.0, SVG Export Plug-In . SVG Version: 6.00 Build 0)  -->
<svg version="1.1" id="Layer_1" xmlns="http://www.w3.org/2000/svg" xmlns:xlink="http://www.w3.org/1999/xlink" x="0px" y="0px"
	 width="56.7px" height="56.7px" viewBox="0 0 56.7 56.7" style="enable-background:new 0 0 56.7 56.7;" xml:space="preserve">
<style type="text/css">
	.st0{fill:#80E2F7;}
	.st1{fill:#34296D;}
</style>
<g id="XMLID_13_">
	<g id="XMLID_1_">
		<circle class="st0" cx="28.4" cy="28.4" r="28.4"/>
	</g>
	<g id="XMLID_7_">
		<g id="XMLID_5_">
			<g id="XMLID_3_">
				<path id="XMLID_87_" class="st1" d="M28.4,32.8c-0.4,0-0.8-0.3-0.8-0.8s0.3-0.8,0.8-0.8c7.1,0,10.7-4.7,10.7-14.1v-5.3H28.4
					c-0.4,0-0.8-0.3-0.8-0.8s0.3-0.8,0.8-0.8h11.5c0.4,0,0.8,0.3,0.8,0.8v6C40.6,30.1,33.9,32.8,28.4,32.8z"/>
			</g>
			<g id="XMLID_2_">
				<path id="XMLID_86_" class="st1" d="M38.2,27c-0.3,0-0.6-0.2-0.7-0.6c-0.1-0.4,0.2-0.8,0.6-0.9c4.8-1.1,6.7-3.8,6.9-6
					c0.1-1.3-0.4-2.4-1.2-2.8c-2.2-1-3.2,0.8-3.2,0.8c-0.2,0.4-0.7,0.5-1,0.3c-0.4-0.2-0.5-0.7-0.3-1c0.6-1,2.4-2.7,5.1-1.5
					c1.4,0.6,2.3,2.4,2.1,4.3c-0.2,2.7-2.5,6-8.1,7.3C38.3,27,38.2,27,38.2,27z"/>
			</g>
			<g id="XMLID_4_">
				<path id="XMLID_85_" class="st1" d="M35.3,42.9h-6.9c-0.4,0-0.8-0.3-0.8-0.8s0.3-0.8,0.8-0.8h6.2v-0.9c-1.6-0.1-2.9-0.8-3.9-1.9
					C28.5,36.1,29,32,29,31.9c0.1-0.4,0.4-0.7,0.8-0.6c0.4,0.1,0.7,0.4,0.6,0.8c0,0-0.5,3.6,1.3,5.6c0.8,0.9,2,1.4,3.5,1.4
					c0.4,0,0.8,0.3,0.8,0.8v2.4C36,42.6,35.7,42.9,35.3,42.9z"/>
			</g>
			<g id="XMLID_6_">
				<path id="XMLID_84_" class="st1" d="M39.3,48.3H28.4c-0.4,0-0.8-0.3-0.8-0.8s0.3-0.8,0.8-0.8h10.2v-3.8h-3.2
					c-0.4,0-0.8-0.3-0.8-0.8s0.3-0.8,0.8-0.8h4c0.4,0,0.8,0.3,0.8,0.8v5.3C40,47.9,39.7,48.3,39.3,48.3z"/>
			</g>
		</g>
		<g id="XMLID_8_">
			<g id="XMLID_12_">
				<path id="XMLID_83_" class="st1" d="M28.4,32.8c-5.6,0-12.2-2.7-12.2-15.6v-6c0-0.4,0.3-0.8,0.8-0.8h11.5c0.4,0,0.8,0.3,0.8,0.8
					s-0.3,0.8-0.8,0.8H17.6v5.3c0,9.3,3.6,14.1,10.7,14.1c0.4,0,0.8,0.3,0.8,0.8S28.8,32.8,28.4,32.8z"/>
			</g>
			<g id="XMLID_11_">
				<path id="XMLID_82_" class="st1" d="M18.5,27c-0.1,0-0.1,0-0.2,0c-5.6-1.3-7.8-4.6-8.1-7.3c-0.2-2,0.7-3.7,2.1-4.3
					c2.7-1.2,4.6,0.4,5.1,1.5c0.2,0.4,0.1,0.8-0.3,1c-0.4,0.2-0.8,0.1-1-0.3c-0.1-0.2-1.1-1.8-3.2-0.8c-0.9,0.4-1.3,1.5-1.2,2.8
					c0.2,2.2,2.1,4.9,6.9,6c0.4,0.1,0.7,0.5,0.6,0.9C19.2,26.8,18.9,27,18.5,27z"/>
			</g>
			<g id="XMLID_10_">
				<path id="XMLID_81_" class="st1" d="M28.4,42.9h-6.9c-0.4,0-0.8-0.3-0.8-0.8v-2.4c0-0.4,0.3-0.8,0.8-0.8c1.5,0,2.7-0.5,3.5-1.4
					c1.7-2,1.3-5.6,1.3-5.6c-0.1-0.4,0.2-0.8,0.6-0.8c0.4-0.1,0.8,0.2,0.8,0.6c0,0.2,0.6,4.3-1.6,6.8c-1,1.1-2.2,1.7-3.9,1.9v0.9
					h6.2c0.4,0,0.8,0.3,0.8,0.8S28.8,42.9,28.4,42.9z"/>
			</g>
			<g id="XMLID_9_">
				<path id="XMLID_80_" class="st1" d="M28.4,48.3H17.4c-0.4,0-0.8-0.3-0.8-0.8v-5.3c0-0.4,0.3-0.8,0.8-0.8h4
					c0.4,0,0.8,0.3,0.8,0.8s-0.3,0.8-0.8,0.8h-3.2v3.8h10.2c0.4,0,0.8,0.3,0.8,0.8S28.8,48.3,28.4,48.3z"/>
			</g>
		</g>
	</g>
</g>
</svg>
