<?xml version="1.0" encoding="utf-8"?>
<!-- Generator: Adobe Illustrator 21.1.0, SVG Export Plug-In . SVG Version: 6.00 Build 0)  -->
<svg version="1.1" id="Layer_1" xmlns="http://www.w3.org/2000/svg" xmlns:xlink="http://www.w3.org/1999/xlink" x="0px" y="0px"
	 width="11.8px" height="11.6px" viewBox="0 0 11.8 11.6" style="enable-background:new 0 0 11.8 11.6;" xml:space="preserve">
<style type="text/css">
	.st0{fill:#FFFFFF;}
</style>
<g>
	<g>
		<polygon class="st0" points="5.8,8.2 2.6,4.6 3.8,3.6 5.8,5.9 10.6,0.6 11.8,1.6 		"/>
	</g>
	<g>
		<path class="st0" d="M5.8,11.6C2.6,11.6,0,9,0,5.8C0,2.6,2.6,0,5.8,0c0.5,0,1.1,0.1,1.6,0.2L7,1.7C6.6,1.6,6.2,1.5,5.8,1.5
			c-2.4,0-4.3,1.9-4.3,4.3c0,2.4,1.9,4.3,4.3,4.3c2.4,0,4.3-1.9,4.3-4.3h1.5C11.6,9,9,11.6,5.8,11.6z"/>
	</g>
</g>
</svg>
