<?xml version="1.0" encoding="utf-8"?>
<!-- Generator: Adobe Illustrator 21.1.0, SVG Export Plug-In . SVG Version: 6.00 Build 0)  -->
<svg version="1.1" id="Layer_1" xmlns="http://www.w3.org/2000/svg" xmlns:xlink="http://www.w3.org/1999/xlink" x="0px" y="0px"
	 width="317px" height="265.7px" viewBox="0 0 317 265.7" style="enable-background:new 0 0 317 265.7;" xml:space="preserve">
<style type="text/css">
	.st0{opacity:0.3;fill:url(#SVGID_1_);}
	.st1{opacity:0.65;fill:url(#SVGID_2_);}
	.st2{fill:url(#SVGID_3_);}
	.st3{opacity:0.8;fill:url(#SVGID_4_);}
	.st4{fill:#EFD17D;}
	.st5{fill:url(#SVGID_5_);}
	.st6{fill:url(#SVGID_6_);}
	.st7{opacity:0.2;fill:#2F2B70;}
	.st8{opacity:0.4;fill:none;stroke:#2F2B70;stroke-width:1.5446;stroke-miterlimit:10;}
	.st9{opacity:0.4;fill:#2F2B70;}
	.st10{font-family:'ProximaNova-Regular';}
	.st11{font-size:21.5771px;}
	.st12{opacity:0.4;}
	.st13{fill:#2F2B70;}
	.st14{fill:#2E2170;}
	.st15{fill:#2C56F2;}
	.st16{fill:none;stroke:#FFFFFF;stroke-width:0.7159;stroke-miterlimit:10;}
	.st17{fill:#FFFFFF;}
	.st18{fill:#B52656;}
	.st19{fill:#F0699C;}
	.st20{fill:none;stroke:#FFFFFF;stroke-width:0.7317;stroke-miterlimit:10;}
	.st21{fill-rule:evenodd;clip-rule:evenodd;fill:#FFFFFF;}
	.st22{fill:#AAEEFF;}
	.st23{fill:none;stroke:#2C56F2;stroke-width:1.7637;stroke-linecap:round;stroke-linejoin:round;stroke-miterlimit:10;}
	.st24{fill:url(#SVGID_7_);}
	.st25{fill:url(#SVGID_8_);}
	.st26{fill:url(#SVGID_9_);}
	.st27{opacity:0.8;fill:#FFFFFF;}
	.st28{font-family:'ProximaNova-Bold';}
	.st29{font-size:18.0173px;}
	.st30{opacity:0.4;fill:none;stroke:#2F2B70;stroke-width:3;stroke-linecap:round;stroke-linejoin:round;stroke-miterlimit:10;}
	.st31{display:none;}
	.st32{display:inline;}
	.st33{opacity:0.3;fill:url(#SVGID_10_);}
	.st34{opacity:0.65;fill:url(#SVGID_11_);}
	.st35{fill:url(#SVGID_12_);}
	.st36{display:inline;opacity:0.8;fill:url(#SVGID_13_);}
	.st37{display:inline;opacity:0.2;fill:#2F2B70;}
	.st38{display:inline;fill:#FFFFFF;}
	.st39{fill:none;stroke:#AAEEFF;stroke-width:1.5;stroke-linecap:round;stroke-miterlimit:10;}
	.st40{fill:none;stroke:#2C56F2;stroke-width:1.5;stroke-linecap:round;stroke-linejoin:round;stroke-miterlimit:10;}
	.st41{fill:none;stroke:#F0699C;stroke-width:1.5;stroke-linecap:round;stroke-linejoin:round;stroke-miterlimit:10;}
	.st42{fill:url(#SVGID_14_);}
	.st43{fill:url(#SVGID_15_);}
	.st44{fill:url(#SVGID_16_);}
	.st45{fill:none;stroke:#2C56F2;stroke-width:0.8547;stroke-linejoin:round;stroke-miterlimit:10;}
	.st46{fill:none;stroke:#AAEEFF;stroke-width:1.1586;stroke-linejoin:round;stroke-miterlimit:10;}
	.st47{fill:url(#SVGID_17_);}
	.st48{fill:none;stroke:#F0699C;stroke-width:1.1586;stroke-linejoin:round;stroke-miterlimit:10;}
	.st49{fill:url(#SVGID_18_);}
	.st50{fill:none;stroke:#EFD17D;stroke-width:1.1586;stroke-linecap:round;stroke-linejoin:round;stroke-miterlimit:10;}
	.st51{fill:url(#SVGID_19_);}
	.st52{display:inline;fill:url(#SVGID_20_);}
	.st53{display:inline;fill:url(#SVGID_21_);}
	.st54{fill:url(#SVGID_22_);}
	.st55{fill:#CE9B1D;}
	.st56{fill:url(#SVGID_23_);}
	.st57{fill:url(#SVGID_24_);}
</style>
<g>
	<g>
		<linearGradient id="SVGID_1_" gradientUnits="userSpaceOnUse" x1="256.2567" y1="55.0671" x2="-42.7433" y2="293.0671">
			<stop  offset="0" style="stop-color:#FB79B1"/>
			<stop  offset="0.6324" style="stop-color:#3F40B4"/>
			<stop  offset="0.7332" style="stop-color:#3D379B"/>
			<stop  offset="0.9459" style="stop-color:#38215D"/>
			<stop  offset="1" style="stop-color:#371B4C"/>
		</linearGradient>
		<path class="st0" d="M208.6,265.7c16.9,0,34.3-3.3,48.6-12.6c20.6-13.4,40.3-32.2,43.3-57.9c1.3-11.1-0.6-22.3-1.3-33.5
			c-2.1-31.5,18-56.8,18-88C317.2,12.4,275.4,0,240,0c-50.9,0-60.2,0-92.3,0c-27.6,0-56.4,0.8-82.6,10.6
			c-17.1,6.4-27.5,20.2-33,37.3c-4,12.3-8.1,23-14.5,34.2c-4.8,8.3-9.9,17.7-12.2,27C0.1,130.8,0,151,0,173.2
			c0,35.9,20.2,92.4,82.5,92.4C136.1,265.7,175.9,265.7,208.6,265.7z"/>
		<linearGradient id="SVGID_2_" gradientUnits="userSpaceOnUse" x1="355.4847" y1="63.4743" x2="-271.907" y2="287.3239">
			<stop  offset="0" style="stop-color:#FB79B1"/>
			<stop  offset="0.6324" style="stop-color:#3F40B4"/>
			<stop  offset="0.7332" style="stop-color:#3D379B"/>
			<stop  offset="0.9459" style="stop-color:#38215D"/>
			<stop  offset="1" style="stop-color:#371B4C"/>
		</linearGradient>
		<path class="st1" d="M46.5,42.1c9.3-12.4,20.6-20.3,35.7-23c7.8-1.4,15.8-1.9,24-2.1c16.5-0.4,33.3-0.2,49.6-2.5
			c24-3.4,37.8-5.4,72.1-5.4c16,0,32.9,3.2,46,13.2c11,8.3,18.9,20.7,23.1,38.6c2.7,11.7,4.6,23.3,4,35.1
			c-0.8,15.3-3.2,30.7-2.5,47.1c0.4,11.4,1.1,23.4-0.6,34.9c-0.3,2.1-0.7,4.2-1.2,6.2c-1.8,7.9-4.8,15.3-8.7,22.2
			c-7.9,13.7-19.6,25.2-32.9,33.8c-10.7,7-22.6,9.4-35.2,11.1c-13.9,1.9-28.1,2.3-42.1,2.3c-11.4,0-23.2-0.6-35.6-0.4
			c-9.1,0.2-18.4-0.3-27.9-1.6c-17.3-2.4-33.8-9.1-50.3-15.1c-38.3-13.9-50.1-51.7-49.3-82.2c0.5-16.9,1.4-32.8,4.6-49.5
			c1.9-10,4.9-20.2,8.8-29.4C33.2,63.5,38.7,52.5,46.5,42.1z"/>
		<linearGradient id="SVGID_3_" gradientUnits="userSpaceOnUse" x1="434.7648" y1="126.7681" x2="-449.2808" y2="138.385">
			<stop  offset="0" style="stop-color:#FB79B1"/>
			<stop  offset="0.6324" style="stop-color:#3F40B4"/>
			<stop  offset="0.7332" style="stop-color:#3D379B"/>
			<stop  offset="0.9459" style="stop-color:#38215D"/>
			<stop  offset="1" style="stop-color:#371B4C"/>
		</linearGradient>
		<path class="st2" d="M147,241.7c-11.2,0-22.4-1.1-33.6-0.7c-8.8,0.3-17.7-0.7-26.2-3.2c-17-5-31.5-16-41.8-30.3
			C22,175,28.9,137.7,33.1,100.7c2.8-24,6-49.8,27.8-64.3c18.9-12.6,38.8-9.2,59.8-5.9c14.7,2.3,29.2,3.7,43.2-1.5
			c26.9-9.9,59.7-16.8,86.4-2.7c10.2,5.4,19.7,12.6,26.4,22.1c6.6,9.4,13.1,20.4,16,31.5c3.8,14.6,4.8,29.9,4.9,44.9
			c0.1,13.9-0.6,29.2-3.8,42.7c-1.9,8.1-4.7,16-8.4,23.4c-7.4,14.9-18.7,27.5-32.5,36.7c-14.8,9.7-31.1,11.3-48.5,12.7
			C185.3,241.8,166.2,241.7,147,241.7z"/>
	</g>
	<linearGradient id="SVGID_4_" gradientUnits="userSpaceOnUse" x1="148.8962" y1="204.4014" x2="148.8962" y2="47.3505">
		<stop  offset="0" style="stop-color:#F2F2F2;stop-opacity:0"/>
		<stop  offset="1" style="stop-color:#F2F2F2"/>
	</linearGradient>
	<path class="st3" d="M65.3,87.5l167.8-40.1c0.7-0.2,1.5,0.4,1.5,1.2v113c0,1.3-0.9,2.4-2.1,2.7L64.7,204.4
		c-0.7,0.2-1.5-0.4-1.5-1.2v-113C63.2,88.9,64.1,87.8,65.3,87.5z"/>
	<g>
		<polygon class="st4" points="284.9,107.9 261.6,113.5 241.1,103.5 264.4,98 		"/>
		<linearGradient id="SVGID_5_" gradientUnits="userSpaceOnUse" x1="251.3427" y1="153.7845" x2="251.3427" y2="103.5332">
			<stop  offset="0" style="stop-color:#EFD17D;stop-opacity:0"/>
			<stop  offset="1" style="stop-color:#EFBA7D"/>
		</linearGradient>
		<polygon class="st5" points="261.6,113.5 261.6,153.8 241.1,143.9 241.1,103.5 		"/>
		<linearGradient id="SVGID_6_" gradientUnits="userSpaceOnUse" x1="273.2448" y1="153.7845" x2="273.2448" y2="107.8927">
			<stop  offset="0" style="stop-color:#EFD17D;stop-opacity:0"/>
			<stop  offset="1" style="stop-color:#EFD17D"/>
		</linearGradient>
		<polygon class="st6" points="284.9,107.9 261.6,113.5 261.6,153.8 284.9,148.2 		"/>
	</g>
	<polygon class="st7" points="153.6,79.6 76.8,98 76.8,103.5 153.6,85.2 	"/>
	<polygon class="st7" points="153.6,90.8 76.8,109.1 76.8,114.7 153.6,96.3 	"/>
	<g>
		<path class="st8" d="M134.6,114l-56.4,13.5c-0.9,0.2-1.6,1.1-1.6,2v21.9c0,0.7,0.6,1.2,1.3,1l56.4-13.5c0.9-0.2,1.6-1.1,1.6-2V115
			C135.8,114.3,135.2,113.8,134.6,114z"/>
		<text transform="matrix(1 -0.2366 0 1 89.2514 144.5578)" class="st9 st10 st11">СIN</text>
	</g>
	<g>
		<path class="st8" d="M134.6,150.3l-56.4,13.5c-0.9,0.2-1.6,1.1-1.6,2v21.9c0,0.7,0.6,1.2,1.3,1l56.4-13.5c0.9-0.2,1.6-1.1,1.6-2
			v-21.9C135.8,150.6,135.2,150.1,134.6,150.3z"/>
	</g>
	<g>
		<path class="st8" d="M205.4,96.7L149,110.2c-0.9,0.2-1.6,1.1-1.6,2v21.9c0,0.7,0.6,1.2,1.3,1l56.4-13.5c0.9-0.2,1.6-1.1,1.6-2
			V97.7C206.7,97,206,96.5,205.4,96.7z"/>
		<g class="st12">
			<text transform="matrix(1 -0.2366 0 1 160.0644 127.2511)" class="st13 st10 st11">PIN</text>
		</g>
	</g>
	<g>
		<g>
			<g>
				<g>
					<g>
						<g>
							<path class="st14" d="M204.7,76.5c-1.6-3.5-4-6.2-7-7.7c-1.1-0.6-2.3-0.9-3.6-1.1c-8.3-1-16.2,7.5-17.6,18.9
								c-1.4,11.5,4.2,21.6,12.6,22.6c8.3,1,16.2-7.5,17.6-18.9C207.3,85.2,206.5,80.4,204.7,76.5z"/>
							<path class="st15" d="M207,76.4c-1.6-3.5-4-6.2-7-7.7c-1.1-0.6-2.3-0.9-3.6-1.1c-8.3-1-16.2,7.5-17.6,18.9
								c-1.4,11.5,4.2,21.6,12.6,22.6c8.3,1,16.2-7.5,17.6-18.9C209.5,85.1,208.8,80.3,207,76.4z"/>
						</g>
					</g>
				</g>
			</g>
		</g>
		<g id="XMLID_1777_">
			
				<ellipse id="XMLID_1915_" transform="matrix(0.1033 -0.9947 0.9947 0.1033 85.74 272.27)" class="st16" cx="193.9" cy="88.6" rx="17.4" ry="12"/>
			<g>
				<path id="XMLID_1787_" class="st17" d="M201.9,82.7c-0.6,0.3-1.2,0.5-1.8,0.5c0.7-0.5,1.3-1.3,1.6-2.3c-0.6,0.4-1.3,0.7-2,0.9
					c-0.5-0.9-1.2-1.5-2.1-1.6c-1.7-0.2-3.2,1.6-3.5,4.1c0,0.3,0,0.7,0,1c-2.5-0.4-4.5-2.4-5.8-5.2c-0.3,0.6-0.6,1.4-0.6,2.2
					c-0.2,1.5,0.2,2.9,1,3.8c-0.5-0.1-0.9-0.3-1.3-0.7c0,0,0,0,0,0.1c-0.2,2.1,0.6,4,2,4.6c-0.3,0.1-0.5,0.1-0.8,0.1
					c-0.2,0-0.4-0.1-0.6-0.1c0.2,1.8,1.2,3.2,2.5,3.3c-1.2,1.1-2.5,1.6-4,1.5c-0.2,0-0.5-0.1-0.7-0.1c1.2,1.4,2.7,2.3,4.4,2.5
					c5.6,0.6,9.3-5.8,9.9-11.6c0-0.2,0-0.4,0-0.6C200.8,84.3,201.4,83.6,201.9,82.7L201.9,82.7z M201.9,82.7"/>
			</g>
		</g>
	</g>
	<g>
		<g>
			<g>
				<g>
					<g>
						<g>
							<path class="st18" d="M243.9,46.9c-1.6-3.5-4-6.2-7-7.7c-1.1-0.6-2.3-0.9-3.6-1.1c-8.3-1-16.2,7.5-17.6,18.9
								c-1.4,11.5,4.2,21.6,12.6,22.6c8.3,1,16.2-7.5,17.6-18.9C246.4,55.7,245.7,50.8,243.9,46.9z"/>
							<path class="st19" d="M246.1,46.9c-1.6-3.5-4-6.2-7-7.7c-1.1-0.6-2.3-0.9-3.6-1.1c-8.3-1-16.2,7.5-17.6,18.9
								c-1.4,11.5,4.2,21.6,12.6,22.6c8.3,1,16.2-7.5,17.6-18.9C248.7,55.6,247.9,50.8,246.1,46.9z"/>
						</g>
					</g>
				</g>
			</g>
		</g>
		
			<ellipse id="XMLID_1365_" transform="matrix(8.437069e-02 -0.9964 0.9964 8.437069e-02 154.5428 286.0573)" class="st20" cx="232.9" cy="58.9" rx="17.7" ry="12.4"/>
		<g>
			<path id="XMLID_30_" class="st21" d="M241.3,52.6c0-1.8-1-3.1-2.3-2.8l-10.7,2.5c-1.3,0.3-2.3,2-2.3,3.9l0,8.9
				c0,1.8,1,3.1,2.3,2.8l10.7-2.5c1.3-0.3,2.3-2,2.3-3.9L241.3,52.6z M232.1,63l0-8.4l4.3,3.1L232.1,63z M232.1,63"/>
		</g>
	</g>
	<g>
		<g>
			<g>
				<path class="st13" d="M236.7,94.9c-0.8-1.9-2.1-3.5-3.7-4.3c-0.6-0.3-1.3-0.5-2-0.6c-4.6-0.7-9,3.9-9.9,10.1
					c-0.9,6.3,2,11.9,6.6,12.6c4.6,0.7,9-3.9,9.9-10.1C237.9,99.8,237.6,97.1,236.7,94.9z"/>
				<path class="st22" d="M237.9,94.9c-0.8-1.9-2.1-3.5-3.7-4.3c-0.6-0.3-1.3-0.5-2-0.6c-4.6-0.7-9,3.9-9.9,10.1
					c-0.9,6.3,2,11.9,6.6,12.6c4.6,0.7,9-3.9,9.9-10.1C239.2,99.8,238.8,97.1,237.9,94.9z"/>
			</g>
		</g>
		<polyline class="st23" points="229.3,96.6 233.3,101.3 230.5,106.7 		"/>
	</g>
	<linearGradient id="SVGID_7_" gradientUnits="userSpaceOnUse" x1="45.0223" y1="148.4955" x2="50.1138" y2="148.4955">
		<stop  offset="0" style="stop-color:#EFD17D;stop-opacity:0"/>
		<stop  offset="1" style="stop-color:#EFD17D"/>
	</linearGradient>
	<circle class="st24" cx="47.6" cy="148.5" r="2.5"/>
	<linearGradient id="SVGID_8_" gradientUnits="userSpaceOnUse" x1="70.6543" y1="61.925" x2="85.3233" y2="61.925">
		<stop  offset="0" style="stop-color:#EFD17D;stop-opacity:0"/>
		<stop  offset="1" style="stop-color:#EFD17D"/>
	</linearGradient>
	<circle class="st25" cx="78" cy="61.9" r="7.3"/>
	<circle class="st17" cx="233.9" cy="211.5" r="0.8"/>
	<circle class="st17" cx="130.9" cy="56.9" r="0.8"/>
	<circle class="st17" cx="198.8" cy="44.7" r="0.8"/>
	<circle class="st17" cx="104" cy="221.1" r="0.8"/>
	<circle class="st17" cx="48.9" cy="104.5" r="0.8"/>
	<circle class="st17" cx="52.7" cy="162.8" r="0.8"/>
	<circle class="st17" cx="282.4" cy="153.3" r="0.8"/>
	<circle class="st17" cx="263.8" cy="78.2" r="0.8"/>
	<circle class="st17" cx="56.6" cy="70.6" r="0.8"/>
	<circle class="st17" cx="271" cy="170.5" r="0.8"/>
	<circle class="st17" cx="220.3" cy="223" r="1.3"/>
	<circle class="st17" cx="47.6" cy="178" r="1.3"/>
	<circle class="st17" cx="282.4" cy="91.7" r="1.3"/>
	<circle class="st17" cx="216.3" cy="36.5" r="1.3"/>
	<circle class="st17" cx="78" cy="42.1" r="1.3"/>
	<circle class="st17" cx="150.9" cy="229" r="1.3"/>
	<linearGradient id="SVGID_9_" gradientUnits="userSpaceOnUse" x1="94.1137" y1="49.4008" x2="98.2424" y2="55.7659">
		<stop  offset="0" style="stop-color:#F0699C;stop-opacity:0"/>
		<stop  offset="1" style="stop-color:#F0699C"/>
	</linearGradient>
	<circle class="st26" cx="95.9" cy="52.2" r="3.2"/>
	<g>
		<path class="st27" d="M148.9,145.5L249,121.6c0.4-0.1,0.9,0.2,0.9,0.7v67.5c0,0.8-0.5,1.4-1.3,1.6l-100.1,23.9
			c-0.4,0.1-0.9-0.2-0.9-0.7v-67.5C147.6,146.4,148.1,145.7,148.9,145.5z"/>
		<path class="st19" d="M189.1,186.2l19.3-4.6c1.9-0.4,3.6,1,3.6,2.9v1.9c0,2.1-1.5,4-3.5,4.5l-19.3,4.6c-1.9,0.4-3.6-1-3.6-2.9
			v-1.9C185.5,188.5,187,186.7,189.1,186.2z"/>
		<text transform="matrix(1 -0.2366 0 1 169.9027 174.2132)" class="st15 st28 st29">https://</text>
	</g>
	<g>
		<path class="st22" d="M98.8,100.8c-1.4-3.2-3.5-5.7-6.1-7c-1-0.5-2.1-0.9-3.2-1.1C82,91.6,74.8,99,73.3,109.3
			c-1.5,10.3,3.3,19.5,10.8,20.6c7.5,1.1,14.7-6.4,16.2-16.6C101,108.7,100.4,104.3,98.8,100.8z"/>
		<path class="st17" d="M100.9,100.8c-1.4-3.2-3.5-5.7-6.1-7c-1-0.5-2.1-0.9-3.2-1.1c-7.5-1.1-14.7,6.3-16.2,16.6
			c-1.5,10.3,3.3,19.5,10.8,20.6c7.5,1.1,14.7-6.4,16.2-16.6C103,108.7,102.4,104.3,100.9,100.8z"/>
		<polyline class="st30" points="82.6,113.1 87.8,117.7 95.5,104.9 		"/>
	</g>
</g>
<g class="st31">
	<g class="st32">
		<linearGradient id="SVGID_10_" gradientUnits="userSpaceOnUse" x1="259.8022" y1="58.8657" x2="-36.1776" y2="294.4617">
			<stop  offset="0" style="stop-color:#FB79B1"/>
			<stop  offset="0.6324" style="stop-color:#3F40B4"/>
			<stop  offset="0.7332" style="stop-color:#3D379B"/>
			<stop  offset="0.9459" style="stop-color:#38215D"/>
			<stop  offset="1" style="stop-color:#371B4C"/>
		</linearGradient>
		<path class="st33" d="M229.4,265.7c22.2,0,27.3-3.7,44.5-12.9c25.5-13.5,41.4-45.4,28.5-73.4c-4.5-9.8-4.2-21.4-2.9-32.1
			c3.2-25.2,17.4-47.9,17.4-73.7C317,12.4,275.3,0,239.9,0c-50.9,0-60.2,0-92.3,0C119.9,0,91.1,0.8,65,10.6
			c-17.1,6.4-27.5,20.2-33,37.3c-4,12.3-14.1,34.5-17.4,43.5C6.3,113.8,0,150,0,172.2c0,21,4.8,43,20.3,57.7
			c18.2,17.2,42,29.9,67.4,32.2c29.7,2.7,59.4-2.9,89.1-2.3c7.3,0.1,14.6,0.8,21.7,2.2C202.2,262.8,220.4,265.7,229.4,265.7z"/>
		<linearGradient id="SVGID_11_" gradientUnits="userSpaceOnUse" x1="355.8259" y1="63.5358" x2="-275.6195" y2="288.8316">
			<stop  offset="0" style="stop-color:#FB79B1"/>
			<stop  offset="0.6324" style="stop-color:#3F40B4"/>
			<stop  offset="0.7332" style="stop-color:#3D379B"/>
			<stop  offset="0.9459" style="stop-color:#38215D"/>
			<stop  offset="1" style="stop-color:#371B4C"/>
		</linearGradient>
		<path class="st34" d="M41.6,47.7c6.2-12.9,16.5-23.4,30.3-29c4.6-1.9,9.2-3.4,13.8-4.7c17.9-4.9,36.7-6,55.1-6.7
			c25.9-1,40.5-1.1,75.9-0.9c31.1,0.2,61.3,8.1,77.5,45.9c7.8,18.2,9.9,38.1,7.2,58.7c-1.3,10.1-3,20.3-4.1,30.5
			c-0.9,9-1.4,18.8,0.5,27.7c5.3,24.5-4.7,50.9-24.3,65.5c-15.9,11.8-29.2,16.4-50.6,17.7c-3.4,0.2-7.1,0.3-10.9,0.3
			c-9.2-0.1-19-0.5-25-0.9c-8.4-0.4-16.8-1-25.3-1c-13.9-0.2-27.7,0.1-41.5,0.7c-11.2,0.6-22.3,0.2-33.2-1.8
			c-20.9-3.7-40.3-15.1-54.3-31c-15-17-19-40-18.4-62.4c0.4-17.5,2.7-39.6,7.2-58.7c1-4.3,2.2-8.5,3.5-12.4
			C28.6,75.1,36.4,58.7,41.6,47.7z"/>
		<linearGradient id="SVGID_12_" gradientUnits="userSpaceOnUse" x1="435.1666" y1="123.6347" x2="-449.9619" y2="135.2658">
			<stop  offset="0" style="stop-color:#FB79B1"/>
			<stop  offset="0.6324" style="stop-color:#3F40B4"/>
			<stop  offset="0.7332" style="stop-color:#3D379B"/>
			<stop  offset="0.9459" style="stop-color:#38215D"/>
			<stop  offset="1" style="stop-color:#371B4C"/>
		</linearGradient>
		<path class="st35" d="M146.9,241.7c-11.2,0-22.4-1.1-33.6-0.7c-26.8,1-52.2-11.6-67.9-33.4c-14.2-19.7-17.6-43.4-16.4-67.1
			c0.8-16.9,1.2-34,4.4-50.7c2.8-15.1,9-29.8,18-42.3c8.6-12,24.9-20.6,38.7-25.1c14.3-4.7,29.3-6.4,44.2-7.9
			c19.7-2,39.6-2.2,59.4-1.9c26.8,0.4,56,0.2,77.8,18.2c20.2,16.6,26.2,42.9,26,67.9c-0.1,12.3-1.4,24.6-2.4,36.8
			c-2.2,26.7-2.3,60.1-21.8,80.9c-17,18.1-45.5,21.9-69,23.8C185.2,241.8,166,241.7,146.9,241.7z"/>
	</g>
	<linearGradient id="SVGID_13_" gradientUnits="userSpaceOnUse" x1="138.1239" y1="195.8884" x2="138.1239" y2="38.8376">
		<stop  offset="0" style="stop-color:#F2F2F2;stop-opacity:0"/>
		<stop  offset="1" style="stop-color:#F2F2F2"/>
	</linearGradient>
	<path class="st36" d="M54.5,79l167.8-40.1c0.7-0.2,1.5,0.4,1.5,1.2v113c0,1.3-0.9,2.4-2.1,2.7L53.9,195.9c-0.7,0.2-1.5-0.4-1.5-1.2
		v-113C52.4,80.4,53.3,79.3,54.5,79z"/>
	<polygon class="st37" points="153.3,70.9 76.5,89.3 76.5,94.9 153.3,76.5 	"/>
	<polygon class="st37" points="153.3,83.4 76.5,101.7 76.5,107.3 153.3,89 	"/>
	<g class="st32">
		<g>
			<g>
				<path class="st13" d="M230.4,91.2c-0.8-1.9-2.1-3.5-3.7-4.3c-0.6-0.3-1.3-0.5-2-0.6c-4.6-0.7-9,3.9-9.9,10.1
					c-0.9,6.3,2,11.9,6.6,12.6c4.6,0.7,9-3.9,9.9-10.1C231.7,96.1,231.3,93.4,230.4,91.2z"/>
				<path class="st22" d="M231.6,91.2c-0.8-1.9-2.1-3.5-3.7-4.3c-0.6-0.3-1.3-0.5-2-0.6c-4.6-0.7-9,3.9-9.9,10.1
					c-0.9,6.3,2,11.9,6.6,12.6c4.6,0.7,9-3.9,9.9-10.1C232.9,96.1,232.6,93.4,231.6,91.2z"/>
			</g>
		</g>
		<polyline class="st23" points="223,92.9 227,97.7 224.3,103 		"/>
	</g>
	<circle class="st38" cx="96" cy="57.4" r="0.8"/>
	<circle class="st38" cx="166.5" cy="38.1" r="0.8"/>
	<circle class="st38" cx="241.2" cy="44.6" r="0.8"/>
	<circle class="st38" cx="277.3" cy="132.6" r="0.8"/>
	<circle class="st38" cx="248.5" cy="104.2" r="0.8"/>
	<circle class="st38" cx="111.5" cy="207.5" r="0.8"/>
	<circle class="st38" cx="41.2" cy="168.1" r="0.8"/>
	<circle class="st38" cx="42" cy="129.6" r="0.8"/>
	<circle class="st38" cx="147.1" cy="226.7" r="0.8"/>
	<circle class="st38" cx="263.6" cy="165.6" r="0.8"/>
	<circle class="st38" cx="267.7" cy="78.2" r="0.8"/>
	<path class="st37" d="M272.2,209l-93.1,22.3c-2,0.5-4.1,0.2-5.9-0.6l-49.3-24c-1.3-0.6-1.1-2.5,0.3-2.8l93.1-22.3
		c2-0.5,4.1-0.2,5.9,0.6l49.3,24C273.8,206.8,273.6,208.7,272.2,209z"/>
	<circle class="st38" cx="81.9" cy="46.7" r="1.3"/>
	<circle class="st38" cx="253.3" cy="33.7" r="1.3"/>
	<circle class="st38" cx="243.4" cy="146.6" r="1.3"/>
	<circle class="st38" cx="99.9" cy="218" r="1.3"/>
	<circle class="st38" cx="34.8" cy="145.3" r="1.3"/>
	<g class="st32">
		<path class="st7" d="M172.6,82.2l20.5-4.9c0.1,0,0.2,0,0.2,0.1v2c0,0.2-0.1,0.3-0.3,0.3l-20.5,4.9c-0.1,0-0.2,0-0.2-0.1v-2
			C172.3,82.4,172.4,82.2,172.6,82.2z"/>
		<path class="st7" d="M172.6,74.9L193,70c0.1,0,0.2,0,0.2,0.1v2c0,0.2-0.1,0.3-0.3,0.3l-20.5,4.9c-0.1,0-0.2,0-0.2-0.1v-2
			C172.3,75,172.4,74.9,172.6,74.9z"/>
		<path class="st7" d="M172.6,67.5l20.5-4.9c0.1,0,0.2,0,0.2,0.1v2c0,0.2-0.1,0.3-0.3,0.3l-20.5,4.9c-0.1,0-0.2,0-0.2-0.1v-2
			C172.3,67.7,172.4,67.5,172.6,67.5z"/>
		<circle class="st22" cx="167.1" cy="85.7" r="2"/>
		<circle class="st19" cx="167.1" cy="77.8" r="2"/>
		<circle class="st4" cx="167.1" cy="69.9" r="2"/>
	</g>
	<g class="st32">
		<path class="st17" d="M77.1,120.9l43.6-10.4c0.2,0,0.4,0.1,0.4,0.3v36c0,0.3-0.2,0.6-0.6,0.7L77,157.9c-0.2,0-0.4-0.1-0.4-0.3v-36
			C76.6,121.3,76.8,121,77.1,120.9z"/>
		<path class="st39" d="M79.6,130c5.9,1,6.5,5.7,11.8,4.3c5.5-0.9,5.3-5.4,11.1-6.4c6.6-1.2,12.8,7.8,15.6,9.4"/>
		<path class="st40" d="M79.6,132.6c2.2-0.6,2.7,8.6,8.3,7.4c4.3-0.9,4-8.6,8.6-9.8c4.6-1.3,4,4.6,10.8,4.8
			c4.2-0.6,5.3,5.2,10.7,4.1"/>
		<path class="st41" d="M79.6,146.4c2.9,1.2,3.6,4,7.8,2.9c6.1-1.6,6.9-9.4,12.5-10.3c9.1-1.5,5.3-10.8,18.2-13.9"/>
		<g>
			<path class="st15" d="M92.5,157.1l-0.5,0.1c-0.2,0-0.3,0.2-0.3,0.4v0.9c0,0.2,0.2,0.3,0.3,0.3l0.5-0.1c0.2,0,0.3-0.2,0.3-0.4
				v-0.9C92.8,157.2,92.6,157.1,92.5,157.1z"/>
			<path class="st19" d="M92.5,160.1l-0.5,0.1c-0.2,0-0.3,0.2-0.3,0.4v0.9c0,0.2,0.2,0.3,0.3,0.3l0.5-0.1c0.2,0,0.3-0.2,0.3-0.4
				v-0.9C92.8,160.2,92.6,160,92.5,160.1z"/>
			<path class="st7" d="M93.9,156.9l12-2.9c0.1,0,0.1,0,0.1,0.1v1.2c0,0.1-0.1,0.2-0.2,0.2l-12,2.9c-0.1,0-0.1,0-0.1-0.1v-1.2
				C93.8,157,93.8,156.9,93.9,156.9z"/>
			<path class="st7" d="M93.9,159.7l12-2.9c0.1,0,0.1,0,0.1,0.1v1.2c0,0.1-0.1,0.2-0.2,0.2l-12,2.9c-0.1,0-0.1,0-0.1-0.1v-1.2
				C93.8,159.8,93.8,159.7,93.9,159.7z"/>
			<path class="st22" d="M92.5,163.3l-0.5,0.1c-0.2,0-0.3,0.2-0.3,0.4v0.9c0,0.2,0.2,0.3,0.3,0.3l0.5-0.1c0.2,0,0.3-0.2,0.3-0.4
				v-0.9C92.8,163.4,92.6,163.3,92.5,163.3z"/>
			<path class="st7" d="M93.9,163l12-2.9c0.1,0,0.1,0,0.1,0.1v1.2c0,0.1-0.1,0.2-0.2,0.2l-12,2.9c-0.1,0-0.1,0-0.1-0.1v-1.2
				C93.8,163.1,93.8,163,93.9,163z"/>
		</g>
	</g>
	<g class="st32">
		<path class="st17" d="M205.2,90.7v45.7c0,0.5-0.4,1-0.9,1.1l-67.9,16.2c-0.3,0.1-0.6-0.2-0.6-0.5v-45.7c0-0.5,0.4-1,0.9-1.1
			l67.9-16.2C204.9,90.1,205.2,90.4,205.2,90.7z"/>
		<linearGradient id="SVGID_14_" gradientUnits="userSpaceOnUse" x1="170.5427" y1="145.3068" x2="170.5427" y2="116.0682">
			<stop  offset="0" style="stop-color:#2C56F2;stop-opacity:0"/>
			<stop  offset="1" style="stop-color:#2C56F2"/>
		</linearGradient>
		<path class="st42" d="M142,120.3c6.7-0.9,8.6,5.3,15.3,4.7c6.7-0.6,6.5-7.6,15.5-8.9c5.5-0.8,9.1,6.8,14,5.8
			c8-1.6,12.3,9.7,12.3,9.7l-57,13.6V120.3z"/>
		<linearGradient id="SVGID_15_" gradientUnits="userSpaceOnUse" x1="170.5427" y1="145.3068" x2="170.5427" y2="119.1786">
			<stop  offset="0" style="stop-color:#EFD17D;stop-opacity:0"/>
			<stop  offset="1" style="stop-color:#EFD17D"/>
		</linearGradient>
		<path class="st43" d="M142,125.1c6.5-1.6,5.5,5.7,10,4.5s6.9-9.3,11-10.3s7.9,5.5,11.9,4.9c5.5-0.8,6.7,6.4,11.5,5.4
			c7.5-1.5,12.6,2.1,12.6,2.1l-57,13.6V125.1z"/>
		<circle class="st15" cx="142" cy="113.8" r="1.5"/>
		<linearGradient id="SVGID_16_" gradientUnits="userSpaceOnUse" x1="163.0396" y1="145.3068" x2="163.0396" y2="129.5735">
			<stop  offset="0" style="stop-color:#F0699C;stop-opacity:0"/>
			<stop  offset="1" style="stop-color:#F0699C"/>
		</linearGradient>
		<path class="st44" d="M142,129.6c4.5-0.8,9.7,7.9,13.9,6.9s8-4.4,13.2-5.8c5.2-1.4,14.9,4.6,14.9,4.6l-42,10.1V129.6z"/>
		<polyline class="st45" points="200.9,131.2 142,145.3 142,113.8 		"/>
		<circle class="st15" cx="200.9" cy="131.1" r="1.5"/>
	</g>
	<g class="st32">
		<polygon class="st13" points="277.3,194.4 277.3,192.6 275.9,193.3 		"/>
		<polygon class="st13" points="119.1,192.2 119.1,190.4 120.1,191.3 		"/>
		<path class="st13" d="M276.1,196l-97.9,23.4c-2.1,0.5-4.3,0.3-6.2-0.7L120,193.6c-1.3-0.7-1.1-2.6,0.3-3l98-23.4
			c2.1-0.5,4.3-0.3,6.2,0.7l51.8,25.2C277.7,193.7,277.5,195.7,276.1,196z"/>
		<path class="st15" d="M276.1,194.3l-97.9,23.4c-2.1,0.5-4.3,0.3-6.2-0.7L120,191.9c-1.3-0.7-1.1-2.6,0.3-3l98-23.4
			c2.1-0.5,4.3-0.3,6.2,0.7l51.8,25.2C277.7,192,277.5,194,276.1,194.3z"/>
		<g>
			<g>
				<polyline class="st46" points="231,179.8 151.1,198.9 151.1,156.2 				"/>
				<linearGradient id="SVGID_17_" gradientUnits="userSpaceOnUse" x1="189.7359" y1="198.924" x2="189.7359" y2="157.0929">
					<stop  offset="0" style="stop-color:#AAEEFF;stop-opacity:0"/>
					<stop  offset="1" style="stop-color:#AAEEFF"/>
				</linearGradient>
				<path class="st47" d="M151.1,181.7c8.8-2.1,7.4,4.6,13.6,3c6.1-1.6,12.4-16.9,18-18.2c6.8-1.6,7.4,2.4,12.8,1.6
					c7.5-1.1,6.4-9.7,13-10.9c6.4-1.2,19.9,23.3,19.9,23.3l-77.3,18.5V181.7z"/>
				<circle class="st22" cx="151.1" cy="156.2" r="2"/>
				<circle class="st22" cx="231" cy="179.7" r="2"/>
			</g>
			<g>
				<polyline class="st48" points="239.2,183.9 159.3,203 159.3,160.3 				"/>
				<linearGradient id="SVGID_18_" gradientUnits="userSpaceOnUse" x1="197.9955" y1="202.967" x2="197.9955" y2="166.4131">
					<stop  offset="0" style="stop-color:#F0699C;stop-opacity:0"/>
					<stop  offset="1" style="stop-color:#F0699C"/>
				</linearGradient>
				<path class="st49" d="M159.3,175.5c8.8-2.1,7.4,7.7,13.6,6.1c6.1-1.6,10.5-12.4,16.1-13.6c7.6-1.6,12.8,5.6,18.2,4.8
					c7.5-1.1,6.5-5,13-6.3c6.4-1.3,16.4,18,16.4,18L159.3,203V175.5z"/>
				<circle class="st19" cx="159.3" cy="160.3" r="2"/>
				<circle class="st19" cx="239.2" cy="183.7" r="2"/>
			</g>
			<g>
				<polyline class="st50" points="248.5,188.4 168.6,207.5 168.6,164.9 				"/>
				<linearGradient id="SVGID_19_" gradientUnits="userSpaceOnUse" x1="207.2321" y1="207.5388" x2="207.2321" y2="168.1357">
					<stop  offset="0" style="stop-color:#EFD17D;stop-opacity:0"/>
					<stop  offset="1" style="stop-color:#EFD17D"/>
				</linearGradient>
				<path class="st51" d="M168.6,194.7c8.8-2.1,9.9-9.4,16.1-11s8.4-7.8,14-9.2s9.9,6,15.3,5.1c7.5-1.1,8.7-9.4,15-11.4
					s17,20.8,17,20.8l-77.3,18.5V194.7z"/>
				<circle class="st4" cx="168.6" cy="164.9" r="2"/>
				<circle class="st4" cx="248.5" cy="188.3" r="2"/>
			</g>
		</g>
	</g>
	<linearGradient id="SVGID_20_" gradientUnits="userSpaceOnUse" x1="257.7211" y1="101.9609" x2="292.4711" y2="124.9609">
		<stop  offset="0" style="stop-color:#AAEEFF;stop-opacity:0"/>
		<stop  offset="1" style="stop-color:#AAEEFF"/>
	</linearGradient>
	<circle class="st52" cx="268.5" cy="109.1" r="4.9"/>
	<linearGradient id="SVGID_21_" gradientUnits="userSpaceOnUse" x1="111.4137" y1="41.373" x2="119.3614" y2="53.6257">
		<stop  offset="0" style="stop-color:#F0699C;stop-opacity:0"/>
		<stop  offset="1" style="stop-color:#F0699C"/>
	</linearGradient>
	<circle class="st53" cx="114.9" cy="46.7" r="6.2"/>
	<g class="st32">
		<linearGradient id="SVGID_22_" gradientUnits="userSpaceOnUse" x1="259.245" y1="72.6909" x2="232.1056" y2="85.8556">
			<stop  offset="0" style="stop-color:#F0699C;stop-opacity:0"/>
			<stop  offset="1" style="stop-color:#F03B9C"/>
		</linearGradient>
		<path class="st54" d="M257.2,82.1v6.4c-0.2,0-0.4-0.1-0.6-0.1c-0.2-0.1-0.4-0.2-0.7-0.3l-21.7-10.5c-0.7-0.4-1.2-1.1-1.2-1.9v-5.1
			L257.2,82.1z"/>
		<path class="st18" d="M285.2,75.6v4.3c0,1.2-0.8,2.3-2,2.6l-24.7,5.9c-0.2,0.1-0.4,0.1-0.5,0.1c-0.3,0-0.5,0-0.8,0v-6.4
			L285.2,75.6z"/>
		<path class="st19" d="M284.2,74l-21.8-10.6c-0.9-0.4-1.9-0.5-2.8-0.3l-25.2,6c-0.8,0.2-1.3,0.8-1.4,1.5c-0.1,0.1-0.1,0.2-0.1,0.4
			c0,0.7,0.3,1.3,1.1,1.7l21.8,10.6c0.4,0.2,0.9,0.3,1.4,0.4c0.5,0.1,1,0.1,1.4-0.1l25.2-6c0.9-0.2,1.4-1,1.4-1.8v-0.1
			C285.2,74.9,284.9,74.3,284.2,74z"/>
	</g>
	<g class="st32">
		<path class="st55" d="M78.3,179.4c0.1-0.2,0-0.4-0.3-0.6c-0.4-0.3-0.9-0.4-1.3-0.6c-0.7-0.4-1.5-0.7-2.2-1.1
			c-0.8-0.4-1.7-0.8-2.5-1.2c-0.3-0.2-0.7-0.2-1-0.1c-1.2,0.3-2.4,0.6-3.7,0.9c-0.8,0.2-1.5,0.4-2.3,0.5c-0.3,0.1-0.7,0.1-0.8,0.4
			c-0.1,0.3-0.2,0.6-0.1,0.9c0.1,0.4,0.4,0.7,0.7,0.9c0.3,0.2,0.7,0.4,1,0.5c0.8,0.3,1.5,0.7,2.2,1.1c0.4,0.2,0.7,0.5,1.1,0.6
			c0.4,0.1,0.8,0.2,1.2,0.2c0.6,0,1.4-0.3,2-0.4c1.8-0.3,3.5-0.8,5.2-1.5C77.9,179.8,78.2,179.6,78.3,179.4z M65.9,178.7l4.9-1.2
			c0.2,0,0.4,0,0.5,0.1l4.2,2c0.3,0.2,0.3,0.6-0.1,0.7l-4.9,1.2c-0.2,0-0.4,0-0.5-0.1l-4.2-2.1C65.6,179.3,65.6,178.8,65.9,178.7z"
			/>
		<linearGradient id="SVGID_23_" gradientUnits="userSpaceOnUse" x1="70.7807" y1="178.171" x2="60.8258" y2="182.9998">
			<stop  offset="0" style="stop-color:#EFD17D;stop-opacity:0"/>
			<stop  offset="1" style="stop-color:#EFD17D"/>
		</linearGradient>
		<path class="st56" d="M70,181.6v2.3c-0.1,0-0.1,0-0.2,0c-0.1,0-0.2-0.1-0.3-0.1l-8-3.8c-0.3-0.1-0.4-0.4-0.4-0.7v-1.9L70,181.6z"
			/>
		<path class="st55" d="M80.3,179.2v1.6c0,0.5-0.3,0.8-0.7,1l-9.1,2.2c-0.1,0-0.1,0-0.2,0c-0.1,0-0.2,0-0.3,0v-2.3L80.3,179.2z"/>
		<path class="st4" d="M79.9,178.7l-8-3.9c-0.3-0.2-0.7-0.2-1-0.1l-9.2,2.2c-0.3,0.1-0.5,0.3-0.5,0.5c0,0,0,0.1,0,0.1
			c0,0.2,0.1,0.5,0.4,0.6l8,3.9c0.2,0.1,0.3,0.1,0.5,0.1c0.2,0,0.4,0,0.5,0l9.2-2.2c0.3-0.1,0.5-0.4,0.5-0.7v0
			C80.3,179,80.2,178.8,79.9,178.7z M65.9,177.6l4.9-1.2c0.2,0,0.4,0,0.5,0.1l4.2,2c0.3,0.2,0.3,0.6-0.1,0.7l-4.9,1.2
			c-0.2,0-0.4,0-0.5-0.1l-4.2-2.1C65.6,178.1,65.6,177.7,65.9,177.6z"/>
	</g>
	<g class="st32">
		<linearGradient id="SVGID_24_" gradientUnits="userSpaceOnUse" x1="93.8542" y1="197.1007" x2="77.9097" y2="204.835">
			<stop  offset="0" style="stop-color:#2C56F2;stop-opacity:0"/>
			<stop  offset="1" style="stop-color:#003AAA"/>
		</linearGradient>
		<path class="st57" d="M92.6,202.6v3.8c-0.1,0-0.2,0-0.4-0.1c-0.1-0.1-0.2-0.1-0.4-0.2L79.1,200c-0.4-0.2-0.7-0.7-0.7-1.1v-3
			L92.6,202.6z"/>
		<path class="st13" d="M109.1,198.8v2.5c0,0.7-0.5,1.4-1.2,1.5l-14.5,3.5c-0.1,0-0.2,0.1-0.3,0.1c-0.2,0-0.3,0-0.4,0v-3.8
			L109.1,198.8z"/>
		<path class="st15" d="M108.5,197.9l-12.8-6.2c-0.5-0.2-1.1-0.3-1.6-0.2L79.3,195c-0.5,0.1-0.7,0.5-0.8,0.9c0,0.1,0,0.1,0,0.2
			c0,0.4,0.2,0.8,0.6,1l12.8,6.2c0.2,0.1,0.5,0.2,0.8,0.2c0.3,0.1,0.6,0,0.8,0l14.8-3.5c0.5-0.1,0.8-0.6,0.8-1.1v-0.1
			C109.1,198.4,108.9,198.1,108.5,197.9z"/>
	</g>
</g>
</svg>
