<?xml version="1.0" encoding="utf-8"?>
<!-- Generator: Adobe Illustrator 21.1.0, SVG Export Plug-In . SVG Version: 6.00 Build 0)  -->
<svg version="1.1" id="Layer_1" xmlns="http://www.w3.org/2000/svg" xmlns:xlink="http://www.w3.org/1999/xlink" x="0px" y="0px"
	 width="48.4px" height="48.4px" viewBox="0 0 48.4 48.4" style="enable-background:new 0 0 48.4 48.4;" xml:space="preserve">
<style type="text/css">
	.st0{fill:#302B70;}
	.st1{fill:#FFFFFF;}
</style>
<circle id="XMLID_530_" class="st0" cx="24.2" cy="24.2" r="24.2"/>
<g>
	<path class="st1" d="M23.7,15.8c-0.3,0.3-0.3,0.9,0,1.2l7.2,7.2l-7.2,7.2c-0.3,0.3-0.3,0.9,0,1.2c0.3,0.3,0.9,0.3,1.2,0l7.8-7.8
		c0.2-0.2,0.2-0.4,0.2-0.6c0-0.2-0.1-0.4-0.2-0.6l-7.8-7.8C24.6,15.5,24,15.5,23.7,15.8z"/>
	<path class="st1" d="M15.8,15.8c-0.3,0.3-0.3,0.9,0,1.2l7.2,7.2l-7.2,7.2c-0.3,0.3-0.3,0.9,0,1.2c0.3,0.3,0.9,0.3,1.2,0l7.8-7.8
		c0.2-0.2,0.2-0.4,0.2-0.6c0-0.2-0.1-0.4-0.2-0.6l-7.8-7.8C16.6,15.5,16.1,15.5,15.8,15.8z"/>
</g>
</svg>
