<?xml version="1.0" encoding="utf-8"?>
<!-- Generator: Adobe Illustrator 21.1.0, SVG Export Plug-In . SVG Version: 6.00 Build 0)  -->
<svg version="1.1" id="Layer_1" xmlns="http://www.w3.org/2000/svg" xmlns:xlink="http://www.w3.org/1999/xlink" x="0px" y="0px"
	 width="48.4px" height="48.4px" viewBox="0 0 48.4 48.4" style="enable-background:new 0 0 48.4 48.4;" xml:space="preserve">
<style type="text/css">
	.st0{fill:#302B70;}
	.st1{fill:#FFFFFF;}
</style>
<g>
	<g id="XMLID_10_">
		<circle class="st0" cx="24.2" cy="24.2" r="24.2"/>
	</g>
	<g id="XMLID_5095_">
		<path class="st1" d="M29.8,28.1H22v-2.3h2.1v0h0.9c3,0,4.5-2.3,4.5-4.9S28.1,16,25.1,16h-5v8.1h-1.4v1.7h1.4v2.3h-1.4v1.6h1.4v2.7
			h2v-2.7h7.7V28.1z M22,17.7h2.8c1.7,0,2.7,1.3,2.7,3.2c0,1.9-1,3.2-2.7,3.2h-0.7v0H22V17.7z"/>
	</g>
	<path class="st1" d="M42.8,15.4l-5-1.8c0,0,0,0-0.1,0c0,0,0,0-0.1,0c0,0,0,0,0,0c-0.1,0-0.1,0-0.2,0c-0.1,0-0.1,0-0.2,0
		c0,0-0.1,0-0.1,0c0,0-0.1,0-0.1,0c-0.1,0-0.1,0-0.2,0.1c0,0-0.1,0-0.1,0c0,0,0,0,0,0c0,0,0,0-0.1,0.1c0,0-0.1,0.1-0.1,0.1
		c0,0,0,0.1-0.1,0.1c0,0,0,0.1-0.1,0.1c0,0,0,0,0,0.1c0,0,0,0,0,0.1c0,0,0,0,0,0l-1.3,5.3c-0.1,0.5,0.2,1.1,0.7,1.2
		c0.1,0,0.2,0,0.2,0c0.5,0,0.9-0.3,1-0.8l0.7-3c1.1,2.2,1.7,4.6,1.7,7.1c0,8.5-6.9,15.5-15.5,15.5c-3.3,0-6.4-1-9-2.9
		c-0.4-0.3-1.1-0.2-1.4,0.2c-0.3,0.4-0.2,1.1,0.2,1.4c3,2.2,6.5,3.3,10.2,3.3c9.6,0,17.5-7.8,17.5-17.5c0-2.7-0.6-5.3-1.8-7.7
		l2.4,0.9c0.1,0,0.2,0.1,0.3,0.1c0.4,0,0.8-0.3,0.9-0.7C43.6,16.1,43.4,15.6,42.8,15.4z"/>
	<path class="st1" d="M34.5,10.1C31.5,8,28,6.8,24.3,6.8c-9.6,0-17.5,7.8-17.5,17.5c0,2.7,0.6,5.3,1.8,7.7l-2.4-0.9
		C5.7,31,5.2,31.3,5,31.8c-0.2,0.5,0.1,1.1,0.6,1.3l5,1.8c0,0,0,0,0.1,0c0,0,0,0,0,0c0.1,0,0.2,0,0.2,0c0,0,0,0,0,0c0,0,0,0,0,0
		c0,0,0,0,0,0c0,0,0.1,0,0.1,0c0.1,0,0.1,0,0.2,0c0,0,0,0,0,0c0,0,0.1,0,0.1,0c0.1,0,0.1,0,0.2-0.1c0,0,0,0,0,0c0,0,0,0,0,0
		c0,0,0.1-0.1,0.1-0.1c0,0,0.1-0.1,0.1-0.1c0,0,0,0,0,0c0,0,0-0.1,0-0.1c0,0,0-0.1,0.1-0.1c0,0,0,0,0,0c0,0,0,0,0-0.1l1.3-5.3
		c0.1-0.5-0.2-1.1-0.7-1.2c-0.5-0.1-1.1,0.2-1.2,0.7l-0.7,3c-1.1-2.2-1.7-4.6-1.7-7.1c0-8.5,6.9-15.5,15.5-15.5c3.3,0,6.4,1,9,2.9
		c0.4,0.3,1.1,0.2,1.4-0.2C35,11.1,34.9,10.4,34.5,10.1z"/>
</g>
</svg>
