<?xml version="1.0" encoding="utf-8"?>
<!-- Generator: Adobe Illustrator 21.1.0, SVG Export Plug-In . SVG Version: 6.00 Build 0)  -->
<svg version="1.1" id="Layer_1" xmlns="http://www.w3.org/2000/svg" xmlns:xlink="http://www.w3.org/1999/xlink" x="0px" y="0px"
	 width="1980px" height="2962px" viewBox="0 0 1980 2962" style="enable-background:new 0 0 1980 2962;" xml:space="preserve">
<style type="text/css">
	.st0{opacity:0.15;clip-path:url(#SVGID_2_);fill:url(#SVGID_3_);}
	.st1{opacity:0.2;clip-path:url(#SVGID_2_);fill:url(#SVGID_4_);}
</style>
<g>
	<defs>
		<rect id="SVGID_1_" x="-0.1" y="0" width="1980.2" height="2962"/>
	</defs>
	<clipPath id="SVGID_2_">
		<use xlink:href="#SVGID_1_"  style="overflow:visible;"/>
	</clipPath>
	<linearGradient id="SVGID_3_" gradientUnits="userSpaceOnUse" x1="960.4346" y1="3509.408" x2="2109.8235" y2="351.4882">
		<stop  offset="0" style="stop-color:#371B4C"/>
		<stop  offset="5.408452e-02" style="stop-color:#38215D"/>
		<stop  offset="0.2668" style="stop-color:#3D379B"/>
		<stop  offset="0.3676" style="stop-color:#3F40B4"/>
		<stop  offset="1" style="stop-color:#FB79B1"/>
	</linearGradient>
	<path class="st0" d="M2090.7,903.5c-225.7-47-425.6,41.5-558.2,228.7c-154.6,218.4-77.9,469.1-176.8,703.8
		c-55.5,131.6-182.4,170.5-309.8,216.2c0,0,0,0-0.1,0c-139.1,49.9-267.4,123.6-335.5,258.5c-65.1,128.9-62.7,290.4,4.1,418.2
		c62.5,119.6,182.5,208.4,315.9,229c184.4,28.5,383.5-74.6,474.6-235.1c50.7-89.4,70.1-192.5,88.8-293.6
		c20.8-112.4,22.2-247.7,78.6-349.2c52.1-93.8,152.4-151.6,248.3-191.9c108.3-45.6,243-78,327.5-164.6
		c81.7-83.7,134.9-197.7,156.2-312.1c28.7-153.9,10.7-327.5-121.1-423.5C2226,945.9,2159.9,917.9,2090.7,903.5z"/>
	
		<linearGradient id="SVGID_4_" gradientUnits="userSpaceOnUse" x1="-6872.8081" y1="-4557.9326" x2="-5835.9092" y2="-3437.1667" gradientTransform="matrix(0 -1 1 0 4256.7393 -5763.3481)">
		<stop  offset="0" style="stop-color:#D585FF"/>
		<stop  offset="0.1054" style="stop-color:#BC93FD"/>
		<stop  offset="0.5476" style="stop-color:#58CDF5"/>
		<stop  offset="0.8552" style="stop-color:#19F1F0"/>
		<stop  offset="1" style="stop-color:#00FFEE"/>
	</linearGradient>
	<path class="st1" d="M333.1,225.1C410.7,339.5,567.3,369,688.6,416.3c35.2,13.7,70.8,27.7,101.1,50.1
		C902.6,550,876,734.9,768.9,811.4c-84.7,60.5-196.8,78.2-273.2,149c-124,114.8-91.7,305.9-211.4,420.9
		c-87.3,83.9-239.2,83.7-331.3,5.1c-59.1-50.5-90.7-128-92.1-205c-0.7-40.3,13.1-72.7,20-110.9c7-38.6-14-71.9-19.2-110.3
		c-10.7-79,10.6-159.2,33.8-234.1c29-93.6,62.8-190.4,48.1-287.3c-10.4-68.2-44.4-131.9-49.3-200.7c-4.6-64.9,18.4-131.4,62.2-179.6
		C-2.5,13.5,58.2-6,119.1,1.7c50,6.3,99.6,32.9,133,70.8C289.3,114.7,300.9,177.7,333.1,225.1z"/>
</g>
</svg>
