<?xml version="1.0" encoding="utf-8"?>
<!-- Generator: Adobe Illustrator 21.1.0, SVG Export Plug-In . SVG Version: 6.00 Build 0)  -->
<svg version="1.1" id="Layer_1" xmlns="http://www.w3.org/2000/svg" xmlns:xlink="http://www.w3.org/1999/xlink" x="0px" y="0px"
	 width="29px" height="29.1px" viewBox="0 0 29 29.1" style="enable-background:new 0 0 29 29.1;" xml:space="preserve">
<style type="text/css">
	.st0{display:none;}
	.st1{display:inline;}
	.st2{fill:#2E2170;}
</style>
<g class="st0">
	<g id="XMLID_775_" class="st1">
		<path class="st2" d="M14.5,29.1c-3.9,0-7.5-1.5-10.3-4.3c-5.7-5.7-5.7-14.9,0-20.6C7,1.5,10.6,0,14.5,0c3.9,0,7.5,1.5,10.3,4.3
			c5.7,5.7,5.7,14.9,0,20.6C22.1,27.6,18.4,29.1,14.5,29.1z M14.5,2C11.2,2,8,3.3,5.7,5.7c-4.9,4.9-4.9,12.8,0,17.7
			c2.4,2.4,5.5,3.7,8.9,3.7c3.3,0,6.5-1.3,8.9-3.7c4.9-4.9,4.9-12.8,0-17.7C21,3.3,17.9,2,14.5,2z"/>
	</g>
	<g id="XMLID_763_" class="st1">
		<g id="XMLID_3_">
			<g>
				<rect x="13.5" y="6.4" class="st2" width="2" height="16.3"/>
			</g>
		</g>
		<g id="XMLID_2_">
			<g>
				<rect x="6.4" y="13.5" class="st2" width="16.3" height="2"/>
			</g>
		</g>
	</g>
</g>
<g>
	<g id="XMLID_761_">
		<path class="st2" d="M14.5,29.1c-3.9,0-7.5-1.5-10.3-4.3S0,18.4,0,14.5S1.5,7,4.3,4.3c5.7-5.7,14.9-5.7,20.6,0
			c5.7,5.7,5.7,14.9,0,20.6l0,0l0,0C22.1,27.5,18.4,29.1,14.5,29.1z M14.5,2C11.2,2,8,3.3,5.7,5.7C3.3,8,2,11.2,2,14.5
			s1.3,6.5,3.7,8.9s5.5,3.7,8.9,3.7s6.5-1.3,8.9-3.7l0,0c4.9-4.9,4.9-12.8,0-17.7C21,3.3,17.9,2,14.5,2z"/>
	</g>
	<g id="XMLID_8_">
		<g>
			<rect x="6.4" y="13.5" class="st2" width="16.3" height="2"/>
		</g>
	</g>
</g>
</svg>
