<?xml version="1.0" encoding="utf-8"?>
<!-- Generator: Adobe Illustrator 21.1.0, SVG Export Plug-In . SVG Version: 6.00 Build 0)  -->
<svg version="1.1" id="Layer_1" xmlns="http://www.w3.org/2000/svg" xmlns:xlink="http://www.w3.org/1999/xlink" x="0px" y="0px"
	 width="14.4px" height="16px" viewBox="0 0 14.4 16" style="enable-background:new 0 0 14.4 16;" xml:space="preserve">
<style type="text/css">
	.st0{fill:#FFFFFF;}
</style>
<g id="XMLID_908_">
	<path class="st0" d="M10.9,16c-1.4,0-2.8-0.6-3.8-1.8l-6-7.1c-1.6-1.9-1.5-4.7,0.2-6.5C1.7,0.2,2.2,0,2.8,0c0.5,0,1,0.3,1.3,0.8
		l1.2,1.8c0.4,0.6,0.4,1.5-0.1,2.1L5,4.9C4.8,5.1,4.8,5.4,5,5.7l4.2,5.1c0.2,0.2,0.5,0.2,0.8,0.1l0.2-0.1c0.7-0.4,1.5-0.3,2.1,0.3
		l1.5,1.5c0.4,0.4,0.6,0.9,0.5,1.4c-0.1,0.5-0.3,1-0.8,1.3C12.7,15.7,11.8,16,10.9,16z M4.8,10l3,3.6c1.3,1.5,3.5,1.9,5.2,0.8
		c0.2-0.1,0.3-0.3,0.4-0.6c0-0.2-0.1-0.5-0.2-0.7l-1.5-1.5c-0.3-0.2-0.6-0.3-1-0.1l-0.2,0.1C9.8,12,9,11.9,8.5,11.4L4.2,6.3
		c-0.4-0.7-0.4-1.4,0.1-2l0.2-0.2c0.2-0.3,0.2-0.7,0-1L3.3,1.3C3.1,1.1,2.9,1,2.7,1C2.4,0.9,2.2,1,2,1.2C0.7,2.7,0.6,4.9,1.9,6.5
		L4.8,10z"/>
</g>
</svg>
