<?xml version="1.0" encoding="utf-8"?>
<!-- Generator: Adobe Illustrator 21.1.0, SVG Export Plug-In . SVG Version: 6.00 Build 0)  -->
<svg version="1.1" id="Layer_1" xmlns="http://www.w3.org/2000/svg" xmlns:xlink="http://www.w3.org/1999/xlink" x="0px" y="0px"
	 width="17px" height="18.3px" viewBox="0 0 17 18.3" style="enable-background:new 0 0 17 18.3;" xml:space="preserve">
<style type="text/css">
	.st0{fill:#190042;}
</style>
<g id="XMLID_686_">
	<g id="XMLID_888_">
		<path class="st0" d="M10.4,13.2c-3.6,0-6.6-3-6.6-6.6S6.8,0,10.4,0C14,0,17,3,17,6.6S14,13.2,10.4,13.2z M10.4,2.1
			c-2.5,0-4.5,2-4.5,4.5s2,4.5,4.5,4.5s4.5-2,4.5-4.5S12.9,2.1,10.4,2.1z"/>
	</g>
	<g id="XMLID_741_">
		<path class="st0" d="M1.1,18.3c-0.3,0-0.5-0.1-0.8-0.3c-0.4-0.4-0.4-1.1,0-1.5l6.1-6.1C6.9,10,7.5,10,8,10.4
			c0.4,0.4,0.4,1.1,0,1.5L1.8,18C1.6,18.2,1.3,18.3,1.1,18.3z"/>
	</g>
</g>
</svg>
