<?xml version="1.0" encoding="utf-8"?>
<!-- Generator: Adobe Illustrator 21.1.0, SVG Export Plug-In . SVG Version: 6.00 Build 0)  -->
<svg version="1.1" id="Layer_1" xmlns="http://www.w3.org/2000/svg" xmlns:xlink="http://www.w3.org/1999/xlink" x="0px" y="0px"
	 width="1166px" height="111.9px" viewBox="0 0 1166 111.9" style="enable-background:new 0 0 1166 111.9;" xml:space="preserve">
<style type="text/css">
	.st0{display:none;}
	.st1{display:inline;opacity:0.4;fill:url(#SVGID_1_);}
	.st2{display:inline;}
	.st3{opacity:0.3;fill:#190042;}
	.st4{fill:url(#SVGID_2_);}
	.st5{fill:url(#SVGID_3_);}
	.st6{fill:url(#SVGID_4_);}
	.st7{fill:#190042;}
	.st8{fill:url(#SVGID_5_);}
	.st9{fill:url(#SVGID_6_);}
	.st10{display:inline;fill:url(#SVGID_7_);}
	.st11{display:inline;opacity:0.4;fill:url(#SVGID_8_);}
	.st12{display:inline;opacity:0.4;fill:url(#SVGID_9_);}
	.st13{display:inline;opacity:0.4;fill:url(#SVGID_10_);}
	.st14{display:inline;opacity:0.4;fill:url(#SVGID_11_);}
	.st15{display:inline;opacity:0.4;fill:url(#SVGID_12_);}
	.st16{fill:#9E704A;}
	.st17{display:inline;fill:#FFFFFF;}
	.st18{fill:#68472F;}
	.st19{fill:#CCA136;}
	.st20{fill:url(#SVGID_13_);}
	.st21{fill:#00CAE9;}
	.st22{fill:#F45178;}
	.st23{fill:#FFFFFF;}
	.st24{fill:url(#SVGID_14_);}
	.st25{fill:#F4F4F4;}
	.st26{fill:#F43462;}
	.st27{fill:url(#SVGID_15_);}
	.st28{fill:url(#SVGID_16_);}
	.st29{fill:url(#SVGID_17_);}
	.st30{opacity:0.5;fill:url(#SVGID_18_);}
	.st31{fill:url(#SVGID_19_);}
	.st32{fill:url(#SVGID_20_);}
	.st33{display:inline;opacity:0.3;fill:#190042;}
	.st34{fill:url(#SVGID_21_);}
	.st35{fill:url(#SVGID_22_);}
	.st36{fill:url(#SVGID_23_);}
	.st37{fill:url(#SVGID_24_);}
	.st38{fill:url(#SVGID_25_);}
	.st39{opacity:0.8;fill:url(#SVGID_26_);}
</style>
<g class="st0">
	
		<linearGradient id="SVGID_1_" gradientUnits="userSpaceOnUse" x1="-12392.4004" y1="-1271.0575" x2="-12111.9141" y2="-1512.5454" gradientTransform="matrix(-0.3672 -0.9302 0.9302 -0.3672 -3085.4609 -11774.7705)">
		<stop  offset="0" style="stop-color:#021652"/>
		<stop  offset="0.3106" style="stop-color:#0056AD"/>
		<stop  offset="0.7223" style="stop-color:#38C4DD"/>
		<stop  offset="1" style="stop-color:#68EFD8"/>
	</linearGradient>
	<path class="st1" d="M97.7,300.7c5.3,0.8,10.7,1.1,16.4,0.9c24.1-0.9,45.5-14.6,66.6-26.1c15.2-8.3,28.4-15.7,45.7-18
		c19.6-2.6,38.3,3.2,57.8,2.3c23.2-1.1,45.4-15,56.5-35.5c17.4-32.3,0.2-63-22.4-87.1c-6.8-7.2-15-13-19.6-22.2
		c-7.8-15.3-2.1-30.5-6.3-45.9c-4.3-15.8-13.7-32.5-27.3-42.1c-19.9-14.1-43.4-23.3-67.7-26.1c-31.6-3.7-57.1,4.3-78.9,28.8
		C109,40.3,105,55.3,95.5,66.3c-25.9,29.9-73.1,20-88.6,62.3C-16,191,28.3,290.2,97.7,300.7z"/>
	<g class="st2">
		<ellipse class="st3" cx="295.4" cy="266.4" rx="15.4" ry="4.4"/>
		<linearGradient id="SVGID_2_" gradientUnits="userSpaceOnUse" x1="283.9651" y1="241.9591" x2="307.5113" y2="272.1096">
			<stop  offset="0" style="stop-color:#021652"/>
			<stop  offset="0.3106" style="stop-color:#0056AD"/>
			<stop  offset="0.7223" style="stop-color:#38C4DD"/>
			<stop  offset="1" style="stop-color:#68EFD8"/>
		</linearGradient>
		<path class="st4" d="M295.8,252.3h-15l2.4,12.4c0,1.9,5.7,3.5,12.6,3.5s12.6-1.6,12.6-3.5l2.4-12.4H295.8z"/>
		<linearGradient id="SVGID_3_" gradientUnits="userSpaceOnUse" x1="284.3628" y1="230.8137" x2="308.049" y2="261.1436">
			<stop  offset="0" style="stop-color:#021652"/>
			<stop  offset="0.3106" style="stop-color:#0056AD"/>
			<stop  offset="0.7223" style="stop-color:#38C4DD"/>
			<stop  offset="1" style="stop-color:#68EFD8"/>
		</linearGradient>
		<path class="st5" d="M300.5,243.4l-13.9,0.6l-9.5,0.4v5.6l0.3,0c1.6,2.7,9.2,4.7,18.3,4.7c10.3,0,18.6-2.6,18.6-5.7l1.4-6.1
			L300.5,243.4z"/>
		
			<linearGradient id="SVGID_4_" gradientUnits="userSpaceOnUse" x1="3383.3042" y1="1584.3312" x2="3417.9941" y2="1628.7512" gradientTransform="matrix(0.6459 0 0 0.7785 -1900.986 -1008.5454)">
			<stop  offset="0" style="stop-color:#021652"/>
			<stop  offset="0.3106" style="stop-color:#0056AD"/>
			<stop  offset="0.7223" style="stop-color:#38C4DD"/>
			<stop  offset="1" style="stop-color:#68EFD8"/>
		</linearGradient>
		<ellipse class="st6" cx="295.8" cy="242.8" rx="20" ry="6.1"/>
		<path class="st7" d="M295.8,247.9c-11.8,0-19-3-19-5.1c0-2.1,7.2-5.1,19-5.1s19,3,19,5.1C314.8,244.9,307.6,247.9,295.8,247.9z"/>
		<linearGradient id="SVGID_5_" gradientUnits="userSpaceOnUse" x1="190.6912" y1="192.3941" x2="395.0116" y2="101.0827">
			<stop  offset="0" style="stop-color:#00A94F"/>
			<stop  offset="0.4757" style="stop-color:#00A994"/>
			<stop  offset="1" style="stop-color:#006EB8"/>
		</linearGradient>
		<path class="st8" d="M324.6,129.4c-12-12.7-1.5-26.4-4.4-40.9c-2-9.7-8.4-20.2-18-24.1c-0.5-0.2-0.9-0.4-1.4-0.5
			c-17.2-5.8-29.4,17-29.7,31.3c-0.2,7.5,2.6,14.4,1.1,22c-1.6,8.2-10.7,13.4-15.2,19.9c-4.4,6.2-9.1,16-7.3,23.7
			c1.2,5.2,4.6,9.6,7.4,14.2c3.2,5.2,4.9,10,4.2,16c-0.8,6.5-1.6,11.7,1.4,17.9c9.3,19.1,28.4,14.1,45.7,13.1
			c16.7-1,37.5-17.4,33.6-35.5c-1.3-5.8-4.5-11.5-4.6-17.6c-0.2-6.9,3.4-13.1,2-20.1C337.5,140.1,330,135.1,324.6,129.4z"/>
		<linearGradient id="SVGID_6_" gradientUnits="userSpaceOnUse" x1="295.8246" y1="244.2339" x2="295.8246" y2="111.394">
			<stop  offset="0" style="stop-color:#68472F"/>
			<stop  offset="1" style="stop-color:#68472F;stop-opacity:0"/>
		</linearGradient>
		<path class="st9" d="M298.9,114.5v129.3c0,0.1,0,0.3,0,0.4c-1,0-2,0.1-3.1,0.1s-2.1,0-3.1-0.1c0-0.1,0-0.3,0-0.4V114.5
			c0-1.7,1.4-3.1,3.1-3.1c0.9,0,1.6,0.4,2.2,0.9C298.6,112.9,298.9,113.6,298.9,114.5z"/>
	</g>
	<linearGradient id="SVGID_7_" gradientUnits="userSpaceOnUse" x1="78.7354" y1="300.3462" x2="324.7354" y2="-3.6538">
		<stop  offset="0" style="stop-color:#021652"/>
		<stop  offset="0.3106" style="stop-color:#0056AD"/>
		<stop  offset="0.7223" style="stop-color:#38C4DD"/>
		<stop  offset="1" style="stop-color:#68EFD8"/>
	</linearGradient>
	<path class="st10" d="M124.8,89.6v212.1l101.5-24.2V72.7c0-10-9.3-17.3-19-15l-70.6,16.9C129.7,76.3,124.8,82.5,124.8,89.6z"/>
	<linearGradient id="SVGID_8_" gradientUnits="userSpaceOnUse" x1="209.8225" y1="201.514" x2="209.8225" y2="132.922">
		<stop  offset="0" style="stop-color:#FFFFFF"/>
		<stop  offset="0.1676" style="stop-color:#FFFFFF"/>
		<stop  offset="0.2649" style="stop-color:#FFFFFF"/>
		<stop  offset="0.5514" style="stop-color:#FFFFFF;stop-opacity:0.5"/>
		<stop  offset="1" style="stop-color:#FFFFFF;stop-opacity:0"/>
	</linearGradient>
	<path class="st11" d="M209.8,197.5L209.8,197.5c-1.4,0-2.6-1.2-2.6-2.6v-36.2c0-1.4,1.2-2.6,2.6-2.6l0,0c1.4,0,2.6,1.2,2.6,2.6V195
		C212.4,196.4,211.2,197.5,209.8,197.5z"/>
	
		<linearGradient id="SVGID_9_" gradientUnits="userSpaceOnUse" x1="1872.0199" y1="-3326.3379" x2="1872.0199" y2="-3394.9299" gradientTransform="matrix(0.8614 0.508 -0.508 0.8614 -3075.2412 2119.042)">
		<stop  offset="0" style="stop-color:#FFFFFF"/>
		<stop  offset="0.1676" style="stop-color:#FFFFFF"/>
		<stop  offset="0.2649" style="stop-color:#FFFFFF"/>
		<stop  offset="0.5514" style="stop-color:#FFFFFF;stop-opacity:0.5"/>
		<stop  offset="1" style="stop-color:#FFFFFF;stop-opacity:0"/>
	</linearGradient>
	<path class="st12" d="M229,201.4L229,201.4c-1.2-0.7-1.6-2.3-0.9-3.5l18.4-31.2c0.7-1.2,2.3-1.6,3.5-0.9h0c1.2,0.7,1.6,2.3,0.9,3.5
		l-18.4,31.2C231.8,201.7,230.2,202.1,229,201.4z"/>
	
		<linearGradient id="SVGID_10_" gradientUnits="userSpaceOnUse" x1="1511.7039" y1="-7209.4824" x2="1511.7039" y2="-7278.0742" gradientTransform="matrix(0.4839 0.8751 -0.8751 0.4839 -6800.5894 2382.155)">
		<stop  offset="0" style="stop-color:#FFFFFF"/>
		<stop  offset="0.1676" style="stop-color:#FFFFFF"/>
		<stop  offset="0.2649" style="stop-color:#FFFFFF"/>
		<stop  offset="0.5514" style="stop-color:#FFFFFF;stop-opacity:0.5"/>
		<stop  offset="1" style="stop-color:#FFFFFF;stop-opacity:0"/>
	</linearGradient>
	<path class="st13" d="M243.6,214.4L243.6,214.4c-0.7-1.2-0.2-2.8,1-3.5l31.7-17.5c1.2-0.7,2.8-0.2,3.5,1v0c0.7,1.2,0.2,2.8-1,3.5
		L247,215.4C245.8,216.1,244.2,215.6,243.6,214.4z"/>
	
		<linearGradient id="SVGID_11_" gradientUnits="userSpaceOnUse" x1="-7831.7632" y1="2396.3403" x2="-7831.7632" y2="2327.7483" gradientTransform="matrix(-0.8614 0.508 0.508 0.8614 -7770.6567 2119.042)">
		<stop  offset="0" style="stop-color:#FFFFFF"/>
		<stop  offset="0.1676" style="stop-color:#FFFFFF"/>
		<stop  offset="0.2649" style="stop-color:#FFFFFF"/>
		<stop  offset="0.5514" style="stop-color:#FFFFFF;stop-opacity:0.5"/>
		<stop  offset="1" style="stop-color:#FFFFFF;stop-opacity:0"/>
	</linearGradient>
	<path class="st14" d="M190.7,201.4L190.7,201.4c1.2-0.7,1.6-2.3,0.9-3.5l-18.4-31.2c-0.7-1.2-2.3-1.6-3.5-0.9v0
		c-1.2,0.7-1.6,2.3-0.9,3.5l18.4,31.2C187.9,201.7,189.4,202.1,190.7,201.4z"/>
	
		<linearGradient id="SVGID_12_" gradientUnits="userSpaceOnUse" x1="-3939.8188" y1="2649.1865" x2="-3939.8188" y2="2580.5945" gradientTransform="matrix(-0.4839 0.8751 0.8751 0.4839 -4045.3083 2382.155)">
		<stop  offset="0" style="stop-color:#FFFFFF"/>
		<stop  offset="0.1676" style="stop-color:#FFFFFF"/>
		<stop  offset="0.2649" style="stop-color:#FFFFFF"/>
		<stop  offset="0.5514" style="stop-color:#FFFFFF;stop-opacity:0.5"/>
		<stop  offset="1" style="stop-color:#FFFFFF;stop-opacity:0"/>
	</linearGradient>
	<path class="st15" d="M176.1,214.4L176.1,214.4c0.7-1.2,0.2-2.8-1-3.5l-31.7-17.5c-1.2-0.7-2.8-0.2-3.5,1l0,0
		c-0.7,1.2-0.2,2.8,1,3.5l31.7,17.5C173.8,216.1,175.4,215.6,176.1,214.4z"/>
	<g class="st2">
		<polygon class="st16" points="132.9,307.8 241.9,281.7 300.7,310.1 191.7,336.2 		"/>
		<polygon class="st7" points="132.9,309.9 132.9,307.8 191.7,336.2 300.7,310.1 300.7,312.2 191.7,338.3 		"/>
	</g>
	<path class="st17" d="M124.8,301.7l-10.4,2.5V90.9c0-13.6,9.4-25.5,22.7-28.6L198.3,48c18.4-4.3,36,9.7,36,28.6v195.7
		c0,1.9-1.3,3.5-3.1,3.9h0c-2.5,0.6-5-1.3-5-3.9V78.7c0-13-12.2-22.6-24.8-19.6l-61.2,14.6c-9.1,2.2-15.5,10.3-15.5,19.6V301.7z"/>
	<g class="st2">
		<path class="st18" d="M221.8,176.5c-1.3,1.8-4.7,1.5-4.7,1.5c-1.3,0-2.4,1.7-2.4,3.7c0,2,1.1,3.7,2.4,3.7c0,0,3.3-0.3,4.7,1.5
			l0.9-5.2L221.8,176.5z"/>
		<ellipse class="st16" cx="222.9" cy="181.7" rx="4.7" ry="7.3"/>
		<path class="st19" d="M221.7,176.3c-0.7,0.1-1.5,1.2-1.8,1.7c-0.6,1.1-0.8,2.4-0.8,3.6c0,1.6,0.5,3.7,1.5,5
			c0.4,0.5,1.3,1.1,1.8,0.4c0.3-0.5-0.7-1.6-0.9-2.1c-0.7-1.5-1-3.3-0.6-4.9C221.1,179.4,223.4,176,221.7,176.3z"/>
	</g>
	<g class="st2">
		<polygon class="st7" points="200.5,254.9 203.2,254.3 203.2,328.7 200.5,329.3 197.3,327.8 198.9,254.3 		"/>
		<path class="st3" d="M150.6,304.5l67.7-14.7l53.6,21.8c0.7,0.4,0.5,1.5-0.3,1.7l-71.8,17.4L150.4,306
			C149.7,305.7,149.9,304.7,150.6,304.5z"/>
		<polygon class="st7" points="200.5,254.9 200.5,329.3 182.8,320.8 168.2,313.7 151,305.4 151,231 168.2,239.3 182.8,246.4 		"/>
		<linearGradient id="SVGID_13_" gradientUnits="userSpaceOnUse" x1="300.9093" y1="208.3531" x2="208.9093" y2="314.3531">
			<stop  offset="0" style="stop-color:#68EFD8"/>
			<stop  offset="0.2777" style="stop-color:#38C4DD"/>
			<stop  offset="0.3077" style="stop-color:#34BCDA"/>
			<stop  offset="0.3744" style="stop-color:#2BAAD2"/>
			<stop  offset="0.6894" style="stop-color:#0056AD"/>
			<stop  offset="1" style="stop-color:#021652"/>
		</linearGradient>
		<polygon class="st20" points="270.4,238.2 270.4,312.6 242.9,319.2 228.3,322.7 200.5,329.3 200.5,254.9 228.3,248.3 242.9,244.8 
					"/>
		<polygon class="st21" points="220.8,214.3 270.4,238.2 200.5,254.9 151,231 		"/>
		<polygon class="st22" points="242.9,244.8 242.9,319.2 228.3,322.7 228.3,248.3 		"/>
		<polygon class="st23" points="219.9,230.3 242,240.9 210.8,248.4 188.8,237.7 		"/>
		<linearGradient id="SVGID_14_" gradientUnits="userSpaceOnUse" x1="140.1452" y1="233.3634" x2="207.1452" y2="321.8635">
			<stop  offset="0" style="stop-color:#7E1B4C"/>
			<stop  offset="0.1471" style="stop-color:#74175D"/>
			<stop  offset="0.7257" style="stop-color:#4E069B"/>
			<stop  offset="1" style="stop-color:#3F00B4"/>
		</linearGradient>
		<polygon class="st24" points="182.8,246.4 182.8,320.8 168.2,313.7 168.2,239.3 		"/>
		<polygon class="st25" points="210.8,248.4 216.3,237.2 242,240.9 		"/>
		<polygon class="st22" points="242.9,244.8 216.9,236.1 193.3,220.6 178.8,224 214.1,237.1 228.3,248.3 		"/>
		<polygon class="st22" points="182.8,246.4 215.2,235.8 252.6,229.6 238,222.6 213.2,234.8 168.2,239.3 		"/>
		<g>
			<path class="st26" d="M232.6,211.9l-0.5-0.2c-0.4-0.2-0.9-0.3-1.3-0.4c-1.9-0.4-4.2,0-6.5,1.3c-5.1,3-12,21.9-13.1,22.8l2.9,1.4
				l30.9-18.9L232.6,211.9z"/>
			<linearGradient id="SVGID_15_" gradientUnits="userSpaceOnUse" x1="230.9804" y1="227.2121" x2="274.2303" y2="229.9621">
				<stop  offset="0" style="stop-color:#7E1B4C"/>
				<stop  offset="0.1471" style="stop-color:#74175D"/>
				<stop  offset="0.7257" style="stop-color:#4E069B"/>
				<stop  offset="1" style="stop-color:#3F00B4"/>
			</linearGradient>
			<path class="st27" d="M214.1,236.8l27.1-6.5c3.4-0.8,6.2-3.6,6.6-7.1c0-0.3,0-0.6,0-0.9c0-4.4-5.5-6.6-10.8-3.5
				C231.7,221.8,214.1,236.8,214.1,236.8z"/>
		</g>
		<g>
			<path class="st26" d="M197.9,208.5l0.5-0.1c0.5-0.1,0.9-0.1,1.4-0.1c1.9,0.1,4.1,0.9,6,2.7c4.3,4.1,6.7,23.4,7.5,24.5l-2.8,1.3
				l-26-25.2L197.9,208.5z"/>
			<linearGradient id="SVGID_16_" gradientUnits="userSpaceOnUse" x1="189.8201" y1="222.3435" x2="149.0701" y2="214.0935">
				<stop  offset="0" style="stop-color:#7E1B4C"/>
				<stop  offset="0.1471" style="stop-color:#74175D"/>
				<stop  offset="0.7257" style="stop-color:#4E069B"/>
				<stop  offset="1" style="stop-color:#3F00B4"/>
			</linearGradient>
			<path class="st28" d="M210.5,236.8l-25-12.3c-3.2-1.6-5.3-4.9-4.9-8.4c0-0.3,0.1-0.6,0.2-0.9c1-4.3,6.8-5.2,11.3-1.1
				S210.5,236.8,210.5,236.8z"/>
		</g>
		<linearGradient id="SVGID_17_" gradientUnits="userSpaceOnUse" x1="216.4768" y1="241.3138" x2="222.7775" y2="253.215">
			<stop  offset="0" style="stop-color:#7E1B4C"/>
			<stop  offset="0.1471" style="stop-color:#74175D"/>
			<stop  offset="0.7257" style="stop-color:#4E069B"/>
			<stop  offset="1" style="stop-color:#3F00B4"/>
		</linearGradient>
		<path class="st29" d="M217.2,234.5c0,1.8-1.6,2.9-3.8,2.9c-2.5,0-5-0.6-5-3.2c0-0.4,0-0.7,0.1-1c0.4-1.4,1.7-2.2,4.5-2.2
			c2.2,0,3.5,1,4,2.3C217.2,233.7,217.2,234.1,217.2,234.5z"/>
		<linearGradient id="SVGID_18_" gradientUnits="userSpaceOnUse" x1="223.6052" y1="223.7169" x2="236.5043" y2="211.8636">
			<stop  offset="0" style="stop-color:#FFFFFF;stop-opacity:0"/>
			<stop  offset="1" style="stop-color:#FFFFFF"/>
		</linearGradient>
		<path class="st30" d="M232,220.9c2.9-1.9,7-4.6,10.4-4.2l-10.3-5c0,0-7-2.5-11.5,5.6c-3.4,6-7.8,13.9-7.8,13.9l4.2,2.3
			C217,233.5,229.7,222.4,232,220.9z"/>
		
			<linearGradient id="SVGID_19_" gradientUnits="userSpaceOnUse" x1="-78.1752" y1="555.8987" x2="-70.4232" y2="550.0847" gradientTransform="matrix(0.9982 -6.004576e-02 6.004576e-02 0.9982 265.2395 -333.3067)">
			<stop  offset="0" style="stop-color:#7E1B4C"/>
			<stop  offset="0.1471" style="stop-color:#74175D"/>
			<stop  offset="0.7257" style="stop-color:#4E069B"/>
			<stop  offset="1" style="stop-color:#3F00B4"/>
		</linearGradient>
		<path class="st31" d="M214.1,234c0,0,4.5-11.1,7.6-9.8C224.8,225.6,214.1,234,214.1,234z"/>
		
			<linearGradient id="SVGID_20_" gradientUnits="userSpaceOnUse" x1="-7460.0811" y1="2532.3728" x2="-7452.3291" y2="2526.5586" gradientTransform="matrix(0.4145 -0.91 0.91 0.4145 995.3728 -7613.1392)">
			<stop  offset="0" style="stop-color:#7E1B4C"/>
			<stop  offset="0.1471" style="stop-color:#74175D"/>
			<stop  offset="0.7257" style="stop-color:#4E069B"/>
			<stop  offset="1" style="stop-color:#3F00B4"/>
		</linearGradient>
		<path class="st32" d="M211.3,234.9c0,0-7.7-9.1-5.1-11.3S211.3,234.9,211.3,234.9z"/>
	</g>
	<polygon class="st33" points="132.9,310.9 132.9,308.8 191.7,337.2 300.7,311.1 300.7,313.2 191.7,339.3 	"/>
	<g class="st2">
		<ellipse class="st3" cx="83.6" cy="334.5" rx="17" ry="4.9"/>
		<linearGradient id="SVGID_21_" gradientUnits="userSpaceOnUse" x1="70.9057" y1="307.5055" x2="96.9503" y2="340.8552">
			<stop  offset="0" style="stop-color:#021652"/>
			<stop  offset="0.3106" style="stop-color:#0056AD"/>
			<stop  offset="0.7223" style="stop-color:#38C4DD"/>
			<stop  offset="1" style="stop-color:#68EFD8"/>
		</linearGradient>
		<path class="st34" d="M84,318.9H67.4l2.6,13.7c0,2.2,6.3,3.9,14,3.9s14-1.7,14-3.9l2.6-13.7H84z"/>
		<linearGradient id="SVGID_22_" gradientUnits="userSpaceOnUse" x1="71.3455" y1="295.1775" x2="97.545" y2="328.7256">
			<stop  offset="0" style="stop-color:#021652"/>
			<stop  offset="0.3106" style="stop-color:#0056AD"/>
			<stop  offset="0.7223" style="stop-color:#38C4DD"/>
			<stop  offset="1" style="stop-color:#68EFD8"/>
		</linearGradient>
		<path class="st35" d="M89.2,309.1l-15.3,0.6l-10.5,0.4v6.2l0.3,0c1.7,2.9,10.2,5.2,20.3,5.2c11.4,0,20.6-2.8,20.6-6.3l1.5-6.8
			L89.2,309.1z"/>
		
			<linearGradient id="SVGID_23_" gradientUnits="userSpaceOnUse" x1="3053.4683" y1="1666.1964" x2="3091.8389" y2="1715.3297" gradientTransform="matrix(0.6459 0 0 0.7785 -1900.986 -1008.5454)">
			<stop  offset="0" style="stop-color:#021652"/>
			<stop  offset="0.3106" style="stop-color:#0056AD"/>
			<stop  offset="0.7223" style="stop-color:#38C4DD"/>
			<stop  offset="1" style="stop-color:#68EFD8"/>
		</linearGradient>
		<ellipse class="st36" cx="84" cy="308.4" rx="22.1" ry="6.8"/>
		<path class="st7" d="M84,314.1c-13,0-21-3.3-21-5.7c0-2.4,8-5.7,21-5.7s21,3.3,21,5.7C105.1,310.8,97.1,314.1,84,314.1z"/>
		<linearGradient id="SVGID_24_" gradientUnits="userSpaceOnUse" x1="-32.2651" y1="252.6814" x2="193.7349" y2="151.6814">
			<stop  offset="0" style="stop-color:#00A94F"/>
			<stop  offset="0.4757" style="stop-color:#00A994"/>
			<stop  offset="1" style="stop-color:#006EB8"/>
		</linearGradient>
		<path class="st37" d="M115.9,183c-13.3-14.1-1.6-29.3-4.9-45.3c-2.2-10.7-9.3-22.3-19.9-26.7c-0.5-0.2-1-0.4-1.5-0.6
			c-19-6.4-32.5,18.8-32.9,34.6c-0.2,8.3,2.8,15.9,1.2,24.3c-1.7,9.1-11.8,14.8-16.9,22C36.2,198.1,31,209,33,217.5
			c1.4,5.8,5,10.7,8.1,15.7c3.5,5.7,5.4,11,4.6,17.7c-0.8,7.1-1.8,12.9,1.6,19.8c10.3,21.1,31.5,15.6,50.5,14.5
			c18.5-1.1,41.5-19.2,37.1-39.3c-1.4-6.4-5-12.7-5.1-19.4c-0.2-7.6,3.8-14.5,2.2-22.3C130.1,194.8,121.8,189.3,115.9,183z"/>
		<linearGradient id="SVGID_25_" gradientUnits="userSpaceOnUse" x1="84.0235" y1="310.0217" x2="84.0235" y2="163.0868">
			<stop  offset="0" style="stop-color:#68472F"/>
			<stop  offset="1" style="stop-color:#68472F;stop-opacity:0"/>
		</linearGradient>
		<path class="st38" d="M87.4,166.5v143c0,0.2,0,0.3,0,0.5c-1.1,0.1-2.2,0.1-3.4,0.1s-2.3,0-3.4-0.1c0-0.2,0-0.3,0-0.5v-143
			c0-1.9,1.5-3.4,3.4-3.4c0.9,0,1.8,0.4,2.4,1C87.1,164.7,87.4,165.6,87.4,166.5z"/>
	</g>
	<g class="st2">
		<rect x="123.2" y="125.7" class="st16" width="3" height="17.3"/>
		<rect x="123.2" y="129.4" class="st18" width="3" height="1.3"/>
		<rect x="123.2" y="138" class="st18" width="3" height="1.3"/>
	</g>
</g>
<linearGradient id="SVGID_26_" gradientUnits="userSpaceOnUse" x1="528.3397" y1="-122.1124" x2="769.3553" y2="662.9605">
	<stop  offset="0" style="stop-color:#68EFD8"/>
	<stop  offset="0.4723" style="stop-color:#38C4DD"/>
	<stop  offset="1" style="stop-color:#0056AD"/>
</linearGradient>
<rect class="st39" width="1166" height="111.9"/>
</svg>
