<?xml version="1.0" encoding="utf-8"?>
<!-- Generator: Adobe Illustrator 21.1.0, SVG Export Plug-In . SVG Version: 6.00 Build 0)  -->
<svg version="1.1" id="Layer_1" xmlns="http://www.w3.org/2000/svg" xmlns:xlink="http://www.w3.org/1999/xlink" x="0px" y="0px"
	 width="22.9px" height="22.9px" viewBox="0 0 22.9 22.9" style="enable-background:new 0 0 22.9 22.9;" xml:space="preserve">
<style type="text/css">
	.st0{fill:#FFFFFF;}
</style>
<path id="graph_1_" class="st0" d="M11.4,0C10.6,0,9.8,0.1,9,0.3v11.2c0,1.4,1.1,2.5,2.5,2.5c1.4,0,2.5-1.1,2.5-2.5
	c0-1.3-1-2.4-2.3-2.5V7c2.4,0.1,4.3,2.1,4.3,4.5c0,2.5-2,4.5-4.5,4.5c-2.5,0-4.5-2-4.5-4.5V0.9C6.7,1,6.4,1.2,6.1,1.3v10.1
	c0,2.9,2.4,5.3,5.3,5.3c2.9,0,5.3-2.4,5.3-5.3c0-2.9-2.3-5.2-5.1-5.3v-2c3.9,0.1,7.1,3.3,7.1,7.3c0,4-3.3,7.3-7.3,7.3
	c-4,0-7.3-3.3-7.3-7.3V2.6C1.6,4.7,0,7.9,0,11.4c0,6.3,5.1,11.4,11.4,11.4c6.3,0,11.4-5.1,11.4-11.4C22.9,5.1,17.7,0,11.4,0z"/>
</svg>
