<?xml version="1.0" encoding="utf-8"?>
<!-- Generator: Adobe Illustrator 21.1.0, SVG Export Plug-In . SVG Version: 6.00 Build 0)  -->
<svg version="1.1" id="Layer_1" xmlns="http://www.w3.org/2000/svg" xmlns:xlink="http://www.w3.org/1999/xlink" x="0px" y="0px"
	 width="45.5px" height="45.5px" viewBox="0 0 45.5 45.5" style="enable-background:new 0 0 45.5 45.5;" xml:space="preserve">
<style type="text/css">
	.st0{display:none;fill:#1C0A41;}
	.st1{fill:#1C0A41;}
	.st2{display:none;}
	.st3{display:inline;}
	.st4{clip-path:url(#SVGID_2_);fill:#1C0F42;}
	.st5{display:none;fill:#1C0F42;}
</style>
<path id="XMLID_1526_" class="st0" d="M22.8,0c12.5,0.1,22.9,10.2,22.7,23.2c-0.2,12.3-10.2,22.3-22.8,22.3
	C10.2,45.5-0.2,35.3,0,22.3C0.2,10,10.2,0.1,22.8,0z M36.5,7.6c0,0,0-0.1,0-0.1C30.9,2.7,24.4,1,17.2,3c-4.9,1.3-8.7,4.2-11.6,8.5
	c0.2,0,0.3,0.1,0.4,0.1c1.6-0.1,3.3-0.1,4.9-0.2c0.5,0,1.1-0.1,1.6-0.1c0.5,0,0.8,0.3,0.8,0.7c0,0.5-0.2,0.8-0.7,0.8
	c-0.3,0-0.5,0.1-0.8,0.1c-0.5,0.1-1,0.1-1.6,0.2c2.5,7.4,5,14.8,7.5,22.2c0,0,0.1,0,0.1,0c0-0.1,0.1-0.1,0.1-0.2
	c1.4-4.3,2.9-8.6,4.3-12.9c0.1-0.2,0-0.4,0-0.6c-1-2.7-2-5.4-3-8.1c-0.1-0.3-0.3-0.4-0.6-0.4c-0.6,0-1.2-0.1-1.8-0.2
	c-0.2,0-0.5-0.3-0.6-0.5c-0.2-0.6,0.2-1,0.8-1c0.4,0,0.8,0.1,1.1,0.1c0.8,0.1,1.6,0.1,2.4,0.1c1.3,0,2.6,0,3.9,0
	c1.2,0,2.3-0.1,3.4-0.2c0.5,0,0.8,0.3,0.8,0.7c0,0.4-0.3,0.7-0.7,0.8c-0.6,0.1-1.2,0.1-1.8,0.2c-0.6,0-0.6,0-0.4,0.6
	c2.4,7,4.7,14,7.1,21c0,0.1,0.1,0.3,0.2,0.4c0.2-0.2,0.3-0.5,0.3-0.7c0.8-2.5,1.5-5,2.3-7.5c0.5-1.5,0.9-2.9,1-4.5
	c0.2-1.8-0.2-3.6-1-5.2c-0.6-1.1-1.2-2.1-1.8-3.2c-0.6-1.1-1-2.2-0.8-3.4c0.2-1.3,1.2-2.5,2.5-2.8C35.8,7.7,36.2,7.7,36.5,7.6z
	 M23.2,24.6c0,0-0.1,0-0.1,0c-0.1,0.1-0.1,0.2-0.2,0.3C21,30.6,19,36.3,17,42c-0.1,0.4-0.1,0.5,0.3,0.6c2.3,0.6,4.6,0.8,7,0.6
	c1.6-0.1,3.2-0.5,4.8-1c0.3-0.1,0.4-0.2,0.3-0.5c-1.8-4.8-3.5-9.7-5.3-14.5C23.8,26.4,23.5,25.5,23.2,24.6z M13.7,41.2
	c0.1,0,0.1-0.1,0.2-0.1c-3.2-8.9-6.5-17.8-9.7-26.7c-0.1,0-0.1,0-0.2,0c-2.1,5-2.4,10.1-0.5,15.3C5.3,34.9,8.8,38.7,13.7,41.2z
	 M40.9,13.1c0,0-0.1,0-0.1,0c0,0.1,0,0.2,0,0.3c0,1.4,0,2.8-0.1,4.2c-0.2,1.7-0.8,3.3-1.4,5c-2,5.8-4,11.6-6,17.5
	c-0.1,0.1-0.1,0.3-0.1,0.5c0,0,0.1,0,0.1,0.1c5.3-3.3,8.7-8,9.8-14.1C43.8,21.7,43.1,17.2,40.9,13.1z"/>
<g id="XMLID_1535_">
	<path id="j-green_2_" class="st1" d="M8.2,23l-0.9-0.9c-2.7-2.7-3.6-6.6-2.5-10C2.1,11.4,0,9,0,6.1C0,2.7,2.8,0,6.1,0
		c3,0,5.5,2.2,6,5.1c3.3-0.8,6.9,0.1,9.4,2.7l0.3,0.3l-4.5,4.5l-0.3-0.4c-1.5-1.5-3.8-1.5-5.3,0c-1.5,1.5-1.5,3.8,0,5.3l0.9,0.9
		l4.5,4.5l4.8,4.8l-4.5,4.5l-4.8-4.8L8.2,23L8.2,23z"/>
	<path id="j-orange_2_" class="st1" d="M13.2,17.9l4.8-4.8l4.5-4.5l0.9-0.9c2.7-2.7,6.6-3.6,10-2.6c0.4-3,3-5.3,6-5.3
		c3.4,0,6.1,2.7,6.1,6.1c0,3.1-2.3,5.6-5.3,6c1,3.4,0.1,7.2-2.6,9.9l-0.3,0.4l-4.5-4.5l0.3-0.3c1.5-1.5,1.5-3.8,0-5.3
		c-1.5-1.5-3.8-1.5-5.3,0L27,13.2l-4.5,4.5l-4.8,4.8L13.2,17.9L13.2,17.9z"/>
	<path id="j-red_2_" class="st1" d="M33.5,40.6c-3.5,1.1-7.4,0.2-10.1-2.5L23,37.8l4.5-4.5l0.3,0.3c1.5,1.5,3.8,1.5,5.3,0
		c1.5-1.5,1.5-3.8,0-5.3l-0.9-0.9L27.7,23L23,18.2l4.5-4.5l4.7,4.7l4.5,4.5l0.9,0.9c2.6,2.6,3.5,6.2,2.7,9.5c3,0.4,5.2,3,5.2,6
		c0,3.4-2.7,6.1-6.1,6.1C36.5,45.5,34,43.4,33.5,40.6L33.5,40.6z"/>
	<path id="j-blue_2_" class="st1" d="M31.7,28L27,32.7l-4.5,4.5l-0.9,0.9c-2.6,2.6-6.3,3.5-9.6,2.7c-0.6,2.7-3,4.7-5.9,4.7
		c-3.4,0-6.1-2.7-6.1-6.1c0-2.9,2-5.3,4.7-5.9c-0.9-3.3,0-7,2.6-9.6l0.3-0.3l4.5,4.5l-0.3,0.3c-1.5,1.5-1.5,3.8,0,5.3
		c1.5,1.5,3.8,1.5,5.3,0l0.9-0.9l4.5-4.5l4.7-4.8L31.7,28L31.7,28z"/>
</g>
<g id="XMLID_2666_" class="st2">
	<g id="XMLID_1540_" class="st3">
		<circle class="st1" cx="21.6" cy="35.3" r="7.1"/>
	</g>
	<g id="XMLID_1544_" class="st3">
		<path class="st1" d="M30.4,26.8c2.1,2.2,3.4,5.2,3.4,8.5c0,4.2-2.1,7.9-5.3,10.1c5.9-1.8,10.8-6.2,12.9-11.6c3-7.4,0.2-13-4.5-18
			c0.1,0.7,0.2,1.3,0.2,2C37.2,22,34.4,25.6,30.4,26.8z"/>
	</g>
	<g id="XMLID_1547_" class="st3">
		<circle class="st1" cx="27.8" cy="17.7" r="5.5"/>
	</g>
	<g id="XMLID_1551_" class="st3">
		<path class="st1" d="M12.2,43.2c-1.8-2.1-2.9-4.9-2.9-7.9c0-6.3,4.7-11.5,10.8-12.2c-1-1.5-1.7-3.4-1.7-5.3c0-5.2,4.2-9.4,9.4-9.4
			c0.4,0,0.8,0,1.3,0.1C26,5.8,23,3.1,20.5,0.1C21.8,13,8.8,8.3,4,20.2C0.8,28.2,3.7,38,12.2,43.2z"/>
	</g>
</g>
<g class="st2">
	<g class="st3">
		<defs>
			<path id="SVGID_1_" d="M44,11.6c-12.5,0-15,3.8-20.8,8.2c0,0,0.1-1.6-1.4-1.8C20.4,17.6,20,19,20,19s-0.5-0.8-0.7-1.6
				c-0.9-3.5-5-7.2-9.5-11.7c-4.5-4.5-9-4.1-9-4.1L0.4,3.2c-1.1,3.2,0,3.9,0,4.9c0,1,0.3,1.8,1,3.3C2.3,12.9,2.7,17.7,3,20
				c0.3,2.4,2.1,3.9,2.4,4.2c0.3,0.3-2.2,1.5-2.2,1.8v1.4c0,0.2-0.9,0.9-1.1,1.2c-0.2,0.2-0.3,1.2,0,5c0.3,3.8,6.8,7.8,8.5,8.1
				c1.8,0.4,3.3-3.1,4.3-3.5c1.1-0.4,3.7-3.2,3.7-3.2s0.8,7.4,0.8,4.6c0-2.8,1.7-3.5,1.7-3.5l0.2-1.9c0,0,1.8,5.9,3.9,8.1
				c2.1,2.1,6.2,2.5,6.6,2.5c0.4,0,3.1,0.1,5.4-5.8c2.4-5.9-1.4-7.4-0.6-7.4c0.8,0,3.6-2.3,3.2-4.3c-0.4-2,1.5-6,3.4-7.9
				c1.9-1.9,2.2-6.7,2.2-6.9C45.5,12.4,45.1,11.6,44,11.6z"/>
		</defs>
		<use xlink:href="#SVGID_1_"  style="overflow:visible;fill-rule:evenodd;clip-rule:evenodd;fill:#1C0F42;"/>
		<clipPath id="SVGID_2_">
			<use xlink:href="#SVGID_1_"  style="overflow:visible;"/>
		</clipPath>
		<rect x="-3.1" y="0.3" class="st4" width="51.8" height="45.9"/>
	</g>
</g>
<path id="graph_2_" class="st5" d="M22.7,0c-1.7,0-3.3,0.2-4.9,0.5v22.2c0,2.7,2.2,4.9,4.9,4.9c2.7,0,4.9-2.2,4.9-4.9
	c0-2.6-2-4.8-4.6-4.9v-4c4.7,0.2,8.6,4.1,8.6,8.9c0,4.9-4,8.9-8.9,8.9c-4.9,0-8.9-4-8.9-8.9v-21c-0.6,0.2-1.1,0.5-1.6,0.8v20.2
	c0,5.8,4.7,10.5,10.5,10.5c5.8,0,10.5-4.7,10.5-10.5c0-5.7-4.6-10.4-10.2-10.5v-4c7.8,0.2,14.2,6.6,14.2,14.5
	c0,8-6.5,14.5-14.5,14.5c-8,0-14.5-6.5-14.5-14.5V5.2C3.2,9.4,0,15.7,0,22.7c0,12.6,10.2,22.7,22.7,22.7c12.6,0,22.7-10.2,22.7-22.7
	C45.5,10.2,35.3,0,22.7,0z"/>
</svg>
