<?xml version="1.0" encoding="utf-8"?>
<!-- Generator: Adobe Illustrator 21.1.0, SVG Export Plug-In . SVG Version: 6.00 Build 0)  -->
<svg version="1.1" id="Layer_1" xmlns="http://www.w3.org/2000/svg" xmlns:xlink="http://www.w3.org/1999/xlink" x="0px" y="0px"
	 width="47.5px" height="47px" viewBox="0 0 47.5 47" style="enable-background:new 0 0 47.5 47;" xml:space="preserve">
<style type="text/css">
	.st0{display:none;}
	.st1{display:inline;fill:#1C0F42;}
	.st2{fill-rule:evenodd;clip-rule:evenodd;fill:#1C0F42;}
</style>
<g class="st0">
	<polygon class="st1" points="36.7,18.6 45.5,4.5 23,4.5 20.5,8.5 	"/>
	<polygon class="st1" points="5,0 5,22.5 9.8,25.5 36.1,19.5 	"/>
	<polygon class="st1" points="40.5,47 40.5,24.5 36.6,22 26.5,38.2 	"/>
	<polygon class="st1" points="9.4,27.5 0,42.5 22.5,42.5 35.7,21.4 	"/>
</g>
<g>
	<path class="st2" d="M47.3,22.4c-0.9-8.5-5.2-15.5-11.8-19.1l-2-1.1L32,3.9c-0.2,0.2-1.5,1.9-1.8,5.8c-3.9-1.2-8.9-1.2-12.8,0
		c-0.3-3.9-1.6-5.6-1.8-5.8L14,2.1l-2,1.1C5.3,6.9,1,13.9,0.1,22.4c-0.6,5.4,1.1,10.5,4.7,14.5c9.6,10.7,28.3,10.7,37.9,0
		C46.3,32.9,47.9,27.8,47.3,22.4L47.3,22.4z M38.4,33c-7.3,8.1-22.1,8.1-29.4,0c-2.5-2.8-3.6-6.2-3.2-10c0.5-5.1,2.6-9.5,5.8-12.4
		c0.1,0.9,0,1.9-0.1,3.2L11,19.1l4.7-2.6c5-2.7,10.9-2.7,15.9,0l4.7,2.6l-0.5-5.4c-0.1-1.3-0.1-2.3-0.1-3.2c3.2,3,5.3,7.3,5.8,12.4
		C42,26.8,40.9,30.2,38.4,33L38.4,33z"/>
</g>
</svg>
