<svg width="13" height="19" viewBox="0 0 13 19" fill="none" xmlns="http://www.w3.org/2000/svg">
    <path d="M6.45893 10.4568C5.63294 10.4568 4.80695 10.4568 3.98096 10.4568C3.86296 10.4568 3.86296 10.4568 3.80396 10.5705C3.68596 10.7978 3.62696 10.9683 3.56796 11.1956C3.50896 11.3661 3.44996 11.5934 3.33197 11.7639C3.27297 11.9344 3.21397 12.1049 3.09597 12.3322C3.03697 12.5027 2.97797 12.6732 2.91897 12.8437C2.91897 12.9005 2.85997 12.9005 2.85997 12.9574C2.80097 13.0142 2.74197 13.0142 2.68297 12.9574C2.44698 12.8437 2.15198 12.7869 1.91598 12.6732C1.56199 12.5596 1.20799 12.3891 0.853996 12.2754C0.794996 12.2186 0.676998 12.2186 0.617999 12.1617C0.5 12.1049 0.5 12.0481 0.5 11.9344C0.558999 11.8208 0.558999 11.7071 0.617999 11.5934C0.676998 11.423 0.735997 11.3093 0.794996 11.1388C0.853996 11.0251 0.912995 10.8546 0.912995 10.741C0.971994 10.5705 1.03099 10.4 1.08999 10.2295C1.14899 10.059 1.26699 9.83169 1.32599 9.6612C1.38499 9.49071 1.44399 9.32022 1.50299 9.14973C1.56199 8.97923 1.62099 8.80874 1.67999 8.63825C1.73898 8.46776 1.79798 8.24044 1.91598 8.06995C1.97498 7.84262 2.09298 7.67213 2.15198 7.50164C2.26998 7.21749 2.38798 6.99016 2.44698 6.76284C2.56497 6.47869 2.62397 6.25137 2.74197 5.96721C2.80097 5.79672 2.85997 5.62623 2.97797 5.45574C3.03697 5.28525 3.09597 5.11475 3.15497 4.94426C3.21397 4.77377 3.27297 4.60328 3.33197 4.43279C3.39096 4.2623 3.44996 4.0918 3.50896 3.86448C3.62696 3.58033 3.74496 3.40984 3.80396 3.18251C3.86296 2.95519 3.98096 2.72787 4.03996 2.50055C4.15796 2.27322 4.21695 2.10273 4.33495 1.87541C4.39395 1.70492 4.45295 1.53443 4.57095 1.36393C4.62995 1.13661 4.74795 0.90929 4.92495 0.681967C5.10194 0.454645 5.33794 0.284153 5.57394 0.170492C5.75094 0.113661 5.98693 0.0568306 6.16393 0C6.39993 0 6.63593 0 6.81292 0C6.98992 0 7.22592 0.113661 7.40292 0.170492C7.63891 0.284153 7.81591 0.454645 7.99291 0.681967C8.05191 0.795628 8.16991 0.90929 8.22891 1.02295C8.4059 1.3071 8.4649 1.59126 8.5829 1.81858C8.6419 1.98907 8.7009 2.15956 8.7599 2.33005C8.8189 2.55738 8.9369 2.7847 9.0549 3.01202C9.17289 3.23934 9.23189 3.46667 9.34989 3.75082C9.46789 3.97814 9.52689 4.20546 9.64489 4.43279C9.76289 4.66011 9.82189 4.88743 9.93988 5.17159C9.99888 5.39891 10.1169 5.62623 10.2349 5.85355C10.3529 6.08087 10.4119 6.3082 10.5299 6.59235C10.6479 6.81967 10.7069 7.047 10.8249 7.33115C10.8839 7.55847 11.0019 7.78579 11.0609 8.01311C11.1199 8.18361 11.1789 8.3541 11.2379 8.52459C11.2969 8.69508 11.3559 8.86557 11.4149 9.0929C11.4739 9.26339 11.5329 9.43388 11.6509 9.60437C11.7099 9.77486 11.7689 9.94536 11.8279 10.1158C11.9459 10.4 12.0049 10.6273 12.1229 10.9115C12.1819 11.082 12.2409 11.2525 12.2999 11.423C12.3589 11.5366 12.4179 11.7071 12.4769 11.8208C12.5359 11.9344 12.4769 12.0481 12.3589 12.0481C12.1819 12.1049 12.0639 12.1617 11.8869 12.2186C11.7099 12.2754 11.5329 12.3322 11.3559 12.3891C11.1789 12.4459 11.0019 12.5027 10.8249 12.5596C10.6479 12.6164 10.4709 12.6732 10.2939 12.7869C10.1759 12.8437 10.0579 12.7869 9.99888 12.6732C9.88089 12.3891 9.76289 12.1049 9.64489 11.7639C9.58589 11.5934 9.52689 11.3661 9.40889 11.1956C9.29089 10.9115 9.23189 10.6842 9.11389 10.4C9.11389 10.3432 9.0549 10.3432 8.9959 10.3432H8.9369C8.11091 10.4568 7.28492 10.4568 6.45893 10.4568ZM6.45893 3.01202C6.39993 3.06885 6.39993 3.12568 6.34093 3.18251C6.28193 3.29618 6.28193 3.35301 6.22293 3.46667C6.16393 3.63716 6.10493 3.80765 6.04593 3.97814C5.98693 4.0918 5.92793 4.2623 5.92793 4.37596C5.92793 4.48962 5.86893 4.60328 5.86893 4.71694C5.80994 4.8306 5.80994 4.94426 5.75094 5.00109C5.69194 5.17159 5.63294 5.34208 5.57394 5.45574C5.51494 5.62623 5.45594 5.73989 5.39694 5.91038C5.39694 6.08087 5.33794 6.19454 5.33794 6.3082C5.27894 6.42186 5.27894 6.53552 5.21994 6.59235C5.16094 6.76284 5.10194 6.93333 5.04294 7.047C4.98395 7.21749 4.92495 7.44481 4.86595 7.6153C4.80695 7.78579 4.74795 7.89945 4.68895 8.06995C4.62995 8.18361 4.68895 8.18361 4.80695 8.18361H4.86595C5.92793 8.18361 7.04892 8.18361 8.11091 8.18361H8.16991C8.22891 8.18361 8.2879 8.18361 8.22891 8.06995C8.16991 7.89945 8.11091 7.72896 8.05191 7.55847C7.99291 7.38798 7.93391 7.21749 7.87491 6.99016C7.81591 6.81967 7.75691 6.59235 7.69791 6.42186C7.63891 6.25137 7.57991 6.02404 7.46192 5.85355C7.40292 5.68306 7.34392 5.45574 7.28492 5.28525C7.22592 5.11475 7.16692 4.88743 7.04892 4.71694C6.93092 4.48962 6.87192 4.20546 6.75392 3.92131C6.69492 3.69399 6.57693 3.46667 6.51793 3.23934C6.57693 3.18251 6.51793 3.06885 6.45893 3.01202Z" fill="#EA4135"/>
    <path d="M6.44495 16C8.37156 16 10.2982 16 12.2248 16C12.2798 16 12.3349 16 12.3899 16C12.445 16.0652 12.5 16.1304 12.5 16.2609C12.5 16.9783 12.5 17.6957 12.5 18.413C12.5 18.5435 12.5 18.6087 12.5 18.7391C12.5 18.9348 12.445 18.9348 12.2798 19H12.2248C8.42661 19 4.57339 19 0.775229 19C0.720183 19 0.665138 19 0.610092 18.9348C0.555046 18.9348 0.5 18.8696 0.5 18.8043V18.7391C0.5 17.9565 0.5 17.1087 0.5 16.3261C0.5 16.1957 0.5 16.1304 0.610092 16.0652C0.610092 16.0652 0.665138 16.0652 0.720183 16.0652C0.775229 16.0652 0.775229 16.0652 0.830275 16.0652C2.64679 16 4.51835 16 6.44495 16Z" fill="#EA4135"/>
</svg>