<svg width="33" height="33" viewBox="0 0 33 33" fill="none" xmlns="http://www.w3.org/2000/svg">
    <g clip-path="url(#clip0)">
        <path d="M27.9 25.7002H5.1C4 25.7002 3 24.8002 3 23.6002V9.3002C3 8.1002 3.9 7.2002 5.1 7.2002H27.9C29.1 7.2002 30 8.1002 30 9.3002V23.7002C30 24.8002 29.1 25.7002 27.9 25.7002Z" fill="#125BB0"/>
        <path d="M10.1998 17.0004H7.5998C6.2998 17.0004 5.2998 16.0004 5.2998 14.7004C5.2998 13.4004 6.2998 12.4004 7.5998 12.4004H10.1998C11.4998 12.4004 12.4998 13.4004 12.4998 14.7004C12.4998 15.9004 11.4998 17.0004 10.1998 17.0004Z" fill="white"/>
        <path d="M27.2002 20H5.7002V22.5H27.2002V20Z" fill="white"/>
    </g>
    <defs>
        <clipPath id="clip0">
            <rect width="33" height="33" fill="white"/>
        </clipPath>
    </defs>
</svg>