<svg width="25" height="24" viewBox="0 0 25 24" fill="none" xmlns="http://www.w3.org/2000/svg">
    <path d="M7.48892 9.77016C7.70447 7.25541 5.40527 1.72297 5.40527 1.72297L7.41707 2.80072L8.42297 1.50742L9.85997 2.94442L10.7222 1.43557L11.7999 2.87257L12.5184 1.29187L13.8117 2.65702L14.6021 0.932617C17.3324 4.59696 16.9013 9.55461 16.9013 9.55461L7.48892 9.77016Z" fill="white"/>
    <path d="M24.0142 18.8267L17.3322 9.7736C17.404 9.70175 17.404 9.6299 17.404 9.55805C17.404 9.3425 17.8351 4.38485 15.033 0.648655C14.9611 0.504955 14.8174 0.433105 14.6019 0.433105C14.4582 0.433105 14.3145 0.576805 14.2426 0.720505L13.7397 1.79825L12.8775 0.936055C12.8056 0.792355 12.5901 0.792355 12.4464 0.792355C12.3027 0.792355 12.159 0.936055 12.0871 1.07975L11.656 1.94195L11.1531 1.1516C11.0812 1.0079 10.9375 0.936055 10.722 0.936055C10.5783 0.936055 10.4346 1.0079 10.2909 1.1516L9.7161 2.1575L8.78205 1.1516C8.7102 1.07975 8.5665 1.0079 8.4228 1.0079C8.2791 1.0079 8.1354 1.07975 8.06355 1.1516L7.34505 2.08565L5.6925 1.2953C5.47695 1.1516 5.2614 1.22345 5.1177 1.36715C4.974 1.51085 4.90215 1.7264 4.974 1.8701C4.974 1.8701 5.5488 3.37895 6.1236 5.10335C5.62065 5.10335 5.2614 5.10335 5.18955 5.10335C3.6807 4.8878 2.02815 5.82185 1.0941 7.54625C0.0163557 9.6299 0.447455 12.0009 2.1 12.8631C2.5311 13.0787 2.9622 13.1505 3.46515 13.1505L9.78795 22.2036C10.5783 23.3532 11.9434 23.9999 13.3086 23.9999L22.0743 23.7843C22.5772 23.7843 23.0802 23.4969 23.2957 22.994L24.1579 21.3414C24.6609 20.5511 24.589 19.5452 24.0142 18.8267ZM6.33915 2.7323L7.20135 3.1634C7.4169 3.3071 7.7043 3.23525 7.848 3.09155L8.49465 2.3012L9.5724 3.3071C9.64425 3.4508 9.8598 3.4508 10.0035 3.4508C10.1472 3.4508 10.2909 3.3071 10.3627 3.23525L10.8657 2.37305L11.4405 3.23525C11.5123 3.37895 11.7279 3.4508 11.8716 3.4508C12.0153 3.4508 12.159 3.3071 12.2308 3.1634L12.6619 2.22935L13.5241 3.09155C13.596 3.23525 13.8115 3.23525 13.9552 3.23525C14.0989 3.23525 14.2426 3.09155 14.3145 2.94785L14.7456 1.8701C15.967 3.81005 16.3981 6.0374 16.47 7.6181C16.5418 8.1929 16.5418 8.69585 16.47 9.0551L7.9917 9.27065C7.9917 9.12695 7.9917 8.98325 7.9917 8.9114C7.9917 8.624 7.91985 8.26475 7.848 7.9055C7.7043 6.97145 7.4169 6.0374 7.1295 5.10335C6.8421 4.1693 6.5547 3.37895 6.33915 2.7323Z" fill="#4E3E9D"/>
    <path d="M16.3962 10.8545L17.9769 13.2974L10.5045 13.7285L8.92383 10.9982L16.3962 10.8545Z" fill="white"/>
    <path d="M18.2316 18.8178C18.4345 18.4314 18.2002 17.9087 17.7083 17.6505C17.2165 17.3923 16.6532 17.4963 16.4504 17.8827C16.2475 18.2692 16.4818 18.7918 16.9736 19.0501C17.4655 19.3083 18.0287 19.2043 18.2316 18.8178Z" fill="white"/>
    <path d="M21.0715 18.5122C21.2743 18.1257 21.0401 17.6031 20.5482 17.3448C20.0563 17.0866 19.4931 17.1906 19.2902 17.5771C19.0873 17.9636 19.3216 18.4862 19.8135 18.7444C20.3054 19.0026 20.8686 18.8986 21.0715 18.5122Z" fill="white"/>
    <path d="M15.216 18.8178C15.4189 18.4314 15.1846 17.9087 14.6927 17.6505C14.2008 17.3923 13.6376 17.4963 13.4347 17.8827C13.2319 18.2692 13.4661 18.7918 13.958 19.0501C14.4499 19.3083 15.0131 19.2043 15.216 18.8178Z" fill="white"/>
    <path d="M16.8615 16.4575C17.0644 16.071 16.8301 15.5484 16.3382 15.2902C15.8463 15.0319 15.2831 15.1359 15.0802 15.5224C14.8774 15.9089 15.1116 16.4315 15.6035 16.6897C16.0954 16.9479 16.6586 16.844 16.8615 16.4575Z" fill="white"/>
    <path d="M19.634 16.1171C19.8368 15.7307 19.6026 15.208 19.1107 14.9498C18.6188 14.6916 18.0556 14.7956 17.8527 15.1821C17.6498 15.5685 17.8841 16.0912 18.376 16.3494C18.8679 16.6076 19.4311 16.5036 19.634 16.1171Z" fill="white"/>
    <path d="M13.8459 16.4575C14.0488 16.071 13.8145 15.5484 13.3226 15.2902C12.8307 15.0319 12.2675 15.1359 12.0646 15.5224C11.8617 15.9089 12.096 16.4315 12.5879 16.6897C13.0798 16.9479 13.643 16.844 13.8459 16.4575Z" fill="white"/>
</svg>
