<svg width="47" height="7" viewBox="0 0 47 7" fill="none" xmlns="http://www.w3.org/2000/svg">
    <path d="M18.5658 1.80225C18.0778 1.80225 17.9688 2.02055 17.9688 2.29057V5.41357H18.4961C18.9841 5.41357 19.0936 5.19543 19.0936 4.92546H19.0939V2.6399H20.7861V1.80225H18.5658Z" fill="#F09D2D"/>
    <path d="M12.9433 1.80322C12.4547 1.80322 12.3459 2.02076 12.3459 2.29078V3.13954H11.1749V1.80322H10.6463C10.1578 1.80322 10.0488 2.02076 10.0488 2.29078V5.41228H10.5773C11.0656 5.41228 11.1749 5.19423 11.1749 4.92433V3.99274H12.3459V5.41228H12.874C13.3622 5.41228 13.4715 5.19423 13.4715 4.92433V1.80322H12.9433Z" fill="#F09D2D"/>
    <path d="M15.2009 3.08604V1.80225H14.6723C14.1849 1.80225 14.0752 2.02071 14.0752 2.29057V5.30366C14.5439 5.41255 15.17 5.48886 15.8355 5.48886C16.7012 5.48886 17.5431 5.20913 17.5431 4.274C17.5431 4.06318 17.4929 3.8621 17.4148 3.72136C16.9678 2.9169 15.7183 2.97983 15.2009 3.08604ZM16.2472 4.59313C16.03 4.74472 15.422 4.69632 15.2009 4.67179V3.84833C15.2466 3.83908 16.1199 3.68145 16.3644 4.03688C16.4885 4.21737 16.4166 4.50196 16.2472 4.59313Z" fill="#F09D2D"/>
    <path d="M9.07967 2.17624C8.75209 1.86235 8.30629 1.70557 7.74214 1.70557C6.66875 1.70557 5.83789 2.46949 5.83789 3.63519C5.83789 5.00431 6.85764 5.50998 7.93855 5.50998C8.71339 5.50998 9.20894 5.34159 9.33653 5.28294C9.33653 5.28294 9.28549 5.01742 9.28079 4.99809C9.18222 4.57259 8.95627 4.51334 8.70272 4.56132C8.70272 4.56132 7.13547 4.91406 6.99413 3.94423H9.54807C9.64449 3.01641 9.4072 2.48978 9.07967 2.17624ZM6.99413 3.24379C7.00909 3.15708 7.0877 2.55036 7.75718 2.55036C8.44195 2.55036 8.47758 3.15708 8.48295 3.24379H6.99413Z" fill="#F09D2D"/>
    <path d="M33.6556 1.82809C33.1069 1.62202 32.0132 1.68979 31.1201 1.91351V5.40194H31.6475C32.1358 5.40194 32.2451 5.18389 32.2451 4.914L32.2459 2.61399C32.3399 2.60096 32.6116 2.58017 32.7451 2.57975C33.0063 2.57891 33.1857 2.64827 33.2813 2.78548C33.3771 2.92312 33.4249 3.15634 33.4249 3.48631V5.40194C33.4249 5.40194 33.7841 5.40194 33.831 5.40194C34.1998 5.40194 34.5506 5.38152 34.5506 4.914C34.5506 4.914 34.5506 4.29187 34.5506 3.36254C34.5506 2.43308 34.2046 2.02287 33.6556 1.82809Z" fill="#5C7388"/>
    <path d="M35.1553 0.561465V5.40142H35.6838C36.1722 5.40142 36.2812 5.18329 36.2812 4.91339V0.0737305H35.7527C35.2646 0.0737305 35.1553 0.291445 35.1553 0.561465Z" fill="#5C7388"/>
    <path d="M36.9043 2.27877V5.40106H37.4333C37.9212 5.40106 38.0302 5.18293 38.0302 4.91304V1.7915H37.5019C37.0135 1.7915 36.9043 2.00893 36.9043 2.27877Z" fill="#5C7388"/>
    <path d="M37.4593 0C37.0857 0 36.7832 0.301821 36.7832 0.676237C36.7832 1.04948 37.0857 1.3519 37.4593 1.3519C37.8323 1.3519 38.1353 1.04948 38.1353 0.676237C38.1353 0.301821 37.8323 0 37.4593 0Z" fill="#F09D2D"/>
    <path d="M41.2511 1.82809C40.7027 1.62202 39.609 1.68979 38.7158 1.91351V5.40194H39.2433C39.7316 5.40194 39.8407 5.18389 39.8407 4.914L39.8416 2.61399C39.9357 2.60096 40.2074 2.58017 40.3408 2.57975C40.6021 2.57891 40.7815 2.64827 40.8771 2.78548C40.9729 2.92312 41.0206 3.15634 41.0206 3.48631V5.40194C41.0206 5.40194 41.3799 5.40194 41.4268 5.40194C41.7955 5.40194 42.1462 5.38152 42.1462 4.914C42.1462 4.914 42.1462 4.29187 42.1462 3.36254C42.1462 2.43308 41.8004 2.02287 41.2511 1.82809Z" fill="#5C7388"/>
    <path d="M45.8228 2.16456C45.4951 1.85085 45.0492 1.69385 44.4853 1.69385C43.4117 1.69385 42.5811 2.45785 42.5811 3.62359C42.5811 4.99254 43.6007 5.49838 44.6815 5.49838C45.4567 5.49838 45.9519 5.32983 46.0796 5.27143C46.0796 5.27143 46.0284 5.00582 46.0237 4.98667C45.9254 4.56082 45.6994 4.50167 45.4459 4.54973C45.4459 4.54973 43.8785 4.90247 43.7373 3.93264H46.2911C46.3874 3.00482 46.1502 2.47823 45.8228 2.16456ZM43.7373 3.23211C43.7522 3.14548 43.8306 2.53886 44.5001 2.53886C45.185 2.53886 45.2206 3.14548 45.226 3.23211H43.7373Z" fill="#5C7388"/>
    <path d="M46.3115 1.8449H46.4166V2.1332H46.4792V1.8449H46.5839V1.7915H46.3115V1.8449Z" fill="#5C7388"/>
    <path d="M46.9738 1.7915H46.9173C46.8773 1.86166 46.8218 1.99414 46.8144 2.0117C46.8063 1.99414 46.7441 1.84616 46.7106 1.7915H46.6532C46.6373 1.91775 46.627 2.10278 46.627 2.1332H46.688C46.6893 2.09312 46.6922 1.98741 46.7007 1.88788C46.7007 1.88788 46.775 2.04841 46.7901 2.0877H46.8365C46.8743 1.99691 46.9257 1.88788 46.9257 1.88788C46.9324 1.9525 46.938 2.09165 46.9389 2.1332H46.9997C46.9997 2.07988 46.9812 1.84062 46.9738 1.7915Z" fill="#5C7388"/>
    <path d="M22.365 1.80225H21.8363C21.3488 1.80225 21.2393 2.02067 21.2393 2.29052V5.41357H21.6227C22.0899 5.41357 22.3472 5.21317 22.5311 4.95932C22.5349 4.95562 23.5486 3.55508 23.7174 3.3356V5.41357H24.2583C24.7462 5.41357 24.8559 5.19527 24.8559 4.92546H24.8563L24.8576 1.80225H24.4202C24.0261 1.80225 23.7841 1.94778 23.6033 2.14192C23.3118 2.45462 22.6678 3.35618 22.3652 3.75859L22.365 1.80225Z" fill="#F09D2D"/>
    <path d="M29.8487 1.16519C29.583 0.907359 28.9877 0.533691 28.0043 0.533691C26.9951 0.533691 26.4143 0.950509 26.1795 1.16519C25.9494 1.37568 25.3975 1.90214 25.3975 3.01915C25.3975 4.12048 25.9242 4.66077 26.1608 4.86975C26.4617 5.1362 27.03 5.49834 28.0043 5.49834C28.7559 5.49834 29.4413 5.26778 29.8635 4.86975C30.0705 4.67481 30.6115 4.1314 30.6115 3.01915C30.6115 1.91189 30.1421 1.44979 29.8487 1.16519ZM28.0043 4.55775C27.03 4.55775 26.6139 3.81177 26.6139 3.01915C26.6139 2.16843 27.062 1.47433 28.0043 1.47433C29.0581 1.47433 29.4122 2.27001 29.4122 3.01915C29.4122 3.9237 28.8837 4.55775 28.0043 4.55775Z" fill="#5C7388"/>
    <path d="M4.51813 6.64043C4.56233 6.6406 4.88394 6.63967 4.92755 6.63967C5.29617 6.63967 5.64631 6.61926 5.64631 6.15182L5.64707 4.47827H4.99351V0.655365H2.05763C1.39034 0.647552 1.46017 1.14368 1.46017 1.14368C1.46017 1.85215 1.42034 3.41618 0.668596 4.47827H0L0.000249781 6.63758L0.414959 6.63817C0.783584 6.63817 1.13288 6.62733 1.13288 6.15208L1.13276 5.41331H4.5175L4.51813 6.64043ZM3.84534 4.47827H1.89172C2.07948 4.18325 2.48092 3.46424 2.55927 1.82308L2.56083 1.81955C2.56083 1.69541 2.61052 1.59462 2.82891 1.591H3.84534V4.47827Z" fill="#F09D2D"/>
</svg>