<?xml version="1.0" encoding="utf-8"?>
<!-- Generator: Adobe Illustrator 21.1.0, SVG Export Plug-In . SVG Version: 6.00 Build 0)  -->
<svg version="1.1" id="Layer_1" xmlns="http://www.w3.org/2000/svg" xmlns:xlink="http://www.w3.org/1999/xlink" x="0px" y="0px"
	 width="33.3px" height="41.4px" viewBox="0 0 33.3 41.4" style="enable-background:new 0 0 33.3 41.4;" xml:space="preserve">
<style type="text/css">
	.st0{display:none;}
	.st1{display:inline;fill:#2E2170;}
	.st2{fill:#2E2170;}
	.st3{display:inline;fill:#FFFFFF;}
</style>
<g id="XMLID_2523_" class="st0">
	<path id="XMLID_2525_" class="st1" d="M10.9,22.1c-1.4,0-2.8,0-4.2,0c-0.2,0-0.2,0-0.3,0.2C6.2,22.7,6.1,23,6,23.4
		c-0.1,0.3-0.2,0.7-0.4,1c-0.1,0.3-0.2,0.6-0.4,1c-0.1,0.3-0.2,0.6-0.3,0.9c0,0.1-0.1,0.1-0.1,0.2c-0.1,0.1-0.2,0.1-0.3,0
		c-0.4-0.2-0.9-0.3-1.3-0.5c-0.6-0.2-1.2-0.5-1.8-0.7c-0.1-0.1-0.3-0.1-0.4-0.2c-0.2-0.1-0.2-0.2-0.2-0.4c0.1-0.2,0.1-0.4,0.2-0.6
		c0.1-0.3,0.2-0.5,0.3-0.8c0.1-0.2,0.2-0.5,0.2-0.7c0.1-0.3,0.2-0.6,0.3-0.9c0.1-0.3,0.3-0.7,0.4-1c0.1-0.3,0.2-0.6,0.3-0.9
		c0.1-0.3,0.2-0.6,0.3-0.9c0.1-0.3,0.2-0.7,0.4-1c0.1-0.4,0.3-0.7,0.4-1C3.8,16.4,4,16,4.1,15.6c0.2-0.5,0.3-0.9,0.5-1.4
		c0.1-0.3,0.2-0.6,0.4-0.9c0.1-0.3,0.2-0.6,0.3-0.9c0.1-0.3,0.2-0.6,0.3-0.9c0.1-0.3,0.2-0.6,0.3-1C6.1,10,6.3,9.7,6.4,9.3
		c0.1-0.4,0.3-0.8,0.4-1.2C7,7.7,7.1,7.4,7.3,7c0.1-0.3,0.2-0.6,0.4-0.9C7.8,5.7,8,5.3,8.3,4.9C8.6,4.5,9,4.2,9.4,4
		c0.3-0.1,0.7-0.2,1-0.3c0.4,0,0.8,0,1.1,0c0.3,0,0.7,0.2,1,0.3c0.4,0.2,0.7,0.5,1,0.9c0.1,0.2,0.3,0.4,0.4,0.6
		c0.3,0.5,0.4,1,0.6,1.4c0.1,0.3,0.2,0.6,0.3,0.9c0.1,0.4,0.3,0.8,0.5,1.2c0.2,0.4,0.3,0.8,0.5,1.3c0.2,0.4,0.3,0.8,0.5,1.2
		c0.2,0.4,0.3,0.8,0.5,1.3c0.1,0.4,0.3,0.8,0.5,1.2c0.2,0.4,0.3,0.8,0.5,1.3c0.2,0.4,0.3,0.8,0.5,1.3c0.1,0.4,0.3,0.8,0.4,1.2
		c0.1,0.3,0.2,0.6,0.3,0.9c0.1,0.3,0.2,0.6,0.3,1c0.1,0.3,0.2,0.6,0.4,0.9c0.1,0.3,0.2,0.6,0.3,0.9c0.2,0.5,0.3,0.9,0.5,1.4
		c0.1,0.3,0.2,0.6,0.3,0.9c0.1,0.2,0.2,0.5,0.3,0.7c0.1,0.2,0,0.4-0.2,0.4c-0.3,0.1-0.5,0.2-0.8,0.3c-0.3,0.1-0.6,0.2-0.9,0.3
		c-0.3,0.1-0.6,0.2-0.9,0.3c-0.3,0.1-0.6,0.2-0.9,0.4c-0.2,0.1-0.4,0-0.5-0.2c-0.2-0.5-0.4-1-0.6-1.6c-0.1-0.3-0.2-0.7-0.4-1
		c-0.2-0.5-0.3-0.9-0.5-1.4c0-0.1-0.1-0.1-0.2-0.1c0,0-0.1,0-0.1,0C13.7,22.1,12.3,22.1,10.9,22.1z M10.9,9C10.9,9,10.9,9,10.9,9
		c-0.1,0.1-0.1,0.2-0.2,0.3c-0.1,0.2-0.1,0.3-0.2,0.5c-0.1,0.3-0.2,0.6-0.3,0.9c-0.1,0.2-0.2,0.5-0.2,0.7C10,11.6,9.9,11.8,9.9,12
		c-0.1,0.2-0.1,0.4-0.2,0.5c-0.1,0.3-0.2,0.6-0.3,0.8c-0.1,0.3-0.2,0.5-0.3,0.8C9.1,14.4,9,14.6,9,14.8c-0.1,0.2-0.1,0.4-0.2,0.5
		c-0.1,0.3-0.2,0.6-0.3,0.8c-0.1,0.3-0.2,0.7-0.3,1c-0.1,0.3-0.2,0.5-0.3,0.8c-0.1,0.2,0,0.2,0.2,0.2c0,0,0.1,0,0.1,0
		c1.8,0,3.7,0,5.5,0c0,0,0.1,0,0.1,0c0.1,0,0.2,0,0.1-0.2c-0.1-0.3-0.2-0.6-0.3-0.9c-0.1-0.3-0.2-0.6-0.3-1c-0.1-0.3-0.2-0.7-0.3-1
		c-0.1-0.3-0.2-0.7-0.4-1c-0.1-0.3-0.2-0.7-0.3-1c-0.1-0.3-0.2-0.7-0.4-1c-0.2-0.4-0.3-0.9-0.5-1.4c-0.1-0.4-0.3-0.8-0.4-1.2
		C11.1,9.3,11,9.1,10.9,9z"/>
	<path id="XMLID_2524_" class="st1" d="M10.9,33.2c3.5,0,7,0,10.5,0c0.1,0,0.2,0,0.3,0c0.1,0.1,0.2,0.2,0.2,0.4c0,1.1,0,2.2,0,3.3
		c0,0.2,0,0.3,0,0.5c0,0.3-0.1,0.3-0.4,0.4c0,0-0.1,0-0.1,0c-6.9,0-13.9,0-20.8,0c-0.1,0-0.2,0-0.3-0.1c-0.1,0-0.2-0.1-0.2-0.2
		c0,0,0-0.1,0-0.1c0-1.2,0-2.5,0-3.7c0-0.2,0-0.3,0.2-0.4c0,0,0.1,0,0.2,0c0.1,0,0.1,0,0.2,0C4,33.2,7.4,33.2,10.9,33.2z"/>
</g>
<g id="XMLID_2433_" class="st0">
	<path id="XMLID_2520_" class="st1" d="M19.7,8.3L8.4,15.1L3,11.8c0.3-0.4,0.7-0.8,1.1-1.2l4.3,2.6l9.5-5.7
		C18.6,7.7,19.2,8,19.7,8.3z"/>
	<path id="XMLID_2519_" class="st1" d="M22.6,10.3L8.4,18.9l-7.1-4.4c0.2-0.5,0.5-0.9,0.8-1.4L8.4,17l12.9-7.8
		C21.8,9.6,22.2,9.9,22.6,10.3z"/>
	<path id="XMLID_2518_" class="st1" d="M24.6,12.6L8.4,22.3l-8.1-5c0.1-0.5,0.2-0.9,0.4-1.3l7.7,4.7l15.4-9.3
		C24.1,11.8,24.4,12.2,24.6,12.6z"/>
	<path id="XMLID_2517_" class="st1" d="M27.1,20.3c0,7.5-6.1,13.5-13.5,13.5C6.1,33.9,0,27.8,0,20.3c0-0.3,0-0.7,0-1l8.3,5.1
		l17.2-10.3C26.5,16,27.1,18.1,27.1,20.3z"/>
	<line id="XMLID_2516_" class="st1" x1="0" y1="19.3" x2="0" y2="19.3"/>
	<line id="XMLID_2434_" class="st1" x1="22.6" y1="10.3" x2="22.6" y2="10.3"/>
</g>
<g class="st0">
	<path id="XMLID_2430_" class="st1" d="M16.8,27.5c0.5,0.6,0.9,1.2,1.4,1.6c1,0.9,2.2,1.5,3.5,1.8c0.9,0.2,1.7,0.3,2.6,0.4
		c0.8,0.2,1.6,0.3,2.3,0.6c1.9,0.6,3.4,1.7,4.8,3.1c0.8,0.8,1.4,1.7,1.8,2.7c0,0.1,0.1,0.2,0.1,0.3c0,0.1,0,0.1-0.1,0.2
		c0,0-0.1,0-0.1-0.1c-0.4-0.8-1-1.4-1.6-2c-1-1-2.1-1.8-3.4-2.3c-0.6-0.3-1.2-0.5-1.9-0.7c-0.6-0.2-1.3-0.3-1.9-0.4
		c-0.8-0.1-1.6-0.1-2.4-0.1c-0.7,0-1.5,0.1-2.2,0.3c-0.8,0.2-1.7,0.4-2.5,0.5c-0.7,0-1.5,0.1-2.2,0.1c-0.9-0.1-1.8-0.2-2.7-0.3
		c-0.8-0.1-1.5-0.3-2.2-0.6c-0.7-0.2-1.4-0.5-2-0.8c-0.8-0.4-1.6-0.9-2.4-1.4c-1.4-0.9-2.5-2.1-3.4-3.5c-0.7-1.1-1.2-2.2-1.6-3.5
		c-0.2-0.9-0.5-1.7-0.5-2.6C0,20,0,19.1,0,18.3c0-0.8,0.2-1.5,0.3-2.3c0.2-0.8,0.5-1.6,0.7-2.4c0.3-0.9,0.8-1.8,1.3-2.6
		c1-1.5,2.2-2.9,3.6-4c1.2-0.9,2.5-1.7,3.8-2.3c1-0.4,2.1-0.8,3.2-1c1.1-0.2,2.2-0.3,3.3-0.3c0.9,0,1.9,0.1,2.8,0.2
		c0.9,0.2,1.8,0.4,2.6,0.7c0.8,0.3,1.7,0.7,2.4,1.2c1.3,0.7,2.5,1.7,3.5,2.9c0.9,1.1,1.7,2.2,2.3,3.5c0.5,1.1,0.8,2.2,1,3.3
		c0.2,1.1,0.3,2.2,0.2,3.3c-0.1,1.1-0.2,2.1-0.5,3.1c-0.3,1.1-0.7,2.2-1.3,3.3c-0.4,0.8-0.9,1.6-1.4,2.3c-0.1,0.1-0.1,0.2-0.2,0.2
		c-0.8-2.6-2.3-4.1-5-4.6c1.2-0.2,2.3,0.1,3.4,0.8c0.1-0.3,0.2-0.5,0.2-0.7c0.2-1,0.3-1.9,0.3-2.9c0-1.2-0.2-2.5-0.6-3.7
		c-0.4-1.3-1-2.5-1.7-3.6c-0.9-1.4-2-2.5-3.2-3.5c-0.8-0.6-1.6-1.1-2.5-1.5c-0.7-0.3-1.5-0.6-2.2-0.8c-1.1-0.3-2.2-0.4-3.3-0.4
		c-1.1,0-2.1,0.3-3.1,0.7C8.8,7.6,7.7,8.4,6.9,9.5c-0.8,0.9-1.4,1.9-1.8,3.1c-0.2,0.7-0.5,1.4-0.6,2.2c-0.2,1.2-0.2,2.4-0.1,3.5
		c0.1,1,0.3,1.9,0.7,2.8c0.6,1.6,1.4,3.1,2.5,4.4c1.3,1.5,3,2.5,4.8,3.3c0.9,0.4,1.9,0.7,2.9,0.8c0.5,0.1,1,0.1,1.5,0.2
		c0.2,0,0.2,0,0.2-0.2c-0.2-0.6-0.3-1.2-0.2-1.8C16.8,27.6,16.8,27.6,16.8,27.5C16.8,27.5,16.8,27.5,16.8,27.5z"/>
	<path id="XMLID_2429_" class="st1" d="M24.5,28.9c0,0.6-0.5,1-1.1,0.7c-0.4-0.2-0.7-0.7-0.6-1.1c0-0.3,0.2-0.5,0.4-0.6
		c0.3-0.1,0.6-0.1,0.9,0.1C24.4,28.2,24.5,28.5,24.5,28.9z"/>
	<path id="XMLID_2428_" class="st1" d="M27,27.9c0,0.1,0,0.1,0,0.2c0,0.1-0.1,0.2-0.1,0.2c-0.1,0-0.2,0-0.2-0.1
		c-0.3-0.4-0.5-0.8-0.5-1.2c0-0.1,0-0.2,0.1-0.3c0.1,0,0.3,0,0.3,0.1c0.2,0.2,0.3,0.4,0.4,0.7C27,27.6,27,27.8,27,27.9z"/>
</g>
<g id="XMLID_2402_" class="st0">
	<path id="XMLID_2423_" class="st1" d="M3.6,20.2c0,0.4,0,0.8,0,1.2c0,0.1,0,0.2,0.2,0.2c0.3,0,0.3,0,0.3,0.3c0,0.3,0,0.6,0,0.9
		C4,22.9,3.9,23,3.7,23c-0.1,0-0.2,0-0.3,0c-0.1,0-0.1,0-0.1-0.1c0-0.2,0-0.4,0-0.6c0-0.1,0-0.2-0.2-0.2c-0.7,0-1.4,0-2.2,0
		c-0.1,0-0.2,0-0.2,0.2c0,0.1,0,0.3,0,0.4c0,0.2-0.1,0.3-0.3,0.3c-0.1,0-0.3,0-0.4,0C0.1,23,0,23,0,22.9c0-0.4,0-0.8,0-1.3
		c0-0.1,0.1-0.1,0.1-0.1c0.3,0.1,0.4-0.1,0.6-0.4C0.9,20.8,1,20.3,1,19.8c0-0.2,0-0.5,0-0.7c0-0.2,0.1-0.3,0.2-0.3
		c0.1,0,0.1,0,0.2,0c0.6,0,1.2,0,1.9,0c0.1,0,0.2,0,0.2,0.2C3.6,19.4,3.6,19.8,3.6,20.2z M2.8,20.5c0-0.3,0-0.6,0-0.9
		c0-0.2,0-0.2-0.2-0.2c-0.2,0-0.3,0-0.5,0c-0.2,0-0.3,0.1-0.3,0.3c0,0,0,0.1,0,0.1c0,0.5-0.1,1.1-0.4,1.6c-0.1,0.1,0,0.1,0.1,0.1
		c0.4,0,0.7,0,1.1,0c0.1,0,0.2-0.1,0.2-0.2C2.8,21.1,2.8,20.8,2.8,20.5z"/>
	<path id="XMLID_2420_" class="st1" d="M22,20.6c0,0.5-0.3,1.1-0.9,1.4c-0.5,0.2-1,0.3-1.5,0.1c-0.5-0.1-0.9-0.4-1.2-0.8
		c-0.4-0.7-0.3-1.9,0.7-2.4c0.5-0.2,1-0.3,1.5-0.2c0.5,0.1,0.9,0.4,1.2,0.8C21.9,19.8,22,20.1,22,20.6z M20.1,19.4
		c-0.2,0-0.5,0.1-0.7,0.3c-0.3,0.4-0.3,0.9-0.1,1.4c0.1,0.4,0.4,0.5,0.8,0.5c0.4,0,0.7-0.1,0.9-0.4c0.2-0.3,0.2-0.6,0.2-1
		C21,19.7,20.7,19.4,20.1,19.4z"/>
	<path id="XMLID_2419_" class="st1" d="M17,20.7c-0.1,0.2-0.3,0.3-0.4,0.5c-0.1,0.2-0.3,0.4-0.4,0.6c-0.2,0.3-0.5,0.4-0.8,0.4
		c-0.1,0-0.1-0.1-0.1-0.1c0-0.2,0-0.5,0-0.7c0-0.5,0-0.9,0-1.4c0-0.2,0.1-0.3,0.3-0.3c0.1,0,0.2,0,0.2,0c0.1,0,0.2,0.1,0.2,0.2
		c0,0.3,0,0.7,0,1c0,0.1,0,0.1,0,0.2c0,0,0,0,0,0c0.1-0.1,0.2-0.2,0.3-0.4c0.2-0.2,0.4-0.5,0.6-0.7c0.2-0.3,0.5-0.3,0.8-0.3
		c0.1,0,0.1,0.1,0.1,0.2c0,0.2,0,0.4,0,0.5c0,0.5,0,1,0,1.5c0,0.3-0.1,0.4-0.4,0.4c-0.4,0-0.4,0-0.4-0.4c0-0.3,0-0.6,0-0.9
		C17.1,20.8,17.1,20.8,17,20.7C17.1,20.7,17,20.7,17,20.7z"/>
	<path id="XMLID_2416_" class="st1" d="M31.5,21.1c0,0.2,0.1,0.3,0.3,0.4c0.2,0.1,0.4,0.1,0.7,0.1c0.1,0,0.1,0,0.2,0
		c0.3-0.1,0.5,0,0.5,0.4c0,0,0,0.1-0.1,0.1c-0.6,0.2-1.2,0.2-1.8-0.1c-0.5-0.3-0.6-0.9-0.6-1.3c0.1-0.5,0.3-0.8,0.7-1
		c0.6-0.3,1.4-0.1,1.8,0.4c0.2,0.3,0.2,0.6,0.2,0.9c0,0.1-0.1,0.1-0.1,0.1c-0.5,0-1,0-1.5,0C31.6,21.1,31.6,21.1,31.5,21.1z
		 M32,20.6L32,20.6c0.1,0,0.3,0,0.4,0c0.2,0,0.2,0,0.1-0.2c-0.1-0.2-0.3-0.3-0.6-0.3c-0.2,0-0.4,0.2-0.5,0.4c0,0.1,0,0.1,0.1,0.1
		C31.7,20.6,31.9,20.6,32,20.6z"/>
	<path id="XMLID_2413_" class="st1" d="M5.9,21.1c-0.3,0-0.5,0-0.8,0c-0.1,0-0.2,0-0.1,0.2c0.1,0.2,0.3,0.3,0.6,0.4
		c0.2,0,0.4,0,0.6,0c0.3,0,0.5,0.1,0.4,0.4c0,0-0.1,0.1-0.1,0.1c-0.4,0.1-0.9,0.1-1.3,0.1C5,22.1,4.7,22,4.5,21.8
		c-0.3-0.3-0.4-0.7-0.3-1.1c0.1-0.5,0.3-0.8,0.8-1c0.3-0.1,0.6-0.1,0.9-0.1c0.4,0.1,0.7,0.3,0.8,0.6c0.1,0.3,0.1,0.5,0.1,0.8
		c0,0.1-0.1,0.1-0.1,0.1C6.4,21.1,6.2,21.1,5.9,21.1L5.9,21.1z M5.5,20.7L5.5,20.7c0.1,0,0.3,0,0.4,0c0.2,0,0.2,0,0.1-0.2
		c-0.1-0.2-0.3-0.4-0.6-0.4c-0.2,0-0.5,0.2-0.5,0.4c0,0.1,0,0.1,0.1,0.1C5.3,20.7,5.4,20.7,5.5,20.7z"/>
	<path id="XMLID_2412_" class="st1" d="M29.5,22.2c0-0.1,0-0.1,0-0.2c0-0.4,0-0.8,0-1.2c0-0.6-0.1-0.7-0.7-0.7
		c-0.1,0-0.1,0.1-0.1,0.2c0,0.5,0,0.9,0,1.4c0,0.4-0.1,0.5-0.5,0.5c-0.3,0-0.3,0-0.3-0.3c0-0.7,0-1.3,0-2c0-0.1,0-0.2,0.2-0.2
		c0.5-0.1,1.1-0.2,1.6,0c0.4,0.1,0.6,0.4,0.7,0.8c0,0.5,0,1,0,1.5c0,0.2-0.1,0.3-0.3,0.3C29.9,22.2,29.7,22.2,29.5,22.2z"/>
	<path id="XMLID_2411_" class="st1" d="M24.1,22.2c0-0.1,0-0.1,0-0.2c0-0.4,0-0.8,0-1.2c0-0.1,0-0.3-0.1-0.4c0-0.2-0.1-0.3-0.3-0.3
		c-0.1,0-0.2,0-0.4,0c-0.1,0-0.1,0.1-0.1,0.2c0,0.5,0,1,0,1.4c0,0.3-0.1,0.4-0.4,0.4c-0.1,0-0.2,0-0.3,0c0-0.1,0-0.1,0-0.2
		c0-0.7,0-1.4,0-2.2c0-0.1,0-0.2,0.2-0.2c0.5-0.1,1-0.2,1.5-0.1c0.5,0.1,0.8,0.4,0.8,0.9c0,0.5,0,0.9,0,1.4c0,0.2-0.1,0.3-0.2,0.3
		C24.4,22.2,24.3,22.2,24.1,22.2z"/>
	<path id="XMLID_2410_" class="st1" d="M9.6,20.8c0,0.3,0,0.7,0,1c0,0.2-0.1,0.3-0.3,0.3c-0.5,0-0.4,0.1-0.4-0.4c0-0.2,0-0.3,0-0.5
		c0-0.1,0-0.1-0.1-0.1c-0.2,0-0.4,0-0.6,0C8,21.1,8,21.2,8,21.3c0,0.2,0,0.3,0,0.5c0,0.2-0.1,0.4-0.4,0.4c-0.4,0-0.4,0.1-0.4-0.4
		c0-0.6,0-1.2,0-1.8c0-0.3,0.1-0.4,0.4-0.4C8,19.6,8,19.6,8,20c0,0.1,0,0.3,0,0.4c0,0.1,0,0.1,0.1,0.1c0.2,0,0.4,0,0.6,0
		c0.1,0,0.1,0,0.1-0.1c0-0.2,0-0.4,0-0.5c0-0.2,0.1-0.3,0.3-0.3c0.1,0,0.2,0,0.3,0c0.1,0,0.2,0,0.2,0.2C9.6,20.1,9.6,20.5,9.6,20.8z
		"/>
	<path id="XMLID_2407_" class="st1" d="M11.3,22.2c-0.3,0-0.6-0.1-1-0.1c-0.1,0-0.2-0.1-0.1-0.2c0-0.7,0-1.3,0-2
		c0-0.2,0.1-0.3,0.3-0.3c0.5,0,0.4-0.1,0.4,0.4c0,0.1,0,0.2,0,0.4c0,0.2,0,0.2,0.2,0.2c0.4,0,0.8,0,1.1,0.1c0.3,0.2,0.4,0.4,0.4,0.7
		c0,0.3-0.2,0.5-0.5,0.7C11.8,22.2,11.6,22.2,11.3,22.2z M11.2,21.7c0.1,0,0.3,0,0.4-0.1c0.1,0,0.2-0.1,0.2-0.3c0-0.1,0-0.2-0.2-0.3
		c-0.1,0-0.3-0.1-0.4-0.1c-0.3,0-0.3,0-0.3,0.3C10.9,21.7,10.9,21.7,11.2,21.7z"/>
	<path id="XMLID_2406_" class="st1" d="M26.1,20.2c0,0.5,0,1.1,0,1.6c0,0.3-0.1,0.4-0.4,0.4c-0.4,0-0.4,0-0.4-0.4c0-1,0-1.9,0-2.9
		c0-0.4,0.1-0.5,0.5-0.5c0.3,0,0.3,0,0.3,0.3C26.1,19.2,26.1,19.7,26.1,20.2z"/>
	<path id="XMLID_2405_" class="st1" d="M12.9,21c0-0.3,0-0.7,0-1c0-0.2,0.1-0.3,0.3-0.4c0.5,0,1,0,1.5,0c0.1,0,0.1,0,0.1,0.1
		c0,0.5,0.1,0.4-0.4,0.4c-0.2,0-0.4,0-0.6,0c-0.2,0-0.2,0-0.2,0.2c0,0.5,0,1,0,1.4c0,0.3-0.1,0.4-0.4,0.4c-0.4,0-0.4,0-0.4-0.4
		C12.9,21.5,12.9,21.3,12.9,21z"/>
	<path id="XMLID_2404_" class="st1" d="M26.6,22.2c0-0.1,0-0.1,0-0.2c0-0.7,0-1.3,0-2c0-0.3,0.1-0.4,0.4-0.4c0.5,0,0.4-0.1,0.4,0.4
		c0,0.6,0,1.2,0,1.7c0,0.4-0.1,0.5-0.5,0.5C26.8,22.2,26.7,22.2,26.6,22.2z"/>
	<path id="XMLID_2403_" class="st1" d="M27.4,18.8c0,0.3-0.2,0.5-0.5,0.5c-0.3,0-0.5-0.2-0.5-0.5c0-0.3,0.2-0.5,0.5-0.5
		C27.2,18.3,27.4,18.5,27.4,18.8z"/>
</g>
<g id="XMLID_2395_">
	<path id="XMLID_2397_" class="st2" d="M11.3,5.6c0-1.4,0-2.7,0-4c0-0.2,0-0.5,0.3-0.5c2.6,1.5,5.2,3,7.8,4.5c-0.3,1-0.7,1.9-1,2.9
		c-0.1,0.4-0.3,0.7-0.4,1.1c-0.1,0.4-0.3,0.7-0.4,1.1c-0.2,0.6-0.5,1.3-0.7,1.9c-0.2,0.6-0.4,1.3-0.7,1.9c-0.3,0.8-0.6,1.5-0.9,2.3
		c-0.4,1.2-0.9,2.4-1.3,3.7c-0.1,0.5-0.3,1-0.5,1.5c-0.2,0.5-0.3,1-0.5,1.5c-0.5,1.1-0.8,2.4-1.3,3.5c0,0.1,0,0.2-0.1,0.3
		c0,0-0.1,0-0.2,0c0-5.6,0-11.2,0-16.8c-1.6,0.7-3,1.6-4.1,2.9c-1.1,1.3-2,2.7-2.3,4.3c-0.7,3-0.4,2.8-0.3,5c0.4,1.6,1,3.1,2,4.5
		c1,1.4,2.3,2.4,3.7,3.3c-0.5,1.4-1,2.8-1.6,4.3c-0.6-0.3-1.2-0.6-1.7-1c-0.7-0.5-1.3-1-2-1.5c-0.7-0.5-1.1-1.2-1.7-1.8
		c-0.5-0.5-0.9-1.1-1.2-1.8c-0.2-0.4-0.5-0.8-0.7-1.2c-0.4-0.8-0.7-1.7-1-2.5c-0.2-0.7-0.3-1.4-0.4-2.1c-0.2-1.2-0.1-2.4-0.1-3.6
		c0-0.9,0.3-1.7,0.5-2.6c0.2-0.9,0.6-1.8,0.9-2.6c0.3-0.7,0.7-1.3,1.1-1.9c0.8-1.2,1.7-2.3,2.8-3.2c1.2-1,2.4-1.8,3.8-2.4
		C9.9,6.2,10.6,5.9,11.3,5.6z"/>
	<path id="XMLID_2396_" class="st2" d="M19.6,35.7c0,1.6,0,3.1,0,4.7c-0.3-0.2-0.5-0.3-0.7-0.4c-0.7-0.4-1.4-0.8-2-1.2
		c-0.3-0.2-0.7-0.4-1.1-0.6c-0.8-0.5-1.7-0.9-2.5-1.5c-0.4-0.3-0.9-0.5-1.4-0.8c-0.2-0.4,0.3-0.8,0.3-1.3c0.5-0.9,0.7-1.8,1.1-2.7
		c0.3-0.7,0.5-1.5,0.8-2.2c0.3-0.8,0.6-1.6,0.9-2.4c0.1-0.4,0.3-0.7,0.4-1.1c0.1-0.4,0.3-0.7,0.4-1.1c0.2-0.8,0.6-1.6,0.8-2.4
		c0.1-0.4,0.3-0.7,0.4-1.1c0.1-0.4,0.3-0.7,0.4-1.1c0.2-0.8,0.6-1.6,0.9-2.4c0.2-0.7,0.5-1.4,0.8-2.1c0.2-0.6,0.5-1.3,0.7-2
		c0,0.3,0,0.4,0,0.6c0,5.1,0,10.3,0,15.4c0,0.2-0.1,0.5,0.2,0.7c0.9-0.3,1.7-0.8,2.4-1.4c1-0.8,2-1.8,2.6-2.8
		c0.7-1.1,1.2-2.2,1.5-3.4c0.1-0.5,0.2-1.1,0.3-1.6c0.1-0.5,0.2-0.9,0.1-1.4c-0.1-0.9-0.1-1.9-0.5-2.8c0-0.5-0.3-0.9-0.5-1.4
		c-0.3-0.8-0.7-1.6-1.2-2.2c-0.7-0.9-1.4-1.7-2.4-2.3c-0.3-0.4-0.9-0.5-1.3-0.9c0.5-1.4,1-2.8,1.5-4.2c0.7,0.4,1.3,0.7,1.9,1.1
		c0.1,0.1,0.2,0.1,0.2,0.1c0.5,0.4,1,0.8,1.4,1.2c0.5,0.4,0.9,0.8,1.3,1.3c0.6,0.7,1.2,1.4,1.6,2.2c0.3,0.6,0.6,1.1,0.9,1.7
		c0.3,0.7,0.6,1.4,0.8,2.1c0.1,0.4,0.2,0.9,0.4,1.3c0.1,0.4,0.1,0.9,0.2,1.4c0,0.4,0.1,0.8,0.1,1.2c0,0.4,0.1,0.8-0.1,1.2
		c-0.1,0.3,0,0.8-0.1,1.1c-0.1,0.4-0.2,0.8-0.2,1.1c-0.1,0.6-0.3,1.2-0.4,1.8c-0.1,0.3-0.1,0.5-0.3,0.8c-0.3,0.6-0.5,1.3-0.9,1.8
		c-0.3,0.4-0.6,1-0.9,1.4c-0.2,0.3-0.4,0.5-0.6,0.8c-0.4,0.5-0.9,1.1-1.4,1.5c-0.6,0.6-1.3,1.1-2,1.6c-0.9,0.6-1.8,1.1-3.1,1.6
		c-0.2,0.1-0.5,0.2-0.8,0.3C20.2,35.6,20,35.6,19.6,35.7z"/>
</g>
<g class="st0">
	<path class="st1" d="M17.6,41.4H5.1c-2.8,0-5.1-2.3-5.1-5.1V5.1C0,2.3,2.3,0,5.1,0h12.5c2.8,0,5.1,2.3,5.1,5.1v31.3
		C22.6,39.1,20.4,41.4,17.6,41.4z"/>
	<rect x="1.6" y="6.6" class="st3" width="19.4" height="26.8"/>
	<circle class="st3" cx="11.3" cy="37.4" r="2.1"/>
	<rect x="8.7" y="2.9" class="st3" width="5.2" height="0.6"/>
</g>
<g class="st0">
	<polygon class="st3" points="8.1,32.6 5.8,34.8 5.8,13.8 2.4,13.8 2.4,9.8 27.7,9.8 27.7,13.8 24.4,13.8 24.4,34.8 22.1,32.6 
		19.8,34.8 17.5,32.6 15.1,34.8 12.8,32.6 10.5,34.8 	"/>
	<path class="st1" d="M27.3,5.6h-24C1.5,5.6,0,7,0,8.9v5.9c0,1.8,1.5,3.3,3.3,3.3h1.5v16.8c0,0.4,0.2,0.8,0.6,0.9
		c0.1,0.1,0.3,0.1,0.4,0.1c0.3,0,0.5-0.1,0.7-0.3L8.1,34l1.6,1.6c0.4,0.4,1,0.4,1.4,0l1.6-1.6l1.6,1.6c0.4,0.4,1,0.4,1.4,0l1.6-1.6
		l1.6,1.6c0.4,0.4,1,0.4,1.4,0l1.6-1.6l1.6,1.6c0.3,0.3,0.7,0.4,1.1,0.2c0.4-0.2,0.6-0.5,0.6-0.9V18.1h1.9c1.8,0,3.3-1.5,3.3-3.3
		V8.9C30.6,7,29.1,5.6,27.3,5.6z M26.7,12.8h-1.3h-1h-1v5.2v14.4l-0.6-0.6c-0.4-0.4-1-0.4-1.4,0l-1.6,1.6l-1.6-1.6
		c-0.4-0.4-1-0.4-1.4,0l-1.6,1.6l-1.6-1.6c-0.4-0.4-1-0.4-1.4,0l-1.6,1.6l-1.6-1.6c-0.2-0.2-0.4-0.3-0.7-0.3s-0.5,0.1-0.7,0.3
		l-0.6,0.6V18.1v-5.2h-1h-1H3.4v-2h1.5h20.4h1.4V12.8z"/>
</g>
<g class="st0">
	<polygon class="st1" points="24.8,4.4 24.8,37 0,37 0,14.4 0.3,14.1 9.6,4.7 9.9,4.4 	"/>
	<rect x="3.9" y="18.6" class="st3" width="17.1" height="1.5"/>
	<rect x="3.9" y="21.8" class="st3" width="17.1" height="1.5"/>
	<polygon class="st3" points="16.6,30.6 15.1,29 13.6,30.3 16.6,33.6 21.8,27.8 20.3,26.5 	"/>
	<polygon class="st3" points="9.4,7.8 9.4,13.8 3.4,13.8 	"/>
</g>
</svg>
