<svg width="25" height="25" viewBox="0 0 25 25" fill="none" xmlns="http://www.w3.org/2000/svg">
    <path d="M20.5152 16.8206C20.5903 17.3079 20.4312 17.5096 20.2713 17.5096C20.097 17.5096 19.878 17.3121 19.6198 16.9224C19.365 16.5378 19.2717 16.0964 19.3981 15.8733C19.4814 15.7257 19.6562 15.6615 19.8765 15.7421C20.3029 15.898 20.4703 16.5296 20.5152 16.8206ZM18.1559 17.8828C18.6671 18.301 18.8228 18.7981 18.5522 19.1488C18.4017 19.341 18.158 19.4471 17.8659 19.4471C17.5789 19.4471 17.2866 19.3445 17.0837 19.1731C16.6187 18.7801 16.4822 18.1428 16.7858 17.7808C16.9044 17.6393 17.097 17.5614 17.3281 17.5614C17.6088 17.5614 17.9027 17.6757 18.1559 17.8828ZM17.3003 21.9193C19.503 21.9193 21.8931 22.6499 24.5384 24.9172C24.8034 25.1443 25.1561 24.8621 24.9251 24.58C22.3253 21.405 19.9208 20.8004 17.5229 20.2893C14.5898 19.6642 13.081 18.0676 12.0296 16.3148C11.8204 15.9661 11.7265 16.0276 11.7077 16.4758C11.6847 17.024 11.7238 17.7495 11.8506 18.4633C11.7324 18.4686 11.6133 18.4672 11.4936 18.4672C7.29742 18.4672 3.89571 15.1767 3.89571 11.1178C3.89571 7.05877 7.29742 3.76829 11.4936 3.76829C15.6899 3.76829 19.0916 7.05877 19.0916 11.1178C19.0916 11.4066 19.077 11.692 19.0435 11.9721C18.4885 11.8753 17.3966 11.8644 16.6304 11.9285C16.3422 11.9526 16.3828 12.0825 16.6006 12.1206C19.1123 12.5596 20.8379 14.0652 21.2323 16.7974C21.2414 16.8602 21.3264 16.8791 21.36 16.8247C22.3936 15.1565 22.9873 13.2041 22.9873 11.1178C22.9873 4.97759 17.8414 0 11.4936 0C5.14588 0 0 4.97759 0 11.1178C0 17.2579 5.14588 22.2361 11.4936 22.2361C13.1778 22.2361 14.8483 21.9193 17.3003 21.9193Z" fill="#FF8C00"/>
</svg>