<svg width="20" height="19" viewBox="0 0 20 19" fill="none" xmlns="http://www.w3.org/2000/svg">
    <path d="M17.9137 3.69245C17.7114 3.40206 17.5092 3.11168 17.3069 2.82129L6.10043 9.41724L0.679262 6.22297C0.557893 6.59633 0.47698 6.9282 0.436523 7.30156L6.14089 10.6618L17.9137 3.69245Z" fill="#1A9F29"/>
    <path d="M6.10154 11.9067L0.275808 8.4635C0.235352 8.67092 0.235352 8.91982 0.235352 9.12724C0.235352 14.5616 4.52374 19.0004 9.86399 19.0004C15.1638 19.0004 19.4926 14.6031 19.4926 9.12724C19.4926 7.50936 19.1285 5.97446 18.4408 4.64697L6.10154 11.9067Z" fill="#1A9F29"/>
    <path d="M16.5392 1.99232C16.256 1.70193 15.9728 1.49451 15.6896 1.24561L6.10142 6.92891L1.48938 4.23245C1.32756 4.52284 1.16573 4.85471 1.00391 5.18658L6.06097 8.17342L16.5392 1.99232Z" fill="#1A9F29"/>
    <path d="M14.7195 0.580775C14.3554 0.373355 13.9913 0.165936 13.5867 0L6.10229 4.43878L2.7444 2.48904C2.50166 2.73794 2.29938 3.02833 2.05664 3.31872L6.06183 5.6833L14.7195 0.580775Z" fill="#1A9F29"/>
</svg>