<svg width="13" height="21" viewBox="0 0 13 21" fill="none" xmlns="http://www.w3.org/2000/svg">
    <path d="M9.53984 21H3.19926C1.77897 21 0.612305 19.8333 0.612305 18.413V2.58696C0.612305 1.16667 1.77897 0 3.19926 0H9.53984C10.9601 0 12.1268 1.16667 12.1268 2.58696V18.4638C12.0761 19.8333 10.9601 21 9.53984 21Z" fill="#E30613"/>
    <path d="M11.2625 3.3501H1.42188V16.9443H11.2625V3.3501Z" fill="white"/>
    <path d="M6.34256 20.0347C6.93086 20.0347 7.40778 19.5578 7.40778 18.9695C7.40778 18.3812 6.93086 17.9043 6.34256 17.9043C5.75426 17.9043 5.27734 18.3812 5.27734 18.9695C5.27734 19.5578 5.75426 20.0347 6.34256 20.0347Z" fill="white"/>
    <path d="M7.66209 1.46777H5.02441V1.77212H7.66209V1.46777Z" fill="white"/>
</svg>