<svg width="19" height="17" viewBox="0 0 19 17" fill="none" xmlns="http://www.w3.org/2000/svg">
    <path d="M5.51446 15.1472L4.22441 16.3811V4.60245H2.31738V2.35889H16.5079V4.60245H14.657V16.3811L13.3669 15.1472L12.0769 16.3811L10.7868 15.1472L9.44068 16.3811L8.15064 15.1472L6.86059 16.3811L5.51446 15.1472Z" fill="white"/>
    <path d="M16.282 0.00292969H2.82066C1.81106 0.00292969 0.969727 0.788175 0.969727 1.85387V5.16312C0.969727 6.17272 1.81106 7.01405 2.82066 7.01405H3.662V16.437C3.662 16.6614 3.77418 16.8857 3.99853 16.9418C4.05462 16.9979 4.1668 16.9979 4.22289 16.9979C4.39116 16.9979 4.50333 16.9418 4.61551 16.8296L5.51294 15.9322L6.41036 16.8296C6.63471 17.054 6.97125 17.054 7.1956 16.8296L8.09303 15.9322L8.99045 16.8296C9.21481 17.054 9.55134 17.054 9.7757 16.8296L10.6731 15.9322L11.5705 16.8296C11.7949 17.054 12.1314 17.054 12.3558 16.8296L13.2532 15.9322L14.1506 16.8296C14.3189 16.9979 14.5433 17.054 14.7676 16.9418C14.992 16.8296 15.1042 16.6614 15.1042 16.437V7.01405H16.1698C17.1794 7.01405 18.0208 6.17272 18.0208 5.16312V1.85387C18.133 0.788175 17.2916 0.00292969 16.282 0.00292969ZM15.9455 4.04134H15.2163H14.6554H14.0946V6.95796V15.0348L13.758 14.6982C13.5337 14.4739 13.1971 14.4739 12.9728 14.6982L12.0753 15.5957L11.1779 14.6982C10.9536 14.4739 10.617 14.4739 10.3927 14.6982L9.49525 15.5957L8.59783 14.6982C8.37347 14.4739 8.03694 14.4739 7.81258 14.6982L6.91516 15.5957L6.01774 14.6982C5.90556 14.5861 5.79338 14.53 5.62511 14.53C5.45685 14.53 5.34467 14.5861 5.23249 14.6982L4.89596 15.0348V7.01405V4.09743H4.33507H3.77418H2.87675V2.97565H3.71809H15.1602H15.9455V4.04134Z" fill="#F5752D"/>
</svg>