<svg width="20" height="20" viewBox="0 0 20 20" fill="none" xmlns="http://www.w3.org/2000/svg">
    <path d="M15.6912 17.6267C14.0815 18.901 12.0694 19.7059 9.85603 19.7059C4.75866 19.7059 0.533203 15.5475 0.533203 10.3831C0.533203 5.21862 4.69159 1.06023 9.85603 0.993164C11.5328 0.993164 13.0754 1.39559 14.4839 2.20044L13.5449 3.00529L12.4047 1.66387L10.1243 3.67599L8.84997 2.20044L4.82573 5.68811L7.44149 8.70629L6.43543 9.57821L8.98411 12.4623L8.04512 13.2671L11.5328 17.2913L13.8132 15.2792L15.6912 17.6267Z" fill="#036CB5"/>
    <path d="M10.6947 6.26609L8.70996 3.99219L6.48659 5.93284L8.47135 8.20674L10.6947 6.26609Z" fill="#036CB5"/>
    <path d="M12.2785 10.0051L10.3379 7.78174L8.11452 9.72239L10.0552 11.9458L12.2785 10.0051Z" fill="#036CB5"/>
    <path d="M13.8108 13.7937L11.8701 11.5703L9.69728 13.4669L11.6379 15.6902L13.8108 13.7937Z" fill="#036CB5"/>
    <path d="M16.6479 11.8633L15.1924 10.1958L13.5249 11.6513L14.9803 13.3188L16.6479 11.8633Z" fill="#036CB5"/>
    <path d="M18.0922 15.25L16.6367 13.5825L14.9692 15.038L16.4247 16.7055L18.0922 15.25Z" fill="#036CB5"/>
    <path d="M15.2533 8.40581L13.7979 6.73828L12.1303 8.19377L13.5858 9.86129L15.2533 8.40581Z" fill="#036CB5"/>
    <path d="M13.6772 5.11381L12.2217 3.44629L10.5542 4.90178L12.0096 6.5693L13.6772 5.11381Z" fill="#036CB5"/>
    <path d="M16.1616 4.24084L15.2354 3.17969L14.1742 4.10591L15.1004 5.16706L16.1616 4.24084Z" fill="#036CB5"/>
    <path d="M17.6088 7.46203L16.6826 6.40088L15.6215 7.3271L16.5477 8.38825L17.6088 7.46203Z" fill="#036CB5"/>
    <path d="M19.0024 10.7301L18.0762 9.66895L17.015 10.5952L17.9412 11.6563L19.0024 10.7301Z" fill="#036CB5"/>
</svg>