<svg width="21" height="29" viewBox="0 0 21 29" fill="none" xmlns="http://www.w3.org/2000/svg">
    <path d="M0.00099372 14.6408C0.00099372 13.0901 0.131043 12.1063 3.3416 9.70982C6.00019 7.72531 14.52 0.944824 14.52 0.944824V12.2642H20.9997V28.5552H2.02422C0.911347 28.5552 0 27.6439 0 26.531L0.00099372 14.6408Z" fill="#F5CA44"/>
    <path d="M14.5213 12.2661V18.8242L2.61523 26.936L17.6683 22.0378V12.2661H14.5213Z" fill="#BE9E34"/>
    <path d="M9.07949 11.9249C9.77541 11.0949 10.793 10.8021 11.3509 11.2707C11.9088 11.7392 11.7976 12.7915 11.1017 13.6215C10.4058 14.4514 9.38823 14.7433 8.83031 14.2747C8.27139 13.8071 8.38357 12.7548 9.07949 11.9249Z" fill="black"/>
</svg>
