<svg xmlns="http://www.w3.org/2000/svg" viewBox="0 0 176.84 176.84"><defs><style>.cls-1{fill:#9ed184;}.cls-2{fill:#171519;}.cls-3{fill:#dfdfef;}.cls-4{fill:#a4cc64;}.cls-5{fill:#1d1d1b;}.cls-6{fill:#4e4d5e;}.cls-7{fill:#ff7676;}.cls-8{fill:#fff;}.cls-9{fill:#9861e5;}.cls-10{fill:#662483;}</style></defs><title>Asset 7</title><g id="Layer_2" data-name="Layer 2"><g id="Layer_1-2" data-name="Layer 1"><circle class="cls-1" cx="88.42" cy="88.42" r="88.42"/><path class="cls-2" d="M156.9,88.33c0,15.91-11.19,36.28-28.39,44.94a89.36,89.36,0,0,1-39.86,9,90.4,90.4,0,0,1-37.42-7.79C32.66,125.94,20.39,105,20.39,88.33c0-22.9,23.19-37.26,54.08-40.57a134.33,134.33,0,0,1,28.35,0C133.71,51.07,156.9,65.43,156.9,88.33Z"/><path class="cls-2" d="M29.13,84.42,39.76,33a5.85,5.85,0,0,1,9.18-3.48l32.21,23.6Z"/><path class="cls-2" d="M149.8,84.53,139,33a5.85,5.85,0,0,0-9.18-3.48L97.63,53.07Z"/><ellipse class="cls-3" cx="88.65" cy="111.78" rx="24.01" ry="17.16"/><path class="cls-4" d="M58.45,76.62C51.3,75,44.78,75,41.46,81.1c.38,7,7.29,15,14.44,16.55a16,16,0,0,0,17.57-8C73.09,82.68,65.6,78.22,58.45,76.62Z"/><path class="cls-4" d="M118.18,75.92c7.51-1.83,16.27-2.06,19.76,4.94-.41,7.94-7.63,15.79-15.13,17.61s-15-2.11-18.45-9.11C104.77,81.42,110.67,77.74,118.18,75.92Z"/><path class="cls-5" d="M79.25,118.94a11.17,11.17,0,0,1-11.29-11h3a8.29,8.29,0,0,0,16.58,0h3A11.18,11.18,0,0,1,79.25,118.94Z"/><path class="cls-5" d="M98.83,118.94a11.17,11.17,0,0,1-11.29-11h3a8.29,8.29,0,0,0,16.58,0h3A11.18,11.18,0,0,1,98.83,118.94Z"/><rect class="cls-5" x="87.54" y="101.78" width="3" height="8.07"/><ellipse class="cls-2" cx="58.45" cy="84.53" rx="8.08" ry="9.67"/><ellipse class="cls-2" cx="120.13" cy="84.53" rx="8.08" ry="9.67"/><polygon class="cls-6" points="62.06 51.18 46.26 37.41 43.35 57.88 62.06 51.18"/><polygon class="cls-6" points="115.71 50.54 131.51 36.78 134.41 57.25 115.71 50.54"/><path class="cls-7" d="M89.66,104.84l5.8-5.38a.91.91,0,0,0-.62-1.58H83.23a.91.91,0,0,0-.62,1.58l5.81,5.38A.92.92,0,0,0,89.66,104.84Z"/><rect class="cls-8" x="124.06" y="100.27" width="45.23" height="2" transform="matrix(0.96, -0.29, 0.29, 0.96, -23.26, 47.5)"/><rect class="cls-8" x="125.06" y="114.94" width="37.94" height="2"/><rect class="cls-8" x="26.91" y="78.65" width="2" height="45.23" transform="translate(-77.09 98.2) rotate(-72.92)"/><rect class="cls-8" x="11.58" y="114.94" width="37.94" height="2"/><ellipse class="cls-8" cx="52.07" cy="85.65" rx="5.31" ry="2.76"/><path class="cls-9" d="M95.47,45.1l10-4.92a1.44,1.44,0,0,1,2.07,1.3l-.08,11.11a1.44,1.44,0,0,1-2.2,1.21l-9.94-6.19A1.44,1.44,0,0,1,95.47,45.1Z"/><path class="cls-9" d="M89.11,45.37,79.33,40a1.43,1.43,0,0,0-2.13,1.2l-.46,11.09a1.45,1.45,0,0,0,2.14,1.32l10.23-5.7A1.43,1.43,0,0,0,89.11,45.37Z"/><ellipse class="cls-8" cx="114.19" cy="85.65" rx="5.31" ry="2.76"/><circle class="cls-10" cx="92.34" cy="46.87" r="5.2"/></g></g></svg>