<?xml version="1.0" encoding="utf-8"?>
<!-- Generator: Adobe Illustrator 21.1.0, SVG Export Plug-In . SVG Version: 6.00 Build 0)  -->
<svg version="1.1" id="Layer_1" xmlns="http://www.w3.org/2000/svg" xmlns:xlink="http://www.w3.org/1999/xlink" x="0px" y="0px"
	 width="317.2px" height="265.7px" viewBox="0 0 317.2 265.7" style="enable-background:new 0 0 317.2 265.7;" xml:space="preserve"
	>
<style type="text/css">
	.st0{display:none;}
	.st1{display:inline;}
	.st2{opacity:0.3;fill:url(#SVGID_1_);}
	.st3{opacity:0.65;fill:url(#SVGID_2_);}
	.st4{fill:url(#SVGID_3_);}
	.st5{display:inline;fill:#F2F2F2;}
	.st6{display:inline;fill:#2C56F2;}
	.st7{display:inline;fill:#F0699C;}
	.st8{display:inline;opacity:0.4;fill:#FFFFFF;}
	.st9{fill:#3C3C99;}
	.st10{fill:#2C56F2;}
	.st11{fill:#F0699C;}
	.st12{fill:#EFD17D;}
	.st13{fill:#AAEEFF;}
	.st14{fill:#2F2B70;}
	.st15{display:inline;opacity:0.2;fill:#2F2B70;}
	.st16{opacity:0.8;fill:#FFFFFF;}
	.st17{fill:none;stroke:#2C56F2;stroke-width:2.1026;stroke-linecap:round;stroke-linejoin:round;stroke-miterlimit:10;}
	.st18{fill:url(#SVGID_4_);}
	.st19{fill:none;stroke:#FFFFFF;stroke-width:1.2473;stroke-linecap:round;stroke-linejoin:round;stroke-miterlimit:10;}
	.st20{display:inline;fill:#FFFFFF;}
	.st21{fill:#2E2170;}
	.st22{fill:#FFFFFF;}
	.st23{fill:#CE9B1D;}
	.st24{fill:#AD7D12;}
	.st25{fill:none;stroke:#CE9B1D;stroke-width:0.844;stroke-miterlimit:10;}
	.st26{display:inline;fill:#CE9B1D;}
	.st27{display:inline;fill:#EFD17D;}
	.st28{display:inline;fill:url(#SVGID_5_);}
	.st29{display:inline;fill:#AD7D12;}
	.st30{display:inline;fill:none;stroke:#CE9B1D;stroke-width:1.1656;stroke-miterlimit:10;}
	.st31{opacity:0.3;fill:url(#SVGID_6_);}
	.st32{opacity:0.65;fill:url(#SVGID_7_);}
	.st33{fill:url(#SVGID_8_);}
	.st34{opacity:0.8;fill:url(#SVGID_9_);}
	.st35{opacity:0.8;fill:url(#SVGID_10_);}
	.st36{opacity:0.8;fill:url(#SVGID_11_);}
	.st37{opacity:0.4;fill:#FFFFFF;}
	.st38{opacity:0.6;fill:#FFFFFF;}
	.st39{opacity:0.2;fill:#2F2B70;}
	.st40{opacity:0.3;fill:url(#SVGID_12_);}
	.st41{opacity:0.65;fill:url(#SVGID_13_);}
	.st42{fill:url(#SVGID_14_);}
	.st43{fill:url(#SVGID_15_);}
	.st44{fill:url(#SVGID_16_);}
	.st45{display:inline;fill:#AAEEFF;}
	.st46{display:inline;fill:#3C3C99;}
</style>
<g class="st0">
	<g class="st1">
		<linearGradient id="SVGID_1_" gradientUnits="userSpaceOnUse" x1="26.005" y1="16.6207" x2="245.3383" y2="247.2873">
			<stop  offset="0" style="stop-color:#3F40B4"/>
			<stop  offset="1" style="stop-color:#FB79B1"/>
		</linearGradient>
		<path class="st2" d="M189.7,263.2c21.8-1.8,43.6-4.4,63.1-14.9c19.8-10.6,34.7-27.4,45.9-46.7c9.6-16.4,15.6-34.7,17.6-53.6
			c2.8-25.6-6.3-54.6-21.9-74.6c-21.2-27.3-45.6-52.1-76.6-67.4C209.6,2,200,0.3,189.9,0c-20.6-0.5-43.2,5.4-60.4,10.8
			c-17,5.4-39.1,2.7-57.1,3.2c-17.2,0.4-35.9,1.4-49,12.6C12,36.4,7.4,52.2,7,67.3s2.5,30,3.4,45c0.9,15.1-2.6,26.3-6.7,40.3
			c-3.4,11.7-3.7,25.9-3.7,38c0,25.8,13.1,44.4,33,59.1c25.2,18.6,57.6,14.8,87.1,15.1C143.5,265,166.6,265.1,189.7,263.2z"/>
		<linearGradient id="SVGID_2_" gradientUnits="userSpaceOnUse" x1="20.8673" y1="281.9504" x2="308.002" y2="-54.45">
			<stop  offset="0" style="stop-color:#9D5DB3"/>
			<stop  offset="0.6324" style="stop-color:#7B52B3"/>
			<stop  offset="0.819" style="stop-color:#894E9B"/>
			<stop  offset="1" style="stop-color:#994A7F"/>
		</linearGradient>
		<path class="st3" d="M39.4,26.9c13.2-6.9,28.1-5.3,42.5-3.5c7.6,1,15.8,2.2,24,2.4c1.4,0,2.9,0,4.3,0c3.2-0.1,6.2-0.2,9.1-0.6
			c4-0.5,7.8-1.3,11.3-2.4c13.2-4.2,28-9.7,44.6-10.7c5-0.3,10-0.1,15,0.8c2.1,0.3,4.2,0.8,6.2,1.4c2.3,0.7,4.7,1.5,7,2.3
			c20.9,7.6,39.2,20.3,56.4,35.1c18.7,16.1,38,33.6,43.5,59.7c2.5,11.9,3.2,24.1,2.6,36.1c-0.9,20.6-5.6,41.2-17.4,58.3
			c-12,17.4-29.4,29.9-49,37c-1.1,0.4-2.3,0.8-3.4,1.1c-18.5,5.9-38,8.1-57.6,9.4c-20.1,1.3-40.3,1.4-60.6,0.7
			c-1.9-0.1-3.8-0.2-5.7-0.3c-12.9-0.7-25.8-1.8-38.6-4.3c-15.2-2.9-30.7-6.2-41.7-18.3c-13.3-14.6-20.8-30.8-19.5-50.7
			c0.1-2.1,0.4-4.3,0.7-6.4c1.6-11,3.9-22.7,5.7-34c1.9-11.9,0.8-22.4-1.4-38.3c-1.3-9.2-2.7-19.1-3.1-30.1c-0.2-4.4,0.2-8.6,1-12.7
			C18.2,45.3,26.9,33.4,39.4,26.9z"/>
		<linearGradient id="SVGID_3_" gradientUnits="userSpaceOnUse" x1="346.2043" y1="272.6806" x2="-179.3791" y2="-88.8422">
			<stop  offset="0" style="stop-color:#FB79B1"/>
			<stop  offset="0.6324" style="stop-color:#3F40B4"/>
			<stop  offset="0.7332" style="stop-color:#3D379B"/>
			<stop  offset="0.9459" style="stop-color:#38215D"/>
			<stop  offset="1" style="stop-color:#371B4C"/>
		</linearGradient>
		<path class="st4" d="M295.6,147.2c0,22.3-2.9,45.4-17.1,63.1c-13.4,16.6-35,24.7-55.5,27.8c-37.3,5.7-75.3,7.8-113.1,5.4
			c-14.3-0.9-28-4.1-41.6-8.8c-14-4.8-29.3-7.7-37.3-21.9c-8.8-15.7-11.2-31.9-6.5-49.5c3.3-12.1,9.5-22.6,9.5-35.5
			c0-14.2-12.5-29.4-12.5-65c0-19.4,16.2-32.2,33.9-35.9c20.4-4.3,36.6,9.1,55.8,10.3c1.1,0.1,2.3,0.1,3.6,0.1
			c2.8,0,5.3-0.2,7.6-0.5c3.5-0.4,6.6-1.2,9.4-2.1c11.5-3.7,19.3-10.3,38.8-11.9c2.9-0.2,6-0.4,9.4-0.4c15,0,32,0.3,45.2,7.6
			c29,16,57.9,36,65.9,70.2C294.8,115.8,295.6,131.5,295.6,147.2z"/>
	</g>
	<path class="st5" d="M55.3,95.9l173.4-41.4c0.8-0.2,1.5,0.4,1.5,1.2v116.8c0,1.3-0.9,2.5-2.2,2.8L54.6,216.7
		c-0.8,0.2-1.5-0.4-1.5-1.2V98.7C53.1,97.4,54,96.2,55.3,95.9z"/>
	<path class="st6" d="M230.1,55.7v10c0,1.3-0.9,2.5-2.2,2.8L54.6,109.9c-0.8,0.2-1.5-0.4-1.5-1.2v-10c0-1.3,0.9-2.5,2.2-2.8
		l173.4-41.4C229.4,54.3,230.1,54.9,230.1,55.7z"/>
	<path class="st7" d="M217.7,62.1l-1.6,0.4c-0.5,0.1-0.9,0.6-0.9,1.2v1.5c0,0.5,0.5,0.9,1,0.8l1.6-0.4c0.5-0.1,0.9-0.6,0.9-1.2v-1.5
		C218.6,62.3,218.1,61.9,217.7,62.1z"/>
	<path class="st8" d="M223.2,60.6l-1.6,0.4c-0.5,0.1-0.9,0.6-0.9,1.2v1.5c0,0.5,0.5,0.9,1,0.8l1.6-0.4c0.5-0.1,0.9-0.6,0.9-1.2v-1.5
		C224.2,60.9,223.7,60.5,223.2,60.6z"/>
	<g class="st1">
		<path class="st9" d="M70.5,126.5l41.1-9.8c0.2,0,0.4,0.1,0.4,0.3v27.7c0,0.3-0.2,0.6-0.5,0.7l-41.1,9.8c-0.2,0-0.4-0.1-0.4-0.3
			v-27.7C70,126.9,70.2,126.6,70.5,126.5z"/>
		<path class="st10" d="M121.3,114l41.1-9.8c0.2,0,0.4,0.1,0.4,0.3v27.7c0,0.3-0.2,0.6-0.5,0.7l-41.1,9.8c-0.2,0-0.4-0.1-0.4-0.3
			v-27.7C120.8,114.3,121,114.1,121.3,114z"/>
		<path class="st11" d="M172.1,101.5l41.1-9.8c0.2,0,0.4,0.1,0.4,0.3v27.7c0,0.3-0.2,0.6-0.5,0.7l-41.1,9.8c-0.2,0-0.4-0.1-0.4-0.3
			v-27.7C171.6,101.8,171.8,101.5,172.1,101.5z"/>
	</g>
	<g class="st1">
		<path class="st12" d="M70.5,171.6l41.1-9.8c0.2,0,0.4,0.1,0.4,0.3v27.7c0,0.3-0.2,0.6-0.5,0.7l-41.1,9.8c-0.2,0-0.4-0.1-0.4-0.3
			v-27.7C70,171.9,70.2,171.6,70.5,171.6z"/>
		<path class="st13" d="M121.3,159l41.1-9.8c0.2,0,0.4,0.1,0.4,0.3v27.7c0,0.3-0.2,0.6-0.5,0.7l-41.1,9.8c-0.2,0-0.4-0.1-0.4-0.3
			v-27.7C120.8,159.4,121,159.1,121.3,159z"/>
		<path class="st14" d="M172.1,146.5l41.1-9.8c0.2,0,0.4,0.1,0.4,0.3v27.7c0,0.3-0.2,0.6-0.5,0.7l-41.1,9.8c-0.2,0-0.4-0.1-0.4-0.3
			v-27.7C171.6,146.8,171.8,146.6,172.1,146.5z"/>
	</g>
	<path class="st8" d="M70.3,97.7l25.3-6.1c0.1,0,0.2,0.1,0.2,0.2v2.4c0,0.2-0.1,0.4-0.3,0.4l-25.3,6.1c-0.1,0-0.2-0.1-0.2-0.2v-2.4
		C70,97.9,70.1,97.8,70.3,97.7z"/>
	<path class="st8" d="M99.3,90.7l25.3-6.1c0.1,0,0.2,0.1,0.2,0.2v2.4c0,0.2-0.1,0.4-0.3,0.4l-25.3,6.1c-0.1,0-0.2-0.1-0.2-0.2v-2.4
		C99,90.9,99.1,90.8,99.3,90.7z"/>
	<path class="st15" d="M70.3,158.4l25.3-6.1c0.1,0,0.2,0.1,0.2,0.2v2.4c0,0.2-0.1,0.4-0.3,0.4l-25.3,6.1c-0.1,0-0.2-0.1-0.2-0.2
		v-2.4C70,158.6,70.1,158.4,70.3,158.4z"/>
	<path class="st15" d="M121.1,145.6l25.3-6.1c0.1,0,0.2,0.1,0.2,0.2v2.4c0,0.2-0.1,0.4-0.3,0.4l-25.3,6.1c-0.1,0-0.2-0.1-0.2-0.2
		V146C120.8,145.8,120.9,145.6,121.1,145.6z"/>
	<path class="st15" d="M171.9,132.9l25.3-6.1c0.1,0,0.2,0.1,0.2,0.2v2.4c0,0.2-0.1,0.4-0.3,0.4l-25.3,6.1c-0.1,0-0.2-0.1-0.2-0.2
		v-2.4C171.6,133.1,171.7,132.9,171.9,132.9z"/>
	<path class="st15" d="M70.3,203.4l25.3-6.1c0.1,0,0.2,0.1,0.2,0.2v2.4c0,0.2-0.1,0.4-0.3,0.4l-25.3,6.1c-0.1,0-0.2-0.1-0.2-0.2
		v-2.4C70,203.6,70.1,203.5,70.3,203.4z"/>
	<path class="st15" d="M121.1,190.7l25.3-6.1c0.1,0,0.2,0.1,0.2,0.2v2.4c0,0.2-0.1,0.4-0.3,0.4l-25.3,6.1c-0.1,0-0.2-0.1-0.2-0.2
		v-2.4C120.8,190.9,120.9,190.7,121.1,190.7z"/>
	<path class="st15" d="M171.9,177.9l25.3-6.1c0.1,0,0.2,0.1,0.2,0.2v2.4c0,0.2-0.1,0.4-0.3,0.4l-25.3,6.1c-0.1,0-0.2-0.1-0.2-0.2
		v-2.4C171.6,178.1,171.7,178,171.9,177.9z"/>
	<path class="st8" d="M128.3,83.7l25.3-6.1c0.1,0,0.2,0.1,0.2,0.2v2.4c0,0.2-0.1,0.4-0.3,0.4l-25.3,6.1c-0.1,0-0.2-0.1-0.2-0.2v-2.4
		C128,83.9,128.1,83.8,128.3,83.7z"/>
	<path class="st8" d="M157.3,76.7l25.3-6.1c0.1,0,0.2,0.1,0.2,0.2v2.4c0,0.2-0.1,0.4-0.3,0.4l-25.3,6.1c-0.1,0-0.2-0.1-0.2-0.2v-2.4
		C157,76.9,157.1,76.8,157.3,76.7z"/>
	<path class="st8" d="M186.3,69.7l25.3-6.1c0.1,0,0.2,0.1,0.2,0.2v2.4c0,0.2-0.1,0.4-0.3,0.4l-25.3,6.1c-0.1,0-0.2-0.1-0.2-0.2v-2.4
		C186,69.9,186.1,69.8,186.3,69.7z"/>
	<path class="st15" d="M123.6,100.2l36.2-8.6c0.2,0,0.3,0.1,0.3,0.2v3.5c0,0.3-0.2,0.5-0.5,0.6l-36.2,8.6c-0.2,0-0.3-0.1-0.3-0.2
		v-3.5C123.1,100.5,123.3,100.3,123.6,100.2z"/>
	<g class="st1">
		<path class="st16" d="M133,145.9L233.1,122c0.4-0.1,0.9,0.2,0.9,0.7v67.5c0,0.8-0.5,1.4-1.3,1.6l-100.1,23.9
			c-0.4,0.1-0.9-0.2-0.9-0.7v-67.5C131.7,146.8,132.2,146.1,133,145.9z"/>
		<g>
			<path class="st17" d="M192.7,156.8c-1.1-2.6-2.9-4.7-5-5.8c-0.8-0.4-1.7-0.7-2.7-0.9c-6.1-0.9-12.1,5.2-13.3,13.6
				c-1.2,8.4,2.7,16,8.9,16.9c6.1,0.9,12.1-5.2,13.3-13.6C194.5,163.2,194,159.7,192.7,156.8z"/>
			<polyline class="st17" points="177.7,166.9 182,170.7 188.4,160.1 			"/>
		</g>
		<path class="st11" d="M174.2,189.9l17.2-4.1c1.7-0.4,3.2,0.9,3.2,2.6v1.7c0,1.9-1.3,3.6-3.2,4l-17.2,4.1c-1.7,0.4-3.2-0.9-3.2-2.6
			v-1.7C171,191.9,172.3,190.3,174.2,189.9z"/>
	</g>
	<g class="st1">
		<g>
			<g>
				<g>
					
						<linearGradient id="SVGID_4_" gradientUnits="userSpaceOnUse" x1="-7907.3091" y1="-166.0357" x2="-7893.1929" y2="-166.0357" gradientTransform="matrix(-0.9971 -7.615680e-02 -7.615680e-02 0.9971 -7800.1021 -300.2186)">
						<stop  offset="0" style="stop-color:#F0699C;stop-opacity:0"/>
						<stop  offset="1" style="stop-color:#F03B9C"/>
					</linearGradient>
					<path class="st18" d="M96.4,131c-0.6-1.7-1.6-3-2.9-3.8c-0.5-0.3-1-0.5-1.6-0.7c-3.8-0.8-7.8,2.7-8.9,7.9
						c-1.2,5.2,1,10.1,4.7,10.9c3.8,0.8,7.8-2.7,8.9-7.9C97.2,135.1,97.1,132.8,96.4,131z"/>
					<path class="st11" d="M97.4,131c-0.6-1.7-1.6-3-2.9-3.8c-0.5-0.3-1-0.5-1.6-0.7c-3.8-0.8-7.8,2.7-8.9,7.9
						c-1.2,5.2,1,10.1,4.7,10.9c3.8,0.8,7.8-2.7,8.9-7.9C98.2,135.2,98.1,132.9,97.4,131z"/>
				</g>
			</g>
		</g>
		<line class="st19" x1="93.7" y1="135.3" x2="88.1" y2="136.6"/>
		<line class="st19" x1="90.9" y1="132.7" x2="90.9" y2="139.3"/>
	</g>
	<circle class="st20" cx="114.2" cy="59.2" r="0.8"/>
	<circle class="st20" cx="182" cy="52.8" r="0.8"/>
	<circle class="st20" cx="275.6" cy="122.3" r="0.8"/>
	<circle class="st20" cx="230.8" cy="214.9" r="0.8"/>
	<circle class="st20" cx="133.7" cy="229.4" r="0.8"/>
	<circle class="st20" cx="278.9" cy="170.7" r="0.8"/>
	<circle class="st20" cx="109.2" cy="224.4" r="0.8"/>
	<circle class="st20" cx="211.8" cy="210.4" r="0.8"/>
	<circle class="st20" cx="264.2" cy="98.1" r="0.8"/>
	<circle class="st20" cx="43" cy="52.8" r="0.8"/>
	<circle class="st20" cx="60" cy="84.7" r="0.8"/>
	<circle class="st20" cx="160.1" cy="46.6" r="0.8"/>
	<circle class="st20" cx="87.5" cy="59.2" r="1.3"/>
	<circle class="st20" cx="186" cy="41.1" r="1.3"/>
	<circle class="st20" cx="262.1" cy="133.8" r="1.3"/>
	<circle class="st20" cx="234" cy="198.2" r="1.3"/>
	<g class="st1">
		<g>
			<g>
				<g>
					<g>
						<path class="st21" d="M105.7,77.8c-1.6-3.5-4-6.2-7-7.7c-1.1-0.6-2.3-0.9-3.6-1.1c-8.3-1-16.2,7.5-17.6,18.9
							c-1.4,11.5,4.2,21.6,12.6,22.6c8.3,1,16.2-7.5,17.6-18.9C108.3,86.6,107.5,81.7,105.7,77.8z"/>
						<path class="st9" d="M108,77.8c-1.6-3.5-4-6.2-7-7.7c-1.1-0.6-2.3-0.9-3.6-1.1C89,68,81.1,76.5,79.8,88
							c-1.4,11.5,4.2,21.6,12.6,22.6c8.3,1,16.2-7.5,17.6-18.9C110.5,86.5,109.8,81.7,108,77.8z"/>
					</g>
				</g>
			</g>
		</g>
		<path id="graph_16_" class="st22" d="M95.1,75.8c-0.8,0-1.7,0.1-2.4,0.3l-0.3,13.7c0,1.7,1,3,2.4,3.1c1.3,0,2.5-1.4,2.5-3
			c0-1.6-1-2.9-2.2-3l0-2.4c2.3,0.1,4.2,2.6,4.1,5.5c-0.1,3-2.1,5.5-4.5,5.4c-2.4,0-4.3-2.5-4.3-5.5l0.3-12.9
			c-0.3,0.1-0.6,0.3-0.8,0.5l-0.2,12.4c-0.1,3.6,2.2,6.5,5.1,6.5c2.9,0,5.3-2.9,5.3-6.5c0.1-3.5-2.1-6.4-4.9-6.5l0-2.4
			c3.9,0.1,6.9,4.1,6.8,9c-0.1,4.9-3.4,8.9-7.3,8.9c-3.9,0-7.1-4.1-7-9L87.9,79c-2.5,2.6-4.2,6.4-4.3,10.8
			c-0.2,7.7,4.7,14,10.9,14.1c6.2,0,11.4-6.2,11.5-13.9C106.2,82.1,101.3,75.8,95.1,75.8z"/>
	</g>
	<g class="st1">
		<g>
			<path class="st23" d="M271.7,152.5v5.9c0,1.9-2.3,3.6-5.9,4.6c-0.7,0.2-1.5,0.4-2.2,0.6c-1.9,0.4-4,0.6-6.3,0.7
				c-0.4,0-0.7,0-1.1,0s-0.8,0-1.1,0c-2.3-0.1-4.4-0.3-6.3-0.7c-0.8-0.2-1.5-0.3-2.2-0.6c-3.6-1.1-5.9-2.8-5.9-4.6v-5.9H271.7z"/>
		</g>
		<g>
			<path class="st24" d="M257.3,158.4v5.9c-0.4,0-0.7,0-1.1,0s-0.8,0-1.1,0v-5.9c0.4,0,0.7,0,1.1,0S256.9,158.4,257.3,158.4z"/>
		</g>
		<g>
			<path class="st24" d="M265.8,157.1v5.9c-0.7,0.2-1.5,0.4-2.2,0.6v-5.9C264.3,157.6,265.1,157.4,265.8,157.1z"/>
		</g>
		<g>
			<path class="st24" d="M248.7,157.7v5.9c-0.8-0.2-1.5-0.3-2.2-0.6v-5.9C247.2,157.4,248,157.6,248.7,157.7z"/>
		</g>
		<g>
			<ellipse class="st12" cx="256.1" cy="152.5" rx="15.6" ry="5.9"/>
		</g>
		<path id="XMLID_3144_" class="st23" d="M258.7,154.5l-4.3-0.5l0.4-0.8l1.2,0.1l0,0l0.5,0.1c1.6,0.2,2.9-0.4,3.3-1.3
			c0.4-0.9,0-1.7-1.7-2l-2.7-0.4l-1.4,2.7l-0.8-0.1L253,153l0.8,0.1l-0.4,0.8l-0.8-0.1l-0.3,0.5l0.8,0.1l-0.4,0.9l1.1,0.1l0.4-0.9
			l4.3,0.5L258.7,154.5z M256.2,150.5l1.6,0.2c0.9,0.1,1.3,0.6,1,1.3c-0.3,0.6-1.1,1-2,0.9l-0.4-0.1l0,0l-1.2-0.1L256.2,150.5z"/>
		<path class="st25" d="M256.1,156.7c-9,0-13.9-2.8-13.9-4.2c0-1.4,4.9-4.2,13.9-4.2c9,0,13.9,2.8,13.9,4.2
			C270,154,265.1,156.7,256.1,156.7z"/>
	</g>
	<g class="st1">
		<g>
			<path class="st23" d="M271.7,145.4v5.9c0,1.9-2.3,3.6-5.9,4.6c-0.7,0.2-1.5,0.4-2.2,0.6c-1.9,0.4-4,0.6-6.3,0.7
				c-0.4,0-0.7,0-1.1,0s-0.8,0-1.1,0c-2.3-0.1-4.4-0.3-6.3-0.7c-0.8-0.2-1.5-0.3-2.2-0.6c-3.6-1.1-5.9-2.8-5.9-4.6v-5.9H271.7z"/>
		</g>
		<g>
			<path class="st24" d="M257.3,151.2v5.9c-0.4,0-0.7,0-1.1,0s-0.8,0-1.1,0v-5.9c0.4,0,0.7,0,1.1,0S256.9,151.3,257.3,151.2z"/>
		</g>
		<g>
			<path class="st24" d="M265.8,150v5.9c-0.7,0.2-1.5,0.4-2.2,0.6v-5.9C264.3,150.4,265.1,150.2,265.8,150z"/>
		</g>
		<g>
			<path class="st24" d="M248.7,150.6v5.9c-0.8-0.2-1.5-0.3-2.2-0.6V150C247.2,150.2,248,150.4,248.7,150.6z"/>
		</g>
		<g>
			<ellipse class="st12" cx="256.1" cy="145.4" rx="15.6" ry="5.9"/>
		</g>
		<path id="XMLID_2923_" class="st23" d="M258.7,147.4l-4.3-0.5l0.4-0.8l1.2,0.1l0,0l0.5,0.1c1.6,0.2,2.9-0.4,3.3-1.3
			c0.4-0.9,0-1.7-1.7-2l-2.7-0.4l-1.4,2.7l-0.8-0.1l-0.3,0.6l0.8,0.1l-0.4,0.8l-0.8-0.1l-0.3,0.5l0.8,0.1l-0.4,0.9l1.1,0.1l0.4-0.9
			l4.3,0.5L258.7,147.4z M256.2,143.4l1.6,0.2c0.9,0.1,1.3,0.6,1,1.3c-0.3,0.6-1.1,1-2,0.9l-0.4-0.1l0,0l-1.2-0.1L256.2,143.4z"/>
		<path class="st25" d="M256.1,149.6c-9,0-13.9-2.8-13.9-4.2c0-1.4,4.9-4.2,13.9-4.2c9,0,13.9,2.8,13.9,4.2
			C270,146.8,265.1,149.6,256.1,149.6z"/>
	</g>
	<g class="st1">
		<g>
			<path class="st23" d="M271.7,138.2v5.9c0,1.9-2.3,3.6-5.9,4.6c-0.7,0.2-1.5,0.4-2.2,0.6c-1.9,0.4-4,0.6-6.3,0.7
				c-0.4,0-0.7,0-1.1,0s-0.8,0-1.1,0c-2.3-0.1-4.4-0.3-6.3-0.7c-0.8-0.2-1.5-0.3-2.2-0.6c-3.6-1.1-5.9-2.8-5.9-4.6v-5.9H271.7z"/>
		</g>
		<g>
			<path class="st24" d="M257.3,144.1v5.9c-0.4,0-0.7,0-1.1,0s-0.8,0-1.1,0v-5.9c0.4,0,0.7,0,1.1,0S256.9,144.1,257.3,144.1z"/>
		</g>
		<g>
			<path class="st24" d="M265.8,142.9v5.9c-0.7,0.2-1.5,0.4-2.2,0.6v-5.9C264.3,143.3,265.1,143.1,265.8,142.9z"/>
		</g>
		<g>
			<path class="st24" d="M248.7,143.4v5.9c-0.8-0.2-1.5-0.3-2.2-0.6v-5.9C247.2,143.1,248,143.3,248.7,143.4z"/>
		</g>
		<g>
			<ellipse class="st12" cx="256.1" cy="138.2" rx="15.6" ry="5.9"/>
		</g>
		<path id="XMLID_2893_" class="st23" d="M258.7,140.2l-4.3-0.5l0.4-0.8l1.2,0.1l0,0l0.5,0.1c1.6,0.2,2.9-0.4,3.3-1.3
			c0.4-0.9,0-1.7-1.7-2l-2.7-0.4l-1.4,2.7l-0.8-0.1l-0.3,0.6l0.8,0.1l-0.4,0.8l-0.8-0.1l-0.3,0.5l0.8,0.1l-0.4,0.9l1.1,0.1l0.4-0.9
			l4.3,0.5L258.7,140.2z M256.2,136.2l1.6,0.2c0.9,0.1,1.3,0.6,1,1.3c-0.3,0.6-1.1,1-2,0.9l-0.4-0.1l0,0l-1.2-0.1L256.2,136.2z"/>
		<path class="st25" d="M256.1,142.4c-9,0-13.9-2.8-13.9-4.2c0-1.4,4.9-4.2,13.9-4.2c9,0,13.9,2.8,13.9,4.2
			C270,139.7,265.1,142.4,256.1,142.4z"/>
	</g>
	<ellipse class="st15" cx="256.3" cy="137.2" rx="8.1" ry="1.9"/>
	<path class="st26" d="M265.3,123.6c-0.6,4-2.2,7.5-4.4,10c-1.2,1.3-2.5,2.4-3.9,3.1l1.5,1.1h-5.8v0c-0.4,0-0.8,0-1.2-0.1
		c-0.4-0.1-0.8-0.1-1.1-0.2c-1.4-0.4-2.7-1.2-3.9-2.2c-1.5-1.4-2.7-3.4-3.5-5.7c-0.2-0.7-0.4-1.5-0.6-2.2c-0.3-1.6-0.4-3.2-0.3-4.9
		c0-0.7,0.1-1.4,0.2-2.1v0c0.1-0.8,0.3-1.5,0.5-2.2c0.6-2.3,1.5-4.3,2.6-6c0.5-0.8,1.1-1.6,1.8-2.2c2.3-2.5,5.3-3.9,8.3-3.7l0,0h4.9
		l-1.7,0.8c0.1,0.1,0.2,0.1,0.3,0.2c2.2,1.2,4.1,3.3,5.2,6C265.4,116,265.8,119.7,265.3,123.6z"/>
	<path class="st27" d="M269.6,113c-1.2-2.7-3-4.8-5.2-6c-0.9-0.5-1.8-0.8-2.8-0.9c-6.3-0.9-12.5,5.4-13.8,14.1
		c-1.3,8.7,2.8,16.6,9.2,17.5c6.3,0.9,12.5-5.4,13.8-14.1C271.4,119.7,270.9,116,269.6,113z"/>
	<linearGradient id="SVGID_5_" gradientUnits="userSpaceOnUse" x1="251.7577" y1="137.8533" x2="251.7577" y2="122.3859">
		<stop  offset="0" style="stop-color:#856839"/>
		<stop  offset="1" style="stop-color:#EFD17D;stop-opacity:0"/>
	</linearGradient>
	<path class="st28" d="M261.5,123l-0.6,10.6c-1.2,1.3-2.5,2.4-3.9,3.1l1.5,1.1h-5.8v0c-0.4,0-0.8,0-1.2-0.1
		c-5.8-0.9-9.8-7.5-9.4-15.4L261.5,123z"/>
	<path class="st29" d="M251.5,118v2.2h-9.2c0.1-0.8,0.3-1.5,0.5-2.2H251.5z"/>
	<path class="st29" d="M254.1,109.7v2.2h-8.7c0.5-0.8,1.1-1.6,1.8-2.2H254.1z"/>
	<path class="st29" d="M252,127.3v2.2h-9c-0.2-0.7-0.4-1.5-0.6-2.2H252z"/>
	<path class="st27" d="M269.6,113c-1.2-2.7-3-4.8-5.2-6c-0.9-0.5-1.8-0.8-2.8-0.9c-6.3-0.9-12.5,5.4-13.8,14.1
		c-1.3,8.7,2.8,16.6,9.2,17.5c6.3,0.9,12.5-5.4,13.8-14.1C271.4,119.7,270.9,116,269.6,113z"/>
	<path class="st30" d="M258.3,135.5c-0.3,0-0.6,0-0.9-0.1c-2.3-0.3-4.4-2-5.7-4.6c-1.5-2.9-2-6.5-1.5-10.3c1-6.9,5.5-12.2,10.3-12.2
		c0.3,0,0.6,0,0.9,0.1c0.7,0.1,1.4,0.3,2,0.7c1.7,0.9,3.2,2.6,4.1,4.8c1.2,2.7,1.6,6,1.1,9.4C267.6,130.1,263,135.5,258.3,135.5
		L258.3,135.5z"/>
	<path id="XMLID_28_" class="st26" d="M262.2,124l-3.9,1.4l0-1.2l1.4-0.5l0,0l0.6-0.2c2.1-0.7,3.1-2.3,3.1-3.8
		c0-1.4-1.1-2.3-3.1-1.5l-3.4,1.2l0,4.4l-1,0.3l0,0.9l1-0.3l0,1.2l-1,0.3l0,0.9l1-0.3l0,1.4l1.4-0.5l0-1.4l3.9-1.4L262.2,124z
		 M258.3,119.8l2-0.7c1.2-0.4,1.9,0,1.9,1.1c0,1-0.7,2-1.9,2.4l-0.5,0.2v0l-1.4,0.5L258.3,119.8z"/>
	<ellipse class="st15" cx="256" cy="173.1" rx="12.8" ry="3.7"/>
</g>
<g>
	<g>
		<linearGradient id="SVGID_6_" gradientUnits="userSpaceOnUse" x1="65.2229" y1="55.6711" x2="333.2229" y2="290.6711">
			<stop  offset="0" style="stop-color:#3F40B4"/>
			<stop  offset="1" style="stop-color:#FB79B1"/>
		</linearGradient>
		<path class="st31" d="M108.6,0c-44,0-85.5,20.7-85.5,107.6C23.1,137.7,0,149.3,0,192c0,61.3,41.8,73.6,77.2,73.6
			c50.9,0,60.2,0,92.3,0c115.4,0,147.7-29.7,147.7-173.2C317.2,56.5,297,0,234.7,0C181.1,0,141.3,0,108.6,0z"/>
		<linearGradient id="SVGID_7_" gradientUnits="userSpaceOnUse" x1="232.5104" y1="-53.4005" x2="14.3662" y2="538.0076">
			<stop  offset="0" style="stop-color:#9D5DB3"/>
			<stop  offset="0.6324" style="stop-color:#7B52B3"/>
			<stop  offset="0.819" style="stop-color:#894E9B"/>
			<stop  offset="1" style="stop-color:#994A7F"/>
		</linearGradient>
		<path class="st32" d="M130.3,14.4c13.1-0.8,27.3-2,41.9-3.2c25.4-2.2,55.2-5.8,82.8,4.7c27,10.3,34.2,31,40.6,54.1
			c4.6,16.9,9.1,34.6,10.2,50.4c0.9,12.7,0.9,24.9-0.5,36.7c-3.4,30.1-13.1,54.3-29.7,68.2c-27.9,23.2-66.1,28.5-117.2,28.5
			c-23.8,0-37.2-0.9-67.8-1.2c-2,0-4-0.1-6.1-0.1c-30.1-0.9-61.1-12.8-69.3-54.4c-7.1-36,9.3-55.2,11.8-85
			c1.6-19.2,2.5-38.1,8.7-53.4c6.3-15.7,20-26.5,32.2-32.9C86.8,16.7,108.5,15.7,130.3,14.4z"/>
		<linearGradient id="SVGID_8_" gradientUnits="userSpaceOnUse" x1="434.6664" y1="126.2923" x2="-465.7314" y2="138.1241">
			<stop  offset="0" style="stop-color:#FB79B1"/>
			<stop  offset="0.6324" style="stop-color:#3F40B4"/>
			<stop  offset="0.7332" style="stop-color:#3D379B"/>
			<stop  offset="0.9459" style="stop-color:#38215D"/>
			<stop  offset="1" style="stop-color:#371B4C"/>
		</linearGradient>
		<path class="st33" d="M294.1,148.3c1.5,10.4,2.2,20.9,0.2,31.7c-4.2,22.1-17.4,43.6-39.7,50.9c-34,11.1-72.3,10.8-107.6,10.8
			c-17.1,0-34.1-1.8-50.9-2.3c-26.4-0.9-51.9-11.6-65.9-35.3c-17-28.7-4.6-56.1,0.6-85.6c3.2-18.2,2.4-39.5,11.1-56.3
			c7.3-14.2,27-23.4,41.7-27.4c22.5-6.1,45.7-3.4,68.5-6c13.6-1.6,28.1-4,41.9-6.4c26.8-4.7,59.2-12.5,81.2,9.4
			c19.7,19.6,12.7,44.3,12.4,68.8C287.4,116.9,291.8,132.5,294.1,148.3z"/>
	</g>
	<g>
		<linearGradient id="SVGID_9_" gradientUnits="userSpaceOnUse" x1="139.5536" y1="199.5775" x2="139.5536" y2="37.3365">
			<stop  offset="0" style="stop-color:#F2F2F2;stop-opacity:0"/>
			<stop  offset="1" style="stop-color:#F2F2F2"/>
		</linearGradient>
		<path class="st34" d="M53.2,78.8l173.4-41.4c0.8-0.2,1.5,0.4,1.5,1.2v116.8c0,1.3-0.9,2.5-2.2,2.8L52.5,199.5
			c-0.8,0.2-1.5-0.4-1.5-1.2V81.6C51,80.2,51.9,79.1,53.2,78.8z"/>
		<linearGradient id="SVGID_10_" gradientUnits="userSpaceOnUse" x1="146.5536" y1="206.1538" x2="146.5536" y2="43.9128">
			<stop  offset="0" style="stop-color:#F2F2F2;stop-opacity:0"/>
			<stop  offset="1" style="stop-color:#F2F2F2"/>
		</linearGradient>
		<path class="st35" d="M60.2,85.4l173.4-41.4c0.8-0.2,1.5,0.4,1.5,1.2v116.8c0,1.3-0.9,2.5-2.2,2.8L59.5,206.1
			c-0.8,0.2-1.5-0.4-1.5-1.2V88.1C58,86.8,58.9,85.7,60.2,85.4z"/>
		<linearGradient id="SVGID_11_" gradientUnits="userSpaceOnUse" x1="153.5536" y1="212.7301" x2="153.5536" y2="50.4891">
			<stop  offset="0" style="stop-color:#F2F2F2;stop-opacity:0"/>
			<stop  offset="1" style="stop-color:#F2F2F2"/>
		</linearGradient>
		<path class="st36" d="M67.2,91.9l173.4-41.4c0.8-0.2,1.5,0.4,1.5,1.2v116.8c0,1.3-0.9,2.5-2.2,2.8L66.5,212.7
			c-0.8,0.2-1.5-0.4-1.5-1.2V94.7C65,93.4,65.9,92.2,67.2,91.9z"/>
		<g>
			<path class="st22" d="M74.2,98.5l173.4-41.4c0.8-0.2,1.5,0.4,1.5,1.2v116.8c0,1.3-0.9,2.5-2.2,2.8L73.5,219.3
				c-0.8,0.2-1.5-0.4-1.5-1.2V101.3C72,100,72.9,98.8,74.2,98.5z"/>
			<path class="st10" d="M249.1,68.3v62.8L72,171.9v-61.4c0-1.3,0.9-0.2,2.2-0.5l173.4-40.1C248.4,69.7,249.1,67.5,249.1,68.3z"/>
			<path class="st9" d="M249.1,58.3v10c0,1.3-0.9,2.5-2.2,2.8L73.5,112.5c-0.8,0.2-1.5-0.4-1.5-1.2v-10c0-1.3,0.9-2.5,2.2-2.8
				l173.4-41.4C248.3,56.9,249.1,57.5,249.1,58.3z"/>
			<path class="st11" d="M95.6,95.8l-4.2,1c-1.5,0.3-2.5,1.6-2.5,3.1v4.2c0,1.4,1.3,2.4,2.6,2l4.2-1c1.5-0.3,2.5-1.6,2.5-3.1v-4.2
				C98.2,96.5,96.9,95.5,95.6,95.8z"/>
			<path class="st37" d="M107.5,95.8l25.3-6.1c0.1,0,0.2,0.1,0.2,0.2v2.4c0,0.2-0.1,0.4-0.3,0.4l-25.3,6.1c-0.1,0-0.2-0.1-0.2-0.2
				v-2.4C107.2,96,107.4,95.9,107.5,95.8z"/>
			<path class="st37" d="M136.5,88.8l25.3-6.1c0.1,0,0.2,0.1,0.2,0.2v2.4c0,0.2-0.1,0.4-0.3,0.4l-25.3,6.1c-0.1,0-0.2-0.1-0.2-0.2
				v-2.4C136.2,89,136.4,88.9,136.5,88.8z"/>
			<path class="st37" d="M165.5,81.8l25.3-6.1c0.1,0,0.2,0.1,0.2,0.2v2.4c0,0.2-0.1,0.4-0.3,0.4l-25.3,6.1c-0.1,0-0.2-0.1-0.2-0.2
				v-2.4C165.2,82,165.4,81.9,165.5,81.8z"/>
			<path class="st37" d="M194.5,74.8l25.3-6.1c0.1,0,0.2,0.1,0.2,0.2v2.4c0,0.2-0.1,0.4-0.3,0.4l-25.3,6.1c-0.1,0-0.2-0.1-0.2-0.2
				v-2.4C194.2,75,194.4,74.9,194.5,74.8z"/>
			<polygon class="st38" points="179.5,121.2 141.6,130.2 141.6,134.9 179.5,125.9 			"/>
			<g>
				<path class="st12" d="M89.3,175.8l33.7-8c0.1,0,0.3,0.1,0.3,0.2v22.7c0,0.3-0.2,0.5-0.4,0.5l-33.7,8c-0.1,0-0.3-0.1-0.3-0.2
					v-22.7C88.9,176.1,89.1,175.9,89.3,175.8z"/>
				<polygon class="st39" points="146.9,162.3 127.9,166.9 127.9,171.2 146.9,166.7 				"/>
				<polygon class="st39" points="156.3,167.4 127.9,174.2 127.9,176.7 156.3,169.9 				"/>
				<polygon class="st39" points="156.3,171.7 127.9,178.4 127.9,181 156.3,174.2 				"/>
				<polygon class="st39" points="156.3,175.9 127.9,182.7 127.9,185.2 156.3,178.4 				"/>
				<polygon class="st39" points="156.3,180.2 127.9,186.9 127.9,189.5 156.3,182.7 				"/>
				<polygon class="st10" points="143.6,189.7 127.9,193.5 127.9,194.9 143.6,191.1 				"/>
			</g>
			<g>
				<path class="st13" d="M167,157.8l33.7-8c0.1,0,0.3,0.1,0.3,0.2v22.7c0,0.3-0.2,0.5-0.4,0.5l-33.7,8c-0.1,0-0.3-0.1-0.3-0.2
					v-22.7C166.6,158.1,166.7,157.9,167,157.8z"/>
				<polygon class="st39" points="229.1,143 205.5,148.6 205.5,152.9 229.1,147.3 				"/>
				<polygon class="st39" points="233.8,149.1 205.5,155.9 205.5,158.4 233.8,151.6 				"/>
				<polygon class="st39" points="233.8,153.4 205.5,160.2 205.5,162.7 233.8,155.9 				"/>
				<polygon class="st39" points="225.4,159.6 205.5,164.4 205.5,166.9 225.4,162.1 				"/>
				<polygon class="st10" points="221.2,167.5 205.5,171.3 205.5,172.7 221.2,168.9 				"/>
			</g>
			<path class="st38" d="M126,119.7l69.3-16.6c0.3-0.1,0.6,0.2,0.6,0.5v6.7c0,0.5-0.4,1-0.9,1.1L125.8,128c-0.3,0.1-0.6-0.2-0.6-0.5
				v-6.7C125.2,120.3,125.5,119.9,126,119.7z"/>
			<g>
				<path class="st13" d="M233.7,64.3L239,63c0,0,0,0,0,0v1.4c0,0,0,0.1-0.1,0.1l-5.4,1.3c0,0,0,0,0,0L233.7,64.3
					C233.6,64.3,233.6,64.3,233.7,64.3z"/>
				<path class="st13" d="M233.7,66.6l5.4-1.3c0,0,0,0,0,0v1.4c0,0,0,0.1-0.1,0.1l-5.4,1.3c0,0,0,0,0,0L233.7,66.6
					C233.6,66.7,233.6,66.6,233.7,66.6z"/>
				<path class="st13" d="M233.7,69l5.4-1.3c0,0,0,0,0,0v1.4c0,0,0,0.1-0.1,0.1l-5.4,1.3c0,0,0,0,0,0L233.7,69
					C233.6,69,233.6,69,233.7,69z"/>
			</g>
		</g>
	</g>
	<circle class="st22" cx="200.9" cy="212.5" r="0.8"/>
	<circle class="st22" cx="122" cy="225.3" r="0.8"/>
	<circle class="st22" cx="40.6" cy="128" r="0.8"/>
	<circle class="st22" cx="84.1" cy="58.2" r="0.8"/>
	<circle class="st22" cx="253.1" cy="214.1" r="0.8"/>
	<circle class="st22" cx="237.1" cy="200.4" r="0.8"/>
	<circle class="st22" cx="273.4" cy="96" r="0.8"/>
	<circle class="st22" cx="278.4" cy="158.4" r="0.8"/>
	<circle class="st22" cx="98.2" cy="48.3" r="0.8"/>
	<circle class="st22" cx="149.2" cy="222.6" r="0.8"/>
	<circle class="st22" cx="187.4" cy="224" r="1.3"/>
	<circle class="st22" cx="268.9" cy="112.5" r="1.3"/>
	<circle class="st22" cx="123.3" cy="53.7" r="1.3"/>
	<circle class="st22" cx="29.2" cy="143.2" r="1.3"/>
	<g>
		<g>
			<g>
				<g>
					<g>
						<path class="st21" d="M222.1,59c-1.6-3.5-4-6.2-7-7.7c-1.1-0.6-2.3-0.9-3.6-1.1c-8.3-1-16.2,7.5-17.6,18.9
							c-1.4,11.5,4.2,21.6,12.6,22.6c8.3,1,16.2-7.5,17.6-18.9C224.7,67.7,223.9,62.9,222.1,59z"/>
						<path class="st9" d="M224.3,58.9c-1.6-3.5-4-6.2-7-7.7c-1.1-0.6-2.3-0.9-3.6-1.1c-8.3-1-16.2,7.5-17.6,18.9
							c-1.4,11.5,4.2,21.6,12.6,22.6c8.3,1,16.2-7.5,17.6-18.9C226.9,67.7,226.1,62.8,224.3,58.9z"/>
					</g>
				</g>
			</g>
		</g>
		<path id="graph_14_" class="st22" d="M211.5,57c-0.8,0-1.7,0.1-2.4,0.3L208.8,71c0,1.7,1,3,2.4,3.1c1.3,0,2.5-1.4,2.5-3
			c0-1.6-1-2.9-2.2-3l0-2.4c2.3,0.1,4.2,2.6,4.1,5.5c-0.1,3-2.1,5.5-4.5,5.4c-2.4,0-4.3-2.5-4.3-5.5l0.3-12.9
			c-0.3,0.1-0.6,0.3-0.8,0.5L206,70.9c-0.1,3.6,2.2,6.5,5.1,6.5c2.9,0,5.3-2.9,5.3-6.5c0.1-3.5-2.1-6.4-4.9-6.5l0-2.4
			c3.9,0.1,6.9,4.1,6.8,9c-0.1,4.9-3.4,8.9-7.3,8.9c-3.9,0-7.1-4.1-7-9l0.2-10.8c-2.5,2.6-4.2,6.4-4.3,10.8
			c-0.2,7.7,4.7,14,10.9,14.1c6.2,0,11.4-6.2,11.5-13.9C222.6,63.3,217.7,57,211.5,57z"/>
	</g>
	<path class="st9" d="M211.4,134.1l55.7-13.3c0.2-0.1,0.5,0.1,0.5,0.4v59.6c0,0.4-0.3,0.8-0.7,0.9L211.1,195
		c-0.2,0.1-0.5-0.1-0.5-0.4V135C210.7,134.6,210.9,134.2,211.4,134.1z"/>
	<path class="st22" d="M213.7,159.5l51-12.2c0.2-0.1,0.4,0.1,0.4,0.4V167c0,0.4-0.3,0.7-0.6,0.8l-51,12.2c-0.2,0.1-0.4-0.1-0.4-0.4
		v-19.4C213,159.9,213.3,159.6,213.7,159.5z"/>
	<path class="st22" d="M213.7,137.2l51-12.2c0.2-0.1,0.4,0.1,0.4,0.4v19.4c0,0.4-0.3,0.7-0.6,0.8l-51,12.2c-0.2,0.1-0.4-0.1-0.4-0.4
		v-19.4C213,137.7,213.3,137.3,213.7,137.2z"/>
	<path class="st22" d="M213.4,183.8l32.9-7.9c0.1,0,0.3,0.1,0.3,0.2v6c0,0.3-0.2,0.5-0.4,0.5l-32.9,7.9c-0.1,0-0.3-0.1-0.3-0.2v-6
		C213,184,213.2,183.8,213.4,183.8z"/>
	<path class="st10" d="M250.1,175l13.4-3.2c0.9-0.2,1.7,0.4,1.7,1.3v3.2c0,1.1-0.7,2-1.8,2.2l-13.4,3.2c-0.9,0.2-1.7-0.4-1.7-1.3
		v-3.2C248.3,176.2,249,175.3,250.1,175z"/>
	<polygon class="st39" points="251.3,155.7 227.7,161.4 227.7,163.7 251.3,158 	"/>
	<polygon class="st39" points="251.3,159.6 227.7,165.3 227.7,167.6 251.3,161.9 	"/>
	<polygon class="st39" points="242.1,165.9 227.7,169.3 227.7,171.8 242.1,168.3 	"/>
	<polygon class="st39" points="249.1,136.1 225.4,141.7 225.4,144 249.1,138.4 	"/>
	<polygon class="st39" points="239.8,142.3 225.4,145.7 225.4,148.2 239.8,144.7 	"/>
	<path class="st12" d="M223.5,165.1c-0.5-1-1.2-1.8-2.1-2.3c-0.3-0.2-0.7-0.3-1.1-0.3c-2.5-0.3-4.8,2.2-5.2,5.6
		c-0.4,3.4,1.3,6.4,3.7,6.7c2.5,0.3,4.8-2.2,5.2-5.6C224.3,167.7,224.1,166.3,223.5,165.1z"/>
	<path class="st11" d="M262.3,133.5c-0.5-1-1.2-1.8-2.1-2.3c-0.3-0.2-0.7-0.3-1.1-0.3c-2.5-0.3-4.8,2.2-5.2,5.6
		c-0.4,3.4,1.3,6.4,3.7,6.7c2.5,0.3,4.8-2.2,5.2-5.6C263,136.1,262.8,134.7,262.3,133.5z"/>
</g>
<g class="st0">
	<g class="st1">
		<linearGradient id="SVGID_12_" gradientUnits="userSpaceOnUse" x1="388.0542" y1="13.1966" x2="-78.9458" y2="252.1966">
			<stop  offset="0" style="stop-color:#3F40B4"/>
			<stop  offset="1" style="stop-color:#FB79B1"/>
		</linearGradient>
		<path class="st40" d="M0,104.3C0,24.7,63.7,0,191.4,0c110.1,0,125.8,89.2,125.8,123c0,27.3-6.3,54.8-19.5,78.8
			c-13.3,24-33.6,50-63.7,47.1c-11-1-21.7-4.4-32.6-6.1c-10.6-1.7-21.5-1.7-32.1-0.2c-10.3,1.5-17.4,4.8-26.4,9.5
			c-16.7,8.8-34.4,13.6-53.3,13.6C38,265.7,0.4,240.5,0,106.4C0,105.7,0,105,0,104.3z"/>
		<linearGradient id="SVGID_13_" gradientUnits="userSpaceOnUse" x1="365.1259" y1="39.6991" x2="-55.6771" y2="230.4536">
			<stop  offset="0" style="stop-color:#3F40B4"/>
			<stop  offset="1" style="stop-color:#FB79B1"/>
		</linearGradient>
		<path class="st41" d="M192.3,14.4c28.7-2,50.2-0.1,71.3,11.2c19.3,10.4,28.8,31.5,33.5,49.8c3.3,12.9,3.6,26.2,5.7,37.7
			c1,5.3,1.6,10.3,2,14.9c0.5,5.6,0.8,11.2,0.8,16.7c0,21.1-3.7,42.9-15.1,61.2c-12.3,19.7-31.9,37.7-56.7,38.2
			c-9.4,0.2-18.7-1.3-27.9-2.4c-0.7-0.1-1.3-0.2-2-0.3c-8.4-1-16.9-1.7-25.3-1.5c-8.5,0.2-15.2,2-23.1,4.1
			c-11.4,3.1-22.9,7.1-34.8,8.2c-13.8,1.3-26.6,2.9-40.5-0.3c-21-4.8-38.9-13.2-50.6-34.4c-12.4-22.7-16-54.8-10.3-95.9
			c0.1-0.7,0.2-1.3,0.4-2c2-11.2,4.6-21.9,5.9-32.2c2.9-23.1,10.5-41,30.8-55.9c14.7-10.8,34.3-15,54.8-14.7
			C136.2,17.3,163.4,16.4,192.3,14.4z"/>
		<linearGradient id="SVGID_14_" gradientUnits="userSpaceOnUse" x1="343.3853" y1="61.7501" x2="-33.1313" y2="211.3426">
			<stop  offset="0" style="stop-color:#3F40B4"/>
			<stop  offset="1" style="stop-color:#FB79B1"/>
		</linearGradient>
		<path class="st42" d="M292.5,133c-0.9-4.7-1.9-9.4-3.1-14c-3-11.6-0.3-24.4-1.2-36.5c-1.4-18.5-8.1-42.2-26.1-50.2
			c-24.3-10.8-43.2-7.5-68.8-3.6c-26,4-52.7,5-78.6-0.1c-18.3-3.6-38.6-1-52.3,13.5C45,60.4,45.3,80.4,46.6,103.9
			c0.6,11.4-3.7,22.3-7.9,32.9c-8.7,22.2-12.3,47.5-0.6,69.2c7.3,13.5,18.5,25.6,32.7,32.3c17.2,8.2,33.6,4.5,51.8,4.5
			c15.5,0,30.3-5.9,45.6-6.8c13.4-0.8,27.1,2.9,40.6,4.4c26.6,2.9,58.7-8.2,74.6-30.4c12.5-17.4,13.7-40,11.5-60.6
			C294.4,143.9,293.6,138.4,292.5,133z"/>
	</g>
	<g class="st1">
		<path class="st22" d="M65.3,98.4L238.7,57c0.8-0.2,1.5,0.4,1.5,1.2v116.8c0,1.3-0.9,2.5-2.2,2.8L64.6,219.1
			c-0.8,0.2-1.5-0.4-1.5-1.2V101.2C63.1,99.8,64,98.7,65.3,98.4z"/>
		<path class="st13" d="M237.5,61.7v57.7c0,1.3-0.9,2.4-2.1,2.7l-18.7,4.5L67.3,162.3c-0.8,0.2-1.5-0.4-1.5-1.2v-57.7
			c0-1.3,0.9-2.4,2.1-2.7l168-40.1C236.7,60.4,237.5,60.9,237.5,61.7z"/>
		<path class="st9" d="M231.9,66.4l-1.6,0.4c-0.5,0.1-0.9,0.6-0.9,1.2v2.5c0,0.5,0.5,0.9,1,0.8l1.6-0.4c0.5-0.1,0.9-0.6,0.9-1.2
			v-2.5C232.9,66.7,232.4,66.3,231.9,66.4z"/>
		<path class="st9" d="M225.6,67.7l-1.6,0.4c-0.5,0.1-0.9,0.6-0.9,1.2v2.5c0,0.5,0.5,0.9,1,0.8l1.6-0.4c0.5-0.1,0.9-0.6,0.9-1.2
			v-2.5C226.5,68,226.1,67.6,225.6,67.7z"/>
		<path class="st9" d="M219.2,69l-1.6,0.4c-0.5,0.1-0.9,0.6-0.9,1.2v2.5c0,0.5,0.5,0.9,1,0.8l1.6-0.4c0.5-0.1,0.9-0.6,0.9-1.2v-2.5
			C220.2,69.3,219.7,68.9,219.2,69z"/>
		<path class="st10" d="M216.6,126.6L67.3,162.3c-0.8,0.2-1.5-0.4-1.5-1.2v-42.9c25.7-6.1,38.3,20.6,54.5,17.5
			c16.4-3.1,17.5-15.8,32-19.2C166.7,113.3,216.6,126.6,216.6,126.6z"/>
		<linearGradient id="SVGID_15_" gradientUnits="userSpaceOnUse" x1="161.8052" y1="140.45" x2="158.3719" y2="118.7727">
			<stop  offset="0" style="stop-color:#2C56F2;stop-opacity:0"/>
			<stop  offset="1" style="stop-color:#2C56F2"/>
		</linearGradient>
		<path class="st43" d="M85.2,130.4c42.4-6.2,60.2,5.4,82.3-3.9c42.6-17.7,66.5-4,66.5-4l-51.2,12.2L107.7,149L85.2,130.4z"/>
		<path class="st22" d="M123.8,107.2L176,94.7c0.2-0.1,0.5,0.1,0.5,0.4v5c0,0.4-0.3,0.7-0.7,0.8l-52.2,12.5
			c-0.2,0.1-0.5-0.1-0.5-0.4v-5C123.1,107.7,123.4,107.3,123.8,107.2z"/>
		<path class="st22" d="M132.1,115.1l36.2-8.6c0.2,0,0.3,0.1,0.3,0.2v3.5c0,0.3-0.2,0.5-0.5,0.6l-36.2,8.6c-0.2,0-0.3-0.1-0.3-0.2
			v-3.5C131.6,115.4,131.8,115.2,132.1,115.1z"/>
		<path class="st39" d="M133.6,154.4l36.2-8.6c0.2,0,0.3,0.1,0.3,0.2v3.5c0,0.3-0.2,0.5-0.5,0.6l-36.2,8.6c-0.2,0-0.3-0.1-0.3-0.2
			V155C133.2,154.7,133.4,154.5,133.6,154.4z"/>
		<polygon class="st39" points="91.9,173.4 212.7,144.5 212.7,147.6 91.9,176.5 		"/>
		<polygon class="st39" points="91.9,180.1 212.7,151.2 212.7,154.4 91.9,183.2 		"/>
		<polygon class="st39" points="91.9,186.4 212.7,157.5 212.7,160.7 91.9,189.5 		"/>
		<polygon class="st39" points="91.9,192.7 148.8,179.1 148.8,182.2 91.9,195.8 		"/>
		<path class="st11" d="M141.4,124.7l17.2-4.1c1.7-0.4,3.2,0.9,3.2,2.6v1.7c0,1.9-1.3,3.6-3.2,4l-17.2,4.1c-1.7,0.4-3.2-0.9-3.2-2.6
			v-1.7C138.3,126.8,139.6,125.1,141.4,124.7z"/>
	</g>
	<circle class="st20" cx="117.7" cy="68.8" r="0.8"/>
	<circle class="st20" cx="63.1" cy="85.6" r="0.8"/>
	<circle class="st20" cx="49.5" cy="149" r="0.8"/>
	<circle class="st20" cx="89" cy="56.9" r="0.8"/>
	<circle class="st20" cx="278.1" cy="110.8" r="0.8"/>
	<circle class="st20" cx="250.9" cy="205.6" r="0.8"/>
	<circle class="st20" cx="39" cy="179.1" r="0.8"/>
	<circle class="st20" cx="270.1" cy="182.6" r="0.8"/>
	<circle class="st20" cx="158.6" cy="50.3" r="0.8"/>
	<circle class="st20" cx="209.7" cy="47.7" r="0.8"/>
	<circle class="st20" cx="269.1" cy="138" r="0.8"/>
	<circle class="st20" cx="234" cy="195.8" r="0.8"/>
	<circle class="st20" cx="115.6" cy="221.6" r="0.8"/>
	<circle class="st20" cx="226.5" cy="217.8" r="0.8"/>
	<circle class="st20" cx="119" cy="42.8" r="1.3"/>
	<circle class="st20" cx="269.9" cy="97.5" r="1.3"/>
	<circle class="st20" cx="196.7" cy="222.9" r="1.3"/>
	<g class="st1">
		<g>
			<g>
				<g>
					<g>
						<path class="st21" d="M102.1,76.9c-1.6-3.5-4-6.2-7-7.7c-1.1-0.6-2.3-0.9-3.6-1.1c-8.3-1-16.2,7.5-17.6,18.9
							c-1.4,11.5,4.2,21.6,12.6,22.6c8.3,1,16.2-7.5,17.6-18.9C104.7,85.7,103.9,80.8,102.1,76.9z"/>
						<path class="st9" d="M104.4,76.9c-1.6-3.5-4-6.2-7-7.7c-1.1-0.6-2.3-0.9-3.6-1.1c-8.3-1-16.2,7.5-17.6,18.9
							c-1.4,11.5,4.2,21.6,12.6,22.6c8.3,1,16.2-7.5,17.6-18.9C106.9,85.6,106.2,80.8,104.4,76.9z"/>
					</g>
				</g>
			</g>
		</g>
		<path id="graph_20_" class="st22" d="M91.5,74.9c-0.8,0-1.7,0.1-2.4,0.3l-0.3,13.7c0,1.7,1,3,2.4,3.1c1.3,0,2.5-1.4,2.5-3
			c0-1.6-1-2.9-2.2-3l0-2.4c2.3,0.1,4.2,2.6,4.1,5.5c-0.1,3-2.1,5.5-4.5,5.4c-2.4,0-4.3-2.5-4.3-5.5L87.1,76
			c-0.3,0.1-0.6,0.3-0.8,0.5L86,88.9c-0.1,3.6,2.2,6.5,5.1,6.5c2.9,0,5.3-2.9,5.3-6.5c0.1-3.5-2.1-6.4-4.9-6.5l0-2.4
			c3.9,0.1,6.9,4.1,6.8,9c-0.1,4.9-3.4,8.9-7.3,8.9c-3.9,0-7.1-4.1-7-9l0.2-10.8c-2.5,2.6-4.2,6.4-4.3,10.8
			c-0.2,7.7,4.7,14,10.9,14.1c6.2,0,11.4-6.2,11.5-13.9C102.6,81.2,97.7,74.9,91.5,74.9z"/>
	</g>
	<polygon class="st26" points="204.8,175.2 203.6,175.2 203.9,174.2 204.7,174.4 	"/>
	<path class="st26" d="M203.7,147l23.8-5.7c0.1,0,0.2,0.1,0.2,0.2v27.6c0,0.2-0.1,0.3-0.3,0.4l-23.8,5.7c-0.1,0-0.2-0.1-0.2-0.2
		v-27.6C203.4,147.2,203.6,147.1,203.7,147z"/>
	<polygon class="st26" points="227.6,141.4 228.8,141.4 227.8,142 227.4,141.7 	"/>
	<path class="st27" d="M205,147l23.8-5.7c0.1,0,0.2,0.1,0.2,0.2v27.6c0,0.2-0.1,0.3-0.3,0.4l-23.8,5.7c-0.1,0-0.2-0.1-0.2-0.2v-27.6
		C204.7,147.2,204.8,147.1,205,147z"/>
	<g class="st1">
		<g>
			<g>
				
					<linearGradient id="SVGID_16_" gradientUnits="userSpaceOnUse" x1="-8033.8569" y1="-188.8067" x2="-8013.6401" y2="-188.8067" gradientTransform="matrix(-0.9971 -7.615680e-02 -7.615680e-02 0.9971 -7800.1021 -300.2186)">
					<stop  offset="0" style="stop-color:#F0699C;stop-opacity:0"/>
					<stop  offset="1" style="stop-color:#F03B9C"/>
				</linearGradient>
				<path class="st44" d="M224.1,115.5c-0.8-2.4-2.2-4.3-4.1-5.5c-0.7-0.4-1.5-0.8-2.3-0.9c-5.4-1.2-11.1,3.9-12.8,11.3
					c-1.6,7.4,1.4,14.4,6.8,15.6c5.4,1.2,11.1-3.9,12.8-11.3C225.2,121.4,225,118.2,224.1,115.5z"/>
				<path class="st11" d="M225.6,115.6c-0.8-2.4-2.2-4.3-4.1-5.5c-0.7-0.4-1.5-0.8-2.3-0.9c-5.4-1.2-11.1,3.9-12.8,11.3
					c-1.6,7.4,1.4,14.4,6.8,15.6c5.4,1.2,11.1-3.9,12.8-11.3C226.7,121.5,226.5,118.3,225.6,115.6z"/>
			</g>
		</g>
	</g>
	<polygon class="st6" points="245.2,136.7 233.3,167.7 234.5,167.7 246.5,136.7 	"/>
	<polygon class="st45" points="246.5,136.7 234.5,167.7 258.3,162 	"/>
	<polygon class="st46" points="234.4,132.2 233.3,132.3 233.5,131.3 234.3,131.4 	"/>
	<path class="st46" d="M233.3,104.1l23.8-5.7c0.1,0,0.2,0.1,0.2,0.2v27.6c0,0.2-0.1,0.3-0.3,0.4l-23.8,5.7c-0.1,0-0.2-0.1-0.2-0.2
		v-27.6C233,104.3,233.2,104.2,233.3,104.1z"/>
	<polygon class="st46" points="257.2,98.4 258.4,98.4 257.4,99 257,98.7 	"/>
	<path class="st6" d="M234.6,104.1l23.8-5.7c0.1,0,0.2,0.1,0.2,0.2v27.6c0,0.2-0.1,0.3-0.3,0.4l-23.8,5.7c-0.1,0-0.2-0.1-0.2-0.2
		v-27.6C234.3,104.3,234.4,104.2,234.6,104.1z"/>
</g>
</svg>
