<?xml version="1.0" encoding="utf-8"?>
<!-- Generator: Adobe Illustrator 21.1.0, SVG Export Plug-In . SVG Version: 6.00 Build 0)  -->
<svg version="1.1" id="Layer_1" xmlns="http://www.w3.org/2000/svg" xmlns:xlink="http://www.w3.org/1999/xlink" x="0px" y="0px"
	 width="135px" height="49.4px" viewBox="0 0 135 49.4" style="enable-background:new 0 0 135 49.4;" xml:space="preserve">
<style type="text/css">
	.st0{display:none;}
	.st1{display:inline;fill:#2D3540;}
	.st2{display:inline;fill:#FF8C00;}
	.st3{fill:#FF8C00;}
</style>
<g class="st0">
	
		<image style="display:inline;overflow:visible;" width="1023" height="192" xlink:href="6FA82324.png"  transform="matrix(0.219 0 0 0.219 0 0)">
	</image>
</g>
<g class="st0">
	<path class="st1" d="M66.5,34.6h2.1v4.8h1.5l2.8-4.8h2.3l-3.3,5.6v0l3.5,6.1H73l-2.9-5.1h-1.5v5.1h-2.1V34.6z M80.2,37.7
		c2.6,0,4.6,1.8,4.6,4.4c0,2.6-2.1,4.4-4.6,4.4c-2.6,0-4.6-1.8-4.6-4.4C75.6,39.5,77.7,37.7,80.2,37.7z M80.2,44.7
		c1.4,0,2.5-1.1,2.5-2.6c0-1.6-1.1-2.6-2.5-2.6c-1.4,0-2.5,1.1-2.5,2.6C77.7,43.7,78.9,44.7,80.2,44.7z M86.5,37.9h2v6.6h2.6v-6.6h2
		v6.6h2.6v-6.6h2v8.4H86.5V37.9z M103.8,37.7c2.4,0,3.7,1.8,3.7,4c0,0.3,0,0.5-0.1,0.8h-5.8c0.1,1.5,1.3,2.2,2.5,2.2
		c0.9,0,1.7-0.4,2.4-0.9l0.8,1.5c-0.9,0.8-2.2,1.2-3.4,1.2c-2.8,0-4.5-2-4.5-4.4C99.5,39.5,101.3,37.7,103.8,37.7z M105.4,41.1
		c0-1.1-0.7-1.8-1.7-1.8c-1.1,0-1.8,0.7-2,1.8H105.4z M108.5,44.6c1-0.1,1.8-1,1.8-4v-2.6h6.1v8.4h-2.1v-6.7h-2v0.9
		c0,3.7-1,5.8-3.8,5.9V44.6z M122.4,37.7c2.4,0,3.7,1.8,3.7,4c0,0.3,0,0.5-0.1,0.8h-5.8c0.1,1.5,1.3,2.2,2.5,2.2
		c0.9,0,1.7-0.4,2.4-0.9l0.8,1.5c-0.9,0.8-2.2,1.2-3.4,1.2c-2.8,0-4.5-2-4.5-4.4C118.1,39.5,119.9,37.7,122.4,37.7z M124.1,41.1
		c0-1.1-0.7-1.8-1.7-1.8c-1.1,0-1.8,0.7-2,1.8H124.1z M127.9,37.9h2.1v3.2h1l2-3.2h2.3l-2.7,4v0l3,4.4h-2.4l-2.2-3.4H130v3.4h-2.1
		V37.9z"/>
	<path class="st2" d="M95.9,9v19.9c0,0.3-0.2,0.5-0.5,0.5h-4.1c-0.3,0-0.5-0.2-0.5-0.5V9c0-0.3,0.2-0.5,0.5-0.5h4.1
		C95.7,8.4,95.9,8.7,95.9,9z M127.7,8.4h-4.6c-0.2,0-0.4,0.2-0.5,0.4L119,20.6l-4-11.8c-0.1-0.2-0.3-0.4-0.5-0.4h-3.2
		c-0.2,0-0.4,0.1-0.5,0.4l-4,11.8l-3.6-11.8c-0.1-0.2-0.3-0.4-0.5-0.4h-4.6c-0.2,0-0.3,0.1-0.4,0.2c-0.1,0.1-0.1,0.3-0.1,0.5
		l6.7,19.9c0.1,0.2,0.3,0.4,0.5,0.4h3.6c0.2,0,0.4-0.1,0.5-0.4l3.9-11.6l3.9,11.6c0.1,0.2,0.3,0.4,0.5,0.4h3.6
		c0.2,0,0.4-0.1,0.5-0.4l6.7-19.9c0.1-0.2,0-0.3-0.1-0.5C128,8.5,127.8,8.4,127.7,8.4z M134.5,8.4h-4.1c-0.3,0-0.5,0.2-0.5,0.5v19.9
		c0,0.3,0.2,0.5,0.5,0.5h4.1c0.3,0,0.5-0.2,0.5-0.5V9C135,8.7,134.8,8.4,134.5,8.4z M88.4,28.8c0.2,0.3,0,0.7-0.3,0.7h-5
		c-0.2,0-0.4-0.1-0.5-0.2l-0.8-1C80,29.3,78,30,75.8,30c-6.1,0-11-4.9-11-11s4.9-11,11-11c6.1,0,11,4.9,11,11c0,2.2-0.6,4.2-1.7,5.9
		L88.4,28.8z M78.6,24.3l-2.2-2.6c-0.2-0.3,0-0.7,0.3-0.7h4.6c0.2-0.6,0.3-1.3,0.3-2.1c0-3.3-2.4-6.1-5.8-6.1
		c-3.4,0-5.8,2.8-5.8,6.1s2.4,6.1,5.8,6.1C76.8,25,77.8,24.8,78.6,24.3z M46.9,38.4c-0.5-0.2-0.9,0-1.1,0.3
		c-0.3,0.5-0.1,1.6,0.5,2.6c0.6,1,1.1,1.4,1.5,1.4c0.4,0,0.8-0.5,0.6-1.7C48.3,40.3,47.9,38.8,46.9,38.4z M40.9,42.9
		c-0.5,0-1,0.2-1.3,0.5c-0.7,0.9-0.4,2.4,0.7,3.4c0.5,0.4,1.2,0.7,1.8,0.7c0.7,0,1.3-0.3,1.6-0.7c0.6-0.9,0.3-2.1-0.9-3.1
		C42.3,43.1,41.6,42.9,40.9,42.9z M27.1,54.3C12.1,54.3,0,42.1,0,27.1C0,12.1,12.1,0,27.1,0c15,0,27.1,12.1,27.1,27.1
		c0,5.1-1.4,9.9-3.8,13.9c-0.1,0.1-0.3,0.1-0.3-0.1c-0.9-6.7-5-10.3-10.9-11.4c-0.5-0.1-0.6-0.4,0.1-0.5c1.8-0.2,4.4-0.1,5.7,0.1
		c0.1-0.7,0.1-1.4,0.1-2.1c0-9.9-8-17.9-17.9-17.9c-9.9,0-17.9,8-17.9,17.9c0,9.9,8,17.9,17.9,17.9c0.3,0,0.6,0,0.8,0l0,0
		c-0.3-1.7-0.4-3.5-0.3-4.9c0-1.1,0.3-1.2,0.8-0.4c2.5,4.3,6,8.2,13,9.7C47,50.8,52.7,52.2,58.8,60c0.5,0.7-0.3,1.4-0.9,0.8
		c-6.2-5.5-11.9-7.3-17.1-7.3C35.1,53.5,31.1,54.3,27.1,54.3z"/>
</g>
<path class="st3" d="M89.7,10.4v23.1c0,0.3-0.3,0.6-0.6,0.6h-4.7c-0.3,0-0.6-0.3-0.6-0.6V10.4c0-0.3,0.3-0.6,0.6-0.6h4.7
	C89.5,9.8,89.7,10.1,89.7,10.4z M126.5,9.8h-5.3c-0.3,0-0.5,0.2-0.6,0.4l-4.2,13.6l-4.6-13.7c-0.1-0.3-0.3-0.4-0.6-0.4h-3.7
	c-0.3,0-0.5,0.2-0.6,0.4l-4.6,13.7l-4.2-13.6c-0.1-0.3-0.3-0.4-0.6-0.4h-5.3c-0.2,0-0.4,0.1-0.5,0.3c-0.1,0.2-0.1,0.4-0.1,0.6
	l7.7,23.1c0.1,0.3,0.3,0.4,0.6,0.4h4.2c0.3,0,0.5-0.2,0.6-0.4l4.5-13.5l4.5,13.5c0.1,0.3,0.3,0.4,0.6,0.4h4.2c0.3,0,0.5-0.2,0.6-0.4
	l7.7-23.1c0.1-0.2,0-0.4-0.1-0.6C126.9,9.9,126.7,9.8,126.5,9.8z M134.4,9.8h-4.7c-0.3,0-0.6,0.3-0.6,0.6v23.1
	c0,0.3,0.3,0.6,0.6,0.6h4.7c0.3,0,0.6-0.3,0.6-0.6V10.4C135,10.1,134.8,9.8,134.4,9.8z M81.1,33.3c0.3,0.3,0,0.8-0.4,0.8h-5.8
	c-0.2,0-0.5-0.1-0.6-0.3l-1-1.2c-2,1.3-4.4,2-6.9,2c-7,0-12.8-5.7-12.8-12.8S59.4,9.2,66.4,9.2c7,0,12.8,5.7,12.8,12.8
	c0,2.5-0.7,4.9-2,6.9L81.1,33.3z M69.6,28.2l-2.5-3c-0.3-0.3,0-0.8,0.4-0.8h5.3c0.3-0.8,0.4-1.6,0.4-2.4c0-3.8-2.8-7.1-6.7-7.1
	c-3.9,0-6.7,3.3-6.7,7.1c0,3.8,2.8,7.1,6.7,7.1C67.6,29,68.7,28.7,69.6,28.2z M39.2,33.2c0.1,1-0.2,1.4-0.5,1.4
	c-0.3,0-0.8-0.4-1.2-1.2c-0.5-0.8-0.7-1.6-0.4-2.1c0.2-0.3,0.5-0.4,0.9-0.3C38.8,31.4,39.1,32.6,39.2,33.2z M34.7,35.3
	c1,0.8,1.3,1.8,0.8,2.5c-0.3,0.4-0.8,0.6-1.3,0.6c-0.5,0-1.1-0.2-1.5-0.5c-0.9-0.8-1.1-2-0.6-2.7c0.2-0.3,0.6-0.4,1-0.4
	C33.6,34.7,34.2,34.9,34.7,35.3z M33,43.3c4.2,0,8.8,1.4,13.8,5.9c0.5,0.4,1.2-0.1,0.7-0.7c-5-6.3-9.6-7.5-14.1-8.5
	c-5.6-1.2-8.5-4.4-10.5-7.8c-0.4-0.7-0.6-0.6-0.6,0.3c0,1.1,0,2.5,0.3,3.9l0,0c-0.2,0-0.5,0-0.7,0c-8,0-14.5-6.5-14.5-14.5
	S13.9,7.4,21.9,7.4c8,0,14.5,6.5,14.5,14.5c0,0.6,0,1.1-0.1,1.7c-1.1-0.2-3.1-0.2-4.6-0.1c-0.6,0-0.5,0.3-0.1,0.4
	c4.8,0.9,8.1,3.8,8.8,9.2c0,0.1,0.2,0.2,0.2,0.1c2-3.3,3.1-7.1,3.1-11.3C43.9,9.8,34.1,0,21.9,0C9.8,0,0,9.8,0,21.9s9.8,22,21.9,22
	C25.2,43.9,28.4,43.3,33,43.3z"/>
</svg>
