<?xml version="1.0" encoding="utf-8"?>
<!-- Generator: Adobe Illustrator 21.1.0, SVG Export Plug-In . SVG Version: 6.00 Build 0)  -->
<svg version="1.1" id="Layer_1" xmlns="http://www.w3.org/2000/svg" xmlns:xlink="http://www.w3.org/1999/xlink" x="0px" y="0px"
	 width="41px" height="40px" viewBox="0 0 41 40" style="enable-background:new 0 0 41 40;" xml:space="preserve">
<style type="text/css">
	.st0{display:none;}
	.st1{display:inline;fill:#339DC3;}
	.st2{display:inline;}
	.st3{fill:#F1F2F2;}
	.st4{fill:#314A7E;}
	.st5{display:inline;fill:#E52D27;}
	.st6{fill-rule:evenodd;clip-rule:evenodd;fill:#F1F2F2;}
	.st7{fill:#0A819F;}
	.st8{display:inline;fill-rule:evenodd;clip-rule:evenodd;fill:#F1F2F2;}
</style>
<g class="st0">
	<circle class="st1" cx="20.5" cy="20" r="20.2"/>
	<g class="st2">
		<path class="st3" d="M33,12.3c-0.9,0.4-1.9,0.7-2.9,0.8c1.1-0.6,1.9-1.6,2.3-2.8c-1,0.6-2.1,1-3.2,1.2c-0.9-1-2.3-1.6-3.7-1.6
			c-2.8,0-5.1,2.3-5.1,5.1c0,0.4,0,0.8,0.1,1.2c-4.3-0.2-8-2.3-10.5-5.3c-0.4,0.8-0.7,1.6-0.7,2.6c0,1.8,0.9,3.3,2.3,4.3
			c-0.8,0-1.6-0.3-2.3-0.6c0,0,0,0,0,0.1c0,2.5,1.8,4.5,4.1,5c-0.4,0.1-0.9,0.2-1.3,0.2c-0.3,0-0.7,0-1-0.1c0.7,2,2.5,3.5,4.8,3.6
			c-1.8,1.4-4,2.2-6.4,2.2c-0.4,0-0.8,0-1.2-0.1c2.3,1.5,5,2.3,7.8,2.3c9.4,0,14.6-7.8,14.6-14.6c0-0.2,0-0.4,0-0.7
			C31.4,14.2,32.3,13.3,33,12.3L33,12.3z M33,12.3"/>
	</g>
</g>
<g>
	<circle class="st4" cx="20.5" cy="20" r="20.2"/>
	<path class="st3" d="M25.6,20h-3.3v11.9h-5V20h-2.4v-4.2h2.4v-2.7c0-2,0.9-5,5-5l3.7,0v4.1h-2.7c-0.4,0-1.1,0.2-1.1,1.1v2.5h3.8
		L25.6,20z M25.6,20"/>
</g>
<g class="st0">
	<circle class="st5" cx="20.5" cy="20" r="20.2"/>
	<g class="st2">
		<path class="st6" d="M32.6,15.2c0-2-1.6-3.6-3.6-3.6H12c-2,0-3.6,1.6-3.6,3.6v9.7c0,2,1.6,3.6,3.6,3.6H29c2,0,3.6-1.6,3.6-3.6
			V15.2z M18.1,24.1V15l6.9,4.5L18.1,24.1z M18.1,24.1"/>
	</g>
</g>
<g class="st0">
	<g class="st2">
		<circle class="st7" cx="20.6" cy="20.2" r="20.2"/>
	</g>
	<path class="st8" d="M35.5,12.7c-0.4-0.3-1.8-0.3-3.3-0.3c-1.5,0-2.9,0-3.3,0.2c-0.3,0.1-1,1.8-1.9,3.6c-1,2-2.3,3.9-3.1,3.8
		c-1.1,0-0.8-3.2-0.7-5.6c0-1.6-0.2-2.1-0.5-2.2c-0.6-0.4-2.1-0.8-2.1-0.8S16.1,11,15.5,13c0.9,0.1,2.4-0.1,1.8,5.9
		c0,0.3-0.7,2.8-2.8-0.6c-0.5-0.8-2.6-5.9-3.3-6c-2.3,0-4.7-0.1-5.5,0.3c-0.8,0.4,1,3.9,4,8.6c2.4,3.8,5,6.8,9.5,7.6
		c0.8,0.1,3,0.2,3.7-0.1c0.5-0.2-0.1-3.5,1.5-3.9c0.7-0.1,3.4,3.5,4.4,3.9c0.6,0.3,2,0.4,3.4,0.3c1.5,0,3.2,0.1,3.4-0.9
		c0.4-2.3-4.6-5.3-4.7-6.7c-0.1-1,1.8-2.9,2.8-4.3C34.9,15.4,36.2,13.3,35.5,12.7L35.5,12.7z"/>
</g>
</svg>
