<?xml version="1.0" encoding="utf-8"?>
<!-- Generator: Adobe Illustrator 21.1.0, SVG Export Plug-In . SVG Version: 6.00 Build 0)  -->
<svg version="1.1" id="Layer_1" xmlns="http://www.w3.org/2000/svg" xmlns:xlink="http://www.w3.org/1999/xlink" x="0px" y="0px"
	 width="39.5px" height="39.5px" viewBox="0 0 39.5 39.5" style="enable-background:new 0 0 39.5 39.5;" xml:space="preserve">
<style type="text/css">
	.st0{display:none;}
	.st1{display:inline;}
	.st2{fill:#FFFFFF;}
	.st3{fill-rule:evenodd;clip-rule:evenodd;fill:#FFFFFF;}
</style>
<g id="XMLID_621_" class="st0">
	<g id="XMLID_673_" class="st1">
		<path class="st2" d="M19.8,39.5C8.9,39.5,0,30.7,0,19.8C0,8.9,8.9,0,19.8,0c10.9,0,19.8,8.9,19.8,19.8
			C39.5,30.7,30.7,39.5,19.8,39.5z M19.8,1C9.4,1,1,9.4,1,19.8s8.4,18.8,18.8,18.8s18.8-8.4,18.8-18.8S30.1,1,19.8,1z"/>
	</g>
	<g class="st1">
		<g id="XMLID_646_">
			<path class="st2" d="M31.7,12.4c-0.9,0.4-1.8,0.7-2.8,0.8c1-0.6,1.8-1.6,2.1-2.7c-0.9,0.6-2,1-3.1,1.2c-0.9-0.9-2.2-1.5-3.6-1.5
				c-2.7,0-4.9,2.2-4.9,4.9c0,0.4,0,0.8,0.1,1.1c-4.1-0.2-7.7-2.1-10.1-5.1c-0.4,0.7-0.7,1.6-0.7,2.5c0,1.7,0.9,3.2,2.2,4.1
				c-0.8,0-1.6-0.2-2.2-0.6c0,0,0,0,0,0.1c0,2.4,1.7,4.3,3.9,4.8c-0.4,0.1-0.8,0.2-1.3,0.2c-0.3,0-0.6,0-0.9-0.1
				c0.6,1.9,2.4,3.4,4.6,3.4c-1.7,1.3-3.8,2.1-6.1,2.1c-0.4,0-0.8,0-1.2-0.1c2.2,1.4,4.7,2.2,7.5,2.2c9,0,13.9-7.4,13.9-13.9
				c0-0.2,0-0.4,0-0.6C30.2,14.2,31,13.4,31.7,12.4L31.7,12.4z M31.7,12.4"/>
		</g>
	</g>
</g>
<g id="XMLID_436_" class="st0">
	<g id="XMLID_578_" class="st1">
		<path class="st2" d="M19.8,39.5C8.9,39.5,0,30.7,0,19.8C0,8.9,8.9,0,19.8,0s19.8,8.9,19.8,19.8C39.5,30.7,30.7,39.5,19.8,39.5z
			 M19.8,1C9.4,1,1,9.4,1,19.8s8.4,18.8,18.8,18.8s18.8-8.4,18.8-18.8S30.1,1,19.8,1z"/>
	</g>
	<g id="XMLID_438_" class="st1">
		<path class="st2" d="M24.7,19.8h-3.2v11.4h-4.7V19.8h-2.3v-4h2.3v-2.6c0-1.9,0.9-4.8,4.8-4.8l3.5,0v3.9h-2.5c-0.4,0-1,0.2-1,1.1
			v2.4h3.6L24.7,19.8z M24.7,19.8"/>
	</g>
</g>
<g id="XMLID_428_" class="st0">
	<g id="XMLID_434_" class="st1">
		<path class="st2" d="M19.8,39.5C8.9,39.5,0,30.7,0,19.8C0,8.9,8.9,0,19.8,0c10.9,0,19.8,8.9,19.8,19.8
			C39.5,30.7,30.7,39.5,19.8,39.5z M19.8,1C9.4,1,1,9.4,1,19.8s8.4,18.8,18.8,18.8s18.8-8.4,18.8-18.8S30.1,1,19.8,1z"/>
	</g>
	<g class="st1">
		<g id="XMLID_429_">
			<path class="st3" d="M31.3,15.1c0-1.9-1.5-3.4-3.4-3.4H11.7c-1.9,0-3.4,1.5-3.4,3.4v9.2c0,1.9,1.5,3.4,3.4,3.4h16.2
				c1.9,0,3.4-1.5,3.4-3.4V15.1z M17.5,23.7V15l6.6,4.3L17.5,23.7z M17.5,23.7"/>
		</g>
	</g>
</g>
<g>
	<g id="XMLID_12_">
		<g id="XMLID_401_">
			<path class="st2" d="M19.8,39.5C8.9,39.5,0,30.7,0,19.8C0,8.9,8.9,0,19.8,0c10.9,0,19.8,8.9,19.8,19.8
				C39.5,30.7,30.7,39.5,19.8,39.5z M19.8,1C9.4,1,1,9.4,1,19.8s8.4,18.8,18.8,18.8s18.8-8.4,18.8-18.8S30.1,1,19.8,1z"/>
		</g>
	</g>
	<path id="Logo" class="st3" d="M31.7,13.4c0.2-0.6,0-1-0.8-1h-2.7c-0.7,0-1,0.4-1.2,0.8c0,0-1.4,3.4-3.4,5.6
		c-0.6,0.6-0.9,0.8-1.3,0.8c-0.2,0-0.4-0.2-0.4-0.8v-5.4c0-0.7-0.2-1-0.8-1h-4.3c-0.4,0-0.7,0.3-0.7,0.6c0,0.7,1,0.8,1.1,2.7v4
		c0,0.9-0.2,1-0.5,1c-0.9,0-3.2-3.4-4.5-7.3c-0.3-0.8-0.5-1.1-1.2-1.1H8.2c-0.8,0-0.9,0.4-0.9,0.8c0,0.7,0.9,4.3,4.3,9.1
		c2.3,3.2,5.4,5,8.3,5c1.7,0,1.9-0.4,1.9-1.1v-2.4c0-0.8,0.2-0.9,0.7-0.9c0.4,0,1.1,0.2,2.7,1.8c1.9,1.9,2.2,2.7,3.2,2.7h2.7
		c0.8,0,1.2-0.4,0.9-1.2c-0.2-0.8-1.1-1.9-2.3-3.2c-0.6-0.8-1.6-1.6-1.9-2c-0.4-0.5-0.3-0.8,0-1.2C28,19.6,31.3,15,31.7,13.4z"/>
</g>
</svg>
