<svg xmlns="http://www.w3.org/2000/svg" viewBox="0 0 172.59 51.08"><defs><style>.cls-1{fill:#ee3524;}</style></defs><title>ic_alfa</title><g id="Layer_2" data-name="Layer 2"><g id="_1170px_grid" data-name="1170px grid"><path class="cls-1" d="M16.4,0C19.87,0,21,2.49,21.88,5l9.69,26.53a.52.52,0,0,1-.29.67l-5.27,2a.51.51,0,0,1-.65-.3L23.1,27.67H9.71L7.44,33.93a.5.5,0,0,1-.65.3l-5.27-2a.52.52,0,0,1-.3-.67C1.56,30.59,10.45,6.25,10.91,5,11.79,2.53,12.92,0,16.4,0ZM.51,44.26a.51.51,0,0,0-.51.52v5.78a.51.51,0,0,0,.51.52H32.29a.51.51,0,0,0,.5-.52V44.78a.51.51,0,0,0-.5-.52H.51M16.37,8.08,11.84,21.67H21L16.43,8.08ZM134.61,28a2.29,2.29,0,0,1-2.42,2.55,6.39,6.39,0,0,1-1.94-.22V25.7a9.79,9.79,0,0,1,1.94-.14A2.18,2.18,0,0,1,134.61,28Zm3.22-.23c0-2.85-1.67-4.82-5.18-4.82a9.29,9.29,0,0,0-2.39.3v-4.1A20.74,20.74,0,0,1,132.9,19a30.47,30.47,0,0,1,3.49.2l.08-2.38a23.85,23.85,0,0,0-4.66-.47A22.83,22.83,0,0,0,127,17V32.19a14.23,14.23,0,0,0,5,.89C135.84,33.08,137.82,31,137.82,27.79ZM101.32,27c0,2.12-.84,3.48-2.23,3.48a4.11,4.11,0,0,1-1.55-.24V23.85a3.24,3.24,0,0,1,1.7-.34c1.39,0,2.08,1.15,2.08,3.46M90.75,27c0-2.31.7-3.53,2.08-3.53a3.24,3.24,0,0,1,1.7.34V30.2a4.1,4.1,0,0,1-1.55.24c-1.58,0-2.23-1.29-2.23-3.41m6.79,9.52V32.42A4.7,4.7,0,0,0,100,33c2.56,0,4.45-2.13,4.45-6,0-4.19-1.88-6-5-6a4,4,0,0,0-1.93.38V16.42h-3v4.94A4,4,0,0,0,92.6,21c-3.08,0-5,1.87-5,6.06,0,3.89,1.7,5.95,4.45,5.95a4.7,4.7,0,0,0,2.44-.56v4.13h3M74.65,32.79V21.7A14.86,14.86,0,0,0,70,21a14.67,14.67,0,0,0-4.57.71v5.68a7.73,7.73,0,0,1-.19,2.51,2.59,2.59,0,0,1-1,1.37L65.1,33c2.43-.69,3.34-1.74,3.34-5.1V23.74A8.4,8.4,0,0,1,70,23.6a8.14,8.14,0,0,1,1.58.14v9Zm37.26-2.43a4.49,4.49,0,0,1-1.63.28c-1.08,0-1.7-.43-1.7-1.54s.78-1.55,2.28-1.55a3.22,3.22,0,0,1,.89.11v.83A7.25,7.25,0,0,0,111.91,30.36Zm3.84,1.33a5.22,5.22,0,0,1-1-3.46v-3.1c0-1.68-.19-2.29-.64-2.9-.61-.86-1.64-1.23-3.52-1.23a15.79,15.79,0,0,0-3.89.46l.45,2.22a19.24,19.24,0,0,1,2.38-.22c2,0,2.23.29,2.23,1.79v.56a5.81,5.81,0,0,0-1.53-.21c-3,0-4.62,1.47-4.62,3.91A3.47,3.47,0,0,0,109.39,33a6.16,6.16,0,0,0,2.22-.4,5.94,5.94,0,0,0,1.05-.6,3.12,3.12,0,0,0,1.15,1Zm29.53-1.33a4.49,4.49,0,0,1-1.63.28c-1.08,0-1.69-.43-1.69-1.54s.78-1.55,2.27-1.55a3.13,3.13,0,0,1,.89.11v.83A7.33,7.33,0,0,0,145.28,30.36Zm3.85,1.33a5.21,5.21,0,0,1-1-3.46v-3.1c0-1.68-.19-2.29-.63-2.9-.62-.86-1.64-1.23-3.53-1.23a15.75,15.75,0,0,0-3.89.46l.45,2.22a19.22,19.22,0,0,1,2.38-.22c2,0,2.23.29,2.23,1.79v.56a5.78,5.78,0,0,0-1.53-.21c-3,0-4.62,1.47-4.62,3.91A3.47,3.47,0,0,0,142.76,33a6.15,6.15,0,0,0,2.22-.4A5.79,5.79,0,0,0,146,32a3.14,3.14,0,0,0,1.15,1ZM83.25,28.8c0,1.14-.4,1.91-1.85,1.91a3.79,3.79,0,0,1-1.33-.18V27.22A5.3,5.3,0,0,1,81.4,27C82.79,27,83.25,27.72,83.25,28.8Zm-6.2-7.63v11a11.58,11.58,0,0,0,4.41.88c3.21,0,4.93-1.66,4.93-4.4,0-2.48-1.52-4-4.37-4a7.22,7.22,0,0,0-1.94.29V21.17Zm83.13,11.61V21.28h-3v4.35h-3.42V21.28h-3V32.79h3v-4.7h3.42v4.7Zm12.41,0s-1.65-3.52-2.05-4.32-.87-1.53-1.81-1.75v-.05c.62-.12,1.12-.5,1.66-1.65s.67-1.37,1-1.63a.83.83,0,0,1,.7-.17l.15-2.1a7.74,7.74,0,0,0-1.41,0,2.23,2.23,0,0,0-1.64.69,4.91,4.91,0,0,0-.8,1.32l-.79,1.64c-.29.61-.43.88-1.22.88h-.51V21.28h-3V32.79h3v-4.7h.41c.86,0,1,.22,1.47,1.13.54,1.09,1.56,3.58,1.56,3.58Zm-112.74,0h3.48L58.07,16.7a6.31,6.31,0,0,0-2-.3,4.49,4.49,0,0,0-1.71.3L48.81,32.79h3.34s.45-1.41,1-3.16h5.77ZM54,26.93s1-3.22,1.11-3.73c.39-1.31,1-3.38,1-3.38h.1s.54,2.14.89,3.36c.14.47,1.06,3.75,1.06,3.75Zm66.9-1.84A1.93,1.93,0,1,0,122.82,27,1.93,1.93,0,0,0,120.89,25.1Z"/></g></g></svg>