<svg width="339" height="22" viewBox="0 0 339 22" fill="none" xmlns="http://www.w3.org/2000/svg">
    <path d="M21.7214 8.47564C21.6974 10.4259 23.4052 11.5142 24.6916 12.1612C26.0133 12.8251 26.4572 13.2509 26.452 13.8446C26.4421 14.7532 25.3977 15.1542 24.4204 15.1698C22.7153 15.1971 21.7238 14.6946 20.9357 14.3146L20.3214 17.2814C21.1122 17.6576 22.5765 17.9856 24.0949 18C27.6591 18 29.991 16.1839 30.0036 13.3681C30.0175 9.79438 25.2149 9.59658 25.2477 7.99925C25.2591 7.5149 25.7068 6.99804 26.6879 6.86662C27.1735 6.80024 28.5141 6.74943 30.0339 7.47189L30.6305 4.60137C29.8131 4.29416 28.7626 4 27.4547 4C24.1 4 21.7404 5.84086 21.7214 8.47564ZM36.3625 4.24725C35.7116 4.24725 35.1632 4.63914 34.9184 5.2405L29.8271 17.7892H33.3887L34.0974 15.7673H38.4497L38.8608 17.7892H42L39.2606 4.24725H36.3625ZM36.8607 7.90543L37.8886 12.9906H35.0736L36.8607 7.90543ZM17.4031 4.24742L14.5957 17.789H17.9896L20.7957 4.24708L17.4031 4.24742ZM12.3823 4.24708L8.8497 13.4644L7.42071 5.6273C7.25304 4.75243 6.59088 4.24725 5.85556 4.24725H0.0808828L0 4.64049C1.18552 4.90603 2.53247 5.33433 3.34852 5.79259C3.84792 6.07253 3.99033 6.31725 4.15439 6.98246L6.86093 17.7892H10.4475L15.9462 4.24725L12.3823 4.24708Z" fill="url(#paint0_linear)"/>
    <path fill-rule="evenodd" clip-rule="evenodd" d="M150.316 4H140.963C141.466 7.09679 144.483 9.99379 147.802 9.99379H155.245C155.345 9.6941 155.345 9.29452 155.345 8.99483C155.345 6.19772 153.133 4 150.316 4Z" fill="url(#paint1_linear)"/>
    <path fill-rule="evenodd" clip-rule="evenodd" d="M141.774 10.5078V18.0001H146.3V14.0042H150.323C152.536 14.0042 154.447 12.5057 155.05 10.5078H141.774Z" fill="#4DB45F"/>
    <path fill-rule="evenodd" clip-rule="evenodd" d="M125.679 4V17.9855H129.702C129.702 17.9855 130.708 17.9855 131.21 16.9865C133.926 11.5921 134.731 9.99379 134.731 9.99379H135.233V17.9855H139.759V4H135.736C135.736 4 134.731 4.0999 134.228 4.99897C131.914 9.59421 130.708 11.9917 130.708 11.9917H130.205V4H125.679Z" fill="#4DB45F"/>
    <path fill-rule="evenodd" clip-rule="evenodd" d="M106.565 17.9855V4H111.091C111.091 4 112.399 4 113.103 5.99793C114.913 11.2924 115.114 11.9917 115.114 11.9917C115.114 11.9917 115.517 10.6931 117.126 5.99793C117.83 4 119.137 4 119.137 4H123.663V17.9855H119.137V10.4933H118.635L116.12 17.9855H114.109L111.594 10.4933H111.091V17.9855H106.565Z" fill="#4DB45F"/>
    <path d="M330.04 0.662598L330.126 5.70512H330.09L328.59 0.662598H326.168V7.02141H327.775L327.682 1.80208H327.718L329.331 7.02141H331.656V0.662598H330.04Z" fill="black"/>
    <path d="M299.314 0.662598L298.106 7.0869H299.869L300.76 1.25526H300.797L301.668 7.0869H303.421L302.217 0.662598H299.314Z" fill="black"/>
    <path d="M309.176 0.662598L308.371 5.57414H308.334L307.53 0.662598H304.866L304.723 7.0869H306.356L306.399 1.31092H306.432L307.523 7.0869H309.179L310.27 1.31092H310.307L310.347 7.0869H311.979L311.836 0.662598H309.176Z" fill="black"/>
    <path d="M295.358 5.26678C295.421 5.42068 295.401 5.62041 295.371 5.74157C295.318 5.9544 295.171 6.17378 294.736 6.17378C294.327 6.17378 294.08 5.9413 294.08 5.59094V4.96882H292.331V5.46325C292.331 6.89742 293.475 7.32963 294.702 7.32963C295.883 7.32963 296.854 6.93343 297.01 5.85944C297.09 5.30608 297.03 4.94262 297.004 4.8051C296.728 3.45933 294.253 3.05659 294.067 2.30676C294.037 2.17579 294.044 2.04154 294.06 1.9695C294.107 1.76321 294.25 1.53728 294.656 1.53728C295.038 1.53728 295.261 1.76976 295.261 2.12012V2.51959H296.891V2.06773C296.891 0.669577 295.614 0.450195 294.689 0.450195C293.528 0.450195 292.58 0.830022 292.408 1.87782C292.361 2.16596 292.354 2.42136 292.424 2.74552C292.7 4.05527 295.022 4.43509 295.358 5.26678Z" fill="black"/>
    <path d="M316.577 5.25547C316.64 5.40936 316.62 5.60582 316.59 5.72697C316.537 5.93981 316.39 6.15264 315.961 6.15264C315.556 6.15264 315.313 5.92344 315.313 5.57635V4.96077H313.58V5.45193C313.58 6.86973 314.714 7.29867 315.928 7.29867C317.099 7.29867 318.06 6.90575 318.213 5.84485C318.293 5.29476 318.233 4.93785 318.206 4.80033C317.934 3.46766 315.482 3.07147 315.3 2.32491C315.266 2.19721 315.276 2.06296 315.293 1.99093C315.339 1.78792 315.479 1.56198 315.882 1.56198C316.261 1.56198 316.483 1.79119 316.483 2.13827V2.5312H318.096V2.08261C318.096 0.697554 316.833 0.481445 315.918 0.481445C314.771 0.481445 313.83 0.854722 313.66 1.8927C313.613 2.17757 313.607 2.42969 313.677 2.75058C313.946 4.05377 316.244 4.43033 316.577 5.25547Z" fill="black"/>
    <path d="M322.058 6.12116C322.51 6.12116 322.65 5.81337 322.683 5.6562C322.697 5.58744 322.7 5.49248 322.7 5.41062V0.65625H324.353V5.26328C324.356 5.38115 324.343 5.62346 324.336 5.68567C324.223 6.88409 323.259 7.27374 322.058 7.27374C320.857 7.27374 319.896 6.88409 319.78 5.68567C319.773 5.62346 319.76 5.38115 319.763 5.26328V0.65625H321.413V5.41062C321.409 5.49248 321.413 5.58744 321.429 5.6562C321.463 5.81337 321.602 6.12116 322.058 6.12116Z" fill="black"/>
    <path d="M335.672 6.05114C336.145 6.05114 336.311 5.75644 336.341 5.58618C336.354 5.51414 336.357 5.42246 336.357 5.34387V4.41068H335.689V3.47421H338V5.19653C338 5.31768 337.997 5.40609 337.977 5.61892C337.871 6.78787 336.84 7.20699 335.682 7.20699C334.525 7.20699 333.494 6.78787 333.388 5.61892C333.368 5.40609 333.364 5.31768 333.364 5.19653V2.4919C333.364 2.3773 333.378 2.17757 333.391 2.06951C333.537 0.86782 334.525 0.481445 335.682 0.481445C336.84 0.481445 337.854 0.864546 337.974 2.06951C337.994 2.27252 337.987 2.4919 337.99 2.4919V2.70474H336.344V2.34456C336.344 2.34456 336.344 2.19066 336.324 2.09898C336.294 1.95818 336.171 1.63402 335.672 1.63402C335.197 1.63402 335.057 1.94181 335.02 2.09898C335.001 2.18411 334.994 2.29872 334.994 2.4035V5.3406C334.994 5.42246 334.997 5.51087 335.011 5.5829C335.034 5.75644 335.2 6.05114 335.672 6.05114Z" fill="black"/>
    <path d="M307.932 12.7742V15.3053H308.927C309.702 15.3053 310.227 14.7421 310.227 14.0348C310.227 13.3374 309.702 12.7742 308.927 12.7742H307.932V12.7742ZM306.632 11.5889H309.023C310.466 11.5889 311.537 12.6792 311.537 14.0348C311.537 15.4002 310.466 16.4906 309.013 16.4906H307.932V18.4585H306.632V11.5889Z" fill="black"/>
    <path d="M316.422 15.6903C316.422 14.7572 315.703 13.9975 314.749 13.9975C313.794 13.9975 313.056 14.7408 313.056 15.6903C313.056 16.6497 313.791 17.4028 314.749 17.4028C315.703 17.4028 316.422 16.6399 316.422 15.6903ZM311.786 15.71C311.786 13.8829 313.143 12.8384 314.559 12.8384C315.294 12.8384 315.956 13.1396 316.355 13.6111V12.953H317.646V18.4572H316.355V17.7434C315.943 18.2509 315.274 18.5718 314.539 18.5718C313.189 18.5685 311.786 17.5076 311.786 15.71Z" fill="black"/>
    <path d="M320.362 18.1869L318.067 12.9512H319.444L321.004 16.661L322.474 12.9512H323.83L320.495 20.9996H319.188L320.362 18.1869Z" fill="black"/>
    <g clip-path="url(#clip0)">
        <path d="M252.918 10.6008V15.7659H251.295V3.01588H255.599C256.637 2.99555 257.644 3.39208 258.38 4.12413C259.851 5.50691 259.942 7.83525 258.561 9.32986C258.501 9.39087 258.44 9.45187 258.38 9.51288C257.624 10.2348 256.697 10.6008 255.599 10.6008H252.918ZM252.918 4.58167V9.03501H255.639C256.244 9.05534 256.828 8.81132 257.241 8.37412C258.088 7.48956 258.068 6.06611 257.191 5.21205C256.778 4.80535 256.223 4.58167 255.639 4.58167H252.918Z" fill="#3C4043"/>
        <path d="M263.287 6.75635C264.487 6.75635 265.434 7.08171 266.129 7.72225C266.825 8.3628 267.167 9.25754 267.167 10.3861V15.7647H265.615V14.5548H265.545C264.87 15.5512 263.983 16.0494 262.864 16.0494C261.917 16.0494 261.111 15.7647 260.476 15.1953C259.851 14.6666 259.498 13.8837 259.518 13.0602C259.518 12.1553 259.861 11.4435 260.536 10.9047C261.211 10.3658 262.118 10.1014 263.247 10.1014C264.215 10.1014 265.001 10.2845 265.625 10.6301V10.2539C265.625 9.69474 265.384 9.16603 264.96 8.8C264.527 8.41364 263.973 8.20012 263.398 8.20012C262.491 8.20012 261.776 8.58649 261.252 9.35921L259.821 8.45431C260.587 7.32572 261.746 6.75635 263.287 6.75635ZM261.191 13.0907C261.191 13.5177 261.393 13.9142 261.725 14.1582C262.088 14.4429 262.532 14.5954 262.985 14.5853C263.67 14.5853 264.325 14.3108 264.809 13.8227C265.343 13.3143 265.615 12.7145 265.615 12.0231C265.111 11.6164 264.406 11.413 263.499 11.4232C262.844 11.4232 262.29 11.5859 261.846 11.9011C261.413 12.2163 261.191 12.6128 261.191 13.0907Z" fill="#3C4043"/>
        <path fill-rule="evenodd" clip-rule="evenodd" d="M276.076 7.04248L270.655 19.5993H268.982L270.997 15.2069L267.44 7.04248H269.204L271.773 13.3056H271.804L274.313 7.04248H276.076Z" fill="#3C4043"/>
        <path fill-rule="evenodd" clip-rule="evenodd" d="M246.358 9.48249C246.358 8.98429 246.317 8.48608 246.237 7.99805H239.394V10.8144H243.314C243.153 11.7193 242.629 12.5327 241.863 13.0411V14.8712H244.201C245.572 13.6003 246.358 11.7193 246.358 9.48249Z" fill="#4285F4"/>
        <path fill-rule="evenodd" clip-rule="evenodd" d="M239.395 16.6416C241.35 16.6416 243.003 15.9909 244.202 14.8724L241.864 13.0423C241.209 13.4897 240.372 13.7439 239.395 13.7439C237.5 13.7439 235.898 12.4526 235.324 10.7241H232.915V12.6153C234.145 15.086 236.654 16.6416 239.395 16.6416Z" fill="#34A853"/>
        <path fill-rule="evenodd" clip-rule="evenodd" d="M235.324 10.7243C235.021 9.8194 235.021 8.83316 235.324 7.91809V6.03711H232.915C231.877 8.1011 231.877 10.5413 232.915 12.6053L235.324 10.7243Z" fill="#FBBC04"/>
        <path fill-rule="evenodd" clip-rule="evenodd" d="M239.395 4.89816C240.433 4.87783 241.431 5.27436 242.176 5.99625L244.252 3.90175C242.932 2.66133 241.199 1.98011 239.395 2.00044C236.654 2.00044 234.145 3.56623 232.915 6.03692L235.324 7.92806C235.898 6.18943 237.5 4.89816 239.395 4.89816Z" fill="#EA4335"/>
    </g>
    <g clip-path="url(#clip1)">
        <path d="M180.175 5.04057C180.687 4.40464 181.034 3.55077 180.942 2.67822C180.194 2.71523 179.28 3.16924 178.751 3.80567C178.276 4.35067 177.856 5.24029 177.965 6.07626C178.806 6.14873 179.646 5.65865 180.175 5.04057Z" fill="black"/>
        <path d="M180.932 6.24117C179.712 6.1689 178.674 6.92978 178.091 6.92978C177.508 6.92978 176.615 6.27759 175.65 6.29517C174.393 6.31351 173.227 7.01974 172.589 8.14298C171.278 10.39 172.243 13.7231 173.519 15.5532C174.138 16.4586 174.884 17.4555 175.868 17.4197C176.797 17.3834 177.162 16.8215 178.291 16.8215C179.42 16.8215 179.748 17.4197 180.732 17.4016C181.752 17.3834 182.39 16.4957 183.009 15.5894C183.72 14.5573 184.01 13.5608 184.029 13.5061C184.01 13.4879 182.062 12.7448 182.044 10.5164C182.025 8.65061 183.574 7.76312 183.646 7.70808C182.772 6.42254 181.406 6.27759 180.932 6.24117Z" fill="black"/>
        <path d="M191.559 3.7168C194.212 3.7168 196.06 5.53458 196.06 8.18114C196.06 10.8371 194.174 12.6644 191.493 12.6644H188.555V17.3076H186.433V3.7168H191.559V3.7168ZM188.555 10.8936H190.99C192.838 10.8936 193.89 9.90481 193.89 8.19058C193.89 6.47653 192.838 5.49697 191 5.49697H188.555V10.8936V10.8936Z" fill="black"/>
        <path d="M196.614 14.4962C196.614 12.7631 197.95 11.6989 200.319 11.567L203.047 11.4069V10.6441C203.047 9.5421 202.299 8.88283 201.048 8.88283C199.864 8.88283 199.125 9.44782 198.945 10.3333H197.012C197.126 8.54365 198.66 7.2251 201.124 7.2251C203.54 7.2251 205.084 8.4966 205.084 10.4839V17.3123H203.123V15.6829H203.076C202.498 16.7849 201.238 17.4818 199.93 17.4818C197.978 17.4818 196.614 16.2762 196.614 14.4962ZM203.047 13.6015V12.8198L200.593 12.9704C199.371 13.0552 198.679 13.5921 198.679 14.4397C198.679 15.3061 199.399 15.8713 200.499 15.8713C201.929 15.8713 203.047 14.8917 203.047 13.6015Z" fill="black"/>
        <path d="M206.938 20.9531V19.3049C207.089 19.3425 207.43 19.3425 207.601 19.3425C208.549 19.3425 209.06 18.947 209.373 17.9298C209.373 17.9109 209.553 17.327 209.553 17.3176L205.953 7.3999H208.17L210.69 15.4622H210.728L213.248 7.3999H215.409L211.675 17.8261C210.823 20.2279 209.837 21.0002 207.772 21.0002C207.601 21.0002 207.089 20.9813 206.938 20.9531Z" fill="black"/>
    </g>
    <g clip-path="url(#clip2)">
        <path d="M69.6709 2.96826H78.3222V18.8923H69.6709V2.96826Z" fill="#FF5F00"/>
        <path d="M70.2218 10.9325C70.2218 7.69715 71.7049 4.82739 73.9844 2.97049C72.3092 1.62006 70.1944 0.804199 67.8874 0.804199C62.4217 0.804199 58 5.33375 58 10.9325C58 16.5312 62.4217 21.0609 67.8873 21.0609C70.1943 21.0609 72.309 20.245 73.9844 18.8945C71.7049 17.0658 70.2218 14.1679 70.2218 10.9325V10.9325Z" fill="#EB001B"/>
        <path d="M90 10.9325C90 16.5312 85.5782 21.0609 80.1127 21.0609C77.8057 21.0609 75.691 20.245 74.0156 18.8945C76.3226 17.0377 77.7783 14.1679 77.7783 10.9325C77.7783 7.69715 76.2951 4.82739 74.0156 2.97049C75.6908 1.62006 77.8057 0.804199 80.1127 0.804199C85.5782 0.804199 90.0001 5.36195 90.0001 10.9325H90Z" fill="#F79E1B"/>
    </g>
    <defs>
        <linearGradient id="paint0_linear" x1="19.3091" y1="18.2808" x2="19.7274" y2="3.90338" gradientUnits="userSpaceOnUse">
            <stop stop-color="#222357"/>
            <stop offset="1" stop-color="#254AA5"/>
        </linearGradient>
        <linearGradient id="paint1_linear" x1="140.937" y1="6.9969" x2="155.345" y2="6.9969" gradientUnits="userSpaceOnUse">
            <stop stop-color="#00B4E6"/>
            <stop offset="1" stop-color="#088CCB"/>
        </linearGradient>
        <clipPath id="clip0">
            <rect x="232" y="1" width="44" height="19" fill="white"/>
        </clipPath>
        <clipPath id="clip1">
            <rect x="172" width="44" height="22" fill="white"/>
        </clipPath>
        <clipPath id="clip2">
            <rect x="58" width="32" height="22" fill="white"/>
        </clipPath>
    </defs>
</svg>