<svg xmlns="http://www.w3.org/2000/svg" xmlns:xlink="http://www.w3.org/1999/xlink" viewBox="0 0 181 43.39"><defs><style>.cls-1{fill:#fff;}.cls-2{fill:#036cb5;}.cls-3{mask:url(#mask);}.cls-4{fill:#b6b6b6;}</style><mask id="mask" x="0" y="8.62" width="21.91" height="19.16" maskUnits="userSpaceOnUse"><g id="mask-2"><polygon id="path-1" class="cls-1" points="0 8.62 0 27.78 21.91 27.78 21.91 8.62 0 8.62"/></g></mask></defs><title>ic_webmoney</title><g id="Layer_2" data-name="Layer 2"><g id="_1170px_grid" data-name="1170px grid"><path id="Combined-Shape" class="cls-2" d="M159.83,0a21.25,21.25,0,0,1,9.22,2.1c.44.2.88.44,1.32.67l-1.92,1.7-2.88-3-5,4.36-2.93-3.13-9.14,8.13,5.85,6.38-2.28,2,5.77,6.38-2.28,2,8.26,9.08,4.89-4.44L173,37a23.74,23.74,0,0,1-2.77,1.82,21.14,21.14,0,0,1-10.34,2.69,20.91,20.91,0,0,1-21-20.76A20.87,20.87,0,0,1,159.83,0ZM156,19.46,161,15l4.49,5-5,4.44ZM159.55,28l5-4.48,4.53,5-5,4.44Zm-7.14-17,5-4.44,4.49,5-5,4.44Zm9.18-2.38,3.73-3.33L168.69,9,165,12.37Zm6.66,15.26L172,20.57l3.37,3.72-3.73,3.33Zm3.29,7.49,3.73-3.33,3.37,3.69-3.73,3.37Zm1.52-17.12L175.55,12l2.24,2.46-2.48,2.22Zm-3.21-7.33,2.49-2.26,2.25,2.5L172.1,9.39Zm6.37,14.66,2.49-2.22L181,21.84l-2.52,2.22ZM165,16.09l3.73-3.33,3.37,3.69-3.73,3.33Z"/><g id="Group-27"><g class="cls-3"><polygon id="Fill-25" class="cls-2" points="11 14.29 10.81 14.29 7.26 27.78 4.36 27.78 0 8.62 3.01 8.62 6.02 22.91 6.21 22.91 9.71 8.62 12.1 8.62 15.84 22.91 16.02 22.91 18.77 8.62 21.91 8.62 17.56 27.78 14.65 27.78 11 14.29"/></g></g><path id="Fill-28" class="cls-2" d="M25.73,19.62h6.16c-.13-2.84-1.51-4-3-4-1.64,0-2.9,1.27-3.2,4M34,24.7v2.05A9.44,9.44,0,0,1,29.28,28c-4.52,0-6.37-2.81-6.37-7.08,0-4.11,2.07-7.08,6.1-7.08,3.36,0,5.43,2.19,5.43,6.59v1H25.68c0,3.24,1.32,4.67,4.09,4.67A8.19,8.19,0,0,0,34,24.7"/><path id="Fill-30" class="cls-2" d="M40.7,25.83a6.22,6.22,0,0,0,2.48.43c2,0,3.49-1.24,3.49-5.62,0-3.43-1.24-4.54-3-4.54A5.61,5.61,0,0,0,40.7,17Zm0-10.83a8.06,8.06,0,0,1,3.63-1c3.33,0,5.14,2.32,5.14,6.65,0,5.05-2.42,7.51-6.32,7.51a12.4,12.4,0,0,1-5.24-1.33V8l2.8-.67Z"/><polygon id="Fill-32" class="cls-2" points="61.59 23.71 61.73 23.71 67.48 8.61 70.81 8.61 70.81 27.77 67.91 27.77 67.91 13.88 67.67 13.88 62.18 27.77 60.46 27.77 54.98 14.2 54.73 14.2 54.73 27.77 52.31 27.77 52.31 8.61 55.57 8.61 61.59 23.71"/><path id="Fill-34" class="cls-2" d="M82.68,20.92c0-3.65-1.48-5.19-3.31-5.19s-3.31,1.54-3.31,5.19,1.4,5.19,3.31,5.19,3.31-1.48,3.31-5.19m-9.44,0c0-4.73,2.58-7.08,6.13-7.08s6.13,2.35,6.13,7.08S83.05,28,79.37,28s-6.13-2.46-6.13-7.08"/><path id="Fill-36" class="cls-2" d="M87.63,15.84a13.69,13.69,0,0,1,6.86-2c3.23,0,4.43,1.27,4.43,4.05v9.78H96.12V18.52c0-2.13-1-2.51-2.42-2.51a7.39,7.39,0,0,0-3.28,1v10.7h-2.8V15.84Z"/><path id="Fill-38" class="cls-2" d="M104.84,19.62H111c-.13-2.84-1.51-4-3-4-1.64,0-2.9,1.27-3.2,4m8.31,5.08v2.05A9.44,9.44,0,0,1,108.38,28c-4.51,0-6.37-2.81-6.37-7.08,0-4.11,2.07-7.08,6.1-7.08,3.36,0,5.43,2.19,5.43,6.59v1h-8.77c0,3.24,1.32,4.67,4.09,4.67a8.19,8.19,0,0,0,4.27-1.4"/><path id="Fill-40" class="cls-2" d="M124.72,13.84h2.88l-4.87,13.51c-1.35,3.73-3,5.67-6.08,5.67V30.81c1.83,0,3-1.46,3.6-3.46l-5.16-13.51h3l3.44,9.94h.16Z"/><path id="Sapienti-sat" class="cls-4" d="M29,40.23V39.06a6.3,6.3,0,0,0,2.84.76,3,3,0,0,0,1.72-.41,1.29,1.29,0,0,0,.6-1.12,1.21,1.21,0,0,0-.49-1.06,9.22,9.22,0,0,0-1.84-.87l-.6-.23-.52-.22a3.47,3.47,0,0,1-.51-.24l-.41-.24a1.41,1.41,0,0,1-.39-.29l-.27-.33a1.07,1.07,0,0,1-.23-.39c0-.13-.08-.28-.11-.45a2.77,2.77,0,0,1-.05-.56,2.3,2.3,0,0,1,.85-1.86,3.57,3.57,0,0,1,2.34-.7,7.47,7.47,0,0,1,2.63.49v1.23a5.7,5.7,0,0,0-2.54-.62,2,2,0,0,0-1.34.38,1.26,1.26,0,0,0-.44,1,1.21,1.21,0,0,0,.44,1,6.22,6.22,0,0,0,1.58.77A10.52,10.52,0,0,1,35,36.41a2.08,2.08,0,0,1,.73,1.74,2.37,2.37,0,0,1-1,2,4.48,4.48,0,0,1-2.77.77A6.32,6.32,0,0,1,29,40.23Zm13.59.45H41.36l-.09-.79a3.61,3.61,0,0,1-2.3,1,2,2,0,0,1-1.49-.52A1.78,1.78,0,0,1,37,39a2.16,2.16,0,0,1,.15-.81,2.34,2.34,0,0,1,.51-.75,2.51,2.51,0,0,1,1.07-.59,5.76,5.76,0,0,1,1.72-.22h.83v-.37A1.75,1.75,0,0,0,40.89,35a1.56,1.56,0,0,0-1.12-.33,5,5,0,0,0-2.36.8V34.4a6.74,6.74,0,0,1,2.83-.67,2.51,2.51,0,0,1,1.87.56A2.38,2.38,0,0,1,42.63,36v4.71Zm-1.39-3.11h-.71q-2.19,0-2.19,1.32a.77.77,0,0,0,.29.67,1.23,1.23,0,0,0,.74.21,2.31,2.31,0,0,0,1.08-.27,2.28,2.28,0,0,0,.79-.62Zm3.56,5.82V34.73A4.8,4.8,0,0,1,46.19,34a4.94,4.94,0,0,1,1.58-.27q2.78,0,2.78,3.41a4.34,4.34,0,0,1-.72,2.7,2.45,2.45,0,0,1-2.07.94,2.53,2.53,0,0,1-1.56-.47v3.09Zm1.38-8.21V39.3a1.7,1.7,0,0,0,.67.38,2.42,2.42,0,0,0,.71.13,1.35,1.35,0,0,0,1.16-.58,3.75,3.75,0,0,0,.42-2.09,3,3,0,0,0-.43-1.8,1.35,1.35,0,0,0-1.13-.57A2.43,2.43,0,0,0,46.18,35.18Zm7.55-1.38v6.87H52.34V34.14Zm-1.6-2a.89.89,0,0,1,.27-.64.86.86,0,0,1,1.27,0,.9.9,0,0,1,0,1.29.87.87,0,0,1-1.27,0A.9.9,0,0,1,52.13,31.81Zm6.81,8.08a4.18,4.18,0,0,0,2.12-.7v1a4.6,4.6,0,0,1-2.36.62,2.92,2.92,0,0,1-2.4-.94,4,4,0,0,1-.77-2.62,4,4,0,0,1,.79-2.58,2.72,2.72,0,0,1,2.24-1,2.46,2.46,0,0,1,2,.84A3.75,3.75,0,0,1,61.26,37v.5H56.9a2.66,2.66,0,0,0,.49,1.78A1.92,1.92,0,0,0,58.93,39.89Zm-.41-5.25a1.34,1.34,0,0,0-1.05.5,2.73,2.73,0,0,0-.53,1.49H60a2.51,2.51,0,0,0-.47-1.5A1.26,1.26,0,0,0,58.52,34.64Zm4.51,6V34.74a6.44,6.44,0,0,1,3.41-1,2.4,2.4,0,0,1,1.7.49,2.06,2.06,0,0,1,.51,1.55v4.91H67.25v-4.6a1.28,1.28,0,0,0-.31-1,1.35,1.35,0,0,0-.9-.26,3.2,3.2,0,0,0-1.63.49v5.37Zm9.1-6.62h2.11l-.33.92H72.13v3.58q0,1.36,1.15,1.36a2.31,2.31,0,0,0,.9-.19v.87a4.12,4.12,0,0,1-1.5.25,1.78,1.78,0,0,1-1.47-.58,2.32,2.32,0,0,1-.47-1.51V33.16l1.39-1ZM77,33.8v6.87H75.57V34.14Zm-1.6-2a.9.9,0,0,1,.27-.64.86.86,0,0,1,1.27,0,.9.9,0,0,1,0,1.29.87.87,0,0,1-1.27,0A.9.9,0,0,1,75.36,31.81Zm11.06,2.47v1.08a3.59,3.59,0,0,0-2-.68,1.62,1.62,0,0,0-.86.2.7.7,0,0,0-.33.65.77.77,0,0,0,.37.67,4.73,4.73,0,0,0,1.16.51l.66.23a5.62,5.62,0,0,1,.58.27,2.08,2.08,0,0,1,.54.38,1.9,1.9,0,0,1,.33.5,1.6,1.6,0,0,1,.15.69,1.77,1.77,0,0,1-.74,1.49,3.23,3.23,0,0,1-2,.56,4.16,4.16,0,0,1-2.31-.6V39.19a4.26,4.26,0,0,0,2.15.7q1.47,0,1.47-1a.74.74,0,0,0-.09-.35,1,1,0,0,0-.2-.26,1.86,1.86,0,0,0-.37-.23l-.43-.19-.55-.2q-.55-.2-.87-.35a3.8,3.8,0,0,1-.64-.39,1.43,1.43,0,0,1-.47-.56,1.87,1.87,0,0,1-.15-.77,1.73,1.73,0,0,1,.27-1,1.5,1.5,0,0,1,.69-.58,4,4,0,0,1,.78-.24,3.61,3.61,0,0,1,.7-.07A4.57,4.57,0,0,1,86.41,34.28Zm7.38,6.4H92.53l-.09-.79a3.61,3.61,0,0,1-2.3,1,2,2,0,0,1-1.49-.52A1.78,1.78,0,0,1,88.12,39a2.16,2.16,0,0,1,.15-.81,2.33,2.33,0,0,1,.51-.75,2.51,2.51,0,0,1,1.07-.59,5.76,5.76,0,0,1,1.72-.22h.83v-.37A1.76,1.76,0,0,0,92.06,35a1.56,1.56,0,0,0-1.12-.33,5,5,0,0,0-2.36.8V34.4a6.74,6.74,0,0,1,2.83-.67,2.51,2.51,0,0,1,1.87.56A2.38,2.38,0,0,1,93.79,36v4.71Zm-1.39-3.11H91.7q-2.19,0-2.19,1.32a.77.77,0,0,0,.29.67,1.23,1.23,0,0,0,.73.21,2.53,2.53,0,0,0,1.87-.89v-1.3Zm4.88-3.51H99.4l-.33.92H97.29v3.58q0,1.36,1.15,1.36a2.31,2.31,0,0,0,.9-.19v.87a4.12,4.12,0,0,1-1.5.25,1.78,1.78,0,0,1-1.47-.58,2.32,2.32,0,0,1-.47-1.51V33.16l1.39-1Z"/></g></g></svg>