<?xml version="1.0" encoding="utf-8"?>
<!-- Generator: Adobe Illustrator 21.1.0, SVG Export Plug-In . SVG Version: 6.00 Build 0)  -->
<svg version="1.1" id="Layer_1" xmlns="http://www.w3.org/2000/svg" xmlns:xlink="http://www.w3.org/1999/xlink" x="0px" y="0px"
	 width="298.9px" height="46.7px" viewBox="0 0 298.9 46.7" style="enable-background:new 0 0 298.9 46.7;" xml:space="preserve">
<style type="text/css">
	.st0{fill:#E30611;}
	.st1{fill:#FFFFFF;}
	.st2{fill-rule:evenodd;clip-rule:evenodd;fill:#231F20;}
	.st3{fill-rule:evenodd;clip-rule:evenodd;fill:url(#SVGID_1_);}
	.st4{clip-path:url(#SVGID_3_);fill-rule:evenodd;clip-rule:evenodd;fill:url(#SVGID_4_);}
	.st5{fill-rule:evenodd;clip-rule:evenodd;fill:url(#SVGID_5_);}
</style>
<g>
	<g>
		<g>
			<g>
				<path class="st0" d="M93.4,34c0,0-2,0.3-4.3,0.3c-2.8,0-3.4-0.9-3.4-3.1v-2.7c0-2.3,0.5-3.2,3.4-3.2c2.1,0,4.1,0.3,4.1,0.3
					l0.3-4.1c0,0-2.6-0.4-4.8-0.4c-5.9,0-8,1.9-8,6.6v4.1c0,5.2,2.6,6.6,8,6.6c2.2,0,5-0.4,5-0.4L93.4,34z"/>
			</g>
			<polygon class="st0" points="64.1,25.7 69,25.7 69,38.2 74,38.2 74,25.7 78.9,25.7 79.2,21.4 63.8,21.4 			"/>
			<polygon class="st0" points="53.8,36.6 56.5,30.1 56.8,30.1 57.4,38.2 62.2,38.2 61.1,21.4 56.4,21.4 52.3,31 52.1,31 47.8,21.4 
				43.2,21.4 42.1,38.2 46.8,38.2 47.3,30.1 47.6,30.1 50.6,36.6 			"/>
		</g>
		<path class="st0" d="M33.6,43.3c0,1.9-1.5,3.4-3.4,3.4H3.4c-1.9,0-3.4-1.5-3.4-3.4V16.4C0,14.5,1.5,13,3.4,13l26.9,0
			c1.9,0,3.4,1.5,3.4,3.4V43.3z M16.8,42.3c6.3,0,9.1-5,9.1-10c0-7-4.9-15-9.1-15c-4.2,0-9.1,8-9.1,15C7.7,37.3,10.5,42.3,16.8,42.3
			"/>
	</g>
	<path class="st1" d="M25.9,32.3c0-7-4.9-15-9.1-15c-4.2,0-9.1,8-9.1,15c0,5,2.8,10,9.1,10C23.1,42.3,25.9,37.3,25.9,32.3z"/>
</g>
<g>
	<polyline points="221.4,20.7 221.4,24.9 232.8,23.7 232.8,19.1 	"/>
	<polyline points="225,25.2 225,39.7 229.2,39.7 229.2,24.8 	"/>
	<polyline points="234.3,18.9 234.3,39.7 238.7,39.7 238.7,18.3 	"/>
	<polyline points="239.5,18.2 239.5,22.9 245.9,22.2 245.9,17.3 	"/>
	<polyline points="239.5,26.5 239.5,31.4 243.7,31.1 243.7,26.1 	"/>
	<polyline points="239.5,34.9 239.5,39.7 245.9,39.7 245.9,34.7 	"/>
	<polyline points="262.3,15 262.3,39.7 268,39.7 268,14.2 	"/>
	<polyline points="269.1,14 269.1,19.7 277.5,18.8 277.5,12.8 	"/>
	<polyline points="269.1,24 269.1,29.7 274.6,29.4 274.6,23.5 	"/>
	<polyline points="269.1,34 269.1,39.7 277.5,39.7 277.5,33.7 	"/>
	<polyline points="247.5,17 247.5,39.7 252.5,39.7 252.5,16.3 	"/>
	<polyline points="253.5,34.4 253.5,39.7 260.7,39.7 260.7,34.2 	"/>
	<path d="M296.3,12.5c-1.8-1.7-4.5-2.4-7.4-2v6.3c1.2-0.1,2.1,0.4,2.6,1.3c0.7,1.4,0,3.5-1.7,5.4c-2.5,3-9.3,9.1-9.3,9.1l9.7-0.3
		c5.9-5.8,8-9.3,8.4-13.6C298.8,16.3,298,14.1,296.3,12.5"/>
	<polyline points="279.3,33.7 279.3,39.7 298.9,39.7 298.9,33.1 	"/>
	<path d="M287.8,10.7c-5.7,1.2-8.5,5.4-8.2,12.2l6.1-0.5c-0.3-3.9,0.9-4.8,2.1-5.3"/>
</g>
<g>
	<g>
		<path class="st2" d="M150.7,36.9c-2.1,0-3.4,1.2-3.7,3.7l-0.2,2.5c-0.1,1.1-0.6,1.6-1.5,1.8c-0.2,0-0.4,0.1-0.4,0.4v1
			c0,0.2,0.1,0.3,0.4,0.3c2,0,3.2-1.2,3.4-3.6l0.2-2.2c0.1-0.9,0.2-1.4,0.4-1.6c0.2-0.3,0.7-0.5,1.4-0.5h1.6v7.5
			c0,0.2,0.1,0.3,0.3,0.3h1.2c0.2,0,0.3-0.1,0.3-0.3v-8.9c0-0.2-0.1-0.4-0.3-0.4H150.7L150.7,36.9z"/>
		<path class="st2" d="M137.5,42.4v-5.2c0-0.2-0.1-0.4-0.4-0.4h-1.2c-0.2,0-0.3,0.1-0.3,0.4V43c0,2.4,1.1,3.6,3.4,3.6
			c1.1,0,2.1-0.4,3.1-1.2l0.2,0.9c0.1,0.1,0.2,0.2,0.3,0.2h0.9c0.2,0,0.4-0.1,0.4-0.3v-9c0-0.2-0.1-0.4-0.4-0.4h-1.2
			c-0.2,0-0.4,0.1-0.4,0.4v6.3c-0.7,0.9-1.6,1.3-2.6,1.3C138.1,44.8,137.5,44,137.5,42.4L137.5,42.4z"/>
		<path class="st2" d="M134.1,42.1c0-3-1.6-4.5-4.9-4.5h-2.4v-2.9h5.6c0.2,0,0.3-0.1,0.4-0.4v-1.1c0-0.3-0.1-0.4-0.4-0.4h-7.2
			c-0.2,0-0.4,0.1-0.4,0.4v9.2c0,2.7,1.3,4.1,3.9,4.1h0.3C132.4,46.6,134.1,45.1,134.1,42.1L134.1,42.1z M129.3,39.5
			c1.9,0,2.8,0.9,2.8,2.7c0,1.7-0.9,2.6-2.8,2.6h-0.6c-1.3,0-1.9-0.7-1.9-2.1v-3.2H129.3L129.3,39.5z"/>
		<path class="st2" d="M182.4,40.7H178v-3.5c0-0.2-0.1-0.4-0.4-0.4h-1.2c-0.2,0-0.3,0.1-0.3,0.4v8.9c0,0.2,0.1,0.3,0.3,0.3h1.2
			c0.2,0,0.4-0.1,0.4-0.3v-3.7h4.4v3.7c0,0.2,0.1,0.3,0.4,0.3h1.2c0.2,0,0.4-0.1,0.4-0.3v-8.9c0-0.2-0.1-0.4-0.4-0.4h-1.2
			c-0.2,0-0.4,0.1-0.4,0.4V40.7L182.4,40.7z"/>
		<path class="st2" d="M173.6,36.9h-1.2c-0.3,0-0.4,0.1-0.4,0.4v6.3c-0.7,0.9-1.6,1.3-2.6,1.3c-1.2,0-1.8-0.8-1.8-2.3v-5.2
			c0-0.2-0.1-0.4-0.3-0.4h-1.2c-0.3,0-0.4,0.1-0.4,0.4V43c0,2.4,1.1,3.6,3.4,3.6c1.2,0,2.3-0.4,3.2-1.2l0.2,0.9
			c0.1,0.1,0.2,0.2,0.3,0.2h0.8c0.2,0,0.3-0.1,0.3-0.3v-9C173.9,37,173.8,36.9,173.6,36.9L173.6,36.9z"/>
		<path class="st2" d="M173.9,33.2c0-0.3-0.1-0.4-0.4-0.4h-7.5c-0.3,0-0.4,0.1-0.4,0.4v1.1c0,0.3,0.1,0.4,0.4,0.4h7.5
			c0.2,0,0.4-0.1,0.4-0.4V33.2L173.9,33.2z"/>
		<path class="st2" d="M161.5,38.7c0.2,0.2,0.3,0.6,0.3,1.2v0.2l-2.1,0.1c-2.4,0.2-3.6,1.2-3.6,3.2c0,2.1,1.2,3.2,3.6,3.2
			c0.9,0,1.7-0.2,2.5-0.7l0.2,0.3c0.1,0.1,0.3,0.2,0.3,0.2h0.7c0.2,0,0.3-0.1,0.3-0.3v-6.3c0-2.2-1.2-3.4-3.7-3.4
			c-1.1,0-2,0.2-2.9,0.5c-0.1,0.1-0.2,0.2-0.2,0.3v1.1c0,0.2,0.1,0.3,0.2,0.3c0.1,0,0.2,0,0.3,0c0.8-0.3,1.7-0.4,2.6-0.4
			C160.7,38.3,161.2,38.5,161.5,38.7L161.5,38.7z M159.7,44.9c-1.1,0-1.6-0.5-1.6-1.5c0-1,0.5-1.5,1.5-1.5l2.1-0.2l0,2.6
			C161.1,44.7,160.4,44.9,159.7,44.9L159.7,44.9z"/>
		<g>
			<polygon class="st2" points="190.3,36.9 190.3,36.9 189.9,36.9 189.3,38.3 188.7,36.9 188.2,36.9 188.2,39.1 188.6,39.1 
				188.6,37.5 189.1,38.8 189.4,38.8 190,37.5 189.9,39 190,39.1 190.3,39.1 190.3,39 190.3,36.9 			"/>
			<polygon class="st2" points="187.9,36.9 187.9,36.9 186.4,36.9 186.4,37.2 187,37.2 187,39 187,39.1 187.3,39.1 187.3,37.2 
				187.9,37.2 187.9,37.2 187.9,36.9 			"/>
		</g>
	</g>
	<g>
		<linearGradient id="SVGID_1_" gradientUnits="userSpaceOnUse" x1="140.0182" y1="14.3511" x2="168.7223" y2="14.3511">
			<stop  offset="0" style="stop-color:#D79041"/>
			<stop  offset="0.1" style="stop-color:#FBAF33"/>
			<stop  offset="0.3" style="stop-color:#FFC132"/>
			<stop  offset="0.4469" style="stop-color:#FFD72E"/>
			<stop  offset="0.65" style="stop-color:#FFF229"/>
			<stop  offset="0.7347" style="stop-color:#FBE82C"/>
			<stop  offset="0.8808" style="stop-color:#F0CC33"/>
			<stop  offset="1" style="stop-color:#E6B03B"/>
		</linearGradient>
		<path class="st3" d="M154.4,0c7.9,0,14.4,6.4,14.4,14.4c0,7.9-6.4,14.4-14.4,14.4c-7.9,0-14.4-6.4-14.4-14.4
			C140,6.4,146.4,0,154.4,0L154.4,0z"/>
		<path class="st2" d="M143.6,4.8c6.9-0.6,14.5-0.6,21.5,0c-2.6-3-6.5-4.8-10.7-4.8C150.1,0,146.3,1.9,143.6,4.8L143.6,4.8z"/>
		<path class="st2" d="M165.3,23.7c-6.7,0.5-14.7,0.6-21.8,0c2.6,3.1,6.5,5,10.9,5C158.7,28.7,162.6,26.8,165.3,23.7L165.3,23.7z"/>
		<path class="st2" d="M140.5,10.7c9.3-0.2,18.4-0.2,27.8,0c0.3,1.2,0.5,2.4,0.5,3.6c0,1.1-0.1,2.2-0.4,3.2c-9.4,0.3-18.7,0.2-28,0
			c-0.2-1-0.4-2.1-0.4-3.2C140,13.1,140.2,11.9,140.5,10.7L140.5,10.7z"/>
		<g>
			<defs>
				<path id="SVGID_2_" d="M154.4,0c7.9,0,14.4,6.4,14.4,14.4c0,7.9-6.4,14.4-14.4,14.4c-7.9,0-14.4-6.4-14.4-14.4
					C140,6.4,146.4,0,154.4,0L154.4,0z"/>
			</defs>
			<clipPath id="SVGID_3_">
				<use xlink:href="#SVGID_2_"  style="overflow:visible;"/>
			</clipPath>
			<radialGradient id="SVGID_4_" cx="161.2074" cy="6.6084" r="14.2351" gradientUnits="userSpaceOnUse">
				<stop  offset="0" style="stop-color:#FFFFFF;stop-opacity:0.7"/>
				<stop  offset="1" style="stop-color:#FFFFFF;stop-opacity:0"/>
			</radialGradient>
			<ellipse class="st4" cx="161.2" cy="6.6" rx="14.3" ry="14.2"/>
		</g>
		<radialGradient id="SVGID_5_" cx="154.3702" cy="14.3511" r="14.3516" gradientUnits="userSpaceOnUse">
			<stop  offset="0.9" style="stop-color:#FFFFFF;stop-opacity:0"/>
			<stop  offset="1" style="stop-color:#FFFFFF;stop-opacity:0.3"/>
		</radialGradient>
		<path class="st5" d="M154.4,0c7.9,0,14.4,6.4,14.4,14.4c0,7.9-6.4,14.4-14.4,14.4c-7.9,0-14.4-6.4-14.4-14.4
			C140,6.4,146.4,0,154.4,0L154.4,0z"/>
	</g>
</g>
</svg>
