<svg xmlns="http://www.w3.org/2000/svg" viewBox="0 0 168.09 32"><defs><style>.cls-1{fill:red;}</style></defs><title>yandex</title><g id="Layer_2" data-name="Layer 2"><g id="_1170px_grid" data-name="1170px grid"><path class="cls-1" d="M8.1,16.92,3.42,27.43H0L5.14,16.19c-2.42-1.23-4-3.45-4-7.56C1.11,2.88,4.76,0,9.09,0h4.41V27.43h-3V16.92ZM10.55,2.49H9C6.6,2.49,4.3,4.07,4.3,8.63,4.3,13,6.41,14.47,9,14.47h1.57Z"/><path d="M27.74,8.1V27.43h-3V18.76H20.34v8.67h-3V8.1h3v8.21h4.45V8.1ZM43.13,31.23H40.45v-3.8H32.16v3.8H29.47V25h1.19c1.76-4.11,2-10.09,2-15.23V8.1h9V25h1.53ZM38.64,10.51H35.3v.35c0,4.07-.19,10-1.8,14.12h5.14ZM51.38,27.7c-4,0-6.45-3.18-6.45-9.13,0-6.22,1.73-10.74,5.83-10.74,3.22,0,5.33,2.42,5.33,9v1.65H48c0,4.37,1.23,6.68,3.61,6.68a6.71,6.71,0,0,0,3.8-1.3l.69,2.3A7.61,7.61,0,0,1,51.38,27.7ZM48.08,16H53c0-3.3-.54-5.72-2.26-5.72S48.27,12.55,48.08,16Zm14.08,1.8v9.63h-3V8.1h3V17L66.8,8.1h3L65,17.19l5.49,10.24H67.26Zm8.75,0c0-6.06,2.34-9.94,6.87-9.94a6.09,6.09,0,0,1,3.57,1l-.42,2.84a5.12,5.12,0,0,0-3.18-1.34c-2.15,0-3.68,2.42-3.68,7.29s1.15,7.6,3.57,7.6A4.89,4.89,0,0,0,80.89,24l.69,2.23a5.86,5.86,0,0,1-4,1.46C73.4,27.7,70.91,24.36,70.91,17.77Z"/><path d="M101.93,27.43H90.19L89.92,32h-1.5V25.86h.81c1.34-1.11,2-4.18,2.38-8.1.38-4.07.5-10.13.61-17.77h9.59V25.86h1.88V32h-1.5Zm-2-25.86H93.95c-.12,6.94-.31,12.24-.61,16.19-.35,4.1-1,6.83-2,8.1H99.9Z"/><path d="M111.64,26.24a4.93,4.93,0,0,0,3.91-2.07l.58,1.46a5.59,5.59,0,0,1-4.53,2.19c-4.1,0-6-3.72-6-10.05S108,7.71,111.26,7.71s5.49,3.49,4.87,10.36h-8.75C107.46,23.37,108.84,26.24,111.64,26.24Zm-4.22-9.59h7c.31-5.14-1.23-7.44-3.19-7.44S107.57,11.82,107.42,16.65Z"/><path d="M127.95,18.11h-6.6v9.32h-1.8V8.1h1.8v8.56h6.6V8.1h1.8V27.43h-1.8Z"/><path d="M134,8.1h1.8v7.18h1.42c3.68,0,6.06,2,6.06,6s-2.53,6.14-6.18,6.14H134Zm1.8,8.59V26H137c2.72,0,4.57-1.34,4.57-4.68s-1.61-4.64-4.37-4.64Z"/><path d="M148.17,9.59V27.43h-1.76V8.1h8.17v1.5Z"/><path d="M166.37,14a26.28,26.28,0,0,1,.15-2.65h-.12a17.15,17.15,0,0,1-1,2.49l-6.29,13.62h-1.53V8.1h1.69V21.52c0,1-.08,1.88-.15,2.72h.11a21.07,21.07,0,0,1,1-2.57L166.52,8.1h1.57V27.43h-1.73Z"/></g></g></svg>