<svg width="38" height="24" viewBox="0 0 38 24" fill="none" xmlns="http://www.w3.org/2000/svg">
    <path d="M10.3732 8.07299C10.6985 7.6715 10.9193 7.13242 10.8611 6.58154C10.3848 6.60491 9.80357 6.89154 9.46707 7.29334C9.16493 7.63743 8.89751 8.19908 8.96723 8.72686C9.50189 8.77262 10.0361 8.46321 10.3732 8.07299Z" fill="black"/>
    <path d="M10.8553 8.83069C10.0789 8.78506 9.41868 9.26544 9.04788 9.26544C8.67688 9.26544 8.10907 8.85369 7.49493 8.86478C6.69559 8.87637 5.9539 9.32224 5.54827 10.0314C4.71396 11.45 5.3281 13.5544 6.13942 14.7098C6.53342 15.2814 7.00825 15.9108 7.63392 15.8882C8.22507 15.8653 8.45677 15.5105 9.17534 15.5105C9.89338 15.5105 10.1021 15.8882 10.7279 15.8767C11.3768 15.8653 11.7825 15.3048 12.1765 14.7327C12.6285 14.081 12.8135 13.4519 12.8252 13.4173C12.8135 13.4059 11.5738 12.9367 11.5623 11.5298C11.5506 10.3519 12.5356 9.79156 12.582 9.75682C12.0257 8.9452 11.1566 8.85369 10.8553 8.83069Z" fill="black"/>
    <path d="M17.6153 7.23731C19.303 7.23731 20.4781 8.38495 20.4781 10.0558C20.4781 11.7327 19.2788 12.8863 17.573 12.8863H15.7045V15.8178H14.3545V7.2373H17.6153V7.23731ZM15.7045 11.7683H17.2535C18.4289 11.7683 19.0979 11.1441 19.0979 10.0618C19.0979 8.97964 18.4289 8.36121 17.2596 8.36121H15.7045V11.7683Z" fill="black"/>
    <path d="M20.8311 14.0427C20.8311 12.9485 21.6809 12.2766 23.1879 12.1934L24.9236 12.0923V11.6107C24.9236 10.915 24.4474 10.4987 23.652 10.4987C22.8984 10.4987 22.4282 10.8554 22.3138 11.4145H21.0843C21.1566 10.2846 22.1329 9.45215 23.7001 9.45215C25.237 9.45215 26.2194 10.2549 26.2194 11.5096V15.8206H24.9717V14.7919H24.9417C24.5741 15.4876 23.7724 15.9276 22.9407 15.9276C21.699 15.9276 20.8311 15.1665 20.8311 14.0427ZM24.9236 13.4778V12.9843L23.3625 13.0794C22.5849 13.133 22.145 13.4719 22.145 14.007C22.145 14.554 22.6031 14.9108 23.3023 14.9108C24.2123 14.9108 24.9236 14.2924 24.9236 13.4778Z" fill="black"/>
    <path d="M27.3984 18.1187V17.0781C27.4946 17.1019 27.7116 17.1019 27.8201 17.1019C28.4228 17.1019 28.7484 16.8522 28.9472 16.21C28.9472 16.1981 29.0618 15.8294 29.0618 15.8235L26.7715 9.56201H28.1817L29.7852 14.6521H29.8091L31.4126 9.56201H32.7867L30.4118 16.1445C29.8696 17.6609 29.2427 18.1484 27.9287 18.1484C27.8201 18.1484 27.4946 18.1365 27.3984 18.1187Z" fill="black"/>
</svg>