<svg width="38" height="24" viewBox="0 0 38 24" fill="none" xmlns="http://www.w3.org/2000/svg">
    <g clip-path="url(#clip0)">
        <path d="M18.2946 12.5545V15.9751H17.2119V7.53126H20.0833C20.7759 7.51779 21.4484 7.7804 21.9393 8.26521C22.9211 9.18097 22.9816 10.7229 22.0603 11.7128C22.02 11.7532 21.9796 11.7936 21.9393 11.834C21.4349 12.312 20.8163 12.5545 20.0833 12.5545H18.2946ZM18.2946 8.56822V11.5175H20.1102C20.5137 11.531 20.9037 11.3694 21.1794 11.0798C21.7443 10.494 21.7308 9.55131 21.1458 8.98569C20.8701 8.71635 20.5002 8.56822 20.1102 8.56822H18.2946Z" fill="#3C4043"/>
        <path d="M25.2138 10.0088C26.014 10.0088 26.6461 10.2243 27.1101 10.6485C27.5741 11.0727 27.8027 11.6652 27.8027 12.4127V15.9747H26.7672V15.1734H26.7201C26.2695 15.8333 25.6778 16.1632 24.9313 16.1632C24.2992 16.1632 23.7613 15.9747 23.3376 15.5976C22.9207 15.2475 22.6853 14.729 22.6988 14.1836C22.6988 13.5843 22.9274 13.1129 23.378 12.7561C23.8285 12.3992 24.4337 12.2241 25.1869 12.2241C25.8324 12.2241 26.357 12.3453 26.7739 12.5743V12.3251C26.7739 11.9548 26.6125 11.6046 26.3301 11.3622C26.0409 11.1064 25.671 10.9649 25.2877 10.9649C24.6825 10.9649 24.2051 11.2208 23.8554 11.7326L22.9005 11.1333C23.4116 10.3859 24.1849 10.0088 25.2138 10.0088ZM23.8151 14.2038C23.8151 14.4866 23.9496 14.7492 24.1715 14.9108C24.4136 15.0993 24.7094 15.2003 25.012 15.1936C25.4693 15.1936 25.9064 15.0118 26.2292 14.6886C26.5856 14.3519 26.7672 13.9546 26.7672 13.4967C26.4309 13.2274 25.9602 13.0927 25.355 13.0995C24.9179 13.0995 24.548 13.2072 24.2522 13.4159C23.963 13.6247 23.8151 13.8873 23.8151 14.2038Z" fill="#3C4043"/>
        <path fill-rule="evenodd" clip-rule="evenodd" d="M33.7473 10.1982L30.1295 18.5141H29.0132L30.3581 15.6053L27.9844 10.1982H29.1612L30.8759 14.3461H30.8961L32.5705 10.1982H33.7473Z" fill="#3C4043"/>
        <path fill-rule="evenodd" clip-rule="evenodd" d="M13.9172 11.8137C13.9172 11.4837 13.8903 11.1538 13.8365 10.8306H9.27051V12.6957H11.8864C11.7788 13.295 11.4291 13.8337 10.918 14.1704V15.3824H12.4781C13.3927 14.5407 13.9172 13.295 13.9172 11.8137Z" fill="#4285F4"/>
        <path fill-rule="evenodd" clip-rule="evenodd" d="M9.27116 16.5551C10.5757 16.5551 11.6786 16.1242 12.4788 15.3835L10.9187 14.1715C10.4816 14.4677 9.92344 14.6361 9.27116 14.6361C8.00694 14.6361 6.93774 13.7809 6.55444 12.6362H4.94727V13.8887C5.76766 15.5249 7.44208 16.5551 9.27116 16.5551Z" fill="#34A853"/>
        <path fill-rule="evenodd" clip-rule="evenodd" d="M6.55438 12.6359C6.35264 12.0366 6.35264 11.3835 6.55438 10.7774V9.53174H4.94721C4.25458 10.8986 4.25458 12.5147 4.94721 13.8816L6.55438 12.6359Z" fill="#FBBC04"/>
        <path fill-rule="evenodd" clip-rule="evenodd" d="M9.27116 8.77774C9.96379 8.76427 10.6295 9.02688 11.1271 9.50496L12.5124 8.11786C11.6315 7.29637 10.4749 6.84522 9.27116 6.85869C7.44208 6.85869 5.76766 7.89565 4.94727 9.53189L6.55444 10.7843C6.93774 9.6329 8.00694 8.77774 9.27116 8.77774Z" fill="#EA4335"/>
    </g>
    <defs>
        <clipPath id="clip0">
            <rect width="38" height="24" fill="white"/>
        </clipPath>
    </defs>
</svg>