<svg width="38" height="24" viewBox="0 0 38 24" fill="none" xmlns="http://www.w3.org/2000/svg">
    <path d="M31.3764 3.62695L31.4484 7.82272H31.4179L30.1699 3.62695H28.1553V8.91798H29.4919L29.4144 4.57509H29.4448L30.787 8.91798H32.7213V3.62695H31.3764Z" fill="black"/>
    <path d="M5.81019 3.62695L4.80566 8.97247H6.27233L7.01397 4.12009H7.04441L7.76944 8.97247H9.22781L8.22605 3.62695H5.81019Z" fill="black"/>
    <path d="M14.016 3.62695L13.3463 7.71374H13.3158L12.6461 3.62695H10.4295L10.3105 8.97247H11.6693L11.7053 4.16641H11.7329L12.6406 8.97247H14.0187L14.9264 4.16641H14.9568L14.9901 8.97247H16.3488L16.2298 3.62695H14.016Z" fill="black"/>
    <path d="M2.51824 7.45797C2.57082 7.58602 2.55422 7.75222 2.52931 7.85303C2.48504 8.03012 2.36327 8.21266 2.00076 8.21266C1.66038 8.21266 1.4556 8.01922 1.4556 7.7277V7.21004H0V7.62144C0 8.81478 0.951952 9.17442 1.97309 9.17442C2.95548 9.17442 3.76353 8.84475 3.89359 7.95111C3.96001 7.49066 3.9102 7.18824 3.88806 7.07381C3.65837 5.95403 1.5995 5.61892 1.44453 4.995C1.41963 4.88602 1.42516 4.77431 1.439 4.71437C1.47774 4.54273 1.59673 4.35474 1.93434 4.35474C2.25258 4.35474 2.43799 4.54818 2.43799 4.8397V5.17209H3.79397V4.79611C3.79397 3.63274 2.73133 3.4502 1.96202 3.4502C0.996228 3.4502 0.207547 3.76624 0.0636478 4.63809C0.0249056 4.87785 0.0193713 5.09036 0.0774846 5.36009C0.307171 6.4499 2.23875 6.76594 2.51824 7.45797Z" fill="black"/>
    <path d="M20.174 7.44843C20.2266 7.57648 20.21 7.73995 20.1851 7.84076C20.1408 8.01786 20.019 8.19495 19.6621 8.19495C19.3244 8.19495 19.1224 8.00423 19.1224 7.71543V7.20322H17.6807V7.6119C17.6807 8.79162 18.6243 9.14853 19.6344 9.14853C20.6085 9.14853 21.4082 8.82159 21.5355 7.93885C21.6019 7.48112 21.5521 7.18415 21.53 7.06972C21.3031 5.96084 19.2636 5.63117 19.1114 5.00998C19.0837 4.90372 19.092 4.79202 19.1058 4.73208C19.1446 4.56316 19.2608 4.37517 19.5956 4.37517C19.9111 4.37517 20.0965 4.56588 20.0965 4.85468V5.18163H21.4387V4.80837C21.4387 3.65589 20.3871 3.47607 19.6261 3.47607C18.6714 3.47607 17.8882 3.78667 17.7471 4.65034C17.7083 4.88738 17.7028 5.09717 17.7609 5.36417C17.9851 6.44853 19.8973 6.76185 20.174 7.44843Z" fill="black"/>
    <path d="M24.7351 8.16881C25.1114 8.16881 25.2276 7.91271 25.2553 7.78193C25.2664 7.72471 25.2692 7.6457 25.2692 7.57759V3.62158H26.6445V7.45499C26.6473 7.55307 26.6362 7.75468 26.6307 7.80645C26.5366 8.80363 25.7341 9.12785 24.7351 9.12785C23.7361 9.12785 22.9363 8.80363 22.8395 7.80645C22.8339 7.75468 22.8229 7.55307 22.8256 7.45499V3.62158H24.1982V7.57759C24.1954 7.6457 24.1982 7.72471 24.2121 7.78193C24.2397 7.91271 24.3559 8.16881 24.7351 8.16881Z" fill="black"/>
    <path d="M36.0631 8.11049C36.456 8.11049 36.5944 7.86528 36.6193 7.72361C36.6304 7.66367 36.6331 7.58738 36.6331 7.52199V6.7455H36.0769V5.96629H38.0002V7.39939C38.0002 7.5002 37.9974 7.57376 37.9808 7.75085C37.8923 8.72351 37.0344 9.07225 36.0714 9.07225C35.1084 9.07225 34.2505 8.72351 34.1619 7.75085C34.1453 7.57376 34.1426 7.5002 34.1426 7.39939V5.14893C34.1426 5.05357 34.1536 4.88738 34.1647 4.79747C34.2865 3.79757 35.1084 3.47607 36.0714 3.47607C37.0344 3.47607 37.8784 3.79484 37.9781 4.79747C37.9947 4.96639 37.9891 5.14893 37.9919 5.14893V5.32603H36.6221V5.02633C36.6221 5.02633 36.6221 4.89828 36.6055 4.82199C36.5806 4.70483 36.4782 4.43511 36.0631 4.43511C35.6674 4.43511 35.5511 4.69121 35.5207 4.82199C35.5041 4.89283 35.4986 4.98819 35.4986 5.07537V7.51927C35.4986 7.58738 35.5013 7.66094 35.5124 7.72088C35.5318 7.86528 35.6701 8.11049 36.0631 8.11049Z" fill="black"/>
    <path d="M12.9814 13.7045V15.8106H13.8088C14.4536 15.8106 14.8909 15.342 14.8909 14.7535C14.8909 14.1732 14.4536 13.7045 13.8088 13.7045H12.9814ZM11.8994 12.7183H13.8891C15.0901 12.7183 15.9812 13.6255 15.9812 14.7535C15.9812 15.8896 15.0901 16.7969 13.8808 16.7969H12.9814V18.4343H11.8994V12.7183Z" fill="black"/>
    <path d="M20.0451 16.1314C20.0451 15.3549 19.4474 14.7228 18.6532 14.7228C17.8589 14.7228 17.2446 15.3412 17.2446 16.1314C17.2446 16.9296 17.8562 17.5563 18.6532 17.5563C19.4474 17.5563 20.0451 16.9215 20.0451 16.1314ZM16.1875 16.1477C16.1875 14.6274 17.3166 13.7583 18.4954 13.7583C19.107 13.7583 19.6577 14.009 19.9898 14.4013V13.8537H21.0635V18.4336H19.9898V17.8396C19.6466 18.2619 19.0904 18.5289 18.4788 18.5289C17.3553 18.5262 16.1875 17.6435 16.1875 16.1477Z" fill="black"/>
    <path d="M23.3235 18.2086L21.4141 13.8521H22.5597L23.8576 16.9389L25.0807 13.8521H26.2098L23.4342 20.5489H22.3466L23.3235 18.2086Z" fill="black"/>
</svg>
