<?xml version="1.0" encoding="utf-8"?>
<!-- Generator: Adobe Illustrator 21.1.0, SVG Export Plug-In . SVG Version: 6.00 Build 0)  -->
<svg version="1.1" id="Layer_1" xmlns="http://www.w3.org/2000/svg" xmlns:xlink="http://www.w3.org/1999/xlink" x="0px" y="0px"
	 width="17.7px" height="18px" viewBox="0 0 17.7 18" style="enable-background:new 0 0 17.7 18;" xml:space="preserve">
<style type="text/css">
	.st0{fill:#FFFFFF;}
</style>
<path class="st0" d="M13,11.4c-0.6-0.2-1.1-0.7-1.1-1.4c1-1.1,1.7-2.6,1.7-4.3c0-3.2-2.2-5.7-5-5.7c-2.7,0-5,2.6-5,5.7
	c0,1.7,0.7,3.3,1.8,4.4c-0.1,0.6-0.5,1.1-1.1,1.3C1.5,12,0,13.5,0,15.6v0.3L0.2,16c0.2,0.1,1.9,1.1,8.4,1.1s8.3-1,8.4-1.1l0.2-0.1
	v-0.3C17.3,13.5,15.8,12,13,11.4z M8.6,1c2.2,0,4,2.1,4,4.7s-1.8,4.7-4,4.7s-4-2.1-4-4.7S6.4,1,8.6,1z M8.7,16.1c-5,0-7-0.6-7.7-0.9
	c0.2-1.7,2-2.5,3.5-2.9c0.8-0.2,1.5-0.8,1.8-1.6c0.7,0.4,1.5,0.7,2.3,0.7c0.9,0,1.7-0.3,2.4-0.7c0.3,0.8,0.9,1.4,1.8,1.6
	c1.5,0.4,3.3,1.1,3.5,2.9C15.7,15.5,13.6,16.1,8.7,16.1z"/>
</svg>
