<?xml version="1.0" encoding="utf-8"?>
<!-- Generator: Adobe Illustrator 21.1.0, SVG Export Plug-In . SVG Version: 6.00 Build 0)  -->
<svg version="1.1" id="Layer_1" xmlns="http://www.w3.org/2000/svg" xmlns:xlink="http://www.w3.org/1999/xlink" x="0px" y="0px"
	 width="22.7px" height="15px" viewBox="0 0 22.7 15" style="enable-background:new 0 0 22.7 15;" xml:space="preserve">
<style type="text/css">
	.st0{fill:#F45178;}
</style>
<path class="st0" d="M19.7,0H2.8C1.2,0,0,1.2,0,2.8v9.3c0,1.5,1.2,2.8,2.8,2.8h16.9c1.5,0,2.8-1.2,2.8-2.8V2.8
	C22.5,1.2,21.3,0,19.7,0z M15.5,7.3l5.8-5.4c0.2,0.3,0.2,0.6,0.2,0.9v9.3c0,0.3-0.1,0.6-0.2,0.9L15.5,7.3z M19.7,1
	c0.3,0,0.6,0.1,0.8,0.2l-9.3,8.7L2,1.2C2.2,1.1,2.5,1,2.8,1H19.7z M1.2,13C1.1,12.7,1,12.4,1,12.1V2.8c0-0.3,0.1-0.6,0.2-0.9L7,7.3
	L1.2,13z M2.8,13.9c-0.3,0-0.6-0.1-0.8-0.2L7.8,8l3.5,3.3L14.8,8l5.8,5.7c-0.3,0.1-0.5,0.2-0.8,0.2H2.8z"/>
</svg>
