<?xml version="1.0" encoding="utf-8"?>
<!-- Generator: Adobe Illustrator 21.1.0, SVG Export Plug-In . SVG Version: 6.00 Build 0)  -->
<svg version="1.1" id="Layer_1" xmlns="http://www.w3.org/2000/svg" xmlns:xlink="http://www.w3.org/1999/xlink" x="0px" y="0px"
	 width="20.9px" height="21px" viewBox="0 0 20.9 21" style="enable-background:new 0 0 20.9 21;" xml:space="preserve">
<style type="text/css">
	.st0{fill:#F45178;}
</style>
<g>
	<g id="XMLID_1312_">
		<path class="st0" d="M10.4,20.8C4.7,20.8,0,16.2,0,10.4S4.7,0,10.4,0c5.7,0,10.4,4.7,10.4,10.4S16.2,20.8,10.4,20.8z M10.4,1
			C5.2,1,1,5.2,1,10.4s4.2,9.4,9.4,9.4s9.4-4.2,9.4-9.4S15.6,1,10.4,1z"/>
	</g>
	<g id="XMLID_1251_">
		<path class="st0" d="M13.5,12.6H9.2v-1.2h1.2v0h0.5c1.6,0,2.5-1.3,2.5-2.7s-0.8-2.7-2.5-2.7H8.1v4.5H7.3v1h0.8v1.2H7.3v0.9h0.8V15
			h1.1v-1.5h4.3V12.6z M9.2,6.8h1.6c0.9,0,1.5,0.7,1.5,1.8s-0.6,1.8-1.5,1.8h-0.4v0H9.2V6.8z"/>
	</g>
</g>
</svg>
