<?xml version="1.0" encoding="utf-8"?>
<!-- Generator: Adobe Illustrator 21.1.0, SVG Export Plug-In . SVG Version: 6.00 Build 0)  -->
<svg version="1.1" id="Layer_1" xmlns="http://www.w3.org/2000/svg" xmlns:xlink="http://www.w3.org/1999/xlink" x="0px" y="0px"
	 width="20.9px" height="21px" viewBox="0 0 20.9 21" style="enable-background:new 0 0 20.9 21;" xml:space="preserve">
<style type="text/css">
	.st0{fill:#F45178;}
</style>
<g>
	<g id="XMLID_1320_">
		<path class="st0" d="M10.4,20.8C4.7,20.8,0,16.2,0,10.4S4.7,0,10.4,0s10.4,4.7,10.4,10.4S16.2,20.8,10.4,20.8z M10.4,1
			C5.2,1,1,5.2,1,10.4s4.2,9.4,9.4,9.4c5.2,0,9.4-4.2,9.4-9.4S15.6,1,10.4,1z"/>
	</g>
	<g id="XMLID_1316_">
		<g id="XMLID_1317_">
			<path class="st0" d="M7.4,8.3c0.1-0.9,0.4-1.5,0.9-2c0.5-0.5,1.2-0.7,2.1-0.7c0.9,0,1.6,0.2,2.1,0.7c0.6,0.5,0.8,1.1,0.8,1.8
				c0,0.4-0.1,0.7-0.2,1.1s-0.5,0.8-1.2,1.3c-0.5,0.4-0.8,0.7-0.9,1c-0.1,0.2-0.2,0.7-0.2,1.3H9.9c0-0.5,0-0.8,0.1-1.1
				c0-0.2,0.1-0.4,0.2-0.7s0.3-0.4,0.4-0.6S11,10,11.3,9.7C11.7,9.3,12,9,12.1,8.8c0.1-0.2,0.2-0.4,0.2-0.6c0-0.4-0.2-0.8-0.5-1.2
				c-0.4-0.3-0.8-0.5-1.3-0.5c-1,0-1.6,0.6-1.9,1.9L7.4,8.3z M11.1,15H9.8v-1.3h1.3V15z"/>
		</g>
	</g>
</g>
</svg>
