<?xml version="1.0" encoding="utf-8"?>
<!-- Generator: Adobe Illustrator 21.1.0, SVG Export Plug-In . SVG Version: 6.00 Build 0)  -->
<svg version="1.1" id="Layer_1" xmlns="http://www.w3.org/2000/svg" xmlns:xlink="http://www.w3.org/1999/xlink" x="0px" y="0px"
	 width="48.4px" height="48.4px" viewBox="0 0 48.4 48.4" style="enable-background:new 0 0 48.4 48.4;" xml:space="preserve">
<style type="text/css">
	.st0{fill:#2F2B70;}
	.st1{fill:#FFFFFF;}
</style>
<g>
	<g id="XMLID_2338_">
		<g id="XMLID_2341_">
			<circle class="st0" cx="24.2" cy="24.2" r="24.2"/>
		</g>
	</g>
	<g>
		<g>
			<g>
				<path class="st1" d="M26.3,32.5c-7.2,0-14.9-2.2-14.9-6.2c0-4.1,7.7-6.2,14.9-6.2s14.9,2.2,14.9,6.2
					C41.1,30.4,33.5,32.5,26.3,32.5z M26.3,22.1c-8,0-12.9,2.5-12.9,4.2c0,1.8,4.9,4.2,12.9,4.2s12.9-2.5,12.9-4.2
					C39.1,24.5,34.2,22.1,26.3,22.1z"/>
			</g>
			<g>
				<path class="st1" d="M26.3,37.8c-7.2,0-14.9-2.2-14.9-6.2v-5.2h2v5.2c0,1.8,4.9,4.2,12.9,4.2s12.9-2.5,12.9-4.2v-5.2h2v5.2
					C41.1,35.6,33.5,37.8,26.3,37.8z"/>
			</g>
			<g>
				<rect x="25.3" y="31.5" class="st1" width="2" height="5.2"/>
			</g>
			<g>
				<rect x="32.8" y="30.7" class="st1" width="2" height="5.2"/>
			</g>
			<g>
				<rect x="17.7" y="30.7" class="st1" width="2" height="5.2"/>
			</g>
		</g>
		<g>
			<g>
				<path class="st0" d="M36,16.9v5.2c0,2.9-6.2,5.2-13.9,5.2S8.3,25,8.3,22.1v-5.2"/>
				<path class="st1" d="M22.1,28.3c-7.2,0-14.9-2.2-14.9-6.2v-5.2h2v5.2c0,1.8,4.9,4.2,12.9,4.2S35,23.9,35,22.1v-5.2h2v5.2
					C37,26.2,29.4,28.3,22.1,28.3z"/>
			</g>
			<g>
				<rect x="21.1" y="22.1" class="st1" width="2" height="5.2"/>
			</g>
			<g>
				<rect x="28.7" y="21.3" class="st1" width="2" height="5.2"/>
			</g>
			<g>
				<rect x="13.6" y="21.3" class="st1" width="2" height="5.2"/>
			</g>
			<g>
				<ellipse class="st0" cx="22.1" cy="16.9" rx="13.9" ry="5.2"/>
				<path class="st1" d="M22.1,23.1c-7.2,0-14.9-2.2-14.9-6.2c0-4.1,7.7-6.2,14.9-6.2S37,12.8,37,16.9C37,20.9,29.4,23.1,22.1,23.1z
					 M22.1,12.6c-8,0-12.9,2.5-12.9,4.2c0,1.8,4.9,4.2,12.9,4.2S35,18.6,35,16.9C35,15.1,30.1,12.6,22.1,12.6z"/>
			</g>
		</g>
	</g>
</g>
</svg>
