<?xml version="1.0" encoding="utf-8"?>
<!-- Generator: Adobe Illustrator 21.1.0, SVG Export Plug-In . SVG Version: 6.00 Build 0)  -->
<svg version="1.1" id="Layer_1" xmlns="http://www.w3.org/2000/svg" xmlns:xlink="http://www.w3.org/1999/xlink" x="0px" y="0px"
	 width="317.2px" height="265.7px" viewBox="0 0 317.2 265.7" style="enable-background:new 0 0 317.2 265.7;" xml:space="preserve"
	>
<style type="text/css">
	.st0{display:none;}
	.st1{display:inline;}
	.st2{opacity:0.3;fill:url(#SVGID_1_);}
	.st3{opacity:0.65;fill:url(#SVGID_2_);}
	.st4{fill:url(#SVGID_3_);}
	.st5{display:inline;fill:#FFFFFF;}
	.st6{fill:#1D1D56;}
	.st7{fill:#3C3C99;}
	.st8{fill:none;stroke:#FFFFFF;stroke-width:2.1305;stroke-linecap:round;stroke-linejoin:round;stroke-miterlimit:10;}
	.st9{opacity:0.5;fill:none;stroke:#1D1D56;stroke-width:0.8039;stroke-miterlimit:10;}
	.st10{opacity:0.5;fill:none;stroke:url(#SVGID_4_);stroke-width:0.8039;stroke-miterlimit:10;}
	.st11{opacity:0.5;fill:none;stroke:url(#SVGID_5_);stroke-width:0.8039;stroke-miterlimit:10;}
	.st12{fill:#AAEEFF;}
	.st13{fill:#FFFFFF;}
	.st14{fill:none;stroke:#2C56F2;stroke-width:1.6904;stroke-linecap:round;stroke-linejoin:round;stroke-miterlimit:10;}
	.st15{opacity:0.4;fill:#2F2B70;}
	.st16{opacity:0.2;fill:#2F2B70;}
	.st17{fill:#2F2B70;}
	.st18{fill:#030314;}
	.st19{fill:url(#SVGID_6_);}
	.st20{opacity:0.8;fill:#1D1D56;}
	.st21{fill:none;stroke:#3C3C99;stroke-width:1.0912;stroke-linecap:round;stroke-linejoin:round;stroke-miterlimit:10;}
	.st22{fill:#2C56F2;}
	.st23{fill:#F0699C;}
	.st24{fill:url(#SVGID_7_);}
	.st25{fill:url(#SVGID_8_);}
	.st26{fill:url(#SVGID_9_);}
	.st27{fill:url(#SVGID_10_);}
	.st28{fill:url(#SVGID_11_);}
	.st29{opacity:0.6;fill:url(#SVGID_12_);}
	.st30{fill:#E0558D;}
	.st31{fill:#C6447F;}
	.st32{fill:#FF8FBD;}
	.st33{fill:#EFD17D;}
	.st34{fill:#FFE5A4;}
	.st35{fill:#CE9B1D;}
	.st36{fill:url(#SVGID_13_);}
	.st37{fill:url(#SVGID_14_);}
	.st38{fill:none;stroke:#2C56F2;stroke-width:0.8162;stroke-linecap:round;stroke-linejoin:round;stroke-miterlimit:10;}
	.st39{opacity:0.3;fill:url(#SVGID_15_);}
	.st40{opacity:0.65;fill:url(#SVGID_16_);}
	.st41{fill:url(#SVGID_17_);}
	.st42{display:inline;opacity:0.2;fill:#2F2B70;}
	.st43{display:inline;fill:#3C3C99;}
	.st44{display:inline;fill:#2C56F2;}
	.st45{display:inline;fill:#1D1D56;}
	.st46{display:inline;fill:url(#SVGID_18_);}
	.st47{display:inline;fill:#1A1A1E;}
	.st48{display:inline;fill:#F0699C;}
	.st49{display:inline;fill:url(#SVGID_19_);}
	.st50{display:inline;fill:#2F2B70;}
	.st51{display:inline;fill:url(#SVGID_20_);}
	.st52{display:inline;opacity:0.6;fill:url(#SVGID_21_);}
	.st53{display:inline;opacity:0.6;fill:url(#SVGID_22_);}
	
		.st54{display:inline;fill:none;stroke:#1D1D56;stroke-width:0.4448;stroke-linecap:round;stroke-miterlimit:10;stroke-dasharray:1.7791,3.5582;}
	.st55{fill:url(#SVGID_23_);}
	.st56{fill:none;stroke:#CE9B1D;stroke-width:0.5709;stroke-linecap:round;stroke-miterlimit:10;}
	.st57{fill:url(#SVGID_24_);}
	.st58{fill:url(#SVGID_25_);}
	.st59{fill:url(#SVGID_26_);}
	
		.st60{display:inline;fill:none;stroke:#1A1A1E;stroke-width:0.4448;stroke-linecap:round;stroke-miterlimit:10;stroke-dasharray:1.7791,3.5582;}
	.st61{display:inline;opacity:0.4;fill:#FFFFFF;}
	.st62{display:inline;opacity:0.1;fill:#2F2B70;}
	.st63{display:inline;fill:#AAEEFF;}
	.st64{display:inline;fill:url(#SVGID_27_);}
	.st65{opacity:0.3;fill:url(#SVGID_28_);}
	.st66{opacity:0.65;fill:url(#SVGID_29_);}
	.st67{fill:url(#SVGID_30_);}
	.st68{fill:url(#SVGID_31_);}
	.st69{opacity:0.5;}
	.st70{fill:none;stroke:#3C3C99;stroke-width:2.177;stroke-linecap:round;stroke-linejoin:round;stroke-miterlimit:10;}
	.st71{opacity:0.1;fill:#2F2B70;}
	.st72{fill:#AD7D12;}
	.st73{fill:none;stroke:#CE9B1D;stroke-width:0.844;stroke-miterlimit:10;}
	.st74{fill:url(#SVGID_32_);}
	.st75{fill:none;stroke:#CE9B1D;stroke-width:1.1656;stroke-miterlimit:10;}
	.st76{fill:none;stroke:#3C3C99;stroke-width:2.5319;stroke-linecap:round;stroke-linejoin:round;stroke-miterlimit:10;}
	.st77{fill:url(#SVGID_33_);}
	.st78{fill:none;stroke:#FFFFFF;stroke-width:2.5319;stroke-linecap:round;stroke-linejoin:round;stroke-miterlimit:10;}
	.st79{opacity:0.3;fill:#FFFFFF;}
	.st80{fill:url(#SVGID_34_);}
	.st81{fill:url(#SVGID_35_);}
	.st82{fill:url(#SVGID_36_);}
	.st83{fill:url(#SVGID_37_);}
</style>
<g class="st0">
	<g class="st1">
		<linearGradient id="SVGID_1_" gradientUnits="userSpaceOnUse" x1="0" y1="132.8419" x2="317.2208" y2="132.8419">
			<stop  offset="0" style="stop-color:#3F40B4"/>
			<stop  offset="1" style="stop-color:#FB79B1"/>
		</linearGradient>
		<path class="st2" d="M57.3,249.6c9.8,4.9,21.3,8.3,31.1,11.1c13.6,4,28.1,6.2,42.2,4.1c20.5-3.1,38.9-15.1,59.2-17.9
			c25.4-3.5,49,9.1,75.2,3.6c24.6-5.1,45-20.7,51.1-44.2c5.6-21.5-11.5-40.4-16.1-60.4c-4-17.2-2-35.2-0.2-52.6
			c2.2-22.2-1.8-44.3-18.8-60c-14.1-13-33.5-18.7-52-22.1c-12.1-2.2-24.4-2.9-36.5-4.8c-10.1-1.6-19.7-5.3-29.9-6.3
			c-18.7-1.8-38.9,3.2-52.8,14.6c-19.3,15.7-35.7,12.8-57.9,9C31.7,20.5,14,31.8,7,49.5c-7.3,18.5-8.7,39.8-5,59
			c1.9,9.5,6.4,17.3,8.1,26.9c4.2,22.4,2,45.7,9.6,67.4C26.5,222.2,38.3,240.2,57.3,249.6z"/>
		<linearGradient id="SVGID_2_" gradientUnits="userSpaceOnUse" x1="-77.1024" y1="23.0292" x2="363.4198" y2="236.309">
			<stop  offset="0" style="stop-color:#3F40B4"/>
			<stop  offset="1" style="stop-color:#FB79B1"/>
		</linearGradient>
		<path class="st3" d="M139,11.6c-14.2-0.8-29.1,2.1-40.4,9.3c-14.6,9.3-27.1,10.8-41.9,12.7c-12.9,1.7-24.2,11.1-29.4,25.1
			C22.2,72.1,20.4,87.7,22,103c0.7,7,3,13.3,3.8,20.6c2.2,18.5-2.7,34.8-1.4,51.7c1.1,14.2,5.5,28.3,15,40.4
			c4.9,21.4,20.8,30.8,37.2,34.9c5.4,1.3,11,2.1,16.4,2.4c27.4,1.5,37,2,56.3,0.8c20.4-1.2,38.2-8.1,55.6-10.7
			c25.2-3.9,45.6-2.4,64.8-13.1c17-9.5,30.1-26.2,34.8-50.3c3.6-18.4-4.3-36.7-6.7-57c-1.9-16-3.5-34.4-7.8-50.9
			c-4.9-18.8-15.5-35.4-37.4-43.6c-16.4-6.2-34.3-9.4-51.1-11.1c-11.8-1.1-23.3-1.5-34.3-2.4C157.5,13.9,148.2,12.1,139,11.6z"/>
		<linearGradient id="SVGID_3_" gradientUnits="userSpaceOnUse" x1="-43.5032" y1="-117.4308" x2="320.201" y2="342.5715">
			<stop  offset="0" style="stop-color:#3F40B4"/>
			<stop  offset="1" style="stop-color:#FB79B1"/>
		</linearGradient>
		<path class="st4" d="M115.3,22.8c-38,0-73.9,17.1-73.9,89.1c0,25-20,34.5-20,69.9c0,50.8,36.2,61,66.8,61c44,0,52,0,79.8,0
			c99.8,0,127.7-24.6,127.7-143.5c0-29.8-17.5-76.6-71.3-76.6C178.1,22.8,143.6,22.8,115.3,22.8z"/>
	</g>
	<circle class="st5" cx="163.3" cy="47.1" r="0.8"/>
	<circle class="st5" cx="45.5" cy="213.3" r="0.8"/>
	<circle class="st5" cx="64.2" cy="103.3" r="0.8"/>
	<circle class="st5" cx="241.6" cy="56.1" r="0.8"/>
	<circle class="st5" cx="268.1" cy="127.8" r="0.8"/>
	<circle class="st5" cx="250.9" cy="190.4" r="0.8"/>
	<circle class="st5" cx="233.1" cy="42.1" r="0.8"/>
	<circle class="st5" cx="179.1" cy="58.7" r="1.3"/>
	<circle class="st5" cx="148.6" cy="206.9" r="1.3"/>
	<circle class="st5" cx="53.9" cy="122.7" r="1.3"/>
	<circle class="st5" cx="46.8" cy="187.2" r="1.3"/>
	<circle class="st5" cx="240.8" cy="109.6" r="1.3"/>
	<g class="st1">
		<g>
			<g>
				<g>
					<path class="st6" d="M253.7,78.1c0.9-2,2.2-3.6,3.9-4.4c0.6-0.3,1.3-0.6,2-0.7c4.7-0.7,9.3,4,10.2,10.5
						c0.9,6.5-2.1,12.3-6.9,13c-4.7,0.7-9.3-4.1-10.2-10.5C252.3,83.1,252.7,80.3,253.7,78.1z"/>
					<path class="st7" d="M252.4,78.1c0.9-2,2.2-3.6,3.9-4.4c0.6-0.3,1.3-0.6,2-0.7c4.7-0.7,9.3,4,10.2,10.5
						c0.9,6.5-2.1,12.3-6.9,13c-4.7,0.7-9.3-4.1-10.2-10.5C251,83.1,251.4,80.3,252.4,78.1z"/>
				</g>
			</g>
			<polyline class="st8" points="258.8,80.2 262.9,86.1 258.3,89.4 			"/>
		</g>
		<g>
			<g>
				<path class="st6" d="M221.1,62.4c0.9-2,2.2-3.6,3.9-4.4c0.6-0.3,1.3-0.6,2-0.7c4.7-0.7,9.3,4,10.2,10.5c0.9,6.5-2.1,12.3-6.9,13
					c-4.7,0.7-9.3-4.1-10.2-10.5C219.7,67.4,220.1,64.6,221.1,62.4z"/>
				<path class="st7" d="M219.8,62.4c0.9-2,2.2-3.6,3.9-4.4c0.6-0.3,1.3-0.6,2-0.7c4.7-0.7,9.3,4,10.2,10.5c0.9,6.5-2.1,12.3-6.9,13
					c-4.7,0.7-9.3-4.1-10.2-10.5C218.4,67.4,218.8,64.6,219.8,62.4z"/>
			</g>
			<polyline class="st8" points="228.7,64.8 224.8,68.8 228.7,74 			"/>
		</g>
	</g>
	<g class="st1">
		<line class="st9" x1="85" y1="66.6" x2="85" y2="78.1"/>
		<linearGradient id="SVGID_4_" gradientUnits="userSpaceOnUse" x1="84.9763" y1="51.5538" x2="84.9763" y2="40.0306">
			<stop  offset="0" style="stop-color:#1D1D56"/>
			<stop  offset="1" style="stop-color:#1D1D56;stop-opacity:0"/>
		</linearGradient>
		<line class="st10" x1="85" y1="40" x2="85" y2="51.6"/>
		<line class="st9" x1="85" y1="94.4" x2="85" y2="104.1"/>
		<linearGradient id="SVGID_5_" gradientUnits="userSpaceOnUse" x1="84.9763" y1="131.5883" x2="84.9763" y2="121.8501">
			<stop  offset="0" style="stop-color:#1D1D56;stop-opacity:0"/>
			<stop  offset="1" style="stop-color:#1D1D56"/>
		</linearGradient>
		<line class="st11" x1="85" y1="121.9" x2="85" y2="131.6"/>
		<g>
			<path class="st12" d="M90,53.1c-0.7-1.6-1.7-2.8-3.1-3.5c-0.5-0.3-1-0.4-1.6-0.5c-3.7-0.5-7.4,3.2-8.1,8.3
				c-0.8,5.1,1.7,9.8,5.4,10.3c3.7,0.5,7.4-3.2,8.1-8.3C91.1,57.1,90.8,54.9,90,53.1z"/>
			<path class="st13" d="M91,53.1c-0.7-1.6-1.7-2.8-3.1-3.5c-0.5-0.3-1-0.4-1.6-0.5c-3.7-0.5-7.4,3.2-8.1,8.3
				c-0.8,5.1,1.7,9.8,5.4,10.3c3.7,0.5,7.4-3.2,8.1-8.3C92.1,57.1,91.8,54.9,91,53.1z"/>
		</g>
		<g>
			<path class="st12" d="M90,80.6c-0.7-1.6-1.7-2.8-3.1-3.5c-0.5-0.3-1-0.4-1.6-0.5c-3.7-0.5-7.4,3.2-8.1,8.3
				c-0.8,5.1,1.7,9.8,5.4,10.3c3.7,0.5,7.4-3.2,8.1-8.3C91.1,84.6,90.8,82.4,90,80.6z"/>
			<path class="st13" d="M91,80.6c-0.7-1.6-1.7-2.8-3.1-3.5c-0.5-0.3-1-0.4-1.6-0.5c-3.7-0.5-7.4,3.2-8.1,8.3
				c-0.8,5.1,1.7,9.8,5.4,10.3c3.7,0.5,7.4-3.2,8.1-8.3C92.1,84.6,91.8,82.4,91,80.6z"/>
			<polyline class="st14" points="81.9,86.8 84.5,89.1 88.4,82.7 			"/>
		</g>
		<g>
			<path class="st12" d="M90,108.1c-0.7-1.6-1.7-2.8-3.1-3.5c-0.5-0.3-1-0.4-1.6-0.5c-3.7-0.5-7.4,3.2-8.1,8.3
				c-0.8,5.1,1.7,9.8,5.4,10.3c3.7,0.5,7.4-3.2,8.1-8.3C91.1,112.1,90.8,109.9,90,108.1z"/>
			<path class="st13" d="M91,108.1c-0.7-1.6-1.7-2.8-3.1-3.5c-0.5-0.3-1-0.4-1.6-0.5c-3.7-0.5-7.4,3.2-8.1,8.3
				c-0.8,5.1,1.7,9.8,5.4,10.3c3.7,0.5,7.4-3.2,8.1-8.3C92.1,112.1,91.8,109.9,91,108.1z"/>
		</g>
		<polygon class="st15" points="134.5,44.7 96.6,53.7 96.6,58.4 134.5,49.4 		"/>
		<polygon class="st15" points="114.1,56.5 96.6,60.6 96.6,65.3 114.1,61.1 		"/>
		<polygon class="st15" points="121.9,76 96.6,82.1 96.6,86.7 121.9,80.7 		"/>
		<polygon class="st15" points="134.5,101.3 96.6,110.4 96.6,115.1 134.5,106 		"/>
		<polygon class="st15" points="85,109.3 86.1,111.5 88.7,111.3 86.9,113.7 87.3,116.4 85,115.6 82.7,117.5 83.1,114.6 81.2,113.1 
			83.8,112.1 		"/>
		<polygon class="st15" points="85,53.8 86.1,56.1 88.7,55.8 86.9,58.3 87.3,60.9 85,60.2 82.7,62 83.1,59.2 81.2,57.6 83.8,56.6 		
			"/>
	</g>
	<g class="st1">
		<g>
			<g>
				<path class="st16" d="M130,229.5L249.8,203c2.5-0.5,2.9-3.9,0.6-5l-63.8-31L58.9,195.2c-2.5,0.5-2.9,3.9-0.6,5l56.8,27.5
					C119.8,230,125,230.6,130,229.5z"/>
				<path class="st7" d="M126.4,196.7l132.4-29.2c2.2-0.5,3.7-2.4,3.7-4.6v-7.8l-216.3-2.9v7.6c0,1.8,1,3.5,2.7,4.3l64.1,31.1
					C117.1,197.2,121.8,197.7,126.4,196.7z"/>
				<path class="st17" d="M126.4,187.4l134.6-29.8c1.8-0.4,2.1-2.9,0.4-3.7L189.4,119L47.8,150.3c-1.8,0.4-2.1,2.9-0.4,3.7
					l65.6,31.8C117.1,187.9,121.8,188.4,126.4,187.4z"/>
				<polygon class="st18" points="234.4,143.4 232.4,143.9 215.2,135.5 217.2,135.1 				"/>
				<linearGradient id="SVGID_6_" gradientUnits="userSpaceOnUse" x1="46.24" y1="153.4518" x2="262.5076" y2="153.4518">
					<stop  offset="0" style="stop-color:#FFFFFF;stop-opacity:0.5"/>
					<stop  offset="1" style="stop-color:#FFFFFF;stop-opacity:0"/>
				</linearGradient>
				<path class="st19" d="M126.4,187.4l134.6-29.8c1.8-0.4,2.1-2.9,0.4-3.7L189.4,119L47.8,150.3c-1.8,0.4-2.1,2.9-0.4,3.7
					l65.6,31.8C117.1,187.9,121.8,188.4,126.4,187.4z"/>
				<path class="st20" d="M103.7,171c0.1,0.7-0.3,1.4-1.1,1.6l-4.7,1c-2,0.4-4.1,0.2-6-0.7l-10.7-5.2c-0.2-0.1-0.4-0.3-0.5-0.4v0
					c-0.6-0.8-0.2-2,0.8-2.2l6.1-1.3c1-0.2,2.1-0.1,3.1,0.4l12.1,6C103.4,170.1,103.6,170.5,103.7,171
					C103.7,171,103.7,171,103.7,171z"/>
				<path class="st20" d="M103.7,171c0.1,0.7-0.3,1.4-1.1,1.6l-4.7,1c-2,0.4-4.1,0.2-6-0.7l-10.7-5.2c-0.2-0.1-0.4-0.3-0.5-0.4v0
					c-0.1-0.7,0.3-1.4,1.1-1.6l6.1-1.4c1-0.2,2.1-0.1,3.1,0.4l12.1,6C103.4,170.7,103.6,170.8,103.7,171
					C103.7,171,103.7,171,103.7,171z"/>
				<polygon class="st12" points="67.7,150.4 185.3,124.6 249.7,155.8 132.1,181.7 				"/>
			</g>
		</g>
		<polygon class="st15" points="161.8,160.7 147.8,163.8 116.9,148.9 130.6,145.6 		"/>
		<g>
			<path class="st21" d="M120.7,161.9c1-0.4,1.8-1.1,2.2-1.8c0.2-0.3,0.2-0.6,0.3-0.9c0.2-2-2.3-3.8-5.7-4c-3.3-0.2-6.2,1.3-6.4,3.3
				c-0.2,2,2.3,3.8,5.7,4C118.1,162.6,119.5,162.4,120.7,161.9z"/>
			<polyline class="st21" points="115.5,157.7 114.8,159.7 119.7,159.9 			"/>
		</g>
		<g>
			<polygon class="st16" points="209.2,142.5 175.1,150.6 152.9,139.9 186.8,131.6 			"/>
			<g>
				<g>
					<polygon class="st7" points="211.1,97 174.2,105.9 174.2,141.1 211.1,132.3 					"/>
					<polygon class="st22" points="212.3,96.3 201.6,98.9 188,102.1 174.5,105.3 167.6,102 154.9,95.9 149.8,93.4 163.3,90.1 
						176.7,86.9 187.4,84.2 192.8,86.8 205.5,93 					"/>
					<polygon class="st6" points="150.9,94.6 150.9,129.8 174.2,141.1 174.2,105.9 					"/>
					<polygon class="st6" points="149.8,93.4 149.8,103.7 174.5,115.7 174.5,105.3 					"/>
					<polygon class="st7" points="212.3,96.3 174.5,105.3 174.5,115.7 212.3,106.6 					"/>
					<polygon class="st23" points="200.1,99.2 188.8,101.9 164.1,89.9 175.2,87.2 					"/>
					<polygon class="st23" points="205.1,92.8 167.2,101.8 156.8,96.8 194.8,87.8 					"/>
					<linearGradient id="SVGID_7_" gradientUnits="userSpaceOnUse" x1="194.4759" y1="137.624" x2="194.4759" y2="99.2296">
						<stop  offset="0" style="stop-color:#F0699C;stop-opacity:0"/>
						<stop  offset="1" style="stop-color:#F03B9C"/>
					</linearGradient>
					<polygon class="st24" points="188.8,101.9 188.8,137.6 200.1,134.9 200.1,99.2 					"/>
					<linearGradient id="SVGID_8_" gradientUnits="userSpaceOnUse" x1="193.7576" y1="121.2554" x2="191.4882" y2="111.4254">
						<stop  offset="0.5622" style="stop-color:#1D1D56;stop-opacity:0"/>
						<stop  offset="1" style="stop-color:#1D1D56;stop-opacity:0.3"/>
					</linearGradient>
					<polygon class="st25" points="211.1,106.9 174.5,115.7 174.2,115.5 174.2,125.8 211.1,117 					"/>
					<linearGradient id="SVGID_9_" gradientUnits="userSpaceOnUse" x1="162.0216" y1="137.7774" x2="162.0216" y2="96.8266">
						<stop  offset="0" style="stop-color:#B72858;stop-opacity:0"/>
						<stop  offset="1" style="stop-color:#B52656"/>
					</linearGradient>
					<polygon class="st26" points="156.8,96.8 156.8,132.7 167.2,137.8 167.2,101.8 					"/>
					<linearGradient id="SVGID_10_" gradientUnits="userSpaceOnUse" x1="160.4762" y1="120.3827" x2="164.5329" y2="109.237">
						<stop  offset="0.4216" style="stop-color:#1A1A1E;stop-opacity:0"/>
						<stop  offset="1" style="stop-color:#1A1A1E;stop-opacity:0.5"/>
					</linearGradient>
					<polygon class="st27" points="150.9,104.3 150.9,114.1 174.2,125.4 174.2,115.5 					"/>
					<linearGradient id="SVGID_11_" gradientUnits="userSpaceOnUse" x1="188.605" y1="98.5688" x2="188.1579" y2="96.7754">
						<stop  offset="0.5622" style="stop-color:#1D1D56;stop-opacity:0"/>
						<stop  offset="1" style="stop-color:#1D1D56;stop-opacity:0.3"/>
					</linearGradient>
					<polygon class="st28" points="181.6,98.4 192.8,95.7 195.1,96.8 184.2,99.7 					"/>
					<linearGradient id="SVGID_12_" gradientUnits="userSpaceOnUse" x1="180.0908" y1="97.1958" x2="178.6417" y2="91.3838">
						<stop  offset="0" style="stop-color:#F2F2F2;stop-opacity:0"/>
						<stop  offset="1" style="stop-color:#F2F2F2;stop-opacity:0.3"/>
					</linearGradient>
					<polygon class="st29" points="156.8,96.8 194.8,87.8 201.8,91.2 165.2,100.9 					"/>
				</g>
				<g>
					<path class="st30" d="M204.4,90.9c0,0,0,3.3-4.3,4.2c-4.2,0.8,0,0.2,0,0.2l-5.3-2l2.9-4.5h5.6l1.1,1.1V90.9z"/>
					<path class="st30" d="M172.2,75.3c0,0,1.2-1.6,3.7-0.7c2.5,1,7.2,3.7,6.2,16.4l-7.4-6l-4.4-5.4l1.5-3.6L172.2,75.3z"/>
					<path class="st23" d="M172.2,75.3c-1.2,2,0.4,4.5,3.9,6.4c5.1,2.7,6.2,6,5.9,9.3l-1.8,3.8h-0.8c0,0-3.2,0.1-9.3-4
						c-6.1-4.1-7.1-8-4.4-9.6C168.4,79.7,170,79.2,172.2,75.3z"/>
					<path class="st23" d="M184.2,92.1c4.3-1.6,5.1-10.4,11.2-10.4c4.3,0,4,3.5,5.1,4.4c1,0.9,4.6,1,4,4.8c0,0-0.4-1.2-2-1.2
						c-2.6,0-4.9,3.6-7.5,3.6c0,0-3-1.6-10.7,0.8V92.1z"/>
					<path class="st31" d="M164.6,102.7c0.8,1.2,2.5,1.7,4.9,0.5c2.4-1.2,7.6-3.5,10.9-8.3l-14.7-1.3l-1.3,6.5l-1,1.8L164.6,102.7z"
						/>
					<path class="st30" d="M184.2,94c0,0,8.7-3.6,15.7,0.8c3,1.9,1.5,4.4,0,6.9c-2,3.3-5.2,6.2-8.8,3.6c-6.2-4.5-8.7-7.3-8.7-8.1
						S184.2,94,184.2,94z"/>
					<path class="st30" d="M166.7,88.1c0,0-5.5-1.2-5.6,1.9c-0.1,2.2,1.2,2.9,1.2,4.9c0,1.9-1.8,5.9,2.3,7.8c0,0-1.1-3,2.2-3.6
						s6.1,2.4,13.6-4.3L166.7,88.1z"/>
					<path class="st32" d="M180.2,93c-0.3,0.5-0.6,0.9-0.7,1.5s-0.2,1.1,0.1,1.6c0.4,0.7,1.2,1,1.9,1.3c0.3,0.1,0.7,0.3,1,0.1
						c0.2-0.1,0.3-0.3,0.4-0.4c0.3-0.6,0.7-1.2,1-1.7c0.4-0.7,0.9-1.5,0.8-2.3c-0.1-1.1-1.1-2.1-2.2-2.1
						C181.4,90.9,180.7,92.2,180.2,93z"/>
				</g>
			</g>
		</g>
		<g>
			<polygon class="st16" points="222.6,152.7 216.6,154.1 208.9,155.9 201.3,157.7 197.5,155.9 190.3,152.4 187.5,151.1 195,149.2 
				202.5,147.4 208.6,145.9 211.6,147.3 218.7,150.8 			"/>
			<g>
				<polygon class="st33" points="223.8,121.2 200.7,126.7 200.7,148.7 223.8,143.2 				"/>
				<polygon class="st34" points="224.5,120.7 217.8,122.3 209.4,124.4 200.9,126.4 196.6,124.3 188.7,120.5 185.5,118.9 
					193.9,116.9 202.3,114.8 209,113.2 212.3,114.8 220.3,118.7 				"/>
				<polygon class="st35" points="186.2,119.7 186.2,141.7 200.7,148.7 200.7,126.7 				"/>
				<polygon class="st35" points="185.5,118.9 185.5,125.3 200.9,132.8 200.9,126.4 				"/>
				<polygon class="st33" points="224.5,120.7 200.9,126.4 200.9,132.8 224.5,127.2 				"/>
				<linearGradient id="SVGID_13_" gradientUnits="userSpaceOnUse" x1="212.9481" y1="136.3033" x2="211.5313" y2="130.1665">
					<stop  offset="0.5622" style="stop-color:#1D1D56;stop-opacity:0"/>
					<stop  offset="1" style="stop-color:#1D1D56;stop-opacity:0.3"/>
				</linearGradient>
				<polygon class="st36" points="223.8,127.3 200.9,132.8 200.7,132.7 200.7,139.1 223.8,133.6 				"/>
				<linearGradient id="SVGID_14_" gradientUnits="userSpaceOnUse" x1="192.1705" y1="135.7585" x2="194.7031" y2="128.8002">
					<stop  offset="0.4216" style="stop-color:#1A1A1E;stop-opacity:0"/>
					<stop  offset="1" style="stop-color:#1A1A1E;stop-opacity:0.5"/>
				</linearGradient>
				<polygon class="st37" points="186.2,125.7 186.2,131.8 200.7,138.9 200.7,132.7 				"/>
				<polyline class="st38" points="212.9,145.8 212.9,123.6 197.3,116 				"/>
				<polyline class="st38" points="216.5,116.8 192.8,122.5 192.8,144.9 				"/>
				<path class="st38" d="M204.4,114c0.1-0.7,0.3-1.4,0.7-2c0.4-0.6,1-1.1,1.7-1.3c0.7-0.2,1.5,0,2,0.6c0.3,0.4,0.5,1,0.4,1.5
					c-0.1,1.2-1.1,2.6-1.8,3.6c-0.4,0.6-0.9,1.1-1.3,1.6c-0.2,0.2-1.3,1.2-1.3,1.4C204.4,117.6,204.1,115.8,204.4,114z"/>
				<path class="st38" d="M201.3,115.4c-0.8-0.8-1.5-1-2.4-0.4c-0.7,0.5-0.8,1.6-0.3,2.2c0.6,0.8,1.7,1.4,2.7,1.7
					c1.1,0.4,2.3,0.5,3.5,0.5c-0.5-0.6-1-1.2-1.5-1.9C202.6,116.8,202,116,201.3,115.4z"/>
			</g>
		</g>
	</g>
	<circle class="st5" cx="180" cy="212.5" r="0.8"/>
	<circle class="st5" cx="191.4" cy="204.8" r="0.8"/>
	<circle class="st5" cx="74.9" cy="212.5" r="0.8"/>
</g>
<g class="st0">
	<g class="st1">
		
			<linearGradient id="SVGID_15_" gradientUnits="userSpaceOnUse" x1="-2288.7002" y1="-1354.9377" x2="-2737.7002" y2="-1080.9377" gradientTransform="matrix(0.9585 0.3647 -0.3755 0.9311 2057.5251 2193.9358)">
			<stop  offset="0" style="stop-color:#FB79B1"/>
			<stop  offset="0.6324" style="stop-color:#3F40B4"/>
			<stop  offset="0.7332" style="stop-color:#3D379B"/>
			<stop  offset="0.9459" style="stop-color:#38215D"/>
			<stop  offset="1" style="stop-color:#371B4C"/>
		</linearGradient>
		<path class="st39" d="M19.5,215.2c5.3,7.3,11.9,13.5,20.2,18.3c23.1,13.4,47.5,13.8,73.4,14.1c13.7,0.1,27.4,1.1,41.1,2.8
			c12.5,1.6,26.6,2.5,38,8c20.3,9.8,45.2,10.5,64.4-2.5c21.4-14.5,35.3-41.2,39.2-66.1c2.8-18.2,0.8-36.7,2.5-55
			c0.8-8.2,1.8-18.1,6.2-25.3c4.5-7.4,9.4-13.5,11.6-22.2c5.4-21.3-9.3-43.5-29.1-53.8c-17.5-9-36.5-6.8-54.8-12.2
			c-17.6-5.2-30.7-18.6-49-20.8c-12.7-1.5-25.3,1.4-37.9,3.1C132.2,5.3,119,5,105.8,4.9C89,4.7,71.8,4.7,55.6,9.3
			c-16.2,4.5-31.8,14.2-39.7,29.1c-9.8,18.3-6.6,40-7.3,60c-0.7,18.2-8.5,35-8.5,53.5C0,174.2,6.5,197.3,19.5,215.2z"/>
		
			<linearGradient id="SVGID_16_" gradientUnits="userSpaceOnUse" x1="-807.991" y1="-867.7719" x2="-1499.485" y2="-668.5335" gradientTransform="matrix(0.9793 0.1823 -0.1878 0.9656 1028.7626 1096.9679)">
			<stop  offset="0" style="stop-color:#FB79B1"/>
			<stop  offset="0.6324" style="stop-color:#3F40B4"/>
			<stop  offset="0.7332" style="stop-color:#3D379B"/>
			<stop  offset="0.9459" style="stop-color:#38215D"/>
			<stop  offset="1" style="stop-color:#371B4C"/>
		</linearGradient>
		<path class="st40" d="M37.3,30.5c11.1-6.5,21.9-11.2,33.1-11.6c0.3,0,0.7,0,1,0c11.5-0.2,22.7,1.8,36.9,2.3c0.2,0,0.5,0,0.7,0
			c1.7,0,3.4,0.1,5.1,0.1c3.7,0,7.3-0.1,10.9-0.3c4.7-0.3,9.2-0.8,13.6-1.7c10.3-2.1,19.8-5.8,31-6.2c5.8-0.2,11.5,0.7,17.5,2.2
			c3.5,0.9,7,2,10.7,3.1c4.7,1.4,9.5,2.8,14.4,3.8c11.8,2.3,23.3,2.9,34.1,5.6c4.2,1,8.2,2.4,12.1,4.1c25.5,10.9,41,32.3,42.8,54.2
			c0.7,9.4-0.7,17.6-2.1,26.2c-1.6,9.6-1.8,20.2-2.2,28.8c-0.8,17.2-0.1,33.3-2.8,48.3c-4.1,22.2-16.3,42.1-38.8,54
			c-16,8.5-36.6,10.4-57.3,6.1c-10.2-2.1-22.1-2.5-33.8-3.1c-11.6-0.6-23.7-1.1-36.2-1.1c-26.5-0.1-81.5-1.3-97.5-33.5
			c-3.3-6.6-7.5-12.1-9.4-18.4c-5.8-18.7-4.2-33-4.1-53.4c0-15.9-1.7-31.4-1.9-55.9c0-2.1,0-4.2,0-6.4
			C15.1,62.1,20.4,40.4,37.3,30.5z"/>
		<linearGradient id="SVGID_17_" gradientUnits="userSpaceOnUse" x1="435.3171" y1="128.4603" x2="-466.7347" y2="140.3138">
			<stop  offset="0" style="stop-color:#FB79B1"/>
			<stop  offset="0.6324" style="stop-color:#3F40B4"/>
			<stop  offset="0.7332" style="stop-color:#3D379B"/>
			<stop  offset="0.9459" style="stop-color:#38215D"/>
			<stop  offset="1" style="stop-color:#371B4C"/>
		</linearGradient>
		<path class="st41" d="M295.6,147.3c0,67.9-7.5,95.5-152.5,95.5c-27,0-121.5,1.8-121.5-52.9c0-36.7,12.5-38.8,12.5-61.9
			c0-14.2-12.5-29.4-12.5-65c0-13,10.6-40.3,37.2-40.3c13.5,0,20.9,2.9,27.2,6.2c7.2,3.7,13.1,7.9,25.4,8.6c1.1,0.1,2.3,0.1,3.6,0.1
			c2.8,0,5.3-0.2,7.6-0.5c3.5-0.4,6.6-1.2,9.4-2.1c11.5-3.7,19.3-10.3,38.8-11.9c2.9-0.2,6-0.4,9.4-0.4c15.3,0,28.5,1.6,40.1,4.5
			c3.5,0.9,6.8,1.8,9.9,2.9C292.9,51.8,295.6,115.2,295.6,147.3z"/>
	</g>
	<polygon class="st42" points="147.5,232.8 246.3,209.1 183.4,178.8 85.2,202.8 	"/>
	<polygon class="st43" points="251.2,165.2 144.6,190.6 144.6,219.6 251.2,194.1 	"/>
	<polygon class="st44" points="144.6,190.6 251.2,165.2 183.3,132.4 77.5,158.2 	"/>
	<polygon class="st45" points="77.5,158.2 77.5,187 144.6,219.6 144.6,190.6 	"/>
	<linearGradient id="SVGID_18_" gradientUnits="userSpaceOnUse" x1="108.42" y1="197.7229" x2="113.6959" y2="183.2274">
		<stop  offset="0" style="stop-color:#1A1A1E;stop-opacity:0"/>
		<stop  offset="1" style="stop-color:#1A1A1E"/>
	</linearGradient>
	<polygon class="st46" points="77.5,170 77.5,178.3 144.6,210.9 144.6,202.4 	"/>
	<circle class="st5" cx="54.4" cy="41.7" r="0.8"/>
	<circle class="st5" cx="52.8" cy="102.1" r="0.8"/>
	<circle class="st5" cx="40.7" cy="170.5" r="0.8"/>
	<circle class="st5" cx="269.6" cy="83" r="0.8"/>
	<circle class="st5" cx="228.7" cy="132" r="0.8"/>
	<circle class="st5" cx="274.8" cy="182.6" r="0.8"/>
	<circle class="st5" cx="162.8" cy="49.1" r="0.8"/>
	<circle class="st5" cx="64.8" cy="184.8" r="0.8"/>
	<circle class="st5" cx="240.1" cy="61.4" r="0.8"/>
	<circle class="st5" cx="268.8" cy="102.9" r="0.8"/>
	<circle class="st5" cx="248.4" cy="102.9" r="0.8"/>
	<circle class="st5" cx="64.8" cy="63.5" r="1.3"/>
	<circle class="st5" cx="101" cy="52.2" r="1.3"/>
	<circle class="st5" cx="266.7" cy="149.3" r="1.3"/>
	<circle class="st5" cx="258.7" cy="70.1" r="1.3"/>
	<circle class="st5" cx="155.6" cy="59.7" r="1.3"/>
	<circle class="st5" cx="33.1" cy="187" r="1.3"/>
	<g class="st1">
		<path class="st17" d="M77.5,168.6h-2.7c0-3.5-1.3-4.1-3.4-5c-2.9-1.3-6.6-2.9-6.6-11.8s3.6-10.5,6.6-11.8c2.1-0.9,3.4-1.5,3.4-5
			h2.7c0,5.3-2.8,6.6-5.1,7.5c-2.5,1.1-4.9,2.2-4.9,9.3s2.4,8.2,4.9,9.3C74.6,162.1,77.5,163.3,77.5,168.6z"/>
	</g>
	<ellipse class="st42" cx="90.2" cy="221.5" rx="13" ry="4.4"/>
	<polygon class="st47" points="77.5,169.6 77.5,169.8 144.6,202.4 144.6,202 	"/>
	<path class="st48" d="M104.3,86.8v123.4c0,2.6-4,4.8-9.5,5.6c-1.4,0.2-3,0.3-4.6,0.3c-7.8,0-14.1-2.6-14.1-5.9V86.8H104.3z"/>
	<linearGradient id="SVGID_19_" gradientUnits="userSpaceOnUse" x1="94.771" y1="153.8865" x2="104.3139" y2="153.8865">
		<stop  offset="0" style="stop-color:#F0699C;stop-opacity:0"/>
		<stop  offset="0.8054" style="stop-color:#F03B9C"/>
	</linearGradient>
	<path class="st49" d="M104.3,92.1v118c0,2.6-4,4.8-9.5,5.6V92.1H104.3z"/>
	<path class="st50" d="M103.1,121.7c-1.4,1.1-3.8,2-6.9,2.5c-1.8,0.3-3.9,0.5-6.1,0.5c-2.2,0-4.2-0.2-6.1-0.5
		c-3.1-0.5-5.5-1.4-6.9-2.5c-0.8-0.6-1.2-1.3-1.2-2v4.4h0.1c0.7,2.5,6.7,4.4,14,4.4c7.3,0,13.3-1.9,14-4.4h0.1v-4.4
		C104.3,120.5,103.9,121.1,103.1,121.7z"/>
	<path class="st50" d="M104,88.7c-1.5,1.1-4.1,2.1-7.3,2.6c-2,0.3-4.2,0.5-6.5,0.5c-2.3,0-4.5-0.2-6.5-0.5c-3.3-0.5-5.9-1.5-7.3-2.6
		c-0.8-0.6-1.3-1.3-1.3-2.1v4.7h0.1C76,94,82.4,96,90.2,96c7.8,0,14.2-2,15-4.7h0.1v-4.7C105.2,87.4,104.8,88.1,104,88.7z"/>
	<path class="st50" d="M103.1,180.1c-1.4,1.1-3.8,2-6.9,2.5c-1.8,0.3-3.9,0.5-6.1,0.5c-2.2,0-4.2-0.2-6.1-0.5
		c-3.1-0.5-5.5-1.4-6.9-2.5c-0.8-0.6-1.2-1.3-1.2-2v4.4h0.1c0.7,2.5,6.7,4.4,14,4.4c7.3,0,13.3-1.9,14-4.4h0.1v-4.4
		C104.3,178.9,103.9,179.5,103.1,180.1z"/>
	<ellipse class="st44" cx="90.2" cy="87" rx="15" ry="5.1"/>
	<linearGradient id="SVGID_20_" gradientUnits="userSpaceOnUse" x1="199.336" y1="200.9935" x2="196.4633" y2="189.4716">
		<stop  offset="0.6" style="stop-color:#1D1D56;stop-opacity:0"/>
		<stop  offset="1" style="stop-color:#1D1D56"/>
	</linearGradient>
	<polygon class="st51" points="144.6,202.4 251.2,176.9 251.2,188.1 144.6,213.5 	"/>
	<polygon class="st47" points="251.2,176.5 144.6,201.9 144.6,202.4 251.2,176.9 	"/>
	<linearGradient id="SVGID_21_" gradientUnits="userSpaceOnUse" x1="160.8483" y1="153.7966" x2="160.8483" y2="62.9094">
		<stop  offset="0" style="stop-color:#F2F2F2;stop-opacity:0"/>
		<stop  offset="1" style="stop-color:#F2F2F2"/>
	</linearGradient>
	<path class="st52" d="M210.4,63.6V129c0,0.7-0.5,1.4-1.2,1.5l-97.1,23.2c-0.4,0.1-0.8-0.2-0.8-0.7V87.7c0-0.7,0.5-1.4,1.2-1.5
		l97.1-23.2C210,62.8,210.4,63.2,210.4,63.6z"/>
	<linearGradient id="SVGID_22_" gradientUnits="userSpaceOnUse" x1="165.6865" y1="158.2562" x2="165.6865" y2="67.369">
		<stop  offset="0" style="stop-color:#F2F2F2;stop-opacity:0"/>
		<stop  offset="1" style="stop-color:#F2F2F2"/>
	</linearGradient>
	<path class="st53" d="M215.3,68.1v65.4c0,0.7-0.5,1.4-1.2,1.5l-97.1,23.2c-0.4,0.1-0.8-0.2-0.8-0.7V92.1c0-0.7,0.5-1.4,1.2-1.5
		l97.1-23.2C214.9,67.3,215.3,67.6,215.3,68.1z"/>
	<line class="st54" x1="144.6" y1="200.2" x2="251.2" y2="174.7"/>
	<g class="st1">
		<g>
			<linearGradient id="SVGID_23_" gradientUnits="userSpaceOnUse" x1="155.8978" y1="197.7587" x2="166.9138" y2="210.887">
				<stop  offset="0" style="stop-color:#EFD17D;stop-opacity:0"/>
				<stop  offset="1" style="stop-color:#EFD17D"/>
			</linearGradient>
			<path class="st55" d="M169.6,208.4l-16,3.8c-1.1,0.3-2.2-0.6-2.2-1.7v-7.8c0-1,0.7-1.9,1.7-2.2l16.5-3.9c0.9-0.2,1.7,0.5,1.7,1.4
				v8.3C171.3,207.2,170.6,208.1,169.6,208.4z"/>
		</g>
		<g>
			<path class="st35" d="M170,195.3l-8.7,2.1c-0.6,0.1-1.2-0.3-1.2-1v-4.2c0-0.6,0.4-1.1,0.9-1.2l9-2.1c0.5-0.1,0.9,0.2,0.9,0.7v4.5
				C170.9,194.7,170.5,195.2,170,195.3z"/>
		</g>
		<polygon class="st35" points="171.1,189.4 170.6,189.1 170.2,189.3 171,190.1 		"/>
		<polygon class="st35" points="160.4,197.2 160.9,197.6 161,197.2 		"/>
		<g>
			<path class="st34" d="M170.4,195.7l-8.7,2.1c-0.6,0.1-1.2-0.3-1.2-1v-4.2c0-0.6,0.4-1.1,0.9-1.2l9-2.1c0.5-0.1,0.9,0.2,0.9,0.7
				v4.5C171.4,195.1,171,195.6,170.4,195.7z"/>
		</g>
		<g>
			<path class="st35" d="M158,203.6c-0.3-0.6-0.7-1.1-1.2-1.4c-0.2-0.1-0.4-0.2-0.6-0.2c-1.5-0.2-2.9,1.2-3.2,3.2
				c-0.3,2,0.6,3.8,2.1,4c1.5,0.2,2.9-1.2,3.2-3.2C158.4,205.2,158.3,204.3,158,203.6z"/>
			<path class="st34" d="M158.8,203.6c-0.3-0.6-0.7-1.1-1.2-1.4c-0.2-0.1-0.4-0.2-0.6-0.2c-1.5-0.2-2.9,1.2-3.2,3.2
				c-0.3,2,0.6,3.8,2.1,4c1.5,0.2,2.9-1.2,3.2-3.2C159.2,205.2,159.1,204.3,158.8,203.6z"/>
			<path class="st7" d="M157,205c-0.1-0.2-0.2-0.3-0.3-0.4c-0.1,0-0.1,0-0.2-0.1c-0.4-0.1-0.7,0.3-0.8,0.8c-0.1,0.5,0.1,0.9,0.5,1
				v1.4h0.4v-1.4c0.2-0.1,0.4-0.4,0.5-0.7C157.1,205.3,157.1,205.1,157,205z"/>
		</g>
		<g>
			<path class="st35" d="M166.5,205.2L166.5,205.2c-1.3,0.3-2.6-0.7-2.6-2.1v-7.5l4.3-1l0.4,0.4l-0.4,8.1
				C168.2,204.1,167.5,205,166.5,205.2z"/>
		</g>
		<g>
			<path class="st34" d="M167,205.6L167,205.6c-1.3,0.3-2.6-0.7-2.6-2.1v-7.5l4.3-1v8.5C168.6,204.5,167.9,205.4,167,205.6z"/>
		</g>
		<line class="st56" x1="162.8" y1="195.9" x2="169.3" y2="194.4"/>
		<g>
			<path class="st35" d="M166.8,204.8L166.8,204.8c-0.9,0.2-1.7-0.5-1.7-1.4v-3.8l2.8-0.7l0.4,0.3l-0.4,4.1
				C167.9,204,167.4,204.6,166.8,204.8z"/>
		</g>
		<g>
			<path class="st33" d="M168.3,199.2v4.4c0,0.7-0.4,1.2-1.1,1.4c-0.6,0.2-1.3-0.2-1.5-0.7c-0.1-0.2-0.2-0.4-0.2-0.7v-3.8
				L168.3,199.2z"/>
		</g>
		<linearGradient id="SVGID_24_" gradientUnits="userSpaceOnUse" x1="166.462" y1="202.2178" x2="168.6485" y2="203.0136">
			<stop  offset="0" style="stop-color:#F2F2F2;stop-opacity:0"/>
			<stop  offset="1" style="stop-color:#FFFFFF"/>
		</linearGradient>
		<path class="st57" d="M168.3,200.1v3.6c0,0.7-0.4,1.2-1.1,1.4c-0.6,0.2-1.3-0.2-1.5-0.7L168.3,200.1z"/>
	</g>
	<g class="st1">
		<g>
			<linearGradient id="SVGID_25_" gradientUnits="userSpaceOnUse" x1="231.4681" y1="179.6245" x2="242.4841" y2="192.7529">
				<stop  offset="0" style="stop-color:#EFD17D;stop-opacity:0"/>
				<stop  offset="1" style="stop-color:#EFD17D"/>
			</linearGradient>
			<path class="st58" d="M245.1,190.2l-16,3.8c-1.1,0.3-2.2-0.6-2.2-1.7v-7.8c0-1,0.7-1.9,1.7-2.2l16.5-3.9c0.9-0.2,1.7,0.5,1.7,1.4
				v8.3C246.8,189.1,246.1,190,245.1,190.2z"/>
		</g>
		<g>
			<path class="st35" d="M244.4,182.8c-0.3-0.6-0.7-1.1-1.2-1.4c-0.2-0.1-0.4-0.2-0.6-0.2c-1.5-0.2-2.9,1.2-3.2,3.2
				c-0.3,2,0.6,3.8,2.1,4c1.5,0.2,2.9-1.2,3.2-3.2C244.8,184.3,244.7,183.5,244.4,182.8z"/>
			<path class="st34" d="M245.2,182.8c-0.3-0.6-0.7-1.1-1.2-1.4c-0.2-0.1-0.4-0.2-0.6-0.2c-1.5-0.2-2.9,1.2-3.2,3.2
				c-0.3,2,0.6,3.8,2.1,4c1.5,0.2,2.9-1.2,3.2-3.2C245.6,184.3,245.5,183.5,245.2,182.8z"/>
			<path class="st7" d="M243.4,184.1c-0.1-0.2-0.2-0.3-0.3-0.4c-0.1,0-0.1,0-0.2-0.1c-0.4-0.1-0.7,0.3-0.8,0.8
				c-0.1,0.5,0.1,0.9,0.5,1v1.4h0.4v-1.4c0.2-0.1,0.4-0.4,0.5-0.7C243.5,184.5,243.5,184.3,243.4,184.1z"/>
		</g>
		<g>
			<g>
				<path class="st35" d="M236.8,179.5l-8.7,2.1c-0.6,0.1-1.2-0.3-1.2-1v-4.2c0-0.6,0.4-1.1,0.9-1.2l9-2.1c0.5-0.1,0.9,0.2,0.9,0.7
					v4.5C237.7,178.8,237.4,179.3,236.8,179.5z"/>
			</g>
			<polygon class="st35" points="237.9,173.6 237.5,173.2 237,173.4 237.9,174.2 			"/>
			<polygon class="st35" points="227.2,181.3 227.7,181.7 227.8,181.3 			"/>
			<g>
				<path class="st34" d="M237.2,179.9l-8.7,2.1c-0.6,0.1-1.2-0.3-1.2-1v-4.2c0-0.6,0.4-1.1,0.9-1.2l9-2.1c0.5-0.1,0.9,0.2,0.9,0.7
					v4.5C238.2,179.2,237.8,179.7,237.2,179.9z"/>
			</g>
			<g>
				<path class="st35" d="M233.4,189.4L233.4,189.4c-1.3,0.3-2.6-0.7-2.6-2.1v-7.5l4.3-1l0.4,0.4l-0.4,8.1
					C235,188.3,234.3,189.1,233.4,189.4z"/>
			</g>
			<g>
				<path class="st34" d="M233.8,189.8L233.8,189.8c-1.3,0.3-2.6-0.7-2.6-2.1v-7.5l4.3-1v8.5C235.5,188.7,234.8,189.5,233.8,189.8z"
					/>
			</g>
			<line class="st56" x1="229.6" y1="180.1" x2="236.1" y2="178.5"/>
			<g>
				<path class="st35" d="M233.6,188.9L233.6,188.9c-0.9,0.2-1.7-0.5-1.7-1.4v-3.8l2.8-0.7l0.4,0.3l-0.4,4.1
					C234.7,188.2,234.3,188.7,233.6,188.9z"/>
			</g>
			<g>
				<path class="st33" d="M235.1,183.4v4.4c0,0.7-0.4,1.2-1.1,1.4c-0.6,0.2-1.3-0.2-1.5-0.7c-0.1-0.2-0.2-0.4-0.2-0.7V184
					L235.1,183.4z"/>
			</g>
			<linearGradient id="SVGID_26_" gradientUnits="userSpaceOnUse" x1="233.29" y1="186.3406" x2="235.4765" y2="187.1364">
				<stop  offset="0" style="stop-color:#F2F2F2;stop-opacity:0"/>
				<stop  offset="1" style="stop-color:#FFFFFF"/>
			</linearGradient>
			<path class="st59" d="M235.1,184.2v3.6c0,0.7-0.4,1.2-1.1,1.4c-0.6,0.2-1.3-0.2-1.5-0.7L235.1,184.2z"/>
		</g>
	</g>
	<line class="st60" x1="144.6" y1="200.2" x2="102.1" y2="179.6"/>
	<g class="st1">
		<path class="st12" d="M221.2,189.6c-0.4-0.8-0.9-1.5-1.6-1.8c-0.3-0.1-0.5-0.2-0.8-0.3c-2-0.3-3.9,1.7-4.2,4.3
			c-0.4,2.7,0.9,5.1,2.8,5.4c2,0.3,3.9-1.7,4.2-4.3C221.7,191.6,221.6,190.5,221.2,189.6z"/>
		<path class="st12" d="M185.1,198.1c-0.4-0.8-0.9-1.5-1.6-1.8c-0.3-0.1-0.5-0.2-0.8-0.3c-2-0.3-3.9,1.7-4.2,4.3
			c-0.4,2.7,0.9,5.1,2.8,5.4c2,0.3,3.9-1.7,4.2-4.3C185.7,200.2,185.5,199.1,185.1,198.1z"/>
		<path class="st6" d="M217.4,188.7l-35.5,8.5c-1,0.2-1.7,1.1-1.7,2.1v3.6c0,1.2,1.1,2.1,2.3,1.8l35.5-8.5c1-0.2,1.7-1.1,1.7-2.1
			v-3.6C219.7,189.3,218.6,188.4,217.4,188.7z"/>
	</g>
	<path class="st61" d="M220.1,27.2v50.2l-4.8,3.1V68.1c0-0.5-0.4-0.8-0.8-0.7l-4,0.9v-4.7c0-0.4-0.4-0.8-0.8-0.7l-97.1,23.2
		c-0.7,0.2-1.2,0.8-1.2,1.6V37.5c1.1,0.1,2.3,0.1,3.6,0.1c2.8,0,5.3-0.2,7.6-0.5c3.5-0.4,6.6-1.2,9.4-2.1
		c11.5-3.7,19.3-10.3,38.8-11.9c2.9-0.2,6-0.4,9.4-0.4C195.4,22.8,208.6,24.4,220.1,27.2z"/>
	<path class="st5" d="M220.1,72.5v65.4c0,0.7-0.5,1.4-1.2,1.5l-97.1,23.2c-0.4,0.1-0.8-0.2-0.8-0.7V96.6c0-0.7,0.5-1.4,1.2-1.5
		l31.7-7.6v3.3c0,1.8,1.4,3.2,3.2,3.2c1.8,0,3.2-1.4,3.2-3.2V86l37.6-9v3.5c0,1.2,1,2.1,2.1,2.1s2.1-1,2.1-2.1v-4.6l17.1-4.1
		C219.7,71.8,220.1,72.1,220.1,72.5z"/>
	<path class="st42" d="M154.1,133.5l32.8-7.8c0.1,0,0.3,0.1,0.3,0.2v3.2c0,0.3-0.2,0.5-0.4,0.5l-32.8,7.8c-0.1,0-0.3-0.1-0.3-0.2
		V134C153.7,133.8,153.8,133.6,154.1,133.5z"/>
	<path class="st62" d="M145.8,142l49.7-11.9c0.2-0.1,0.4,0.1,0.4,0.3v7.5c0,0.4-0.3,0.7-0.6,0.8l-49.7,11.9
		c-0.2,0.1-0.4-0.1-0.4-0.3v-7.5C145.1,142.4,145.4,142.1,145.8,142z"/>
	<path class="st63" d="M210.4,85.5v27.1c0,0.6-0.4,1.1-1,1.2l-62.6,14.9l-2.2,0.5h0l-13.4,3.2c-0.3,0.1-0.7-0.2-0.7-0.5v-27.1
		c0-0.6,0.4-1.1,1-1.2l53.2-12.7l25-6C210.1,84.9,210.4,85.1,210.4,85.5z"/>
	<path class="st43" d="M216.1,77.5c-0.2-0.4-0.4-0.7-0.8-0.9c-0.1-0.1-0.3-0.1-0.4-0.1c-0.9-0.1-1.8,0.8-2,2.1
		c-0.2,1.3,0.4,2.4,1.3,2.6c0.9,0.1,1.8-0.8,2-2.1C216.4,78.5,216.3,78,216.1,77.5z"/>
	<linearGradient id="SVGID_27_" gradientUnits="userSpaceOnUse" x1="170.7243" y1="100.3541" x2="200.2932" y2="125.1653">
		<stop  offset="0" style="stop-color:#2C56F2;stop-opacity:0"/>
		<stop  offset="1" style="stop-color:#2C56F2"/>
	</linearGradient>
	<path class="st64" d="M210.4,85.5v27.1c0,0.6-0.4,1.1-1,1.2l-62.6,14.9l37.9-37.9l25-6C210.1,84.9,210.4,85.1,210.4,85.5z"/>
	<path class="st5" d="M142.5,96L142.5,96c-1.2,0-2.1-1-2.1-2.1V55.2c0-1.2,1-2.1,2.1-2.1l0,0c1.2,0,2.1,1,2.1,2.1v38.6
		C144.6,95,143.7,96,142.5,96z"/>
	<path class="st5" d="M150.6,94.4L150.6,94.4c-1.8,0-3.2-1.4-3.2-3.2v-14c0-1.8,1.4-3.2,3.2-3.2h0c1.8,0,3.2,1.4,3.2,3.2v14
		C153.8,92.9,152.4,94.4,150.6,94.4z"/>
	<path class="st5" d="M178.7,56.8L178.7,56.8c-1.8,0-3.2-1.4-3.2-3.2v-14c0-1.8,1.4-3.2,3.2-3.2l0,0c1.8,0,3.2,1.4,3.2,3.2v14
		C181.8,55.4,180.4,56.8,178.7,56.8z"/>
	<path class="st5" d="M194.7,85.1L194.7,85.1c-1.8,0-3.2-1.4-3.2-3.2v-5.5c0-1.8,1.4-3.2,3.2-3.2l0,0c1.8,0,3.2,1.4,3.2,3.2v5.5
		C197.9,83.6,196.5,85.1,194.7,85.1z"/>
</g>
<g>
	<g>
		<linearGradient id="SVGID_28_" gradientUnits="userSpaceOnUse" x1="23.9331" y1="-2.8083" x2="281.9331" y2="253.1917">
			<stop  offset="0" style="stop-color:#3F40B4"/>
			<stop  offset="1" style="stop-color:#FB79B1"/>
		</linearGradient>
		<path class="st65" d="M49.7,235.1c4.5,2.4,9.3,4.5,14.6,6.3c11,3.6,22.7,4.9,34.2,5.5c11.5,0.6,24.2,1.9,35.7,0.8
			c25.8-2.5,53-2.2,78.2,3.6c7.8,1.8,13.4,8.7,21.3,11.2c21.5,6.8,46.6,2.3,63.9-11.5c27.3-21.8,22.5-53.9,10.5-82.2
			c-3.6-8.5-9-16.2-10-25.6c-1.6-15.7,8.9-26.9,10.6-41.5c1.8-15-0.9-32.5-9.8-45.3c-13.1-18.8-31.2-34.5-52.2-45.1
			c-27.4-13.8-53.4-15.4-81.9-1.7c-7.1,3.4-13.1,8.8-20,12.5c-7.4,3.9-15,7.3-23,9.9c-15.5,5.1-32.2,7.6-48.2,8.2
			c-16.8,0.6-33.4,4.3-45.3,17C-14.6,102.9-9.7,202.9,49.7,235.1z"/>
		<linearGradient id="SVGID_29_" gradientUnits="userSpaceOnUse" x1="-8.9339" y1="-41.8592" x2="296.884" y2="300.4508">
			<stop  offset="0" style="stop-color:#3F40B4"/>
			<stop  offset="1" style="stop-color:#FB79B1"/>
		</linearGradient>
		<path class="st66" d="M173.9,16.3c-7.4,2-14.3,4.8-21.6,7.3c-7.7,2.7-15.6,5.3-23.4,8c-15.4,5.1-31,10-45.7,14.9
			c-15.1,4.9-29.6,12.4-40.7,25c-21.9,25.1-33.3,60.7-31.1,96.7c0,0,0,0,0,0l0,0c2.1,33.5,23.7,62.7,54.8,70.5
			c2.2,1.2,8.6,2.1,16.8,3.2c11.4,1.6,24.8,2.6,37.8,3c16.4,0.4,32.3,1.1,39.2,0.6c21-1.5,42.4-2.9,62-3.2c6.1-0.1,11,2.2,17,2.1
			c16.5-0.1,34-7.2,46.8-19.4c18.8-18.1,20.2-42.5,15.6-65.8c-1.4-6.9-3.9-13.5-4.4-21.1c-0.9-15,1.9-25.3-1-36.4
			c-3.2-12.1-10.3-24.1-18.7-35.6C266.2,50.9,253.2,37,238,26.9c-18.6-12.3-37.5-17.5-60.5-11.6C176.3,15.6,175.1,15.9,173.9,16.3z"
			/>
		<linearGradient id="SVGID_30_" gradientUnits="userSpaceOnUse" x1="-21.5319" y1="-68.1476" x2="294.5804" y2="331.6619">
			<stop  offset="0" style="stop-color:#3F40B4"/>
			<stop  offset="1" style="stop-color:#FB79B1"/>
		</linearGradient>
		<path class="st67" d="M185.8,23c-1,0-1.9,0-2.9,0C100.6,24.7,21.7,93.9,21.7,181v0l0,0c0,33.7,27.3,61,61,61
			c0,0,97.8,1.1,103.1,1.1c60.8,0,110-49.3,110-110c0-31.1-25.7-38.4-40.2-57.1C235.5,50.1,221.1,23,185.8,23z"/>
	</g>
	<g>
		<polygon class="st6" points="144.5,60.4 137.6,62 143,65 145.4,62.4 		"/>
		<polygon class="st6" points="195.8,219.3 189.2,220.9 188.6,215.6 194.9,213 		"/>
		<path class="st6" d="M198.2,89.6v126.8c0,2.2-2.3,3.6-4.2,2.7l-48.1-23.3c-2.2-1.1-3.6-3.3-3.6-5.7V63.2c0-2.2,2.3-3.6,4.2-2.7
			l48.1,23.3C196.8,85,198.2,87.2,198.2,89.6z"/>
		<path class="st17" d="M191.4,91.3V218c0,2.2-2.3,3.6-4.2,2.7L139,197.4c-2.2-1.1-3.6-3.3-3.6-5.7V64.9c0-2.2,2.3-3.6,4.2-2.7
			l48.1,23.3C190,86.6,191.4,88.8,191.4,91.3z"/>
		<path class="st12" d="M187.6,95.8v105.9c0,0.3-0.3,0.6-0.7,0.4l-47.1-22.8c-0.4-0.2-0.7-0.6-0.7-1.1V75.2c0-0.3,0.4-3.5,0.7-3.3
			l47.1,22.8C187.3,94.9,187.6,95.3,187.6,95.8z"/>
		<path class="st6" d="M170.5,201.3v5c0,0.9-1,1.5-1.8,1.1l-10.6-5.1c-1.1-0.5-1.8-1.7-1.8-2.9v-5c0-0.9,1-1.5,1.8-1.1l10.6,5.1
			C169.8,198.9,170.5,200.1,170.5,201.3z"/>
		<g>
			<linearGradient id="SVGID_31_" gradientUnits="userSpaceOnUse" x1="111.2193" y1="153.8351" x2="111.2193" y2="79.2816">
				<stop  offset="0" style="stop-color:#F2F2F2;stop-opacity:0"/>
				<stop  offset="1" style="stop-color:#F2F2F2"/>
			</linearGradient>
			<path class="st68" d="M129.6,97.5v56c0,0.3-0.3,0.4-0.5,0.3l-35.8-17.3c-0.3-0.2-0.5-0.5-0.5-0.8v-56c0-0.3,0.3-0.4,0.5-0.3
				l35.8,17.3C129.4,96.8,129.6,97.1,129.6,97.5z"/>
			<g class="st69">
				<g>
					<g>
						<path class="st70" d="M103.6,99.5c0.8-1.8,2-3.2,3.5-4c0.6-0.3,1.2-0.5,1.8-0.6c4.2-0.6,8.3,3.6,9.2,9.5
							c0.8,5.8-1.9,11-6.2,11.6c-4.2,0.6-8.3-3.6-9.2-9.5C102.4,104,102.7,101.5,103.6,99.5z"/>
					</g>
				</g>
				<polyline class="st70" points="106.1,105.3 108.8,109.4 114.6,102.6 				"/>
			</g>
			<path class="st71" d="M123.2,131.2v2.7c0,0.2-0.2,0.3-0.3,0.2l-23.2-11.2c-0.2-0.1-0.3-0.3-0.3-0.5v-2.7c0-0.2,0.2-0.3,0.3-0.2
				l23.2,11.2C123,130.7,123.2,130.9,123.2,131.2z"/>
			<path class="st71" d="M123.2,138.2v2.7c0,0.2-0.2,0.3-0.3,0.2l-23.2-11.2c-0.2-0.1-0.3-0.3-0.3-0.5v-2.7c0-0.2,0.2-0.3,0.3-0.2
				l23.2,11.2C123,137.8,123.2,138,123.2,138.2z"/>
		</g>
		<polygon class="st6" points="170.5,80.1 170.5,81.5 156.3,74.6 156.3,73.2 		"/>
		<path class="st16" d="M193.6,230.5l-5.8,1.4c-0.5,0.1-0.9,0.1-1.4-0.1L137,207.8c-0.5-0.2-0.4-0.9,0.1-1l5.8-1.4
			c0.5-0.1,0.9-0.1,1.4,0.1l49.4,23.9C194.2,229.7,194.2,230.4,193.6,230.5z"/>
		<g>
			<g>
				<g>
					<path class="st35" d="M111.1,181.4v5.9c0,1.9-2.3,3.6-5.9,4.6c-0.7,0.2-1.5,0.4-2.2,0.6c-1.9,0.4-4,0.6-6.3,0.7
						c-0.4,0-0.7,0-1.1,0c-0.4,0-0.8,0-1.1,0c-2.3-0.1-4.4-0.3-6.3-0.7c-0.8-0.2-1.5-0.3-2.2-0.6c-3.6-1.1-5.9-2.8-5.9-4.6v-5.9
						H111.1z"/>
				</g>
				<g>
					<path class="st72" d="M96.7,187.3v5.9c-0.4,0-0.7,0-1.1,0c-0.4,0-0.8,0-1.1,0v-5.9c0.4,0,0.7,0,1.1,0
						C95.9,187.3,96.3,187.3,96.7,187.3z"/>
				</g>
				<g>
					<path class="st72" d="M105.2,186v5.9c-0.7,0.2-1.5,0.4-2.2,0.6v-5.9C103.7,186.4,104.5,186.2,105.2,186z"/>
				</g>
				<g>
					<path class="st72" d="M88.2,186.6v5.9c-0.8-0.2-1.5-0.3-2.2-0.6V186C86.6,186.2,87.4,186.4,88.2,186.6z"/>
				</g>
				<g>
					<ellipse class="st33" cx="95.6" cy="181.4" rx="15.6" ry="5.9"/>
				</g>
				<path id="XMLID_3919_" class="st35" d="M98.1,183.4l-4.3-0.5l0.4-0.8l1.2,0.1l0,0l0.5,0.1c1.6,0.2,2.9-0.4,3.3-1.3
					c0.4-0.9,0-1.7-1.7-2l-2.7-0.4l-1.4,2.7l-0.8-0.1l-0.3,0.6l0.8,0.1l-0.4,0.8l-0.8-0.1l-0.3,0.5l0.8,0.1l-0.4,0.9l1.1,0.1
					l0.4-0.9l4.3,0.5L98.1,183.4z M95.6,179.4l1.6,0.2c0.9,0.1,1.3,0.6,1,1.3s-1.1,1-2,0.9l-0.4-0.1l0,0l-1.2-0.1L95.6,179.4z"/>
				<path class="st73" d="M95.6,185.6c-9,0-13.9-2.8-13.9-4.2s4.9-4.2,13.9-4.2s13.9,2.8,13.9,4.2S104.5,185.6,95.6,185.6z"/>
			</g>
			<g>
				<g>
					<path class="st35" d="M111.1,174.2v5.9c0,1.9-2.3,3.6-5.9,4.6c-0.7,0.2-1.5,0.4-2.2,0.6c-1.9,0.4-4,0.6-6.3,0.7
						c-0.4,0-0.7,0-1.1,0c-0.4,0-0.8,0-1.1,0c-2.3-0.1-4.4-0.3-6.3-0.7c-0.8-0.2-1.5-0.3-2.2-0.6c-3.6-1.1-5.9-2.8-5.9-4.6v-5.9
						H111.1z"/>
				</g>
				<g>
					<path class="st72" d="M96.7,180.1v5.9c-0.4,0-0.7,0-1.1,0c-0.4,0-0.8,0-1.1,0v-5.9c0.4,0,0.7,0,1.1,0
						C95.9,180.1,96.3,180.1,96.7,180.1z"/>
				</g>
				<g>
					<path class="st72" d="M105.2,178.9v5.9c-0.7,0.2-1.5,0.4-2.2,0.6v-5.9C103.7,179.3,104.5,179.1,105.2,178.9z"/>
				</g>
				<g>
					<path class="st72" d="M88.2,179.4v5.9c-0.8-0.2-1.5-0.3-2.2-0.6v-5.9C86.6,179.1,87.4,179.3,88.2,179.4z"/>
				</g>
				<g>
					<ellipse class="st33" cx="95.6" cy="174.2" rx="15.6" ry="5.9"/>
				</g>
				<path id="XMLID_4053_" class="st35" d="M98.1,176.2l-4.3-0.5l0.4-0.8l1.2,0.1l0,0l0.5,0.1c1.6,0.2,2.9-0.4,3.3-1.3s0-1.7-1.7-2
					l-2.7-0.4l-1.4,2.7l-0.8-0.1l-0.3,0.6l0.8,0.1l-0.4,0.8l-0.8-0.1l-0.3,0.5l0.8,0.1l-0.4,0.9l1.1,0.1l0.4-0.9l4.3,0.5L98.1,176.2
					z M95.6,172.2l1.6,0.2c0.9,0.1,1.3,0.6,1,1.3c-0.3,0.6-1.1,1-2,0.9l-0.4-0.1l0,0l-1.2-0.1L95.6,172.2z"/>
				<path class="st73" d="M95.6,178.4c-9,0-13.9-2.8-13.9-4.2c0-1.4,4.9-4.2,13.9-4.2s13.9,2.8,13.9,4.2
					C109.4,175.7,104.5,178.4,95.6,178.4z"/>
			</g>
			<g>
				<g>
					<path class="st35" d="M111.1,167.1v5.9c0,1.9-2.3,3.6-5.9,4.6c-0.7,0.2-1.5,0.4-2.2,0.6c-1.9,0.4-4,0.6-6.3,0.7
						c-0.4,0-0.7,0-1.1,0c-0.4,0-0.8,0-1.1,0c-2.3-0.1-4.4-0.3-6.3-0.7c-0.8-0.2-1.5-0.3-2.2-0.6c-3.6-1.1-5.9-2.8-5.9-4.6v-5.9
						H111.1z"/>
				</g>
				<g>
					<path class="st72" d="M96.7,173v5.9c-0.4,0-0.7,0-1.1,0c-0.4,0-0.8,0-1.1,0V173c0.4,0,0.7,0,1.1,0C95.9,173,96.3,173,96.7,173z
						"/>
				</g>
				<g>
					<path class="st72" d="M105.2,171.7v5.9c-0.7,0.2-1.5,0.4-2.2,0.6v-5.9C103.7,172.1,104.5,171.9,105.2,171.7z"/>
				</g>
				<g>
					<path class="st72" d="M88.2,172.3v5.9c-0.8-0.2-1.5-0.3-2.2-0.6v-5.9C86.6,171.9,87.4,172.1,88.2,172.3z"/>
				</g>
				<g>
					<ellipse class="st33" cx="95.6" cy="167.1" rx="15.6" ry="5.9"/>
				</g>
				<path id="XMLID_4224_" class="st35" d="M98.1,169.1l-4.3-0.5l0.4-0.8l1.2,0.1l0,0l0.5,0.1c1.6,0.2,2.9-0.4,3.3-1.3
					c0.4-0.9,0-1.7-1.7-2l-2.7-0.4l-1.4,2.7l-0.8-0.1l-0.3,0.6l0.8,0.1l-0.4,0.8l-0.8-0.1l-0.3,0.5l0.8,0.1l-0.4,0.9l1.1,0.1
					l0.4-0.9l4.3,0.5L98.1,169.1z M95.6,165.1l1.6,0.2c0.9,0.1,1.3,0.6,1,1.3s-1.1,1-2,0.9l-0.4-0.1l0,0l-1.2-0.1L95.6,165.1z"/>
				<path class="st73" d="M95.6,171.3c-9,0-13.9-2.8-13.9-4.2s4.9-4.2,13.9-4.2s13.9,2.8,13.9,4.2S104.5,171.3,95.6,171.3z"/>
			</g>
			<ellipse class="st16" cx="95.7" cy="166" rx="8.1" ry="1.9"/>
			<path class="st35" d="M104.7,152.5c-0.6,4-2.2,7.5-4.4,10c-1.2,1.3-2.5,2.4-3.9,3.1l1.5,1.1h-5.8v0c-0.4,0-0.8,0-1.2-0.1
				c-0.4-0.1-0.8-0.1-1.1-0.2c-1.4-0.4-2.7-1.2-3.9-2.2c-1.5-1.4-2.7-3.4-3.5-5.7c-0.2-0.7-0.4-1.5-0.6-2.2
				c-0.3-1.6-0.4-3.2-0.3-4.9c0-0.7,0.1-1.4,0.2-2.1v0c0.1-0.8,0.3-1.5,0.5-2.2c0.6-2.3,1.5-4.3,2.6-6c0.5-0.8,1.1-1.6,1.8-2.2
				c2.3-2.5,5.3-3.9,8.3-3.7l0,0h4.9l-1.7,0.8c0.1,0.1,0.2,0.1,0.3,0.2c2.2,1.2,4.1,3.3,5.2,6C104.8,144.9,105.3,148.6,104.7,152.5z
				"/>
			<path class="st33" d="M109.1,141.8c-1.2-2.7-3-4.8-5.2-6c-0.9-0.5-1.8-0.8-2.8-0.9c-6.3-0.9-12.5,5.4-13.8,14.1
				c-1.3,8.7,2.8,16.6,9.2,17.5c6.3,0.9,12.5-5.4,13.8-14.1C110.9,148.6,110.4,144.9,109.1,141.8z"/>
			<linearGradient id="SVGID_32_" gradientUnits="userSpaceOnUse" x1="91.1763" y1="166.7106" x2="91.1763" y2="151.2432">
				<stop  offset="0" style="stop-color:#856839"/>
				<stop  offset="1" style="stop-color:#EFD17D;stop-opacity:0"/>
			</linearGradient>
			<path class="st74" d="M100.9,151.8l-0.6,10.6c-1.2,1.3-2.5,2.4-3.9,3.1l1.5,1.1h-5.8v0c-0.4,0-0.8,0-1.2-0.1
				c-5.8-0.9-9.8-7.5-9.4-15.4L100.9,151.8z"/>
			<path class="st72" d="M90.9,146.9v2.2h-9.2c0.1-0.8,0.3-1.5,0.5-2.2H90.9z"/>
			<path class="st72" d="M93.5,138.6v2.2h-8.7c0.5-0.8,1.1-1.6,1.8-2.2H93.5z"/>
			<path class="st72" d="M91.5,156.2v2.2h-9c-0.2-0.7-0.4-1.5-0.6-2.2H91.5z"/>
			<path class="st33" d="M109.1,141.8c-1.2-2.7-3-4.8-5.2-6c-0.9-0.5-1.8-0.8-2.8-0.9c-6.3-0.9-12.5,5.4-13.8,14.1
				c-1.3,8.7,2.8,16.6,9.2,17.5c6.3,0.9,12.5-5.4,13.8-14.1C110.9,148.6,110.4,144.9,109.1,141.8z"/>
			<path class="st75" d="M97.7,164.4c-0.3,0-0.6,0-0.9-0.1c-2.3-0.3-4.4-2-5.7-4.6c-1.5-2.9-2-6.5-1.5-10.3
				c1-6.9,5.5-12.2,10.3-12.2c0.3,0,0.6,0,0.9,0.1c0.7,0.1,1.4,0.3,2,0.7c1.7,0.9,3.2,2.6,4.1,4.8c1.2,2.7,1.6,6,1.1,9.4
				C107,159,102.5,164.4,97.7,164.4C97.7,164.4,97.7,164.4,97.7,164.4z"/>
			<path id="XMLID_1548_" class="st35" d="M101.6,152.9l-3.9,1.4l0-1.2l1.4-0.5l0,0l0.6-0.2c2.1-0.7,3.1-2.3,3.1-3.8
				c0-1.4-1.1-2.3-3.1-1.5l-3.4,1.2l0,4.4l-1,0.3l0,0.9l1-0.3l0,1.2l-1,0.3l0,0.9l1-0.3l0,1.4l1.4-0.5l0-1.4l3.9-1.4L101.6,152.9z
				 M97.7,148.7l2-0.7c1.2-0.4,1.9,0,1.9,1.1c0,1-0.7,2-1.9,2.4l-0.5,0.2l0,0l-1.4,0.5L97.7,148.7z"/>
			<ellipse class="st16" cx="95.4" cy="202" rx="12.8" ry="3.7"/>
		</g>
		<g>
			<path class="st13" d="M184.8,119.6v65.1c0,0.3-0.3,0.5-0.6,0.4l-41.7-20.2c-0.4-0.2-0.6-0.6-0.6-1V98.8c0-0.3,0.3-0.5,0.6-0.4
				l41.7,20.2C184.6,118.8,184.8,119.1,184.8,119.6z"/>
			<g>
				<g>
					<g>
						<path class="st76" d="M154.6,121.9c0.9-2.1,2.3-3.7,4-4.6c0.7-0.3,1.4-0.6,2.1-0.7c4.9-0.7,9.7,4.2,10.7,11
							c1,6.8-2.2,12.8-7.2,13.5c-4.9,0.7-9.7-4.2-10.7-11C153.1,127.1,153.5,124.3,154.6,121.9z"/>
					</g>
				</g>
				<polyline class="st76" points="157.4,128.7 160.6,133.4 167.3,125.5 				"/>
			</g>
			<path class="st71" d="M177.3,158.7v3.1c0,0.2-0.2,0.3-0.4,0.2l-27-13.1c-0.2-0.1-0.4-0.4-0.4-0.6v-3.1c0-0.2,0.2-0.3,0.4-0.2
				l27,13.1C177.1,158.2,177.3,158.5,177.3,158.7z"/>
			<path class="st71" d="M177.3,166.9v3.1c0,0.2-0.2,0.3-0.4,0.2l-27-13.1c-0.2-0.1-0.4-0.4-0.4-0.6v-3.1c0-0.2,0.2-0.3,0.4-0.2
				l27,13.1C177.1,166.4,177.3,166.6,177.3,166.9z"/>
		</g>
		<path class="st6" d="M187.6,93.8v4.9l-48.5-23.5v-4.9c0-0.3,0.4-0.5,0.7-0.4l47.1,22.8C187.3,92.9,187.6,93.3,187.6,93.8z"/>
		<g>
			<g>
				<g>
					<g>
						<linearGradient id="SVGID_33_" gradientUnits="userSpaceOnUse" x1="210.5522" y1="162.1187" x2="239.2084" y2="162.1187">
							<stop  offset="0" style="stop-color:#F0699C;stop-opacity:0"/>
							<stop  offset="1" style="stop-color:#F03B9C"/>
						</linearGradient>
						<path class="st77" d="M212.4,151.1c1.4-3.3,3.6-5.9,6.4-7.3c1.1-0.5,2.2-0.9,3.4-1.1c7.8-1.1,15.3,6.7,16.8,17.3
							c1.5,10.7-3.5,20.2-11.3,21.3c-7.8,1.1-15.3-6.7-16.8-17.3C210.1,159.4,210.8,154.8,212.4,151.1z"/>
						<path class="st23" d="M210.3,151.1c1.4-3.3,3.6-5.9,6.4-7.3c1.1-0.5,2.2-0.9,3.4-1.1c7.8-1.1,15.3,6.7,16.8,17.3
							c1.5,10.7-3.5,20.2-11.3,21.3c-7.8,1.1-15.3-6.7-16.8-17.3C208,159.3,208.7,154.8,210.3,151.1z"/>
					</g>
				</g>
			</g>
			<line class="st78" x1="217.5" y1="159.6" x2="228" y2="164.7"/>
			<line class="st78" x1="222.8" y1="155.4" x2="222.8" y2="168.8"/>
		</g>
		<path class="st17" d="M219.5,84.2v33.6c0,2-2,3.2-3.8,2.4l-43.1-20.9c-2-1-3.2-2.9-3.2-5.1V60.6c0-2,2-3.2,3.8-2.4l43.1,20.9
			C218.3,80.1,219.5,82.1,219.5,84.2z"/>
		<path class="st22" d="M219.1,84.5v33.6c0,2-2,3.2-3.8,2.4l-43.1-20.9c-2-1-3.2-2.9-3.2-5.1V60.9c0-2,2-3.2,3.8-2.4l43.1,20.9
			C217.9,80.4,219.1,82.3,219.1,84.5z"/>
		<path class="st33" d="M179.2,77.3v4.9c0,0.5-0.5,0.8-1,0.6l-0.9-0.4l-0.5-0.2l-3-1.5l-0.5-0.2l-0.8-0.4c-0.6-0.3-1-0.9-1-1.5v-4.9
			c0-0.5,0.5-0.8,1-0.6l0.8,0.4l0.5,0.2l3,1.5l0.5,0.2l0.9,0.4C178.8,76,179.2,76.6,179.2,77.3z"/>
		<path class="st35" d="M178.7,82.8c-0.1,0-0.3,0-0.4-0.1l-5.7-2.8c-0.6-0.3-1-0.9-1-1.5v-4.9c0-0.4,0.4-0.7,0.8-0.7
			c-0.3,0.1-0.5,0.3-0.5,0.7v4.9c0,0.7,0.4,1.3,1,1.5l5.7,2.8C178.5,82.8,178.6,82.8,178.7,82.8z"/>
		<polygon class="st79" points="180.9,87.4 180.9,90.9 171.6,86.4 171.6,82.8 		"/>
		<polygon class="st79" points="189,102.7 189,104.2 171.6,95.8 171.6,94.2 		"/>
		<polygon class="st79" points="191.8,92.5 191.8,96 182.4,91.5 182.4,88 		"/>
		<polygon class="st79" points="202.6,97.6 202.6,101.1 193.3,96.6 193.3,93.1 		"/>
		<polygon class="st79" points="213.5,102.7 213.5,106.3 204.2,101.7 204.2,98.2 		"/>
		<g>
			<polygon class="st35" points="173.8,73.6 173.8,80.6 173.3,80.4 173.3,78.5 171.6,77.6 171.6,77.1 173.3,77.9 173.3,76.1 
				171.6,75.2 171.6,74.6 173.3,75.5 173.3,73.4 			"/>
			<path class="st35" d="M177.3,78v1.9l1.8,0.9v0.5l-1.8-0.9v1.9c0,0,0,0,0,0l-0.5-0.2v-7l0.5,0.2v2.1l1.8,0.9v0.5L177.3,78z"/>
		</g>
		<g>
			<path class="st33" d="M207.6,110.1c0.2-0.5,0.5-0.8,0.9-1c0.1-0.1,0.3-0.1,0.5-0.2c1.1-0.2,2.1,0.9,2.3,2.4
				c0.2,1.5-0.5,2.8-1.6,3c-1.1,0.2-2.1-0.9-2.3-2.4C207.3,111.2,207.4,110.6,207.6,110.1z"/>
			<path class="st23" d="M210,111.1c0.2-0.5,0.5-0.8,0.9-1c0.1-0.1,0.3-0.1,0.5-0.2c1.1-0.2,2.1,0.9,2.3,2.4c0.2,1.5-0.5,2.8-1.6,3
				c-1.1,0.2-2.1-0.9-2.3-2.4C209.7,112.3,209.8,111.6,210,111.1z"/>
		</g>
		<g>
			<circle class="st13" cx="225.5" cy="99" r="1"/>
			<circle class="st13" cx="212.5" cy="216" r="1"/>
			<circle class="st13" cx="202.8" cy="49.1" r="1"/>
			<circle class="st13" cx="265.1" cy="159.7" r="1"/>
			<circle class="st13" cx="121" cy="55.3" r="1"/>
			<circle class="st13" cx="69.1" cy="130.5" r="1"/>
			<circle class="st13" cx="111.2" cy="220" r="1"/>
			<circle class="st13" cx="42.1" cy="184.4" r="1"/>
			<circle class="st13" cx="238.7" cy="87.3" r="1"/>
			<circle class="st13" cx="164.6" cy="48.1" r="1"/>
			<circle class="st13" cx="248.2" cy="162" r="1.8"/>
			<circle class="st13" cx="87.4" cy="225.2" r="1.8"/>
			<circle class="st13" cx="48.1" cy="148" r="1.8"/>
		</g>
		<linearGradient id="SVGID_34_" gradientUnits="userSpaceOnUse" x1="238.4663" y1="120.7857" x2="245.6668" y2="120.7857">
			<stop  offset="0" style="stop-color:#EFD17D;stop-opacity:0"/>
			<stop  offset="1" style="stop-color:#EFD17D"/>
		</linearGradient>
		<circle class="st80" cx="242.1" cy="120.8" r="3.6"/>
		<linearGradient id="SVGID_35_" gradientUnits="userSpaceOnUse" x1="78.5947" y1="98.3942" x2="85.7952" y2="98.3942">
			<stop  offset="0" style="stop-color:#EFD17D;stop-opacity:0"/>
			<stop  offset="1" style="stop-color:#EFD17D"/>
		</linearGradient>
		<circle class="st81" cx="82.2" cy="98.4" r="3.6"/>
		<linearGradient id="SVGID_36_" gradientUnits="userSpaceOnUse" x1="251.6942" y1="106.2742" x2="255.5873" y2="106.2742">
			<stop  offset="0" style="stop-color:#EFD17D;stop-opacity:0"/>
			<stop  offset="1" style="stop-color:#EFD17D"/>
		</linearGradient>
		<circle class="st82" cx="253.6" cy="106.3" r="1.9"/>
		<linearGradient id="SVGID_37_" gradientUnits="userSpaceOnUse" x1="64.3026" y1="116.5583" x2="68.1957" y2="116.5583">
			<stop  offset="0" style="stop-color:#EFD17D;stop-opacity:0"/>
			<stop  offset="1" style="stop-color:#EFD17D"/>
		</linearGradient>
		<circle class="st83" cx="66.2" cy="116.6" r="1.9"/>
	</g>
</g>
</svg>
