<?xml version="1.0" encoding="utf-8"?>
<!-- Generator: Adobe Illustrator 21.1.0, SVG Export Plug-In . SVG Version: 6.00 Build 0)  -->
<svg version="1.1" id="Layer_1" xmlns="http://www.w3.org/2000/svg" xmlns:xlink="http://www.w3.org/1999/xlink" x="0px" y="0px"
	 width="49px" height="49px" viewBox="0 0 49 49" style="enable-background:new 0 0 49 49;" xml:space="preserve">
<style type="text/css">
	.st0{display:none;}
	.st1{display:inline;fill:#2E2170;}
	.st2{display:inline;}
	.st3{fill:#FFFFFF;}
	.st4{fill:#2E2170;}
</style>
<g class="st0">
	<circle id="XMLID_41_" class="st1" cx="24.5" cy="24.5" r="24.2"/>
	<g id="XMLID_1060_" class="st2">
		<g>
			<g id="XMLID_47_">
				<path id="XMLID_55_" class="st3" d="M25.7,29.4c-1.7,0-3.2-0.6-4.4-1.8c-0.7-0.7-1.2-1.6-1.5-2.5c-0.1-0.4,0.1-0.9,0.6-1.1
					c0.5-0.1,0.9,0.1,1.1,0.6c0.2,0.7,0.6,1.3,1.1,1.8c0.8,0.8,2,1.3,3.2,1.3c1.2,0,2.3-0.5,3.2-1.3l6.9-6.9c1.8-1.8,1.8-4.6,0-6.4
					c-1.8-1.8-4.6-1.8-6.4,0l-4.6,4.6c-0.3,0.3-0.9,0.3-1.2,0c-0.3-0.3-0.3-0.9,0-1.2l4.6-4.6c2.4-2.4,6.3-2.4,8.8,0
					c2.4,2.4,2.4,6.3,0,8.8l-6.9,6.9C29,28.8,27.4,29.4,25.7,29.4z"/>
			</g>
			<g id="XMLID_45_">
				<path id="XMLID_46_" class="st3" d="M16.4,38.8c-1.6,0-3.2-0.6-4.4-1.8c-2.4-2.4-2.4-6.3,0-8.8l6.9-6.9c2.4-2.4,6.3-2.4,8.8,0
					c0.7,0.7,1.2,1.6,1.5,2.5c0.1,0.4-0.1,0.9-0.6,1.1c-0.4,0.1-0.9-0.1-1.1-0.6c-0.2-0.7-0.6-1.3-1.1-1.8c-1.8-1.8-4.6-1.8-6.4,0
					l-6.9,6.9c-1.8,1.8-1.8,4.6,0,6.4c1.8,1.8,4.6,1.8,6.4,0l4.6-4.6c0.3-0.3,0.9-0.3,1.2,0c0.3,0.3,0.3,0.9,0,1.2L20.7,37
					C19.5,38.2,18,38.8,16.4,38.8z"/>
			</g>
		</g>
	</g>
</g>
<g>
	<circle id="XMLID_578_" class="st4" cx="24.5" cy="24.5" r="24.2"/>
	<g id="XMLID_1071_">
		<g>
			<path id="XMLID_50_" class="st3" d="M10.1,39.8c-0.2,0-0.4-0.1-0.6-0.2c-0.3-0.3-0.3-0.9,0-1.2l17.7-17.7c0.3-0.3,0.9-0.3,1.2,0
				c0.3,0.3,0.3,0.9,0,1.2L10.7,39.5C10.5,39.7,10.3,39.8,10.1,39.8z"/>
			<path id="XMLID_40_" class="st3" d="M29.5,27.8c0,0-0.1,0-0.1,0c-0.3-0.1-0.6-0.3-0.7-0.6l-1.6-5.3l-5.3-1.6
				c-0.3-0.1-0.5-0.4-0.6-0.7c-0.1-0.3,0.1-0.6,0.3-0.8l4.5-3.2L26,10.1c0-0.3,0.2-0.6,0.5-0.8c0.3-0.1,0.6-0.1,0.9,0.1l4.4,3.3
				l5.2-1.8c0.3-0.1,0.6,0,0.9,0.2c0.2,0.2,0.3,0.6,0.2,0.9l-1.8,5.2l3.3,4.4c0.2,0.3,0.2,0.6,0.1,0.9c-0.1,0.3-0.4,0.5-0.8,0.5h0
				l-5.5-0.1l-3.2,4.5C30.1,27.6,29.8,27.8,29.5,27.8z M24,19.2l4,1.3c0.3,0.1,0.5,0.3,0.6,0.6l1.3,4l2.4-3.5
				c0.2-0.2,0.4-0.3,0.7-0.4l4.2,0.1l-2.5-3.4c-0.2-0.2-0.2-0.5-0.1-0.8l1.4-4l-4,1.4c-0.3,0.1-0.6,0-0.8-0.1l-3.4-2.5l0.1,4.2
				c0,0.3-0.1,0.5-0.4,0.7L24,19.2z"/>
		</g>
	</g>
</g>
<g class="st0">
	<circle id="XMLID_162_" class="st1" cx="24.5" cy="24.5" r="24.2"/>
	<g id="XMLID_1075_" class="st2">
		<g>
			<g id="XMLID_86_">
				<path id="XMLID_87_" class="st3" d="M24.5,40.7c-5.1,0-13.3-7.3-13.3-10.8V12.1c0-0.4,0.3-0.7,0.7-0.8l12.4-2.9
					c0.1,0,0.3,0,0.4,0l12.4,2.9c0.4,0.1,0.7,0.4,0.7,0.8v17.8C37.8,33.4,29.6,40.7,24.5,40.7z M12.9,12.7v17.2
					c0,2.4,7.3,9.1,11.6,9.1s11.6-6.7,11.6-9.1V12.7L24.5,10L12.9,12.7z"/>
			</g>
			<path id="XMLID_83_" class="st3" d="M27,31.1H22c-0.5,0-0.8-0.4-0.8-0.8v-2.8h-2.8c-0.5,0-0.8-0.4-0.8-0.8v-5.1
				c0-0.5,0.4-0.8,0.8-0.8h2.8v-2.8c0-0.5,0.4-0.8,0.8-0.8H27c0.5,0,0.8,0.4,0.8,0.8v2.8h2.8c0.5,0,0.8,0.4,0.8,0.8v5.1
				c0,0.5-0.4,0.8-0.8,0.8h-2.8v2.8C27.9,30.7,27.5,31.1,27,31.1z M22.8,29.4h3.4v-2.8c0-0.5,0.4-0.8,0.8-0.8h2.8v-3.4H27
				c-0.5,0-0.8-0.4-0.8-0.8v-2.8h-3.4v2.8c0,0.5-0.4,0.8-0.8,0.8h-2.8v3.4H22c0.5,0,0.8,0.4,0.8,0.8V29.4z"/>
		</g>
	</g>
</g>
<g class="st0">
	<g id="XMLID_1079_" class="st2">
		<circle id="XMLID_264_" class="st4" cx="24.5" cy="24.5" r="24.2"/>
	</g>
	<g id="XMLID_1077_" class="st2">
		<g>
			<path id="XMLID_44_" class="st3" d="M24.5,38.1c-7.5,0-13.6-6.1-13.6-13.6c0-7.5,6.1-13.6,13.6-13.6S38.1,17,38.1,24.5
				C38.1,32,32,38.1,24.5,38.1z M24.5,12.6c-6.5,0-11.9,5.3-11.9,11.9S18,36.4,24.5,36.4S36.4,31,36.4,24.5S31,12.6,24.5,12.6z"/>
			<path id="XMLID_43_" class="st3" d="M29.2,25.3h-4.7c-0.5,0-0.8-0.4-0.8-0.8v-8.8c0-0.5,0.4-0.8,0.8-0.8s0.8,0.4,0.8,0.8v7.9h3.9
				c0.5,0,0.8,0.4,0.8,0.8C30.1,25,29.7,25.3,29.2,25.3z"/>
		</g>
	</g>
</g>
<g class="st0">
	<circle id="XMLID_640_" class="st1" cx="24.5" cy="24.5" r="24.2"/>
	<g id="XMLID_1081_" class="st2">
		<g>
			<path id="XMLID_73_" class="st3" d="M24.5,38.4c-7.6,0-13.9-6.2-13.9-13.9s6.2-13.9,13.9-13.9s13.9,6.2,13.9,13.9
				S32.1,38.4,24.5,38.4z M24.5,12.3c-6.7,0-12.2,5.5-12.2,12.2s5.5,12.2,12.2,12.2s12.2-5.5,12.2-12.2S31.2,12.3,24.5,12.3z"/>
			<path id="XMLID_72_" class="st3" d="M24.5,34.6c-4.4,0-8.2-3-9.3-7.3c-0.1-0.5,0.2-0.9,0.6-1c0.5-0.1,0.9,0.2,1,0.6
				c0.9,3.5,4,6,7.6,6s6.7-2.5,7.6-6c0.1-0.5,0.6-0.7,1-0.6c0.5,0.1,0.7,0.6,0.6,1C32.7,31.6,28.9,34.6,24.5,34.6z"/>
			<circle id="XMLID_71_" class="st3" cx="19.7" cy="22.4" r="1.4"/>
			<circle id="XMLID_70_" class="st3" cx="29.3" cy="22.4" r="1.4"/>
		</g>
	</g>
</g>
<g class="st0">
	<circle id="XMLID_806_" class="st1" cx="24.5" cy="24.5" r="24.2"/>
	<g id="XMLID_1068_" class="st2">
		<g>
			<path id="XMLID_31_" class="st3" d="M24.5,32.1c-0.2,0-0.4-0.1-0.6-0.2l-7.8-7.8c-0.3-0.3-0.3-0.9,0-1.2c0.3-0.3,0.9-0.3,1.2,0
				l6.3,6.3V12c0-0.5,0.4-0.8,0.8-0.8c0.5,0,0.8,0.4,0.8,0.8v19.2c0,0.3-0.2,0.7-0.5,0.8C24.7,32.1,24.6,32.1,24.5,32.1z"/>
			<path id="XMLID_30_" class="st3" d="M24.5,32.1c-0.2,0-0.4-0.1-0.6-0.2c-0.3-0.3-0.3-0.9,0-1.2l7.8-7.8c0.3-0.3,0.9-0.3,1.2,0
				c0.3,0.3,0.3,0.9,0,1.2l-7.8,7.8C24.9,32,24.7,32.1,24.5,32.1z"/>
			<path id="XMLID_29_" class="st3" d="M32.3,37.8H16.7c-0.5,0-0.8-0.4-0.8-0.8s0.4-0.8,0.8-0.8h15.6c0.5,0,0.8,0.4,0.8,0.8
				S32.7,37.8,32.3,37.8z"/>
		</g>
	</g>
</g>
</svg>
