<?xml version="1.0" encoding="utf-8"?>
<!-- Generator: Adobe Illustrator 21.1.0, SVG Export Plug-In . SVG Version: 6.00 Build 0)  -->
<svg version="1.1" id="Layer_1" xmlns="http://www.w3.org/2000/svg" xmlns:xlink="http://www.w3.org/1999/xlink" x="0px" y="0px"
	 width="48.4px" height="48.4px" viewBox="0 0 48.4 48.4" style="enable-background:new 0 0 48.4 48.4;" xml:space="preserve">
<style type="text/css">
	.st0{fill:#2F2B70;}
	.st1{fill:#FFFFFF;}
</style>
<g>
	<g id="XMLID_1519_">
		<circle class="st0" cx="24.2" cy="24.2" r="24.2"/>
	</g>
	<g>
		<g>
			<path class="st0" d="M34.2,37.6H14.3c-0.5,0-0.9-0.4-0.9-0.9V24.8c0-0.5,0.4-0.9,0.9-0.9h19.9c0.5,0,0.9,0.4,0.9,0.9v11.9
				C35.1,37.2,34.7,37.6,34.2,37.6z"/>
			<path class="st1" d="M34.2,38.6H14.3c-1,0-1.9-0.8-1.9-1.9V24.8c0-1,0.8-1.9,1.9-1.9h19.9c1,0,1.9,0.8,1.9,1.9v11.9
				C36,37.7,35.2,38.6,34.2,38.6z M14.3,24.8l0,11.9l19.9,0c0,0,0,0,0,0l0-11.9L14.3,24.8z"/>
		</g>
		<g>
			<g>
				<path class="st1" d="M31.5,23.9L31.5,23.9c0-3.3,0-6.4-1-8.6c-0.7-1.6-2-3.4-6.3-3.4s-5.6,1.8-6.3,3.4c-1,2.2-1,5.3-1,8.6l-2,0
					c0-3.5,0-6.8,1.1-9.4c1.3-3.1,4-4.6,8.1-4.6s6.8,1.5,8.1,4.6c1.1,2.6,1.1,5.9,1.1,9.4L31.5,23.9z"/>
			</g>
		</g>
		<g>
			<circle class="st1" cx="24.2" cy="29.4" r="1.5"/>
		</g>
		<g>
			<rect x="23.6" y="29.4" class="st1" width="1.2" height="4.2"/>
		</g>
	</g>
</g>
</svg>
