<?xml version="1.0" encoding="utf-8"?>
<!-- Generator: Adobe Illustrator 21.1.0, SVG Export Plug-In . SVG Version: 6.00 Build 0)  -->
<svg version="1.1" id="Layer_1" xmlns="http://www.w3.org/2000/svg" xmlns:xlink="http://www.w3.org/1999/xlink" x="0px" y="0px"
	 width="48.4px" height="48.4px" viewBox="0 0 48.4 48.4" style="enable-background:new 0 0 48.4 48.4;" xml:space="preserve">
<style type="text/css">
	.st0{fill:#2F2B70;}
	.st1{fill:#FFFFFF;}
</style>
<g>
	<g id="XMLID_1484_">
		<circle class="st0" cx="24.2" cy="24.2" r="24.2"/>
	</g>
	<g>
		<g>
			<path class="st1" d="M12.6,30.3h-2.6c-1.2,0-2.2-1-2.2-2.2V17.2c0-1.2,1-2.2,2.2-2.2h2.6c1.2,0,2.2,1,2.2,2.2v10.9
				C14.9,29.3,13.9,30.3,12.6,30.3z M10.1,17c-0.1,0-0.2,0.1-0.2,0.2v10.9c0,0.1,0.1,0.2,0.2,0.2h2.6c0.1,0,0.2-0.1,0.2-0.2V17.2
				c0-0.1-0.1-0.2-0.2-0.2H10.1z"/>
		</g>
		<g>
			<path class="st1" d="M25.1,33.4c-1.6,0-3.2-0.4-4.6-1.3l-7.2-4.6c-0.5-0.3-0.6-0.9-0.3-1.4c0.3-0.5,0.9-0.6,1.4-0.3l7.2,4.6
				c2.1,1.4,4.9,1.4,7,0l9.4-5.9c0.9-0.5,0.5-1.4,0.4-1.5s-0.5-0.9-1.5-0.6l-9.8,3.2c-0.5,0.2-1.1-0.1-1.3-0.6
				c-0.2-0.5,0.1-1.1,0.6-1.3l9.8-3.2c1.6-0.5,3.2,0.1,3.9,1.6c0.7,1.5,0.2,3.2-1.2,4.1l-9.4,5.9C28.3,33,26.7,33.4,25.1,33.4z"/>
		</g>
		<g>
			<path class="st1" d="M19.5,22.3c-0.4,0-0.7-0.2-0.9-0.6c-0.6-1.1-1.7-1.9-3-1.9c-0.5,0-0.9,0.1-1.4,0.3c-0.5,0.2-1.1,0-1.3-0.5
				s0-1.1,0.5-1.3c0.7-0.3,1.4-0.5,2.2-0.5c2,0,3.9,1.1,4.8,3c0.2,0.5,0,1.1-0.5,1.3C19.8,22.2,19.7,22.3,19.5,22.3z"/>
		</g>
		<g>
			<path class="st1" d="M25.7,26.1c-0.6,0-1-0.4-1-1s0.4-1,1-1c0.5,0,0.9-0.4,0.9-0.9s-0.4-0.9-0.9-0.9c-0.6,0-1-0.4-1-1s0.4-1,1-1
				c1.6,0,2.9,1.3,2.9,2.9S27.3,26.1,25.7,26.1z"/>
		</g>
		<g>
			<path class="st1" d="M25.7,22.3h-6.2c-0.6,0-1-0.4-1-1s0.4-1,1-1h6.2c0.6,0,1,0.4,1,1S26.2,22.3,25.7,22.3z"/>
		</g>
		<g>
			<path class="st1" d="M25.7,26.1h-6.2c-0.6,0-1-0.4-1-1s0.4-1,1-1h6.2c0.6,0,1,0.4,1,1S26.2,26.1,25.7,26.1z"/>
		</g>
	</g>
</g>
</svg>
