<?xml version="1.0" encoding="utf-8"?>
<!-- Generator: Adobe Illustrator 21.1.0, SVG Export Plug-In . SVG Version: 6.00 Build 0)  -->
<svg version="1.1" id="Layer_1" xmlns="http://www.w3.org/2000/svg" xmlns:xlink="http://www.w3.org/1999/xlink" x="0px" y="0px"
	 width="317.2px" height="265.7px" viewBox="0 0 317.2 265.7" style="enable-background:new 0 0 317.2 265.7;" xml:space="preserve"
	>
<style type="text/css">
	.st0{display:none;}
	.st1{display:inline;}
	.st2{opacity:0.3;fill:url(#SVGID_1_);}
	.st3{opacity:0.65;fill:url(#SVGID_2_);}
	.st4{fill:url(#SVGID_3_);}
	.st5{fill:url(#SVGID_4_);}
	.st6{fill:#B52656;}
	.st7{fill:#F0699C;}
	.st8{display:inline;opacity:0.2;fill:#2F2B70;}
	.st9{fill:#2F2B70;}
	.st10{fill:#2C56F2;}
	.st11{fill:none;stroke:#AAEEFF;stroke-width:1.1586;stroke-linejoin:round;stroke-miterlimit:10;}
	.st12{fill:url(#SVGID_5_);}
	.st13{fill:#AAEEFF;}
	.st14{fill:none;stroke:#F0699C;stroke-width:1.1586;stroke-linejoin:round;stroke-miterlimit:10;}
	.st15{fill:url(#SVGID_6_);}
	.st16{fill:none;stroke:#EFD17D;stroke-width:1.1586;stroke-linecap:round;stroke-linejoin:round;stroke-miterlimit:10;}
	.st17{fill:url(#SVGID_7_);}
	.st18{fill:#EFD17D;}
	.st19{opacity:0.2;fill:#2F2B70;}
	.st20{fill:#CE9B1D;}
	.st21{fill:url(#SVGID_8_);}
	.st22{fill:url(#SVGID_9_);}
	.st23{fill:#FFFFFF;}
	.st24{fill:url(#SVGID_10_);}
	.st25{fill:url(#SVGID_11_);}
	.st26{opacity:0.1;fill:#2F2B70;}
	.st27{fill:url(#SVGID_12_);}
	.st28{fill:none;stroke:#3C3C99;stroke-width:2.2061;stroke-linecap:round;stroke-miterlimit:10;}
	.st29{fill:#3C3C99;}
	.st30{font-family:'ProximaNova-ExtrabldIt';}
	.st31{font-size:13.9116px;}
	.st32{fill:none;stroke:#2C56F2;stroke-width:2.1026;stroke-linecap:round;stroke-linejoin:round;stroke-miterlimit:10;}
	.st33{opacity:0.3;fill:url(#SVGID_13_);}
	.st34{opacity:0.65;fill:url(#SVGID_14_);}
	.st35{fill:url(#SVGID_15_);}
	.st36{fill:url(#SVGID_16_);}
	.st37{fill:url(#SVGID_17_);}
	.st38{fill:url(#SVGID_18_);}
	.st39{fill:url(#SVGID_19_);}
	.st40{fill:#F2F2F2;}
	.st41{opacity:0.8;fill:#FFFFFF;}
	.st42{opacity:0.7;}
	.st43{opacity:0.5;fill:#2C56F2;}
	.st44{fill:#1D1D56;}
	.st45{fill:url(#SVGID_20_);}
	.st46{fill:none;stroke:#2C56F2;stroke-width:1.2736;stroke-linecap:round;stroke-linejoin:round;stroke-miterlimit:10;}
	.st47{opacity:0.3;fill:url(#SVGID_21_);}
	.st48{opacity:0.65;fill:url(#SVGID_22_);}
	.st49{fill:url(#SVGID_23_);}
	.st50{display:inline;fill:#2C56F2;}
	.st51{display:inline;fill:#2F2B70;}
	.st52{display:inline;opacity:0.3;}
	.st53{display:inline;fill:#6B47B2;}
	.st54{opacity:0.4;fill:#F0699C;}
	.st55{fill:url(#SVGID_24_);}
	.st56{opacity:0.3;fill:#2F2B70;}
	.st57{opacity:0.4;fill:#FFE9B3;}
	.st58{fill:#FFE9B3;}
	.st59{fill:url(#SVGID_25_);}
	.st60{fill:#351066;}
	.st61{fill:url(#SVGID_26_);}
	.st62{fill:url(#SVGID_27_);}
	.st63{fill:url(#SVGID_28_);}
	.st64{display:inline;fill:none;stroke:#F2F2F2;stroke-linecap:round;stroke-miterlimit:10;}
	.st65{display:inline;fill:#FFFFFF;}
	.st66{fill:none;stroke:#F0699C;stroke-width:0.8597;stroke-linejoin:round;stroke-miterlimit:10;}
	.st67{fill:url(#SVGID_29_);}
	.st68{fill:none;stroke:#EFD17D;stroke-width:0.8597;stroke-linecap:round;stroke-linejoin:round;stroke-miterlimit:10;}
	.st69{fill:url(#SVGID_30_);}
</style>
<g class="st0">
	<g class="st1">
		
			<linearGradient id="SVGID_1_" gradientUnits="userSpaceOnUse" x1="-222.2546" y1="1169.4131" x2="346.7202" y2="1257.3795" gradientTransform="matrix(1 0 0 1 164.5123 -1075.3645)">
			<stop  offset="0" style="stop-color:#3F40B4"/>
			<stop  offset="1" style="stop-color:#FB79B1"/>
		</linearGradient>
		<path class="st2" d="M317.2,168.3c0,50.3-25.1,74.7-53.4,86.5c-1.9,0.8-3.8,1.5-5.7,2.2c-0.3,0.1-0.6,0.2-0.8,0.3
			c-1.2,0.4-2.5,0.9-3.8,1.2c-0.6,0.2-1.1,0.3-1.7,0.5c-1.5,0.4-2.9,0.8-4.4,1.2c-6.4,1.7-12.7,2.8-18.7,3.6c-1,0.1-2.1,0.3-3.1,0.4
			c-0.6,0.1-1.1,0.1-1.7,0.2c-0.4,0.1-0.9,0.1-1.3,0.1c-0.5,0.1-1.1,0.1-1.6,0.1c-1,0.1-1.9,0.2-2.9,0.2c-23.5,1.9-45.4,0-68.2-5.8
			c-13.1-3.3-26.2-6.5-39.6-8.6c-27.4-4.3-51.3-2.4-75.1-19.3C12.9,215.4,0,190.2,0,162C0,92.1,35.8,51.7,76.9,28.6S164.5,0,185.7,0
			c65.7,0,98.6,29.9,115.1,65.8C317.2,101.8,317.2,143.9,317.2,168.3z"/>
		
			<linearGradient id="SVGID_2_" gradientUnits="userSpaceOnUse" x1="-146.0939" y1="544.0913" x2="337.9949" y2="810.056" gradientTransform="matrix(1 0 0 1 82.2561 -537.6823)">
			<stop  offset="0" style="stop-color:#3F40B4"/>
			<stop  offset="1" style="stop-color:#FB79B1"/>
		</linearGradient>
		<path class="st3" d="M88.6,43.5c47.2-14.9,76.2-32.3,113.5-32.3c44.1,0,70.2,17.5,85.3,45.1c15.1,27.6,19.1,65.1,19.3,105.2
			c0,0.7,0,1.3,0,2c-0.4,40.9-19.7,63.7-47.4,76.2c-1.9,0.9-3.9,1.7-5.9,2.5c-0.3,0.1-0.6,0.2-0.9,0.3c-1.3,0.5-2.6,1-3.9,1.4
			c-0.6,0.2-1.1,0.4-1.7,0.6c-1.5,0.5-3,1-4.5,1.4c-6.3,1.8-12.9,3.2-19.5,4.3c-1.1,0.2-2.1,0.3-3.2,0.5c-0.6,0.1-1.2,0.2-1.8,0.3
			c-0.4,0.1-0.9,0.1-1.3,0.2c-0.6,0.1-1.1,0.1-1.7,0.2c-1,0.1-2,0.3-3,0.4c-22.4,2.6-45.9,2.5-71.8-0.6c-12.9-1.6-25.1-3.9-36.8-6.1
			c-26.8-5.2-47.7-10.6-65-27c-19.9-18.8-27.8-45.2-27.8-66.6C10.5,76.2,58.6,52.9,88.6,43.5z"/>
		<linearGradient id="SVGID_3_" gradientUnits="userSpaceOnUse" x1="-16.0374" y1="-72.4631" x2="308.9626" y2="298.537">
			<stop  offset="0" style="stop-color:#3F40B4"/>
			<stop  offset="1" style="stop-color:#FB79B1"/>
		</linearGradient>
		<path class="st4" d="M296.2,156.6c0,33.1-13.8,54.7-41.5,68.1s-69.1,18.5-124.5,18.5C34.7,243.2,21,169.1,21,141
			c0-80.8,61.9-82.7,79.1-82.7c55.1,0,64.9-35.9,118.3-35.9c22.4,0,41.7,5.2,55.5,24.4s22,52.2,22.2,108
			C296.2,155.4,296.2,156,296.2,156.6z"/>
	</g>
	<g class="st1">
		<linearGradient id="SVGID_4_" gradientUnits="userSpaceOnUse" x1="83.3887" y1="151.5904" x2="56.2492" y2="164.7551">
			<stop  offset="0" style="stop-color:#F0699C;stop-opacity:0"/>
			<stop  offset="1" style="stop-color:#F03B9C"/>
		</linearGradient>
		<path class="st5" d="M81.3,161v6.4c-0.2,0-0.4-0.1-0.6-0.1c-0.2-0.1-0.4-0.2-0.7-0.3l-21.7-10.5c-0.7-0.4-1.2-1.1-1.2-1.9v-5.1
			L81.3,161z"/>
		<path class="st6" d="M109.4,154.5v4.3c0,1.2-0.8,2.3-2,2.6l-24.7,5.9c-0.2,0.1-0.4,0.1-0.5,0.1c-0.3,0-0.5,0-0.8,0V161
			L109.4,154.5z"/>
		<path class="st7" d="M108.3,152.9l-21.8-10.6c-0.9-0.4-1.9-0.5-2.8-0.3l-25.2,6c-0.8,0.2-1.3,0.8-1.4,1.5
			c-0.1,0.1-0.1,0.2-0.1,0.4c0,0.7,0.3,1.3,1.1,1.7L80,162.1c0.4,0.2,0.9,0.3,1.4,0.4c0.5,0.1,1,0.1,1.4-0.1l25.2-6
			c0.9-0.2,1.4-1,1.4-1.8v-0.1C109.3,153.8,109,153.2,108.3,152.9z"/>
	</g>
	<path class="st8" d="M105.8,180.3l-19.6-9.5c-0.8-0.4-1.7-0.5-2.5-0.3L61,175.9c-0.7,0.2-1.1,0.7-1.2,1.3c-0.1,0.1-0.1,0.2-0.1,0.3
		c0,0.6,0.3,1.2,0.9,1.5l19.6,9.5c0.4,0.2,0.8,0.3,1.2,0.3c0.4,0.1,0.9,0.1,1.3-0.1l22.7-5.4c0.8-0.2,1.3-0.9,1.3-1.7v-0.1
		C106.7,181.2,106.4,180.6,105.8,180.3z"/>
	<path class="st8" d="M271.3,212.3l-89.5,21.4c-1.9,0.5-3.9,0.2-5.7-0.6l-47.4-23c-1.2-0.6-1-2.4,0.3-2.7l89.5-21.4
		c1.9-0.5,3.9-0.2,5.7,0.6l47.4,23C272.9,210.2,272.7,212,271.3,212.3z"/>
	<g class="st1">
		<polygon class="st9" points="279.3,198.3 279.3,196.5 277.8,197.2 		"/>
		<polygon class="st9" points="121.1,196 121.1,194.3 122.1,195.1 		"/>
		<path class="st9" d="M278,199.9l-97.9,23.4c-2.1,0.5-4.3,0.3-6.2-0.7L122,197.4c-1.3-0.7-1.1-2.6,0.3-3l98-23.4
			c2.1-0.5,4.3-0.3,6.2,0.7l51.8,25.2C279.7,197.6,279.5,199.5,278,199.9z"/>
		<path class="st10" d="M278,198.2l-97.9,23.4c-2.1,0.5-4.3,0.3-6.2-0.7L122,195.7c-1.3-0.7-1.1-2.6,0.3-3l98-23.4
			c2.1-0.5,4.3-0.3,6.2,0.7l51.8,25.2C279.7,195.9,279.5,197.8,278,198.2z"/>
		<g>
			<g>
				<polyline class="st11" points="232.9,183.7 153.1,202.8 153.1,160.1 				"/>
				<linearGradient id="SVGID_5_" gradientUnits="userSpaceOnUse" x1="191.7226" y1="202.777" x2="191.7226" y2="158.0055">
					<stop  offset="0" style="stop-color:#AAEEFF;stop-opacity:0"/>
					<stop  offset="1" style="stop-color:#AAEEFF"/>
				</linearGradient>
				<path class="st12" d="M153.1,185.6c8.8-2.1,7.4,4.6,13.6,3c6.1-1.6,7.7-13.6,13.2-15.3c9.9-3,11.5-14.4,16.9-15.2
					c7.5-1.1,12.9,15.2,19.3,13.2c6.4-2,14.4,13,14.4,13l-77.3,18.5V185.6z"/>
				<circle class="st13" cx="153.1" cy="160.1" r="2"/>
				<circle class="st13" cx="232.9" cy="183.5" r="2"/>
			</g>
			<g>
				<polyline class="st14" points="241.2,187.7 161.3,206.8 161.3,164.1 				"/>
				<linearGradient id="SVGID_6_" gradientUnits="userSpaceOnUse" x1="199.9822" y1="206.82" x2="199.9822" y2="167.2523">
					<stop  offset="0" style="stop-color:#F0699C;stop-opacity:0"/>
					<stop  offset="1" style="stop-color:#F0699C"/>
				</linearGradient>
				<path class="st15" d="M161.3,179.4c8.8-2.1,7.4,7.7,13.6,6.1c6.1-1.6,7.6-16.8,13.2-18.1c5.6-1.3,11.5,7.5,16.9,6.7
					c7.5-1.1,12.5,7.7,18.9,5.7c6.4-2,14.7,8.5,14.7,8.5l-77.3,18.5V179.4z"/>
				<circle class="st7" cx="161.3" cy="164.1" r="2"/>
				<circle class="st7" cx="241.2" cy="187.6" r="2"/>
			</g>
			<g>
				<polyline class="st16" points="250.4,192.3 170.6,211.4 170.6,168.7 				"/>
				<linearGradient id="SVGID_7_" gradientUnits="userSpaceOnUse" x1="209.2188" y1="211.3918" x2="209.2188" y2="173.7127">
					<stop  offset="0" style="stop-color:#EFD17D;stop-opacity:0"/>
					<stop  offset="1" style="stop-color:#EFD17D"/>
				</linearGradient>
				<path class="st17" d="M170.6,174c8.8-2.1,8.6,10.7,14.7,9.1c6.1-1.6,5.5-5.1,11.1-6.4s14.1,11.3,19.5,10.5
					c7.5-1.1,10.7,5.8,17.1,3.8c6.4-2,15,2,15,2l-77.3,18.5V174z"/>
				<circle class="st18" cx="170.6" cy="168.7" r="2"/>
				<circle class="st18" cx="250.4" cy="192.2" r="2"/>
			</g>
		</g>
		<g>
			<path class="st19" d="M227.4,153.2l20.5-4.9c0.1,0,0.2,0,0.2,0.1v2c0,0.2-0.1,0.3-0.3,0.3l-20.5,4.9c-0.1,0-0.2,0-0.2-0.1v-2
				C227.1,153.4,227.2,153.3,227.4,153.2z"/>
			<path class="st19" d="M227.4,145.9l20.5-4.9c0.1,0,0.2,0,0.2,0.1v2c0,0.2-0.1,0.3-0.3,0.3l-20.5,4.9c-0.1,0-0.2,0-0.2-0.1v-2
				C227.1,146.1,227.2,145.9,227.4,145.9z"/>
			<path class="st19" d="M227.4,138.5l20.5-4.9c0.1,0,0.2,0,0.2,0.1v2c0,0.2-0.1,0.3-0.3,0.3l-20.5,4.9c-0.1,0-0.2,0-0.2-0.1v-2
				C227.1,138.7,227.2,138.6,227.4,138.5z"/>
			<circle class="st13" cx="221.9" cy="155.7" r="2"/>
			<circle class="st7" cx="221.9" cy="147.8" r="2"/>
			<circle class="st18" cx="221.9" cy="140" r="2"/>
		</g>
	</g>
	<g class="st1">
		<path class="st20" d="M95.9,189.7c0.1-0.2,0-0.4-0.3-0.6c-0.4-0.3-0.9-0.4-1.3-0.6c-0.7-0.4-1.5-0.7-2.2-1.1
			c-0.8-0.4-1.7-0.8-2.5-1.2c-0.3-0.2-0.7-0.2-1-0.1c-1.2,0.3-2.4,0.6-3.7,0.9c-0.8,0.2-1.5,0.4-2.3,0.5c-0.3,0.1-0.7,0.1-0.8,0.4
			c-0.1,0.3-0.2,0.6-0.1,0.9c0.1,0.4,0.4,0.7,0.7,0.9c0.3,0.2,0.7,0.4,1,0.5c0.8,0.3,1.5,0.7,2.2,1.1c0.4,0.2,0.7,0.5,1.1,0.6
			c0.4,0.1,0.8,0.2,1.2,0.2c0.6,0,1.4-0.3,2-0.4c1.8-0.3,3.5-0.8,5.2-1.5C95.5,190.1,95.8,189.9,95.9,189.7z M83.6,189l4.9-1.2
			c0.2,0,0.4,0,0.5,0.1l4.2,2c0.3,0.2,0.3,0.6-0.1,0.7l-4.9,1.2c-0.2,0-0.4,0-0.5-0.1l-4.2-2.1C83.2,189.6,83.3,189.1,83.6,189z"/>
		<linearGradient id="SVGID_8_" gradientUnits="userSpaceOnUse" x1="88.4375" y1="188.4662" x2="78.4825" y2="193.2951">
			<stop  offset="0" style="stop-color:#EFD17D;stop-opacity:0"/>
			<stop  offset="1" style="stop-color:#EFD17D"/>
		</linearGradient>
		<path class="st21" d="M87.7,191.9v2.3c-0.1,0-0.1,0-0.2,0c-0.1,0-0.2-0.1-0.3-0.1l-8-3.8c-0.3-0.1-0.4-0.4-0.4-0.7v-1.9
			L87.7,191.9z"/>
		<path class="st20" d="M98,189.5v1.6c0,0.5-0.3,0.8-0.7,1l-9.1,2.2c-0.1,0-0.1,0-0.2,0c-0.1,0-0.2,0-0.3,0v-2.3L98,189.5z"/>
		<path class="st18" d="M97.6,188.9l-8-3.9c-0.3-0.2-0.7-0.2-1-0.1l-9.2,2.2c-0.3,0.1-0.5,0.3-0.5,0.5c0,0,0,0.1,0,0.1
			c0,0.2,0.1,0.5,0.4,0.6l8,3.9c0.2,0.1,0.3,0.1,0.5,0.1c0.2,0,0.4,0,0.5,0l9.2-2.2c0.3-0.1,0.5-0.4,0.5-0.7v0
			C98,189.3,97.8,189.1,97.6,188.9z M83.6,187.9l4.9-1.2c0.2,0,0.4,0,0.5,0.1l4.2,2c0.3,0.2,0.3,0.6-0.1,0.7l-4.9,1.2
			c-0.2,0-0.4,0-0.5-0.1l-4.2-2.1C83.2,188.4,83.3,188,83.6,187.9z"/>
	</g>
	<g class="st1">
		<linearGradient id="SVGID_9_" gradientUnits="userSpaceOnUse" x1="62.2783" y1="173.2969" x2="46.3338" y2="181.0311">
			<stop  offset="0" style="stop-color:#2C56F2;stop-opacity:0"/>
			<stop  offset="1" style="stop-color:#003AAA"/>
		</linearGradient>
		<path class="st22" d="M61.1,178.8v3.8c-0.1,0-0.2,0-0.4-0.1c-0.1-0.1-0.2-0.1-0.4-0.2l-12.8-6.2c-0.4-0.2-0.7-0.7-0.7-1.1v-3
			L61.1,178.8z"/>
		<path class="st9" d="M77.5,175v2.5c0,0.7-0.5,1.4-1.2,1.5l-14.5,3.5c-0.1,0-0.2,0.1-0.3,0.1c-0.2,0-0.3,0-0.4,0v-3.8L77.5,175z"/>
		<path class="st10" d="M76.9,174.1l-12.8-6.2c-0.5-0.2-1.1-0.3-1.6-0.2l-14.8,3.5c-0.5,0.1-0.7,0.5-0.8,0.9c0,0.1,0,0.1,0,0.2
			c0,0.4,0.2,0.8,0.6,1l12.8,6.2c0.2,0.1,0.5,0.2,0.8,0.2c0.3,0.1,0.6,0,0.8,0l14.8-3.5c0.5-0.1,0.8-0.6,0.8-1.1V175
			C77.5,174.6,77.3,174.2,76.9,174.1z"/>
	</g>
	<g class="st1">
		<circle class="st23" cx="268.8" cy="158.7" r="1"/>
		<circle class="st23" cx="235.5" cy="77" r="1"/>
		<circle class="st23" cx="250.1" cy="69.3" r="1"/>
		<circle class="st23" cx="86.2" cy="77" r="1"/>
		<circle class="st23" cx="225" cy="47.7" r="1"/>
		<circle class="st23" cx="241.2" cy="98.7" r="1"/>
		<circle class="st23" cx="72.9" cy="211.8" r="1"/>
		<circle class="st23" cx="41.1" cy="155.9" r="1"/>
		<circle class="st23" cx="105.7" cy="201.1" r="1"/>
		<circle class="st23" cx="189.5" cy="141" r="1"/>
		<circle class="st23" cx="167.2" cy="47.7" r="1"/>
		<circle class="st23" cx="267" cy="126" r="1.8"/>
		<circle class="st23" cx="64.2" cy="83.4" r="1.8"/>
		<circle class="st23" cx="110" cy="218.1" r="1.8"/>
	</g>
	<g class="st1">
		<linearGradient id="SVGID_10_" gradientUnits="userSpaceOnUse" x1="166.1186" y1="141.7411" x2="166.1186" y2="55.5613">
			<stop  offset="0" style="stop-color:#F2F2F2;stop-opacity:0"/>
			<stop  offset="1" style="stop-color:#F2F2F2"/>
		</linearGradient>
		<path class="st24" d="M213.1,56.2v62c0,0.7-0.5,1.3-1.2,1.5l-92.1,22c-0.4,0.1-0.8-0.2-0.8-0.6v-62c0-0.7,0.5-1.3,1.2-1.5l92.1-22
			C212.8,55.5,213.1,55.8,213.1,56.2z"/>
		<linearGradient id="SVGID_11_" gradientUnits="userSpaceOnUse" x1="161.5309" y1="137.5125" x2="161.5309" y2="51.3326">
			<stop  offset="0" style="stop-color:#F2F2F2;stop-opacity:0"/>
			<stop  offset="1" style="stop-color:#F2F2F2"/>
		</linearGradient>
		<path class="st25" d="M208.6,52v62c0,0.7-0.5,1.3-1.2,1.5l-92.1,22c-0.4,0.1-0.8-0.2-0.8-0.6v-62c0-0.7,0.5-1.3,1.2-1.5l92.1-22
			C208.2,51.3,208.6,51.6,208.6,52z"/>
		<g>
			<path class="st23" d="M217.7,60.4v62c0,0.7-0.5,1.3-1.2,1.5l-92.1,22c-0.4,0.1-0.8-0.2-0.8-0.6v-62c0-0.7,0.5-1.3,1.2-1.5
				l92.1-22C217.3,59.7,217.7,60,217.7,60.4z"/>
			<path class="st19" d="M155.1,89l31.1-7.4c0.1,0,0.3,0.1,0.3,0.2v3c0,0.2-0.2,0.4-0.4,0.5L155,92.8c-0.1,0-0.3-0.1-0.3-0.2v-3
				C154.7,89.3,154.9,89.1,155.1,89z"/>
			<path class="st26" d="M147.2,97.9l47.1-11.3c0.2-0.1,0.4,0.1,0.4,0.3v4.6c0,0.4-0.2,0.7-0.6,0.8L147,103.5
				c-0.2,0.1-0.4-0.1-0.4-0.3v-4.6C146.6,98.3,146.9,98,147.2,97.9z"/>
			<path class="st10" d="M132.2,122.1c-0.2-0.4-0.4-0.7-0.7-0.8c-0.1-0.1-0.2-0.1-0.4-0.1c-0.9-0.1-1.7,0.7-1.9,2
				c-0.2,1.2,0.4,2.3,1.3,2.4c0.9,0.1,1.7-0.8,1.9-2C132.4,123.1,132.3,122.5,132.2,122.1z"/>
			<path class="st10" d="M211.2,104.3c-0.2-0.4-0.4-0.7-0.7-0.8c-0.1-0.1-0.2-0.1-0.4-0.1c-0.9-0.1-1.7,0.7-1.9,2
				c-0.2,1.2,0.4,2.3,1.3,2.4c0.9,0.1,1.7-0.8,1.9-2C211.5,105.3,211.4,104.7,211.2,104.3z"/>
			<path class="st9" d="M202.6,95.7v21.7c0,0.5-0.3,0.9-0.8,1l-51.7,12.4h0l-10.7,2.6c-0.3,0.1-0.5-0.1-0.5-0.4v-21.7
				c0-0.5,0.3-0.9,0.8-1l42.4-10.1l20-4.8C202.3,95.2,202.6,95.4,202.6,95.7z"/>
			<path class="st9" d="M213.9,64.5c-0.2-0.4-0.4-0.7-0.7-0.8c-0.1-0.1-0.2-0.1-0.4-0.1c-0.9-0.1-1.7,0.7-1.9,2
				c-0.2,1.2,0.4,2.3,1.3,2.4c0.9,0.1,1.7-0.8,1.9-2C214.2,65.5,214.1,65,213.9,64.5z"/>
			<path class="st9" d="M204.8,66.9c-0.1-0.2-0.2-0.4-0.4-0.4c-0.1,0-0.1-0.1-0.2-0.1c-0.5-0.1-0.9,0.4-1,1.1
				c-0.1,0.7,0.2,1.2,0.7,1.3c0.5,0.1,0.9-0.4,1-1.1C204.9,67.4,204.9,67.1,204.8,66.9z"/>
			<path class="st9" d="M200.4,68c-0.1-0.2-0.2-0.4-0.4-0.4c-0.1,0-0.1-0.1-0.2-0.1c-0.5-0.1-0.9,0.4-1,1.1
				c-0.1,0.7,0.2,1.2,0.7,1.3c0.5,0.1,0.9-0.4,1-1.1C200.5,68.5,200.5,68.3,200.4,68z"/>
			<path class="st9" d="M196,69.2c-0.1-0.2-0.2-0.4-0.4-0.4c-0.1,0-0.1-0.1-0.2-0.1c-0.5-0.1-0.9,0.4-1,1.1
				c-0.1,0.7,0.2,1.2,0.7,1.3c0.5,0.1,0.9-0.4,1-1.1C196.1,69.7,196.1,69.5,196,69.2z"/>
			<linearGradient id="SVGID_12_" gradientUnits="userSpaceOnUse" x1="161.6791" y1="96.3698" x2="196.2154" y2="135.7944">
				<stop  offset="0" style="stop-color:#3F40B4"/>
				<stop  offset="1" style="stop-color:#FB79B1"/>
			</linearGradient>
			<path class="st27" d="M202.6,95.7v21.7c0,0.5-0.3,0.9-0.8,1l-51.7,12.4l32-30.7l0,0l20-4.8C202.3,95.2,202.6,95.4,202.6,95.7z"/>
		</g>
	</g>
	<g class="st1">
		<path class="st28" d="M95.9,115.4c0.5,2,0.7,4.3,0.5,6.6c-0.8,8.5-6.4,15-12.6,14.4c-6.2-0.6-10.6-7.9-9.8-16.4
			c0.8-8.5,6.4-15,12.6-14.4"/>
		<g>
			<text transform="matrix(0.9635 -0.2678 0.2678 0.9635 82.1039 127.7547)" class="st29 st30 st31">%</text>
		</g>
	</g>
	<g class="st1">
		<path class="st13" d="M135.3,160.1c-0.8-2-2.2-3.5-3.8-4.4c-0.6-0.3-1.3-0.6-2-0.7c-4.7-0.7-9.2,4-10.1,10.4
			c-0.9,6.4,2.1,12.1,6.7,12.8c4.7,0.7,9.2-4,10.1-10.4C136.6,165.1,136.2,162.3,135.3,160.1z"/>
		<path class="st23" d="M136.5,160.1c-0.8-2-2.2-3.5-3.8-4.4c-0.6-0.3-1.3-0.6-2-0.7c-4.7-0.7-9.2,4-10.1,10.4
			c-0.9,6.4,2.1,12.1,6.7,12.8c4.7,0.7,9.2-4,10.1-10.4C137.8,165.1,137.5,162.3,136.5,160.1z"/>
		<polyline class="st32" points="125.1,167.8 128.4,170.7 133.2,162.7 		"/>
	</g>
	<path class="st8" d="M75.5,191.3l-11.6-5.6c-0.5-0.2-1-0.3-1.5-0.2L49,188.8c-0.4,0.1-0.7,0.4-0.7,0.8c0,0.1,0,0.1,0,0.2
		c0,0.4,0.2,0.7,0.6,0.9l11.6,5.6c0.2,0.1,0.5,0.2,0.7,0.2c0.3,0,0.5,0,0.8,0l13.4-3.2c0.5-0.1,0.8-0.5,0.8-1v0
		C76.1,191.8,75.9,191.5,75.5,191.3z"/>
	<path class="st8" d="M96.1,200.9l-6.7-3.3c-0.3-0.1-0.6-0.2-0.9-0.1l-7.8,1.8c-0.2,0.1-0.4,0.3-0.4,0.5c0,0,0,0.1,0,0.1
		c0,0.2,0.1,0.4,0.3,0.5l6.7,3.3c0.1,0.1,0.3,0.1,0.4,0.1c0.1,0,0.3,0,0.4,0L96,202c0.3-0.1,0.4-0.3,0.4-0.6v0
		C96.4,201.2,96.3,201,96.1,200.9z M84.4,200l4.1-1c0.1,0,0.3,0,0.5,0.1l3.6,1.7c0.3,0.1,0.2,0.5-0.1,0.6l-4.1,1c-0.1,0-0.3,0-0.5,0
		l-3.6-1.7C84,200.5,84.1,200.1,84.4,200z"/>
</g>
<g>
	<g>
		
			<linearGradient id="SVGID_13_" gradientUnits="userSpaceOnUse" x1="-9912.3438" y1="-4503.0859" x2="-9664.5781" y2="-4085.1084" gradientTransform="matrix(-1 0 0 -1 -9672.8867 -4236.894)">
			<stop  offset="0" style="stop-color:#3F40B4"/>
			<stop  offset="1" style="stop-color:#FB79B1"/>
		</linearGradient>
		<path class="st33" d="M0,74.2C0,16.4,51.9,0.1,84.9,0.1c34.6,0,72.2-0.1,109-0.1c108.5,4.7,121.1,78.2,122.3,102.9v38.3
			c0,41.9-11,64.8-35.1,82.4c-29.6,21.6-56.2,19.7-83,19.7c-38.7,0-63.8,22.3-102.2,22.3c-62.2,0-81-54.1-81-92
			C14.9,136.3,0,150.1,0,74.2z"/>
		
			<linearGradient id="SVGID_14_" gradientUnits="userSpaceOnUse" x1="-10061.1533" y1="-4260.5874" x2="-9640.7109" y2="-3976.2986" gradientTransform="matrix(-1 0 0 -1 -9755.2695 -4028.5239)">
			<stop  offset="0" style="stop-color:#3F40B4"/>
			<stop  offset="1" style="stop-color:#FB79B1"/>
		</linearGradient>
		<path class="st34" d="M18.6,64.9c3.8-31,30.3-45.1,54.2-50.5c6.9-1.6,13.9-2.4,20.3-2.7c27.9-1.2,57.6-0.3,86.3,2.2
			c14.1,1.8,27,4.2,39.1,6.9c29.9,6.8,50.6,15.9,65.7,33.4c10.5,12.3,15.4,26.3,18.2,36.8c2.1,4.5,3.2,28.7,3.2,33.9
			c0,46.4-17.4,74-44.5,92.8c-34,23.7-71.4,25.6-95.1,25.6c-39.4,0-64.7,5.3-91.6-4.1c-45.8-16-53.5-69.6-53.5-101.8
			C20.8,110.9,13,109.5,18.6,64.9z"/>
		
			<linearGradient id="SVGID_15_" gradientUnits="userSpaceOnUse" x1="-10181.1367" y1="-3986.3821" x2="-9699.6641" y2="-3911.9438" gradientTransform="matrix(-1 0 0 -1 -9837.6533 -3820.1541)">
			<stop  offset="0" style="stop-color:#3F40B4"/>
			<stop  offset="1" style="stop-color:#FB79B1"/>
		</linearGradient>
		<path class="st35" d="M26.6,101.2c0-15.6,2.7-31.9,10.5-45.7c9.9-17.5,30.2-26.1,49.1-30c25.8-5.4,53-4,78.6,2.2
			c11.4,2.8,22.8,5.4,34.3,7.2c23.8,3.6,44.5,2,65.1,16c19.4,13.2,30.5,34.1,30.5,57.6c0,116.2-124.2,134.7-161.1,134.7
			C19.6,243.3,26.6,141.9,26.6,101.2z"/>
	</g>
	<g>
		<polygon class="st18" points="229.1,65.7 195.9,73.7 166.7,59.5 199.9,51.6 		"/>
		<linearGradient id="SVGID_16_" gradientUnits="userSpaceOnUse" x1="181.2701" y1="131.1183" x2="181.2701" y2="59.4999">
			<stop  offset="0" style="stop-color:#EFD17D;stop-opacity:0"/>
			<stop  offset="1" style="stop-color:#EFBA7D"/>
		</linearGradient>
		<polygon class="st36" points="195.9,73.7 195.9,131.1 166.7,117 166.7,59.5 		"/>
		<linearGradient id="SVGID_17_" gradientUnits="userSpaceOnUse" x1="212.4851" y1="131.1183" x2="212.4851" y2="65.713">
			<stop  offset="0" style="stop-color:#EFD17D;stop-opacity:0"/>
			<stop  offset="1" style="stop-color:#EFD17D"/>
		</linearGradient>
		<polygon class="st37" points="229.1,65.7 195.9,73.7 195.9,131.1 229.1,123.2 		"/>
	</g>
	<g>
		<polygon class="st7" points="257.2,97.5 233.9,103.1 213.4,93.1 236.7,87.6 		"/>
		<linearGradient id="SVGID_18_" gradientUnits="userSpaceOnUse" x1="223.6159" y1="143.396" x2="223.6159" y2="93.1448">
			<stop  offset="0" style="stop-color:#F0699C;stop-opacity:0"/>
			<stop  offset="1" style="stop-color:#F03B9C"/>
		</linearGradient>
		<polygon class="st38" points="233.9,103.1 233.9,143.4 213.4,133.5 213.4,93.1 		"/>
		<linearGradient id="SVGID_19_" gradientUnits="userSpaceOnUse" x1="245.518" y1="143.396" x2="245.518" y2="97.5042">
			<stop  offset="0" style="stop-color:#F0699C;stop-opacity:0"/>
			<stop  offset="1" style="stop-color:#F0699C"/>
		</linearGradient>
		<polygon class="st39" points="257.2,97.5 233.9,103.1 233.9,143.4 257.2,137.8 		"/>
	</g>
	<path class="st19" d="M62.9,198.7l61.7,29.9c1.4,0.7,3,0.9,4.5,0.5l111.1-26.5c0.8-0.2,0.9-1.3,0.2-1.7l-61.7-29.9
		c-1.4-0.7-3-0.9-4.5-0.5L63.1,197C62.3,197.2,62.1,198.3,62.9,198.7z"/>
	<g>
		<path class="st40" d="M52.2,71.6l122.5-29.3c1.6-0.4,3.2,0.9,3.2,2.5v86.5c0,2.2-1.5,4.2-3.7,4.7L51.7,165.3
			c-1.6,0.4-3.2-0.9-3.2-2.5V76.3C48.4,74,50,72.1,52.2,71.6z"/>
		<path class="st9" d="M52.9,72.2L175.4,43c1.6-0.4,3.2,0.9,3.2,2.5V132c0,2.2-1.5,4.2-3.7,4.7L52.4,166c-1.6,0.4-3.2-0.9-3.2-2.5
			V76.9C49.2,74.7,50.7,72.7,52.9,72.2z"/>
		<path class="st13" d="M58.5,79l111.2-26.6c0.5-0.1,1,0.3,1,0.8v74.9c0,0.9-0.6,1.6-1.4,1.8L58.1,156.5c-0.5,0.1-1-0.3-1-0.8V80.8
			C57.1,80,57.7,79.2,58.5,79z"/>
		<path class="st41" d="M63.4,81.7l111.2-26.6c0.5-0.1,1,0.3,1,0.8v74.9c0,0.9-0.6,1.6-1.4,1.8L63,159.2c-0.5,0.1-1-0.3-1-0.8V83.5
			C62,82.6,62.6,81.9,63.4,81.7z"/>
		<path class="st13" d="M51.7,171l68.9,33.4c1.6,0.8,3.3,1,5,0.5l124.1-29.6c0.9-0.2,1-1.4,0.2-1.9L181,140.1c-1.6-0.8-3.3-1-5-0.5
			L51.9,169.2C51,169.4,50.9,170.6,51.7,171z"/>
		<polygon class="st13" points="250.5,174.3 250.5,171.3 245.9,172.2 		"/>
		<polygon class="st13" points="51.1,167 51.1,170.2 54.4,168.8 		"/>
		<path class="st40" d="M51.7,168l68.9,33.4c1.6,0.8,3.3,1,5,0.5l124.1-29.6c0.9-0.2,1-1.4,0.2-1.9L181,137c-1.6-0.8-3.3-1-5-0.5
			L51.9,166.1C51,166.3,50.9,167.6,51.7,168z"/>
		<g class="st42">
			<path class="st9" d="M60.7,166.9l5.9-1.4c0.3-0.1,0.7,0,1,0.1l2.6,1.3c0.3,0.2,0.3,0.6-0.1,0.7l-5.9,1.4c-0.3,0.1-0.7,0-1-0.1
				l-2.6-1.3C60.3,167.4,60.3,166.9,60.7,166.9z"/>
			<g>
				<path class="st9" d="M84.2,165.9l5.9-1.4c0.3-0.1,0.7,0,1,0.1l3.7,1.8c0.3,0.2,0.3,0.6-0.1,0.7l-5.9,1.4c-0.3,0.1-0.7,0-1-0.1
					l-3.7-1.8C83.8,166.5,83.9,166,84.2,165.9z"/>
				<path class="st9" d="M92.8,163.9l5.9-1.4c0.3-0.1,0.7,0,1,0.1l3.7,1.8c0.3,0.2,0.3,0.6-0.1,0.7l-5.9,1.4c-0.3,0.1-0.7,0-1-0.1
					l-3.7-1.8C92.4,164.4,92.4,163.9,92.8,163.9z"/>
				<path class="st9" d="M101.3,161.8l5.9-1.4c0.3-0.1,0.7,0,1,0.1l3.7,1.8c0.3,0.2,0.3,0.6-0.1,0.7l-5.9,1.4c-0.3,0.1-0.7,0-1-0.1
					l-3.7-1.8C100.9,162.4,100.9,161.9,101.3,161.8z"/>
				<path class="st9" d="M109.8,159.7l5.9-1.4c0.3-0.1,0.7,0,1,0.1l3.7,1.8c0.3,0.2,0.3,0.6-0.1,0.7l-5.9,1.4c-0.3,0.1-0.7,0-1-0.1
					l-3.7-1.8C109.4,160.3,109.5,159.8,109.8,159.7z"/>
				<path class="st9" d="M118.3,157.7l5.9-1.4c0.3-0.1,0.7,0,1,0.1l3.7,1.8c0.3,0.2,0.3,0.6-0.1,0.7l-5.9,1.4c-0.3,0.1-0.7,0-1-0.1
					l-3.7-1.8C117.9,158.2,118,157.8,118.3,157.7z"/>
				<path class="st9" d="M126.8,155.6l5.9-1.4c0.3-0.1,0.7,0,1,0.1l3.7,1.8c0.3,0.2,0.3,0.6-0.1,0.7l-5.9,1.4c-0.3,0.1-0.7,0-1-0.1
					l-3.7-1.8C126.5,156.2,126.5,155.7,126.8,155.6z"/>
				<path class="st9" d="M135.4,153.6l5.9-1.4c0.3-0.1,0.7,0,1,0.1l3.7,1.8c0.3,0.2,0.3,0.6-0.1,0.7l-5.9,1.4c-0.3,0.1-0.7,0-1-0.1
					l-3.7-1.8C135,154.1,135,153.7,135.4,153.6z"/>
				<path class="st9" d="M143.9,151.5l5.9-1.4c0.3-0.1,0.7,0,1,0.1l3.7,1.8c0.3,0.2,0.3,0.6-0.1,0.7l-5.9,1.4c-0.3,0.1-0.7,0-1-0.1
					l-3.7-1.8C143.5,152.1,143.5,151.6,143.9,151.5z"/>
				<path class="st9" d="M152.4,149.5l5.9-1.4c0.3-0.1,0.7,0,1,0.1l3.7,1.8c0.3,0.2,0.3,0.6-0.1,0.7l-5.9,1.4c-0.3,0.1-0.7,0-1-0.1
					l-3.7-1.8C152,150,152.1,149.5,152.4,149.5z"/>
				<path class="st9" d="M160.9,147.4l5.9-1.4c0.3-0.1,0.7,0,1,0.1l3.7,1.8c0.3,0.2,0.3,0.6-0.1,0.7l-5.9,1.4c-0.3,0.1-0.7,0-1-0.1
					l-3.7-1.8C160.5,148,160.6,147.5,160.9,147.4z"/>
			</g>
			<g>
				<path class="st9" d="M73.9,173.2l10-2.5c0.3-0.1,0.7,0,1,0.1l3.7,1.8c0.3,0.2,0.3,0.6-0.1,0.7l-10,2.5c-0.3,0.1-0.7,0-1-0.1
					l-3.7-1.8C73.5,173.7,73.5,173.2,73.9,173.2z"/>
				<path class="st9" d="M86.6,170.1l5.9-1.4c0.3-0.1,0.7,0,1,0.1l3.7,1.8c0.3,0.2,0.3,0.6-0.1,0.7l-5.9,1.4c-0.3,0.1-0.7,0-1-0.1
					l-3.7-1.8C86.2,170.6,86.2,170.1,86.6,170.1z"/>
				<path class="st9" d="M95.1,168l5.9-1.4c0.3-0.1,0.7,0,1,0.1l3.7,1.8c0.3,0.2,0.3,0.6-0.1,0.7l-5.9,1.4c-0.3,0.1-0.7,0-1-0.1
					l-3.7-1.8C94.7,168.6,94.7,168.1,95.1,168z"/>
				<path class="st9" d="M103.6,166l5.9-1.4c0.3-0.1,0.7,0,1,0.1l3.7,1.8c0.3,0.2,0.3,0.6-0.1,0.7l-5.9,1.4c-0.3,0.1-0.7,0-1-0.1
					l-3.7-1.8C103.2,166.5,103.3,166,103.6,166z"/>
				<path class="st9" d="M112.1,163.9l5.9-1.4c0.3-0.1,0.7,0,1,0.1l3.7,1.8c0.3,0.2,0.3,0.6-0.1,0.7l-5.9,1.4c-0.3,0.1-0.7,0-1-0.1
					l-3.7-1.8C111.7,164.4,111.8,164,112.1,163.9z"/>
				<path class="st9" d="M120.6,161.8l5.9-1.4c0.3-0.1,0.7,0,1,0.1l3.7,1.8c0.3,0.2,0.3,0.6-0.1,0.7l-5.9,1.4c-0.3,0.1-0.7,0-1-0.1
					l-3.7-1.8C120.2,162.4,120.3,161.9,120.6,161.8z"/>
				<path class="st9" d="M129.2,159.8l5.9-1.4c0.3-0.1,0.7,0,1,0.1l3.7,1.8c0.3,0.2,0.3,0.6-0.1,0.7l-5.9,1.4c-0.3,0.1-0.7,0-1-0.1
					l-3.7-1.8C128.8,160.3,128.8,159.9,129.2,159.8z"/>
				<path class="st9" d="M137.7,157.7l5.9-1.4c0.3-0.1,0.7,0,1,0.1l3.7,1.8c0.3,0.2,0.3,0.6-0.1,0.7l-5.9,1.4c-0.3,0.1-0.7,0-1-0.1
					l-3.7-1.8C137.3,158.3,137.3,157.8,137.7,157.7z"/>
				<path class="st9" d="M146.2,155.7l5.9-1.4c0.3-0.1,0.7,0,1,0.1l3.7,1.8c0.3,0.2,0.3,0.6-0.1,0.7l-5.9,1.4c-0.3,0.1-0.7,0-1-0.1
					l-3.7-1.8C145.8,156.2,145.9,155.7,146.2,155.7z"/>
				<path class="st9" d="M154.7,153.6l5.9-1.4c0.3-0.1,0.7,0,1,0.1l3.7,1.8c0.3,0.2,0.3,0.6-0.1,0.7l-5.9,1.4c-0.3,0.1-0.7,0-1-0.1
					l-3.7-1.8C154.3,154.2,154.4,153.7,154.7,153.6z"/>
				<path class="st9" d="M163.3,151.6l5.9-1.4c0.3-0.1,0.7,0,1,0.1l3.7,1.8c0.3,0.2,0.3,0.6-0.1,0.7l-5.9,1.4c-0.3,0.1-0.7,0-1-0.1
					l-3.7-1.8C162.9,152.1,162.9,151.6,163.3,151.6z"/>
				<path class="st9" d="M171.8,149.5l5.9-1.4c0.3-0.1,0.7,0,1,0.1l3.7,1.8c0.3,0.2,0.3,0.6-0.1,0.7l-5.9,1.4c-0.3,0.1-0.7,0-1-0.1
					l-3.7-1.8C171.4,150,171.4,149.6,171.8,149.5z"/>
			</g>
			<g>
				<path class="st9" d="M80.4,176.2l5.9-1.4c0.3-0.1,0.7,0,1,0.1l3.7,1.8c0.3,0.2,0.3,0.6-0.1,0.7l-5.9,1.4c-0.3,0.1-0.7,0-1-0.1
					l-3.7-1.8C80,176.8,80,176.3,80.4,176.2z"/>
				<path class="st9" d="M88.9,174.1l5.9-1.4c0.3-0.1,0.7,0,1,0.1l3.7,1.8c0.3,0.2,0.3,0.6-0.1,0.7l-5.9,1.4c-0.3,0.1-0.7,0-1-0.1
					l-3.7-1.8C88.5,174.7,88.5,174.2,88.9,174.1z"/>
				<path class="st9" d="M97.4,172.1l5.9-1.4c0.3-0.1,0.7,0,1,0.1l3.7,1.8c0.3,0.2,0.3,0.6-0.1,0.7l-5.9,1.4c-0.3,0.1-0.7,0-1-0.1
					l-3.7-1.8C97,172.6,97.1,172.2,97.4,172.1z"/>
				<path class="st9" d="M105.9,170l5.9-1.4c0.3-0.1,0.7,0,1,0.1l3.7,1.8c0.3,0.2,0.3,0.6-0.1,0.7l-5.9,1.4c-0.3,0.1-0.7,0-1-0.1
					l-3.7-1.8C105.5,170.6,105.6,170.1,105.9,170z"/>
				<path class="st9" d="M114.4,168l5.9-1.4c0.3-0.1,0.7,0,1,0.1l3.7,1.8c0.3,0.2,0.3,0.6-0.1,0.7l-5.9,1.4c-0.3,0.1-0.7,0-1-0.1
					l-3.7-1.8C114,168.5,114.1,168.1,114.4,168z"/>
				<path class="st9" d="M123,165.9l5.9-1.4c0.3-0.1,0.7,0,1,0.1l3.7,1.8c0.3,0.2,0.3,0.6-0.1,0.7l-5.9,1.4c-0.3,0.1-0.7,0-1-0.1
					l-3.7-1.8C122.6,166.5,122.6,166,123,165.9z"/>
				<path class="st9" d="M131.5,163.9l5.9-1.4c0.3-0.1,0.7,0,1,0.1l3.7,1.8c0.3,0.2,0.3,0.6-0.1,0.7l-5.9,1.4c-0.3,0.1-0.7,0-1-0.1
					l-3.7-1.8C131.1,164.4,131.1,163.9,131.5,163.9z"/>
				<path class="st9" d="M140,161.8l5.9-1.4c0.3-0.1,0.7,0,1,0.1l3.7,1.8c0.3,0.2,0.3,0.6-0.1,0.7l-5.9,1.4c-0.3,0.1-0.7,0-1-0.1
					l-3.7-1.8C139.6,162.4,139.7,161.9,140,161.8z"/>
				<path class="st9" d="M148.5,159.7l5.9-1.4c0.3-0.1,0.7,0,1,0.1l3.7,1.8c0.3,0.2,0.3,0.6-0.1,0.7l-5.9,1.4c-0.3,0.1-0.7,0-1-0.1
					l-3.7-1.8C148.1,160.3,148.2,159.8,148.5,159.7z"/>
				<path class="st9" d="M157,157.7l5.9-1.4c0.3-0.1,0.7,0,1,0.1l3.7,1.8c0.3,0.2,0.3,0.6-0.1,0.7l-5.9,1.4c-0.3,0.1-0.7,0-1-0.1
					l-3.7-1.8C156.6,158.2,156.7,157.8,157,157.7z"/>
				<path class="st9" d="M165.6,155.6l5.9-1.4c0.3-0.1,0.7,0,1,0.1l3.7,1.8c0.3,0.2,0.3,0.6-0.1,0.7l-5.9,1.4c-0.3,0.1-0.7,0-1-0.1
					l-3.7-1.8C165.2,156.2,165.2,155.7,165.6,155.6z"/>
				<path class="st9" d="M174.1,153.6l5.9-1.4c0.3-0.1,0.7,0,1,0.1l3.7,1.8c0.3,0.2,0.3,0.6-0.1,0.7l-5.9,1.4c-0.3,0.1-0.7,0-1-0.1
					l-3.7-1.8C173.7,154.1,173.7,153.7,174.1,153.6z"/>
				<path class="st9" d="M182.6,151.5l5.9-1.4c0.3-0.1,0.7,0,1,0.1l3.7,1.8c0.3,0.2,0.3,0.6-0.1,0.7l-5.9,1.4c-0.3,0.1-0.7,0-1-0.1
					l-3.7-1.8C182.2,152.1,182.3,151.6,182.6,151.5z"/>
			</g>
			<g>
				<path class="st9" d="M86.9,179.2l9.8-2.4c0.3-0.1,0.7,0,1,0.1l3.7,1.8c0.3,0.2,0.3,0.6-0.1,0.7l-9.8,2.4c-0.3,0.1-0.7,0-1-0.1
					l-3.7-1.8C86.5,179.8,86.5,179.3,86.9,179.2z"/>
				<path class="st9" d="M99.3,176.2l5.9-1.4c0.3-0.1,0.7,0,1,0.1l3.7,1.8c0.3,0.2,0.3,0.6-0.1,0.7l-5.9,1.4c-0.3,0.1-0.7,0-1-0.1
					l-3.7-1.8C98.9,176.8,99,176.3,99.3,176.2z"/>
				<path class="st9" d="M107.9,174.1l5.9-1.4c0.3-0.1,0.7,0,1,0.1l3.7,1.8c0.3,0.2,0.3,0.6-0.1,0.7l-5.9,1.4c-0.3,0.1-0.7,0-1-0.1
					l-3.7-1.8C107.5,174.7,107.5,174.2,107.9,174.1z"/>
				<path class="st9" d="M116.4,172.1l5.9-1.4c0.3-0.1,0.7,0,1,0.1l3.7,1.8c0.3,0.2,0.3,0.6-0.1,0.7l-5.9,1.4c-0.3,0.1-0.7,0-1-0.1
					l-3.7-1.8C116,172.6,116,172.2,116.4,172.1z"/>
				<path class="st9" d="M124.9,170l5.9-1.4c0.3-0.1,0.7,0,1,0.1l3.7,1.8c0.3,0.2,0.3,0.6-0.1,0.7l-5.9,1.4c-0.3,0.1-0.7,0-1-0.1
					l-3.7-1.8C124.5,170.6,124.6,170.1,124.9,170z"/>
				<path class="st9" d="M133.4,168l5.9-1.4c0.3-0.1,0.7,0,1,0.1l3.7,1.8c0.3,0.2,0.3,0.6-0.1,0.7l-5.9,1.4c-0.3,0.1-0.7,0-1-0.1
					l-3.7-1.8C133,168.5,133.1,168.1,133.4,168z"/>
				<path class="st9" d="M141.9,165.9l5.9-1.4c0.3-0.1,0.7,0,1,0.1l3.7,1.8c0.3,0.2,0.3,0.6-0.1,0.7l-5.9,1.4c-0.3,0.1-0.7,0-1-0.1
					l-3.7-1.8C141.6,166.5,141.6,166,141.9,165.9z"/>
				<path class="st9" d="M150.5,163.9l5.9-1.4c0.3-0.1,0.7,0,1,0.1l3.7,1.8c0.3,0.2,0.3,0.6-0.1,0.7l-5.9,1.4c-0.3,0.1-0.7,0-1-0.1
					l-3.7-1.8C150.1,164.4,150.1,163.9,150.5,163.9z"/>
				<path class="st9" d="M159,161.8l5.9-1.4c0.3-0.1,0.7,0,1,0.1l3.7,1.8c0.3,0.2,0.3,0.6-0.1,0.7l-5.9,1.4c-0.3,0.1-0.7,0-1-0.1
					l-3.7-1.8C158.6,162.4,158.6,161.9,159,161.8z"/>
				<path class="st9" d="M167.5,159.7l5.9-1.4c0.3-0.1,0.7,0,1,0.1l3.7,1.8c0.3,0.2,0.3,0.6-0.1,0.7l-5.9,1.4c-0.3,0.1-0.7,0-1-0.1
					l-3.7-1.8C167.1,160.3,167.2,159.8,167.5,159.7z"/>
				<path class="st9" d="M176,157.7l5.9-1.4c0.3-0.1,0.7,0,1,0.1l3.7,1.8c0.3,0.2,0.3,0.6-0.1,0.7l-5.9,1.4c-0.3,0.1-0.7,0-1-0.1
					l-3.7-1.8C175.6,158.2,175.7,157.8,176,157.7z"/>
				<path class="st9" d="M184.6,155.6l5.9-1.4c0.3-0.1,0.7,0,1,0.1l3.7,1.8c0.3,0.2,0.3,0.6-0.1,0.7l-5.9,1.4c-0.3,0.1-0.7,0-1-0.1
					l-3.7-1.8C184.2,156.2,184.2,155.7,184.6,155.6z"/>
				<path class="st9" d="M193.1,153.6l10.4-2.5c0.3-0.1,0.7,0,1,0.1l3.7,1.8c0.3,0.2,0.3,0.6-0.1,0.7l-10.4,2.5
					c-0.3,0.1-0.7,0-1-0.1l-3.7-1.8C192.7,154.1,192.7,153.7,193.1,153.6z"/>
			</g>
			<path class="st9" d="M93.5,182.4l5.9-1.4c0.3-0.1,0.7,0,1,0.1l3.7,1.8c0.3,0.2,0.3,0.6-0.1,0.7l-5.9,1.4c-0.3,0.1-0.7,0-1-0.1
				l-3.7-1.8C93.1,182.9,93.2,182.5,93.5,182.4z"/>
			<path class="st9" d="M102,180.3l5.9-1.4c0.3-0.1,0.7,0,1,0.1l3.7,1.8c0.3,0.2,0.3,0.6-0.1,0.7l-5.9,1.4c-0.3,0.1-0.7,0-1-0.1
				L102,181C101.6,180.9,101.7,180.4,102,180.3z"/>
			<path class="st9" d="M110.5,178.3l5.9-1.4c0.3-0.1,0.7,0,1,0.1l3.7,1.8c0.3,0.2,0.3,0.6-0.1,0.7l-5.9,1.4c-0.3,0.1-0.7,0-1-0.1
				l-3.7-1.8C110.2,178.8,110.2,178.3,110.5,178.3z"/>
			<path class="st9" d="M119.1,176.2l5.9-1.4c0.3-0.1,0.7,0,1,0.1l3.7,1.8c0.3,0.2,0.3,0.6-0.1,0.7l-5.9,1.4c-0.3,0.1-0.7,0-1-0.1
				l-3.7-1.8C118.7,176.8,118.7,176.3,119.1,176.2z"/>
			<path class="st9" d="M170.2,163.9l5.9-1.4c0.3-0.1,0.7,0,1,0.1l3.7,1.8c0.3,0.2,0.3,0.6-0.1,0.7l-5.9,1.4c-0.3,0.1-0.7,0-1-0.1
				l-3.7-1.8C169.8,164.4,169.9,163.9,170.2,163.9z"/>
			<path class="st9" d="M178.7,161.8l5.9-1.4c0.3-0.1,0.7,0,1,0.1l3.7,1.8c0.3,0.2,0.3,0.6-0.1,0.7l-5.9,1.4c-0.3,0.1-0.7,0-1-0.1
				l-3.7-1.8C178.3,162.4,178.4,161.9,178.7,161.8z"/>
			<path class="st9" d="M187.2,159.7l5.9-1.4c0.3-0.1,0.7,0,1,0.1l3.7,1.8c0.3,0.2,0.3,0.6-0.1,0.7l-5.9,1.4c-0.3,0.1-0.7,0-1-0.1
				l-3.7-1.8C186.8,160.3,186.9,159.8,187.2,159.7z"/>
			<path class="st9" d="M200.3,156.5l3.3-0.8c0.2,0,0.4,0,0.6,0.1l1.4,0.7c0.2,0.1,0.2,0.3,0,0.4l-3.3,0.8c-0.2,0-0.4,0-0.6-0.1
				l-1.4-0.7C200,156.8,200.1,156.6,200.3,156.5z"/>
			<path class="st9" d="M202.7,157.9l3.3-0.8c0.2,0,0.4,0,0.6,0.1l1.4,0.7c0.2,0.1,0.2,0.3,0,0.4l-3.3,0.8c-0.2,0-0.4,0-0.6-0.1
				l-1.4-0.7C202.4,158.2,202.5,157.9,202.7,157.9z"/>
			<path class="st9" d="M197.3,158.9l3.3-0.8c0.2,0,0.4,0,0.6,0.1l2.1,1c0.2,0.1,0.2,0.3,0,0.4l-3.3,0.8c-0.2,0-0.4,0-0.6-0.1
				l-2.1-1C197.1,159.2,197.1,158.9,197.3,158.9z"/>
			<path class="st9" d="M206.8,156.1l3.3-0.8c0.2,0,0.4,0,0.6,0.1l2.1,1c0.2,0.1,0.2,0.3,0,0.4l-3.3,0.8c-0.2,0-0.4,0-0.6-0.1
				l-2.1-1C206.5,156.4,206.6,156.2,206.8,156.1z"/>
			<path class="st9" d="M69.1,164.8l5.9-1.4c0.3-0.1,0.7,0,1,0.1l2.6,1.3c0.3,0.2,0.3,0.6-0.1,0.7l-5.9,1.4c-0.3,0.1-0.7,0-1-0.1
				l-2.6-1.3C68.7,165.4,68.8,164.9,69.1,164.8z"/>
			<path class="st9" d="M77.6,162.8l5.9-1.4c0.3-0.1,0.7,0,1,0.1l2.6,1.3c0.3,0.2,0.3,0.6-0.1,0.7l-5.9,1.4c-0.3,0.1-0.7,0-1-0.1
				l-2.6-1.3C77.2,163.4,77.2,162.9,77.6,162.8z"/>
			<path class="st9" d="M86,160.8l5.9-1.4c0.3-0.1,0.7,0,1,0.1l2.6,1.3c0.3,0.2,0.3,0.6-0.1,0.7l-5.9,1.4c-0.3,0.1-0.7,0-1-0.1
				l-2.6-1.3C85.6,161.4,85.7,160.9,86,160.8z"/>
			<path class="st9" d="M94.5,158.8l5.9-1.4c0.3-0.1,0.7,0,1,0.1l2.6,1.3c0.3,0.2,0.3,0.6-0.1,0.7l-5.9,1.4c-0.3,0.1-0.7,0-1-0.1
				l-2.6-1.3C94.1,159.3,94.1,158.9,94.5,158.8z"/>
			<path class="st9" d="M102.9,156.8l5.9-1.4c0.3-0.1,0.7,0,1,0.1l2.6,1.3c0.3,0.2,0.3,0.6-0.1,0.7l-5.9,1.4c-0.3,0.1-0.7,0-1-0.1
				l-2.6-1.3C102.5,157.3,102.6,156.9,102.9,156.8z"/>
			<path class="st9" d="M111.4,154.8l5.9-1.4c0.3-0.1,0.7,0,1,0.1l2.6,1.3c0.3,0.2,0.3,0.6-0.1,0.7l-5.9,1.4c-0.3,0.1-0.7,0-1-0.1
				l-2.6-1.3C111,155.3,111,154.8,111.4,154.8z"/>
			<path class="st9" d="M119.8,152.7l5.9-1.4c0.3-0.1,0.7,0,1,0.1l2.6,1.3c0.3,0.2,0.3,0.6-0.1,0.7l-5.9,1.4c-0.3,0.1-0.7,0-1-0.1
				l-2.6-1.3C119.4,153.3,119.5,152.8,119.8,152.7z"/>
			<path class="st9" d="M128.3,150.7l5.9-1.4c0.3-0.1,0.7,0,1,0.1l2.6,1.3c0.3,0.2,0.3,0.6-0.1,0.7l-5.9,1.4c-0.3,0.1-0.7,0-1-0.1
				l-2.6-1.3C127.9,151.3,127.9,150.8,128.3,150.7z"/>
			<path class="st9" d="M136.7,148.7l5.9-1.4c0.3-0.1,0.7,0,1,0.1l2.6,1.3c0.3,0.2,0.3,0.6-0.1,0.7l-5.9,1.4c-0.3,0.1-0.7,0-1-0.1
				l-2.6-1.3C136.3,149.3,136.4,148.8,136.7,148.7z"/>
			<path class="st9" d="M145.2,146.7l5.9-1.4c0.3-0.1,0.7,0,1,0.1l2.6,1.3c0.3,0.2,0.3,0.6-0.1,0.7l-5.9,1.4c-0.3,0.1-0.7,0-1-0.1
				l-2.6-1.3C144.8,147.2,144.8,146.8,145.2,146.7z"/>
			<path class="st9" d="M153.6,144.7l5.9-1.4c0.3-0.1,0.7,0,1,0.1l2.6,1.3c0.3,0.2,0.3,0.6-0.1,0.7l-5.9,1.4c-0.3,0.1-0.7,0-1-0.1
				l-2.6-1.3C153.2,145.2,153.3,144.7,153.6,144.7z"/>
			<path class="st9" d="M162.1,142.6l5.9-1.4c0.3-0.1,0.7,0,1,0.1l2.6,1.3c0.3,0.2,0.3,0.6-0.1,0.7l-5.9,1.4c-0.3,0.1-0.7,0-1-0.1
				l-2.6-1.3C161.7,143.2,161.7,142.7,162.1,142.6z"/>
			<path class="st9" d="M170.5,140.6l5.9-1.4c0.3-0.1,0.7,0,1,0.1l2.6,1.3c0.3,0.2,0.3,0.6-0.1,0.7l-5.9,1.4c-0.3,0.1-0.7,0-1-0.1
				l-2.6-1.3C170.1,141.2,170.2,140.7,170.5,140.6z"/>
			<path class="st9" d="M86.4,168.5l-3.7-1.8c-0.3-0.2-0.7-0.2-1-0.1L67.2,170c-0.3,0.1-0.4,0.6-0.1,0.7l3.7,1.8
				c0.3,0.2,0.7,0.2,1,0.1l14.4-3.5C86.7,169.1,86.7,168.6,86.4,168.5z"/>
			<path class="st9" d="M188.6,143.8l-3.7-1.8c-0.3-0.2-0.7-0.2-1-0.1l-14.4,3.5c-0.3,0.1-0.4,0.6-0.1,0.7l3.7,1.8
				c0.3,0.2,0.7,0.2,1,0.1l14.4-3.5C188.9,144.4,189,143.9,188.6,143.8z"/>
			<path class="st9" d="M201.8,150l-10.1-4.9c-0.3-0.1-0.7-0.2-1-0.1l-10.4,2.5c-0.3,0.1-0.4,0.6-0.1,0.7l3.7,1.8
				c0.3,0.2,0.7,0.2,1,0.1l3.6-0.9c0.2-0.1,0.4,0,0.6,0.1l5.6,2.7c0.3,0.2,0.7,0.2,1,0.1l5.9-1.4C202.1,150.6,202.1,150.1,201.8,150
				z"/>
			<path class="st9" d="M172.3,166.4l-3.7-1.8c-0.3-0.2-0.7-0.2-1-0.1l-40,9.6c-0.3,0.1-0.4,0.6-0.1,0.7l3.7,1.8
				c0.3,0.2,0.7,0.2,1,0.1l40-9.6C172.6,167,172.7,166.6,172.3,166.4z"/>
		</g>
		<g>
			<path class="st29" d="M89.2,186.9v1.7c0,0.1,0,0.2,0.1,0.2l3.8,1.8c0,0,0.1,0,0.1-0.1v-1.7c0-0.1,0-0.2-0.1-0.2L89.2,186.9
				C89.3,186.8,89.2,186.9,89.2,186.9z"/>
			<path class="st9" d="M93.2,188.9v1.7c0,0,0,0.1-0.1,0.1l-3.8-1.8c0,0,0,0,0,0l2.6-0.6l1.2,0.6C93.2,188.7,93.2,188.8,93.2,188.9z
				"/>
		</g>
		<path class="st13" d="M141,177.4l18.2,8.8c0.4,0.2,0.9,0.3,1.3,0.1l32.9-7.8c0.2-0.1,0.3-0.4,0.1-0.5l-18.2-8.8
			c-0.4-0.2-0.9-0.3-1.3-0.1l-32.9,7.8C140.8,176.9,140.8,177.3,141,177.4z"/>
		<path class="st43" d="M193.6,178.4c0,0-0.1-0.1-0.1-0.1l-18.2-8.8c-0.4-0.2-0.9-0.3-1.3-0.1l-32.9,7.8c-0.1,0-0.1,0.1-0.2,0.1
			c-0.1-0.1,0-0.3,0.2-0.4l32.9-7.9c0.4-0.1,0.9-0.1,1.3,0.1l18.2,8.8C193.6,178.1,193.6,178.2,193.6,178.4z"/>
		<circle class="st44" cx="114.8" cy="61.7" r="0.9"/>
		<g>
			<path class="st29" d="M84.3,184.4v1.7c0,0.1,0,0.2,0.1,0.2l3.8,1.8c0,0,0.1,0,0.1-0.1v-1.7c0-0.1,0-0.2-0.1-0.2L84.3,184.4
				C84.3,184.3,84.3,184.4,84.3,184.4z"/>
			<path class="st9" d="M88.3,186.4v1.7c0,0,0,0.1-0.1,0.1l-3.8-1.8c0,0,0,0,0,0l2.6-0.6l1.2,0.6C88.2,186.2,88.3,186.3,88.3,186.4z
				"/>
		</g>
		<g>
			<path class="st29" d="M52.5,169.2v1.7c0,0.1,0,0.2,0.1,0.2l3.8,1.8c0,0,0.1,0,0.1-0.1v-1.7c0-0.1,0-0.2-0.1-0.2L52.5,169.2
				C52.5,169.1,52.5,169.1,52.5,169.2z"/>
			<path class="st9" d="M56.4,171.1v1.7c0,0,0,0.1-0.1,0.1l-3.8-1.8c0,0,0,0,0,0l2.6-0.6l1.2,0.6C56.4,171,56.4,171,56.4,171.1z"/>
		</g>
		<path class="st10" d="M120.5,87.6l-1.5,0.4c-0.5,0.1-0.9,0.6-0.9,1.1v2.4c0,0.5,0.4,0.8,0.9,0.7l1.5-0.4c0.5-0.1,0.9-0.6,0.9-1.1
			v-2.4C121.4,87.8,120.9,87.5,120.5,87.6z"/>
		<path class="st7" d="M120.5,95.6l-1.5,0.4c-0.5,0.1-0.9,0.6-0.9,1.1v2.4c0,0.5,0.4,0.8,0.9,0.7l1.5-0.4c0.5-0.1,0.9-0.6,0.9-1.1
			v-2.4C121.4,95.8,120.9,95.5,120.5,95.6z"/>
		<path class="st10" d="M107.8,113.9c-1.6,10.9-9.3,18.8-17.3,17.7c-7.9-1.2-13.1-11-11.5-21.9c1.6-10.9,9.3-18.8,17.3-17.7
			c1.2,0.2,2.4,0.6,3.4,1.1l-6.3,18.7l12.8-11.2C107.9,104.4,108.5,109,107.8,113.9z"/>
		<path class="st7" d="M106.2,100.6l-12.8,11.2l6.3-18.7C102.5,94.6,104.8,97.2,106.2,100.6z"/>
		<path class="st19" d="M124.4,86.9l32.6-7.8c0.1,0,0.3,0.1,0.3,0.2v3.2c0,0.2-0.2,0.5-0.4,0.5l-32.6,7.8c-0.1,0-0.3-0.1-0.3-0.2
			v-3.2C124,87.1,124.2,86.9,124.4,86.9z"/>
		<path class="st19" d="M124.4,94.6l32.6-7.8c0.1,0,0.3,0.1,0.3,0.2v3.2c0,0.2-0.2,0.5-0.4,0.5l-32.6,7.8c-0.1,0-0.3-0.1-0.3-0.2
			v-3.2C124,94.9,124.2,94.7,124.4,94.6z"/>
		<linearGradient id="SVGID_20_" gradientUnits="userSpaceOnUse" x1="190.1753" y1="175.9409" x2="179.6587" y2="196.3697">
			<stop  offset="0" style="stop-color:#FFFFFF;stop-opacity:0.5"/>
			<stop  offset="1" style="stop-color:#3C3C99"/>
		</linearGradient>
		<path class="st45" d="M193.2,185c-0.4-0.2-0.9-0.2-1.3-0.1l-17.7,4.1c-0.2,0.1-0.3,0.4-0.1,0.5l1.1,0.5v0.8c0,0.3,0.3,0.6,0.7,0.5
			l17.3-4.1c0.6-0.1,1.1-0.7,1.1-1.4v-0.4L193.2,185z"/>
	</g>
	<circle class="st23" cx="92.2" cy="33" r="1"/>
	<circle class="st23" cx="59.7" cy="184" r="1"/>
	<circle class="st23" cx="186.8" cy="226.9" r="1"/>
	<circle class="st23" cx="249.6" cy="66.8" r="1"/>
	<circle class="st23" cx="266.5" cy="108.5" r="1"/>
	<circle class="st23" cx="80.7" cy="226.7" r="1"/>
	<circle class="st23" cx="280.7" cy="121.4" r="1"/>
	<circle class="st23" cx="43.1" cy="81.5" r="1"/>
	<circle class="st23" cx="76" cy="51.6" r="1"/>
	<circle class="st23" cx="116.2" cy="38.1" r="1.7"/>
	<circle class="st23" cx="56" cy="208.9" r="1.7"/>
	<circle class="st23" cx="240.8" cy="191.3" r="1.7"/>
	<circle class="st23" cx="279.7" cy="94.7" r="1.7"/>
	<circle class="st23" cx="32.9" cy="118.3" r="1.7"/>
	<path class="st46" d="M128.1,120.6c-0.5-1.2-1.3-2.1-2.3-2.7c-0.4-0.2-0.8-0.3-1.2-0.4c-2.8-0.4-5.6,2.4-6.1,6.3
		c-0.6,3.9,1.3,7.4,4.1,7.8c2.8,0.4,5.6-2.4,6.1-6.3C128.9,123.6,128.7,122,128.1,120.6z"/>
	<polyline class="st46" points="121.2,125.3 123.2,127 126.1,122.2 	"/>
</g>
<g class="st0">
	<g class="st1">
		<linearGradient id="SVGID_21_" gradientUnits="userSpaceOnUse" x1="18.7034" y1="-77.2979" x2="299.1894" y2="338.1813">
			<stop  offset="0" style="stop-color:#3F40B4"/>
			<stop  offset="1" style="stop-color:#FB79B1"/>
		</linearGradient>
		<path class="st47" d="M114,0c45.8,0,76.8,26.1,143.5,17.9c33.3-4.1,59.8,26.8,59.8,53.7c0,21-18.7,41.6-18.7,59.9
			c0,27,18.7,22.7,18.7,60.1c0,59.2-135.4,74.1-164.5,74.1S0,267.7,0,179.9c0-42.7,15.9-55.4,15.9-110.4C15.9,11.4,80.5,0,114,0z"/>
		<linearGradient id="SVGID_22_" gradientUnits="userSpaceOnUse" x1="56.74" y1="-24.4318" x2="298.5185" y2="357.4251">
			<stop  offset="0" style="stop-color:#3F40B4"/>
			<stop  offset="1" style="stop-color:#FB79B1"/>
		</linearGradient>
		<path class="st48" d="M31.2,63.4c13.1-38,57.3-40.9,85.8-40.9c39.8,0,65.5,1.3,115.6-2.4c32.4-2.4,52.9,21.4,56.3,44.6
			c2.4,16.4-4.7,33.5-6.3,48.4c-0.2,1.8-0.3,3.6-0.2,5.4c1,28.3,21.9,33.9,21.9,68.2c0,39.4-40.7,55.7-74.6,61
			c-33.2,5.3-69,6.9-92.1,6.9c-60.7-2-120.2-31.7-128.6-76.7c-0.6-2.8-1-13.5-1-16.7c0-3.6,0.2-15,0.6-17.9
			C10.4,111.4,20.8,93.6,31.2,63.4z"/>
		<linearGradient id="SVGID_23_" gradientUnits="userSpaceOnUse" x1="81.9172" y1="21.3718" x2="291.8701" y2="375.5606">
			<stop  offset="0" style="stop-color:#3F40B4"/>
			<stop  offset="1" style="stop-color:#FB79B1"/>
		</linearGradient>
		<path class="st49" d="M291.2,181.7c0,48.1-45.2,61.7-73.9,61.7c-30.1,0-62.9,0-94.9,0.1C28,239.5,16.9,178.3,15.9,157.7v-31.9
			c0-34.9,9.6-54,30.6-68.6c25.8-18,50.1-12.3,73.5-12.3c33.7,0,54.4-22.6,87.8-22.6c54.2,0,58.2,46.9,58.2,78.4
			c0,1.6,0.1,3.2,0.2,4.7C268.3,135.1,291.2,150.5,291.2,181.7z"/>
	</g>
	<polygon class="st8" points="128.3,205.2 87.7,214.9 56.4,199.8 97,190.1 	"/>
	<path class="st50" d="M119.9,138v6.4c0,3,8.2,5.3,18.2,5.3c10.1,0,18.2-2.4,18.2-5.3V138H119.9z"/>
	<ellipse class="st51" cx="138.1" cy="138" rx="18.2" ry="5.3"/>
	<g class="st1">
		<path class="st10" d="M119.9,127.7v6.4c0,3,8.2,5.3,18.2,5.3c10.1,0,18.2-2.4,18.2-5.3v-6.4H119.9z"/>
		<ellipse class="st9" cx="138.1" cy="127.7" rx="18.2" ry="5.3"/>
	</g>
	<path class="st50" d="M119.9,117.6v6.4c0,3,8.2,5.3,18.2,5.3c10.1,0,18.2-2.4,18.2-5.3v-6.4H119.9z"/>
	<path class="st51" d="M156.3,117.6c0,3-8.2,5.4-18.2,5.4c-2.2,0-4.2-0.1-6.1-0.3c-7-0.7-12.1-2.7-12.1-5c0-3,8.2-5.3,18.2-5.3
		c1.5,0,3.1,0.1,4.5,0.2C150.5,113,156.3,115.1,156.3,117.6z"/>
	<ellipse class="st8" cx="138.1" cy="162" rx="15" ry="4.4"/>
	<g class="st52">
		<path class="st40" d="M162.2,230.3c-11.2,2.7-23.1,1.4-33.4-3.6L18,173.1c0.3,1.2,0.6,2.5,1,3.8l108.5,52.5
			c7.2,3.5,15.2,5.3,23.1,5.3c4.1,0,8.3-0.5,12.3-1.5l124.7-29.8c0.4-1.1,0.8-2.2,1.1-3.4L162.2,230.3z M226.4,68.3l39.2,19
			c-0.1-1.1-0.1-2.3-0.2-3.4l-37.7-18.2c-11-5.3-23.6-6.7-35.4-3.8L17.5,103.6c-0.2,1-0.3,2.1-0.5,3.2l175.9-42.1
			C204.1,62,216,63.3,226.4,68.3z"/>
	</g>
	<path class="st53" d="M222.7,57.6V75c0,0.1-0.1,0.2-0.2,0.2l-10.6-5.1l-2.3-1.1h0l-0.8-0.4l-3.9-1.9c-0.2-0.1-0.3-0.2-0.3-0.4V48.9
		c0-0.1,0.1-0.2,0.2-0.2l17.6,8.5C222.6,57.3,222.7,57.5,222.7,57.6z"/>
	<g class="st1">
		<path class="st54" d="M137.3,117c-0.2,0.1-0.4,0.3-0.4,0.4c0,0.1,0,0.1,0,0.2c0,0.4,0.6,0.8,1.3,0.8c0.7,0,1.3-0.4,1.3-0.8
			c0-0.4-0.6-0.8-1.3-0.8C137.8,116.8,137.5,116.9,137.3,117z"/>
		<path class="st7" d="M137.7,117.3c-0.1,0.1-0.2,0.1-0.2,0.2c0,0,0,0.1,0,0.1c0,0.2,0.3,0.4,0.7,0.4c0.4,0,0.7-0.2,0.7-0.4
			c0-0.2-0.3-0.4-0.7-0.4C138,117.2,137.8,117.2,137.7,117.3z"/>
	</g>
	<g class="st1">
		<polygon class="st19" points="218.1,108.2 201,112.3 187.7,105.8 204.9,101.7 		"/>
		<g>
			<polygon class="st10" points="200.7,101.7 219.5,97.2 219.5,92.6 200.8,97.1 			"/>
			<polygon class="st29" points="200.7,101.7 186.4,94.8 186.4,90.1 200.8,97.1 			"/>
			<polygon class="st13" points="219.5,92.6 200.8,97.1 186.4,90.1 191,89 200.7,93.7 214.7,90.3 			"/>
			<polygon class="st10" points="200.7,93.7 219.5,89.2 219.5,84.6 200.8,89 			"/>
			<polygon class="st29" points="200.7,93.7 186.4,86.7 186.4,82 200.8,89 			"/>
			<polygon class="st13" points="219.5,84.6 200.8,89 186.4,82 191,80.9 200.7,85.6 214.5,82.2 			"/>
			<g>
				<polygon class="st10" points="200.7,85.6 219.5,81.1 219.5,76.5 200.8,81 				"/>
				<polygon class="st29" points="200.7,85.6 186.4,78.7 186.4,74 200.8,81 				"/>
				<polygon class="st13" points="219.5,76.5 200.8,81 186.4,74 205.1,69.5 				"/>
			</g>
		</g>
		<g>
			<polygon class="st29" points="202.7,82.4 202.7,83.6 205,83.1 205,81.8 			"/>
			<polygon class="st9" points="203.3,82.2 205,81.8 205,83.1 			"/>
		</g>
		<g>
			<polygon class="st29" points="206.1,81.5 206.1,82.7 208.4,82.2 208.4,80.9 			"/>
			<polygon class="st9" points="206.7,81.3 208.4,80.9 208.4,82.2 			"/>
		</g>
		<g>
			<polygon class="st29" points="202.7,90.4 202.7,91.6 205,91.1 205,89.8 			"/>
			<polygon class="st9" points="203.3,90.2 205,89.8 205,91.1 			"/>
		</g>
		<g>
			<polygon class="st29" points="206.1,89.5 206.1,90.7 208.4,90.2 208.4,88.9 			"/>
			<polygon class="st9" points="206.7,89.3 208.4,88.9 208.4,90.2 			"/>
		</g>
		<g>
			<polygon class="st29" points="202.7,98.4 202.7,99.6 205,99.1 205,97.9 			"/>
			<polygon class="st9" points="203.3,98.3 205,97.9 205,99.1 			"/>
		</g>
		<g>
			<polygon class="st29" points="206.1,97.5 206.1,98.7 208.4,98.2 208.4,97 			"/>
			<polygon class="st9" points="206.7,97.4 208.4,97 208.4,98.2 			"/>
		</g>
		<linearGradient id="SVGID_24_" gradientUnits="userSpaceOnUse" x1="211.6613" y1="73.2924" x2="215.6608" y2="50.6105">
			<stop  offset="0" style="stop-color:#F2F2F2;stop-opacity:0"/>
			<stop  offset="1" style="stop-color:#F2F2F2"/>
		</linearGradient>
		<path class="st55" d="M222.7,57.6V75c0,0.1-0.1,0.2-0.2,0.2l-10.6-5.1l-2.3-1.1h0l-0.8-0.4l-3.9-1.9c-0.2-0.1-0.3-0.2-0.3-0.4
			V48.9c0-0.1,0.1-0.2,0.2-0.2l17.6,8.5C222.6,57.3,222.7,57.5,222.7,57.6z"/>
		<path class="st10" d="M222.7,57.4v0.7c0,0.1-0.1,0.2-0.2,0.2l-13.7-6.6l-3.9-1.9c-0.2-0.1-0.3-0.2-0.3-0.4v-0.7
			c0-0.1,0.1-0.2,0.2-0.2l17.6,8.5C222.6,57,222.7,57.2,222.7,57.4z"/>
		<path class="st56" d="M215.1,60.7l-8.9-4.3c-0.1,0-0.1-0.1-0.1-0.2v-1.3c0-0.1,0.1-0.1,0.1-0.1l8.9,4.3c0.1,0,0.1,0.1,0.1,0.2v1.3
			C215.2,60.6,215.1,60.7,215.1,60.7z"/>
		<path class="st56" d="M215.1,63l-8.9-4.3c-0.1,0-0.1-0.1-0.1-0.2v-1.3c0-0.1,0.1-0.1,0.1-0.1l8.9,4.3c0.1,0,0.1,0.1,0.1,0.2V63
			C215.2,63,215.1,63.1,215.1,63z"/>
		<g>
			<path class="st57" d="M218.6,78.8c-0.1-0.1-0.1-0.2-0.2-0.3c0,0-0.1,0-0.1,0c-0.3,0-0.6,0.2-0.6,0.6c-0.1,0.4,0.1,0.7,0.4,0.8
				c0.3,0,0.6-0.2,0.6-0.6C218.7,79.1,218.6,78.9,218.6,78.8z"/>
			<path class="st58" d="M218.4,79c0-0.1-0.1-0.1-0.1-0.1c0,0,0,0-0.1,0c-0.1,0-0.3,0.1-0.3,0.3c0,0.2,0.1,0.4,0.2,0.4
				c0.1,0,0.3-0.1,0.3-0.3C218.4,79.2,218.4,79.1,218.4,79z"/>
		</g>
		<g>
			<path class="st57" d="M216.8,79.2c-0.1-0.1-0.1-0.2-0.2-0.3c0,0-0.1,0-0.1,0c-0.3,0-0.6,0.2-0.6,0.6c-0.1,0.4,0.1,0.7,0.4,0.8
				c0.3,0,0.6-0.2,0.6-0.6C216.9,79.5,216.9,79.3,216.8,79.2z"/>
			<path class="st58" d="M216.6,79.4c0-0.1-0.1-0.1-0.1-0.1c0,0,0,0-0.1,0c-0.1,0-0.3,0.1-0.3,0.3c0,0.2,0.1,0.4,0.2,0.4
				c0.1,0,0.3-0.1,0.3-0.3C216.7,79.5,216.6,79.4,216.6,79.4z"/>
		</g>
		<g>
			<path class="st57" d="M218.6,86.8c-0.1-0.1-0.1-0.2-0.2-0.3c0,0-0.1,0-0.1,0c-0.3,0-0.6,0.2-0.6,0.6c-0.1,0.4,0.1,0.7,0.4,0.8
				c0.3,0,0.6-0.2,0.6-0.6C218.7,87.1,218.6,87,218.6,86.8z"/>
			<path class="st58" d="M218.4,87c0-0.1-0.1-0.1-0.1-0.1c0,0,0,0-0.1,0c-0.1,0-0.3,0.1-0.3,0.3c0,0.2,0.1,0.4,0.2,0.4
				c0.1,0,0.3-0.1,0.3-0.3C218.4,87.2,218.4,87.1,218.4,87z"/>
		</g>
		<g>
			<path class="st57" d="M216.8,87.2c-0.1-0.1-0.1-0.2-0.2-0.3c0,0-0.1,0-0.1,0c-0.3,0-0.6,0.2-0.6,0.6c-0.1,0.4,0.1,0.7,0.4,0.8
				c0.3,0,0.6-0.2,0.6-0.6C216.9,87.5,216.9,87.3,216.8,87.2z"/>
			<path class="st58" d="M216.6,87.4c0-0.1-0.1-0.1-0.1-0.1c0,0,0,0-0.1,0c-0.1,0-0.3,0.1-0.3,0.3c0,0.2,0.1,0.4,0.2,0.4
				c0.1,0,0.3-0.1,0.3-0.3C216.7,87.6,216.6,87.5,216.6,87.4z"/>
		</g>
		<g>
			<path class="st57" d="M218.6,94.9c-0.1-0.1-0.1-0.2-0.2-0.3c0,0-0.1,0-0.1,0c-0.3,0-0.6,0.2-0.6,0.6c-0.1,0.4,0.1,0.7,0.4,0.8
				c0.3,0,0.6-0.2,0.6-0.6C218.7,95.2,218.6,95,218.6,94.9z"/>
			<path class="st58" d="M218.4,95.1c0-0.1-0.1-0.1-0.1-0.1c0,0,0,0-0.1,0c-0.1,0-0.3,0.1-0.3,0.3c0,0.2,0.1,0.4,0.2,0.4
				c0.1,0,0.3-0.1,0.3-0.3C218.4,95.2,218.4,95.1,218.4,95.1z"/>
		</g>
		<g>
			<path class="st57" d="M216.8,95.2c-0.1-0.1-0.1-0.2-0.2-0.3c0,0-0.1,0-0.1,0c-0.3,0-0.6,0.2-0.6,0.6c-0.1,0.4,0.1,0.7,0.4,0.8
				c0.3,0,0.6-0.2,0.6-0.6C216.9,95.5,216.9,95.4,216.8,95.2z"/>
			<path class="st58" d="M216.6,95.4c0-0.1-0.1-0.1-0.1-0.1c0,0,0,0-0.1,0c-0.1,0-0.3,0.1-0.3,0.3c0,0.2,0.1,0.4,0.2,0.4
				c0.1,0,0.3-0.1,0.3-0.3C216.7,95.6,216.6,95.5,216.6,95.4z"/>
		</g>
		<linearGradient id="SVGID_25_" gradientUnits="userSpaceOnUse" x1="208.959" y1="79.552" x2="207.3724" y2="70.5539">
			<stop  offset="0" style="stop-color:#FFFFFF"/>
			<stop  offset="1" style="stop-color:#F2F2F2;stop-opacity:0"/>
		</linearGradient>
		<polygon class="st59" points="197.9,79.6 207.2,70.6 219.5,76.5 200.8,81 		"/>
	</g>
	<g class="st1">
		<polygon class="st29" points="149.2,134.3 149.2,136.5 153.1,135.5 153.1,133.4 		"/>
		<polygon class="st9" points="150.2,134.1 153.1,133.4 153.1,135.5 		"/>
	</g>
	<g class="st52">
		<path class="st40" d="M142.1,107.6l81.7,39.6c1,0.5,1.3,1.4,1.2,2.1c-0.1,0.7-0.5,1.6-1.6,1.8l-17.8,4.4
			c-8.6,2.1-17.7,1.1-25.6-2.7l-2-1c0.2-0.2,0.3-0.5,0.3-0.7c0-0.3-0.1-0.7-0.4-0.9c-0.4-0.4-1.1-0.6-1.9-0.6c-0.5,0-1,0.1-1.4,0.3
			c-0.4,0.2-0.7,0.5-0.8,0.8c-0.1,0.1-0.1,0.3-0.1,0.5c0,0.3,0.1,0.7,0.4,0.9c0.4,0.4,1.1,0.6,1.8,0.6c0,0,0,0,0.1,0
			c0.4,0,0.8-0.1,1.1-0.2l2.5,1.2c5.3,2.6,11.2,3.9,17,3.9c3.1,0,6.2-0.4,9.3-1.1l17.8-4.4c1.3-0.3,2.2-1.4,2.4-2.7
			c0.1-1.3-0.5-2.6-1.7-3.1l-81.7-39.6c-3.4-1.7-4.4-4.9-4.1-7.4c0.3-2.5,1.9-5.5,5.6-6.4l26.3-6.3c0,0.1,0.1,0.1,0.1,0.2
			c0.4,0.4,1.1,0.6,1.8,0.6c0,0,0,0,0.1,0c1.3,0,2.3-0.7,2.3-1.6c0-0.3-0.1-0.7-0.4-0.9c-0.4-0.4-1.1-0.7-1.9-0.6
			c-0.5,0-1,0.1-1.4,0.3c-0.4,0.2-0.7,0.5-0.8,0.8c0,0.1,0,0.1,0,0.2l-26.4,6.3c-3.5,0.8-6,3.7-6.4,7.2
			C137.1,102.7,138.9,106.1,142.1,107.6z M175.9,151.8c-0.6,0-1-0.2-1.1-0.3c-0.1-0.1-0.1-0.1-0.1-0.3c0.1-0.1,0.2-0.2,0.4-0.3l0,0
			c0.3-0.1,0.6-0.2,0.9-0.2c0,0,0,0,0.1,0c0.5,0,0.9,0.2,1.1,0.3c0.1,0.1,0.1,0.1,0.1,0.2C177.2,151.4,176.7,151.7,175.9,151.8z
			 M171.5,85.5L171.5,85.5c0.3-0.1,0.6-0.2,0.9-0.2c0,0,0,0,0.1,0c0.5,0,0.9,0.2,1.1,0.3c0.1,0.1,0.1,0.1,0.1,0.2
			c0,0.2-0.5,0.6-1.3,0.6c-0.6,0-1-0.2-1.1-0.3c-0.1-0.1-0.1-0.1-0.1-0.3C171.2,85.7,171.3,85.6,171.5,85.5z"/>
		<path class="st40" d="M155.9,100.8c-0.4,0.2-0.7,0.5-0.8,0.8c0,0.1-0.1,0.2-0.1,0.3l-9.3,2.2c-0.3,0.1-0.4,0.3-0.4,0.6
			c0.1,0.2,0.3,0.4,0.5,0.4c0,0,0.1,0,0.1,0l9.3-2.2c0,0,0,0.1,0.1,0.1c0.4,0.4,1.1,0.6,1.8,0.6c0,0,0,0,0.1,0
			c1.3,0,2.3-0.7,2.3-1.6c0-0.3-0.1-0.7-0.4-0.9c-0.4-0.4-1.1-0.7-1.9-0.6C156.7,100.5,156.3,100.6,155.9,100.8z M157.3,101.5
			c0.5,0,0.9,0.2,1.1,0.3c0.1,0.1,0.1,0.1,0.1,0.2c0,0.2-0.5,0.6-1.3,0.6c-0.6,0-1-0.2-1.1-0.3c-0.1-0.1-0.1-0.1-0.1-0.3
			c0.1-0.1,0.2-0.2,0.4-0.3l0,0C156.6,101.6,156.9,101.5,157.3,101.5C157.3,101.5,157.3,101.5,157.3,101.5z"/>
		<path class="st40" d="M278.2,189.4c-0.4,0-0.7,0.1-1,0.2l-8-3.9c-9.5-4.6-20.4-5.8-30.7-3.3l-87.2,20.9c-9.2,2.2-19.1,1.1-27.6-3
			l-12.7-6.1c0.1-0.2,0.2-0.4,0.2-0.6c0-0.3-0.1-0.7-0.4-0.9c-0.4-0.4-1.1-0.6-1.9-0.6c-0.5,0-1,0.1-1.4,0.3
			c-0.4,0.2-0.7,0.5-0.8,0.8c-0.1,0.1-0.1,0.3-0.1,0.5c0,0.3,0.1,0.7,0.4,0.9c0.4,0.4,1.1,0.6,1.8,0.6c0,0,0,0,0.1,0
			c0.5,0,0.9-0.1,1.2-0.3l13.1,6.3c5.8,2.8,12.1,4.2,18.5,4.2c3.3,0,6.6-0.4,9.8-1.2l87.2-20.9c10.1-2.4,20.7-1.3,30,3.3l7.5,3.6
			c-0.1,0.1-0.2,0.2-0.2,0.3c-0.1,0.1-0.1,0.3-0.1,0.5c0,0.3,0.1,0.7,0.4,0.9c0.4,0.4,1.1,0.6,1.8,0.6c0,0,0,0,0.1,0
			c1.3,0,2.3-0.7,2.3-1.6c0-0.3-0.1-0.7-0.4-0.9C279.7,189.6,279,189.4,278.2,189.4z M108.9,194.1c-0.6,0-1-0.2-1.1-0.3
			c-0.1-0.1-0.1-0.1-0.1-0.3c0.1-0.1,0.2-0.2,0.4-0.3l0,0c0.3-0.1,0.6-0.2,0.9-0.2c0,0,0,0,0.1,0c0.5,0,0.9,0.2,1.1,0.3
			c0.1,0.1,0.1,0.1,0.1,0.2C110.2,193.7,109.7,194.1,108.9,194.1z M278.2,191.6c-0.6,0-1-0.2-1.1-0.3c-0.1-0.1-0.1-0.1-0.1-0.3
			c0-0.1,0.2-0.2,0.4-0.3c0,0,0,0,0,0c0.3-0.1,0.6-0.2,0.9-0.2c0,0,0,0,0.1,0c0.5,0,0.9,0.2,1.1,0.3c0.1,0.1,0.1,0.1,0.1,0.2
			C279.5,191.2,278.9,191.6,278.2,191.6z"/>
		<path class="st40" d="M291.2,182.1c0,0.3,0,0.7,0,1l-14.7,3.5c0,0-0.1,0-0.1,0c-0.2,0-0.4-0.2-0.5-0.4c-0.1-0.3,0.1-0.5,0.4-0.6
			L291.2,182.1z"/>
		<path class="st40" d="M266.5,188l-95.2,22.8c0,0,0,0,0-0.1c-0.4-0.4-1.1-0.6-1.9-0.6c-0.5,0-1,0.1-1.4,0.3
			c-0.4,0.2-0.7,0.5-0.8,0.8c-0.1,0.1-0.1,0.3-0.1,0.5c0,0.3,0.1,0.7,0.4,0.9c0.4,0.4,1.1,0.6,1.8,0.6c0,0,0,0,0.1,0
			c1.2,0,2.2-0.7,2.3-1.5l95.1-22.7c0.3-0.1,0.4-0.3,0.4-0.6S266.8,187.9,266.5,188z M169.4,212.2c-0.6,0-1-0.2-1.1-0.3
			c-0.1-0.1-0.1-0.1-0.1-0.3c0.1-0.1,0.2-0.2,0.4-0.3l0,0c0.3-0.1,0.6-0.2,0.9-0.2c0,0,0,0,0.1,0c0.5,0,0.9,0.2,1.1,0.3
			c0.1,0.1,0.1,0.1,0.1,0.2C170.7,211.8,170.1,212.2,169.4,212.2z"/>
		<path class="st40" d="M136.1,107.5c0.3-0.1,0.4-0.3,0.4-0.6c-0.1-0.3-0.3-0.4-0.6-0.4l-95.4,22.8c-0.4-0.3-1-0.5-1.7-0.5
			c-0.5,0-1,0.1-1.4,0.3c-0.4,0.2-0.7,0.5-0.8,0.8c-0.1,0.1-0.1,0.3-0.1,0.5c0,0.3,0.1,0.7,0.4,0.9c0.4,0.4,1.1,0.6,1.8,0.6
			c0,0,0,0,0.1,0c1.3,0,2.3-0.7,2.3-1.6c0,0,0-0.1,0-0.1L136.1,107.5z M38.7,131c-0.6,0-1-0.2-1.1-0.3c-0.1-0.1-0.1-0.1-0.1-0.3
			c0-0.1,0.2-0.2,0.4-0.3l0,0c0.3-0.1,0.6-0.2,0.9-0.2c0,0,0,0,0.1,0c0.5,0,0.9,0.2,1.1,0.3c0.1,0.1,0.1,0.1,0.1,0.2
			C40.1,130.6,39.5,131,38.7,131z"/>
	</g>
	<g class="st1">
		<polygon class="st60" points="86.4,194.6 136.2,182.7 136.2,129.5 86.7,141.4 		"/>
		<linearGradient id="SVGID_26_" gradientUnits="userSpaceOnUse" x1="111.3086" y1="194.6182" x2="111.3086" y2="129.545">
			<stop  offset="0" style="stop-color:#AFE5F8;stop-opacity:0"/>
			<stop  offset="1" style="stop-color:#AAEEFF"/>
		</linearGradient>
		<polygon class="st61" points="86.4,194.6 136.2,182.7 136.2,129.5 86.7,141.4 		"/>
		<polygon class="st13" points="86.4,194.6 48.5,176.2 48.5,122.9 86.7,141.4 		"/>
		<polygon class="st40" points="136.2,129.5 86.7,141.4 48.5,122.9 98,111 		"/>
		<polygon class="st40" points="72.7,125.5 97,119.7 112,126.9 87.6,132.7 		"/>
		<polygon class="st13" points="112,126.9 104.6,128.7 97,125 80.1,129.1 72.7,125.5 97,119.7 		"/>
		<linearGradient id="SVGID_27_" gradientUnits="userSpaceOnUse" x1="104.5101" y1="128.6876" x2="104.5101" y2="119.6847">
			<stop  offset="0" style="stop-color:#3C3C99;stop-opacity:0"/>
			<stop  offset="1" style="stop-color:#3C3C99"/>
		</linearGradient>
		<polygon class="st62" points="112,126.9 104.6,128.7 97,125 97,119.7 		"/>
		<g>
			<path class="st10" d="M52.7,131.3v2.3c0,0.1,0.1,0.2,0.2,0.3l5.2,2.5c0.1,0,0.1,0,0.1-0.1V134c0-0.1-0.1-0.2-0.2-0.3l-5.2-2.5
				C52.8,131.2,52.7,131.2,52.7,131.3z"/>
			<path class="st9" d="M58.1,134v2.3c0,0.1-0.1,0.1-0.1,0.1l-5.2-2.5c0,0,0,0-0.1-0.1l3.6-0.8l1.6,0.8
				C58.1,133.8,58.1,133.9,58.1,134z"/>
		</g>
		<g>
			<path class="st10" d="M52.7,136.9v2.3c0,0.1,0.1,0.2,0.2,0.3l5.2,2.5c0.1,0,0.1,0,0.1-0.1v-2.3c0-0.1-0.1-0.2-0.2-0.3l-5.2-2.5
				C52.8,136.8,52.7,136.8,52.7,136.9z"/>
			<path class="st9" d="M58.1,139.6v2.3c0,0.1-0.1,0.1-0.1,0.1l-5.2-2.5c0,0,0,0-0.1-0.1l3.6-0.8l1.6,0.8
				C58.1,139.4,58.1,139.5,58.1,139.6z"/>
		</g>
		<path class="st18" d="M92.8,144.8l-1,0.2c-0.3,0.1-0.6,0.4-0.6,0.7v1.6c0,0.3,0.3,0.5,0.6,0.5l1-0.2c0.3-0.1,0.6-0.4,0.6-0.7v-1.6
			C93.4,144.9,93.1,144.7,92.8,144.8z"/>
		<path class="st18" d="M97,143.9l-1,0.2c-0.3,0.1-0.6,0.4-0.6,0.7v1.6c0,0.3,0.3,0.5,0.6,0.5l1-0.2c0.3-0.1,0.6-0.4,0.6-0.7v-1.6
			C97.6,144.1,97.3,143.9,97,143.9z"/>
		<polygon class="st10" points="97.1,156 127,148.8 127,145.6 97.1,152.7 		"/>
		<polygon class="st9" points="98.5,159 125.6,152.5 125.6,152.9 98.5,159.4 		"/>
		<polygon class="st9" points="98.5,161.6 125.6,155.1 125.6,155.5 98.5,162 		"/>
		<polygon class="st9" points="98.5,164.1 125.6,157.6 125.6,158 98.5,164.5 		"/>
		<polygon class="st9" points="98.5,166.7 125.6,160.2 125.6,160.6 98.5,167.1 		"/>
		<path class="st58" d="M92.8,145.8c-0.1-0.1-0.1-0.2-0.2-0.3c0,0-0.1,0-0.1,0c-0.3,0-0.6,0.2-0.6,0.7c-0.1,0.4,0.1,0.8,0.4,0.8
			c0.3,0,0.6-0.2,0.6-0.7C92.9,146.1,92.9,146,92.8,145.8z"/>
		<path class="st58" d="M97,145c-0.1-0.1-0.1-0.2-0.2-0.3c0,0-0.1,0-0.1,0c-0.3,0-0.6,0.2-0.6,0.7c-0.1,0.4,0.1,0.8,0.4,0.8
			c0.3,0,0.6-0.2,0.6-0.7C97.1,145.3,97.1,145.1,97,145z"/>
		<g>
			<path class="st23" d="M39.1,71.4l72.1-17.2c0.3-0.1,0.6,0.2,0.6,0.5v48.6c0,0.6-0.4,1-0.9,1.2l-72.1,17.2
				c-0.3,0.1-0.6-0.2-0.6-0.5V72.5C38.2,72,38.6,71.5,39.1,71.4z"/>
			<path class="st19" d="M78.7,74.7l21.2-5.1c0.1,0,0.2,0,0.2,0.1v2c0,0.2-0.1,0.3-0.3,0.3l-21.2,5.1c-0.1,0-0.2,0-0.2-0.1v-2
				C78.4,74.9,78.5,74.7,78.7,74.7z"/>
			<path class="st18" d="M73.4,76.3v16.5c0,0.2-0.1,0.4-0.3,0.4l-25.5,6.1c-0.1,0-0.2-0.1-0.2-0.2V82.6c0-0.2,0.1-0.4,0.3-0.4
				l18.7-4.5l6.8-1.6C73.3,76.1,73.4,76.1,73.4,76.3z"/>
			<path class="st19" d="M78.7,79.7l21.2-5.1c0.1,0,0.2,0,0.2,0.1v2c0,0.2-0.1,0.3-0.3,0.3l-21.2,5.1c-0.1,0-0.2,0-0.2-0.1v-2
				C78.4,79.9,78.5,79.8,78.7,79.7z"/>
			<path class="st19" d="M78.7,85.1l21.2-5.1c0.1,0,0.2,0,0.2,0.1v2c0,0.2-0.1,0.3-0.3,0.3l-21.2,5.1c-0.1,0-0.2,0-0.2-0.1v-2
				C78.4,85.3,78.5,85.2,78.7,85.1z"/>
			<path class="st10" d="M69.3,108.5c-0.1-0.3-0.3-0.5-0.6-0.7c-0.1,0-0.2-0.1-0.3-0.1c-0.7-0.1-1.4,0.6-1.5,1.5
				c-0.1,1,0.3,1.8,1,1.9c0.7,0.1,1.4-0.6,1.5-1.5C69.5,109.3,69.5,108.9,69.3,108.5z"/>
			<path class="st10" d="M75.7,107c-0.1-0.3-0.3-0.5-0.6-0.7c-0.1,0-0.2-0.1-0.3-0.1c-0.7-0.1-1.4,0.6-1.5,1.5c-0.1,1,0.3,1.8,1,1.9
				c0.7,0.1,1.4-0.6,1.5-1.5C75.9,107.7,75.8,107.3,75.7,107z"/>
			<path class="st10" d="M82.1,105.5c-0.1-0.3-0.3-0.5-0.6-0.7c-0.1,0-0.2-0.1-0.3-0.1c-0.7-0.1-1.4,0.6-1.5,1.5
				c-0.1,1,0.3,1.8,1,1.9c0.7,0.1,1.4-0.6,1.5-1.5C82.2,106.2,82.2,105.8,82.1,105.5z"/>
			<path class="st10" d="M88.4,103.9c-0.1-0.3-0.3-0.5-0.6-0.7c-0.1,0-0.2-0.1-0.3-0.1c-0.7-0.1-1.4,0.6-1.5,1.5
				c-0.1,1,0.3,1.8,1,1.9c0.7,0.1,1.4-0.6,1.5-1.5C88.6,104.7,88.6,104.3,88.4,103.9z"/>
			<path class="st7" d="M73.4,76.3v16.5c0,0.2-0.1,0.4-0.3,0.4l-25.5,6.1c-0.1,0-0.2-0.1-0.2-0.2v-3.8l6.4-5.9l12.7-11.7l6.8-1.6
				C73.3,76.1,73.4,76.1,73.4,76.3z"/>
			<path class="st10" d="M73.4,90.6v2.1c0,0.2-0.1,0.4-0.3,0.4l-25.5,6.1c-0.1,0-0.2-0.1-0.2-0.2v-3.8l6.4-5.9L73.4,90.6z"/>
		</g>
		<linearGradient id="SVGID_28_" gradientUnits="userSpaceOnUse" x1="107.5154" y1="137.7176" x2="103.8487" y2="116.923">
			<stop  offset="0" style="stop-color:#FFFFFF;stop-opacity:0"/>
			<stop  offset="1" style="stop-color:#FFFFFF"/>
		</linearGradient>
		<polygon class="st63" points="77.2,136.8 85.2,131.5 87.6,132.7 112,126.9 100.5,121.4 108.5,116.1 136.2,129.5 86.7,141.4 		"/>
	</g>
	<path class="st64" d="M128.3,178.1L128.3,178.1c2.4,1.1,3.9,3.5,3.9,6.2l0,0c0,3.7,3.5,6.5,7.1,5.6l129.6-31c1.5-0.4,1.7-2.3,0.3-3
		L236.4,140c-1.4-0.7-1.2-2.7,0.3-3.1l16.7-4c1.5-0.4,1.7-2.3,0.3-3l-16.3-7.9c-3.4-1.6-7.2-2.1-10.9-1.2l-17.7,4.2
		c-6,1.4-12.3,0.7-17.8-1.9l-23.7-11.5c-1.4-0.7-1.1-2.7,0.3-3l10.1-2.4c3.4-0.8,5.8-3.8,5.8-7.3v0c0-2.6,1.8-4.8,4.3-5.4l0,0"/>
	<path class="st64" d="M153.1,145.5L153.1,145.5c2,1,3.2,3,3.2,5.2v0c0,9.6,5.5,18.4,14.2,22.6l18.1,8.8c3,1.4,6.4,1.8,9.6,1l8.5-2
		c1.2-0.3,1.5-1.9,0.4-2.6l-6.7-3.8c-4-2.3-8.7-3-13.2-1.9l-58.6,14c-3,0.7-6.2-0.2-8.3-2.5l0,0c-1.3-1.3-2.7-2.4-4.4-3.2l0,0"/>
	<circle class="st65" cx="135.4" cy="88.7" r="1"/>
	<circle class="st65" cx="75.9" cy="53.4" r="1"/>
	<circle class="st65" cx="153.2" cy="48.3" r="1"/>
	<circle class="st65" cx="243.3" cy="98.2" r="1"/>
	<circle class="st65" cx="253.4" cy="118.3" r="1"/>
	<circle class="st65" cx="247" cy="221.4" r="1"/>
	<circle class="st65" cx="56.1" cy="210" r="1"/>
	<circle class="st65" cx="237.5" cy="230.8" r="1"/>
	<circle class="st65" cx="33.5" cy="149.8" r="1"/>
	<circle class="st65" cx="178.3" cy="140.2" r="1"/>
	<circle class="st65" cx="241.5" cy="58.3" r="1"/>
	<circle class="st65" cx="186.4" cy="36.5" r="1"/>
	<circle class="st65" cx="189.4" cy="53.1" r="1.7"/>
	<circle class="st65" cx="25.5" cy="138" r="1.7"/>
	<g class="st1">
		<g>
			<polyline class="st66" points="175.4,67.4 116.1,81.6 116.1,49.9 			"/>
			<linearGradient id="SVGID_29_" gradientUnits="userSpaceOnUse" x1="144.8024" y1="81.5625" x2="144.8024" y2="52.2018">
				<stop  offset="0" style="stop-color:#F0699C;stop-opacity:0"/>
				<stop  offset="1" style="stop-color:#F0699C"/>
			</linearGradient>
			<path class="st67" d="M116.1,61.2c6.5-1.6,5.5,0.1,10.1-1.1c4.5-1.2,5.6-6.8,9.8-7.8s5.8,5.4,9.8,4.9c9.2-1.1,12.1,5.8,16.8,4.3
				c4.7-1.5,10.9,6.3,10.9,6.3l-57.4,13.7V61.2z"/>
			<circle class="st7" cx="116.1" cy="49.9" r="1.5"/>
			<circle class="st7" cx="175.4" cy="67.3" r="1.5"/>
		</g>
		<g>
			<polyline class="st68" points="182.2,70.8 123,85 123,53.3 			"/>
			<linearGradient id="SVGID_30_" gradientUnits="userSpaceOnUse" x1="151.6558" y1="84.9547" x2="151.6558" y2="56.0915">
				<stop  offset="0" style="stop-color:#EFD17D;stop-opacity:0"/>
				<stop  offset="1" style="stop-color:#EFD17D"/>
			</linearGradient>
			<path class="st69" d="M123,67.3c6.5-1.6,6.4-9.8,10.9-11c4.5-1.2,4.1,3.9,8.2,2.9c4.2-1,10.4,3.4,14.4,2.8
				c5.5-0.8,5.3,6.5,12.2,4.9c4.8-1.1,11.6,4.3,11.6,4.3L123,85V67.3z"/>
			<circle class="st18" cx="123" cy="53.3" r="1.5"/>
			<circle class="st18" cx="182.2" cy="70.7" r="1.5"/>
		</g>
	</g>
</g>
</svg>
