<?xml version="1.0" encoding="utf-8"?>
<!-- Generator: Adobe Illustrator 21.1.0, SVG Export Plug-In . SVG Version: 6.00 Build 0)  -->
<svg version="1.1" id="Layer_1" xmlns="http://www.w3.org/2000/svg" xmlns:xlink="http://www.w3.org/1999/xlink" x="0px" y="0px"
	 width="317.2px" height="265.7px" viewBox="0 0 317.2 265.7" style="enable-background:new 0 0 317.2 265.7;" xml:space="preserve"
	>
<style type="text/css">
	.st0{display:none;}
	.st1{display:inline;}
	.st2{opacity:0.3;fill:url(#SVGID_1_);}
	.st3{opacity:0.65;fill:url(#SVGID_2_);}
	.st4{fill:url(#SVGID_3_);}
	.st5{display:inline;fill:#FFFFFF;}
	.st6{fill:#FFFFFF;}
	.st7{display:inline;fill:url(#SVGID_4_);}
	.st8{fill:#3C3C99;}
	.st9{fill:#2C56F2;}
	.st10{opacity:0.2;fill:#2F2B70;}
	.st11{fill:#1D1D56;}
	.st12{fill:#2F2B70;}
	.st13{fill:#F2F2F2;}
	.st14{opacity:0.4;fill:#2F2B70;}
	.st15{fill:url(#SVGID_5_);}
	.st16{fill:#F0699C;}
	.st17{fill:#FFE5A4;}
	.st18{fill:#CE9B1D;}
	.st19{display:inline;fill:url(#SVGID_6_);}
	.st20{display:inline;fill:#2C56F2;}
	.st21{display:inline;fill:url(#SVGID_7_);}
	.st22{fill:#AAEEFF;}
	.st23{fill:none;stroke:#3C3C99;stroke-linecap:round;stroke-miterlimit:10;}
	.st24{fill:none;stroke:#3C3C99;stroke-width:0.6917;stroke-linecap:round;stroke-miterlimit:10;}
	.st25{display:inline;fill:none;stroke:#2C56F2;stroke-width:1.159;stroke-linejoin:round;stroke-miterlimit:10;}
	.st26{opacity:0.3;fill:url(#SVGID_8_);}
	.st27{opacity:0.65;fill:url(#SVGID_9_);}
	.st28{fill:url(#SVGID_10_);}
	.st29{display:inline;fill:url(#SVGID_11_);}
	.st30{display:inline;opacity:0.9;fill:#2C56F2;}
	.st31{font-family:'ProductSans-Regular';}
	.st32{font-size:37.3565px;}
	.st33{display:inline;fill:#AAEEFF;}
	.st34{display:inline;fill:#EFD17D;}
	.st35{display:inline;fill:#F0699C;}
	.st36{fill:none;stroke:#2C56F2;stroke-width:1.5;stroke-linecap:round;stroke-linejoin:round;stroke-miterlimit:10;}
	.st37{display:inline;fill:url(#SVGID_12_);}
	.st38{display:inline;opacity:0.4;fill:#2F2B70;}
	
		.st39{display:inline;fill:none;stroke:#2C56F2;stroke-width:1.5;stroke-linecap:round;stroke-linejoin:round;stroke-miterlimit:10;}
	.st40{fill:#EFD17D;}
	.st41{fill:none;stroke:#CC9B2B;stroke-width:2;stroke-linejoin:round;stroke-miterlimit:10;}
	
		.st42{display:inline;fill:none;stroke:#F0699C;stroke-width:1.5;stroke-linecap:round;stroke-linejoin:round;stroke-miterlimit:10;}
	.st43{display:inline;fill:none;stroke:#AAEEFF;stroke-width:1.5;stroke-linecap:round;stroke-miterlimit:10;}
	.st44{opacity:0.3;fill:url(#SVGID_13_);}
	.st45{opacity:0.65;fill:url(#SVGID_14_);}
	.st46{fill:url(#SVGID_15_);}
	.st47{opacity:0.3;}
	.st48{fill:url(#SVGID_16_);}
	.st49{fill:url(#SVGID_17_);}
	.st50{fill:url(#SVGID_18_);}
	.st51{fill:url(#SVGID_19_);}
	.st52{fill:url(#SVGID_20_);}
	.st53{fill:url(#SVGID_21_);}
	.st54{fill:url(#SVGID_22_);}
	.st55{fill:url(#SVGID_23_);}
	.st56{fill:url(#SVGID_24_);}
	.st57{opacity:0.4;fill:url(#SVGID_25_);}
	.st58{opacity:0.4;fill:url(#SVGID_26_);}
	.st59{opacity:0.4;fill:url(#SVGID_27_);}
	.st60{opacity:0.4;fill:url(#SVGID_28_);}
	.st61{opacity:0.4;fill:url(#SVGID_29_);}
	.st62{opacity:0.4;fill:url(#SVGID_30_);}
	.st63{opacity:0.4;fill:url(#SVGID_31_);}
	.st64{opacity:0.4;fill:url(#SVGID_32_);}
	.st65{opacity:0.4;fill:url(#SVGID_33_);}
	.st66{opacity:0.4;fill:url(#SVGID_34_);}
	.st67{opacity:0.4;fill:url(#SVGID_35_);}
	.st68{fill:url(#SVGID_36_);}
	.st69{fill:url(#SVGID_37_);}
	.st70{fill:url(#SVGID_38_);}
	.st71{fill:url(#SVGID_39_);}
	.st72{fill:url(#SVGID_40_);}
	.st73{fill:url(#SVGID_41_);}
	.st74{fill:url(#SVGID_42_);}
	.st75{fill:url(#SVGID_43_);}
	.st76{fill:url(#SVGID_44_);}
	.st77{fill:url(#SVGID_45_);}
	.st78{fill:url(#SVGID_46_);}
	.st79{fill:url(#SVGID_47_);}
	.st80{fill:#B52656;}
	.st81{fill:#81E2FC;}
	.st82{fill:url(#SVGID_48_);}
	.st83{fill:url(#SVGID_49_);}
	.st84{fill:url(#SVGID_50_);}
	.st85{fill:url(#SVGID_51_);}
	.st86{fill:url(#SVGID_52_);}
	.st87{fill:url(#SVGID_53_);}
	.st88{fill:url(#SVGID_54_);}
	.st89{fill:url(#SVGID_55_);}
	.st90{fill:url(#SVGID_56_);}
	.st91{fill:url(#SVGID_57_);}
	.st92{fill:url(#SVGID_58_);}
	.st93{fill:url(#SVGID_59_);}
	.st94{fill:url(#SVGID_60_);}
	.st95{fill:url(#SVGID_61_);}
	.st96{fill:url(#SVGID_62_);}
	.st97{fill:url(#SVGID_63_);}
</style>
<g class="st0">
	<g class="st1">
		<g>
			<linearGradient id="SVGID_1_" gradientUnits="userSpaceOnUse" x1="-21.9041" y1="-79.4257" x2="342.0959" y2="349.5742">
				<stop  offset="0" style="stop-color:#3F40B4"/>
				<stop  offset="1" style="stop-color:#FB79B1"/>
			</linearGradient>
			<path class="st2" d="M282.7,28.4c10.6,8.1,18,16.3,22.2,29.1c3.6,11,4.4,23,1.9,34.4c-1.8,8.3-5.2,16.2-6.6,24.6
				c-4.3,25.9,10.9,50.6,15.6,76.5c2.3,12.5,2,25.8-3.2,37.4c-14.3,32-62,37.5-92.4,34.9c-14.1-1.2-27.7-0.1-41.8-0.1
				c-18.5,0-35.3-4.4-53.5-8.2c-15.7-3.3-34.1-2.6-50.2-3.7c-11.6-0.8-21.8-0.3-32.1-6.6c-8.7-5.3-16-13.1-20.8-22.1
				c-7.6-14.1-4.4-30-6-45.4c-2-19.3-9.3-36.3-14.6-54.7c-1.9-6.6-1-14.4-1.1-21.2C0,94.8,0.8,86.3,3.4,78.3
				c6-18.4,18.7-34.4,34.2-45.7C58.7,17.2,84.6,9.7,110.4,6.3c17.6-2.3,33-5.1,50.8-5.8C204.1-1.4,247.1,1.2,282.7,28.4z"/>
			<linearGradient id="SVGID_2_" gradientUnits="userSpaceOnUse" x1="262.3358" y1="-284.4153" x2="25.8619" y2="639.1278">
				<stop  offset="0" style="stop-color:#3F40B4"/>
				<stop  offset="1" style="stop-color:#FB79B1"/>
			</linearGradient>
			<path class="st3" d="M53.8,42.1c27.7-16,61.1-18.9,92.7-20.4c11.3-0.5,21.9-1.4,32.9-1.4c4.1,0,8.1,0,12.1,0.2
				c45.5,2.4,74.3,13.7,95.5,42.4c5.4,7.3,9.1,14,10.3,23.1c1.1,8.1,0.2,16.5-2.4,24.6c-1.9,5.8-4.7,11.5-6.5,17.3
				c-5.6,18.1-1.9,35.6-1.5,54c0.2,9-0.9,18.5-2.8,27.5c-6.8,31.6-39.6,42.8-66.1,43.8c-2.4,0.1-4.7,0.1-7,0.1
				c-13-0.3-25.4-0.7-37.7-2.3c-16.7-2.2-31.9-7.9-47.1-12.4c-7.3-2.2-14.7-3.6-22-4.3c-7.5-0.7-15.3-1.1-23-1.7
				c-10.3-0.9-19.9-1.2-29.3-5.5c-8.5-3.8-16.1-9.3-21.5-16.5c-7.8-10.4-7.7-22.6-9.1-34.8c-1.7-15.2-4.8-29.6-6.9-44.4
				c-0.9-6.6,0-14,0.5-20.9c0.6-8.2,1.9-16.5,4.5-24.3C25.5,67.9,37.1,51.7,53.8,42.1z"/>
			<linearGradient id="SVGID_3_" gradientUnits="userSpaceOnUse" x1="860.7158" y1="-129.3977" x2="-761.3309" y2="492.006">
				<stop  offset="0" style="stop-color:#3F40B4"/>
				<stop  offset="1" style="stop-color:#FB79B1"/>
			</linearGradient>
			<path class="st4" d="M208.1,240.9c22.9-3.1,50.1-17.9,47.6-52.3c-2.5-34.3,40.1-56.9,35.5-91.1c-4.6-34.2-23.9-51.7-80-58.4
				c-9.5-1.2-19.1-1.8-28.7-2.1c-37.3-1.2-78.1-1.6-112.6,14.6C38.1,66.5,29,106.2,27.5,138.5c-0.9,20-6,43.3,11.3,58.3
				c17.8,15.4,47.8,14.1,69.3,17.6C135.2,218.8,167,246.5,208.1,240.9z"/>
		</g>
	</g>
	<circle class="st5" cx="55.7" cy="94.1" r="0.8"/>
	<g class="st1">
		<circle class="st6" cx="189.8" cy="216" r="0.8"/>
		<circle class="st6" cx="225.1" cy="192" r="0.8"/>
		<circle class="st6" cx="48.8" cy="74.6" r="0.8"/>
		<circle class="st6" cx="272.4" cy="104" r="0.8"/>
		<circle class="st6" cx="54.9" cy="197.9" r="0.8"/>
		<circle class="st6" cx="141.2" cy="91.3" r="0.8"/>
		<circle class="st6" cx="111.5" cy="53" r="0.8"/>
		<circle class="st6" cx="140.3" cy="175.4" r="0.8"/>
		<circle class="st6" cx="148.5" cy="165.1" r="0.8"/>
		<circle class="st6" cx="149.4" cy="198.7" r="0.8"/>
		<circle class="st6" cx="50.5" cy="179.3" r="0.8"/>
		<circle class="st6" cx="225.1" cy="152.8" r="0.8"/>
		<circle class="st6" cx="92" cy="92.7" r="1.4"/>
		<circle class="st6" cx="212.7" cy="180.3" r="1.4"/>
		<circle class="st6" cx="264.2" cy="83.8" r="1.4"/>
	</g>
	<circle class="st5" cx="63.2" cy="157.3" r="1.4"/>
	<path class="st5" d="M253.8,65v62c0,0.7-0.5,1.3-1.2,1.5l-92.1,22c-0.4,0.1-0.8-0.2-0.8-0.6v-62c0-0.7,0.5-1.3,1.2-1.5l92.1-22
		C253.4,64.3,253.8,64.6,253.8,65z"/>
	<linearGradient id="SVGID_4_" gradientUnits="userSpaceOnUse" x1="206.8131" y1="139.1239" x2="206.8131" y2="94.6776">
		<stop  offset="0" style="stop-color:#2C56F2;stop-opacity:0"/>
		<stop  offset="1" style="stop-color:#2C56F2"/>
	</linearGradient>
	<path class="st7" d="M168.1,105.2c9-1.2,11.7,18.5,20.8,17.7c9-0.8,10.2-26.1,22.3-28.1c12.2-2,34.2,25.8,34.2,25.8l-77.3,18.5
		V105.2z"/>
	<g class="st1">
		<path class="st8" d="M133.4,118.3v1l0,44.5c0,0.6-0.4,1.2-1.1,1.3l-52.4,11.7l-2.5,0.6h0c-0.8,0.1-1.3,0.2-1.8,0.1v-50.7
			l57.1-12.7C133.3,114.9,133.4,116,133.4,118.3z"/>
		<path class="st9" d="M132.7,114.1l-57.1,12.7l-17.3-8.4c0.6-0.6,1.6-0.9,3.3-1.3c0.4-0.1,0.9-0.2,1.4-0.3l52.4-11.7l13.7,6.7
			c0.1,0.1,0.3,0.1,0.4,0.2l0.7,0.3C131.4,113,132.2,113.5,132.7,114.1z"/>
		<polygon class="st10" points="78.4,197.9 127.9,186.9 112.5,179.4 63,190.4 		"/>
		<path class="st11" d="M75.5,126.8v50.7c-0.6-0.1-1.1-0.2-1.8-0.5l0,0l-1.4-0.7l-1.4-0.7l-12-5.8c-0.9-0.4-1.5-1.4-1.5-2.4l-0.1-45
			c0-2.2,0-3.3,0.7-4h0L75.5,126.8z"/>
		<ellipse class="st12" cx="112.6" cy="111.9" rx="7" ry="2.8"/>
		<ellipse class="st12" cx="78.7" cy="119.5" rx="7" ry="2.8"/>
		<g>
			<path class="st13" d="M118.6,103.4c0,1.5-0.1,2.9-0.1,4.3v4.5c-0.3,0.2-0.7,0.5-1.2,0.7c-0.6,0.2-1.3,0.4-2,0.6
				c-0.8,0.1-1.7,0.2-2.7,0.2c-2.6,0-4.8-0.6-5.9-1.4v-4.5c0-1.4,0-3,0-4.5c0.1-7.6,0.3-18.1-3.6-21.5c-1.5-1.3-4.2-1.7-7.8-1.2
				c-10.7,1.7-11.5,9-10.8,26.6c0.1,2.6,0.2,5.4,0.2,8v4.5c-0.3,0.2-0.6,0.4-1,0.6c-0.7,0.3-1.6,0.6-2.7,0.7
				c-0.7,0.1-1.4,0.2-2.2,0.2c-2.6,0-4.9-0.6-5.9-1.4v-4.5c0-2.4-0.1-5-0.2-7.6c-0.5-14.9-1.3-35.3,20.9-38.8
				c7.3-1.1,13.2,0.2,17.5,4C119,79.8,118.8,92.9,118.6,103.4z"/>
		</g>
		<g>
			<path class="st13" d="M108.4,104.3c0,1.5,0,3.1,0,4.5v4.2c-0.7-0.2-1.3-0.5-1.7-0.8v-4.5c0-1.4,0-3,0-4.5
				c0.1-7.4,0.3-17.5-3.2-21.2c0.5,0.2,1,0.5,1.4,0.8C108.7,86.2,108.5,96.7,108.4,104.3z"/>
		</g>
		<g>
			<path class="st6" d="M99.2,68.4c-1.2,0.1-2.5,0.2-3.8,0.4c-23,3.6-22.3,24.8-21.7,40.3c0.1,2.8,0.2,5.4,0.2,7.9v3.3
				c-0.5-0.2-0.9-0.4-1.2-0.7v-4.5c0-2.4-0.1-5-0.2-7.6c-0.5-14.9-1.3-35.3,20.9-38.8C95.5,68.5,97.4,68.4,99.2,68.4z"/>
		</g>
		<path class="st14" d="M83.6,120.3c-0.7,0.3-1.6,0.6-2.7,0.7c-0.2-2.1-1.4-23.4,2.7-31.5C82.6,96.2,82.9,109.7,83.6,120.3z"/>
		<path class="st14" d="M117.3,112.9c-0.6,0.2-1.3,0.4-2,0.6c-0.3-5.5,1.7-25.8-1.7-35C119,83.9,117.5,107.3,117.3,112.9z"/>
		<path class="st6" d="M84.8,77.6c0.5-1,1.4-1.9,2.3-2.6c0.2-0.2,0.5-0.4,0.7-0.5l0.7-0.5c0.5-0.3,1-0.6,1.5-0.8
			c2.1-0.9,4.4-1.5,6.7-1.6c2.3-0.2,4.7,0.1,6.9,0.8c2.2,0.7,4.3,2.1,5.6,4c-2.1-1-4.1-1.4-6.1-1.7c-2-0.2-4.1-0.2-6.1-0.1
			c-2,0.1-4.1,0.4-6.1,0.9C88.8,76,86.8,76.6,84.8,77.6z"/>
		<g>
			<linearGradient id="SVGID_5_" gradientUnits="userSpaceOnUse" x1="117.3156" y1="122.8805" x2="145.2128" y2="122.8805">
				<stop  offset="0" style="stop-color:#F03B9C"/>
				<stop  offset="1" style="stop-color:#F0699C;stop-opacity:0"/>
			</linearGradient>
			<path class="st15" d="M143.5,112.2c-1.4-3.2-3.5-5.7-6.2-7.1c-1-0.5-2.1-0.9-3.3-1.1c-7.5-1.1-14.9,6.4-16.4,16.8
				c-1.5,10.4,3.4,19.7,10.9,20.8c7.5,1.1,14.9-6.4,16.4-16.8C145.6,120.2,145,115.8,143.5,112.2z"/>
			<path class="st16" d="M145.5,112.2c-1.4-3.2-3.5-5.7-6.2-7.1c-1-0.5-2.1-0.9-3.3-1.1c-7.5-1.1-14.9,6.4-16.4,16.8
				c-1.5,10.4,3.4,19.7,10.9,20.8c7.5,1.1,14.9-6.4,16.4-16.8C147.7,120.2,147.1,115.8,145.5,112.2z"/>
		</g>
		<g>
			<polygon class="st17" points="133.1,115.7 135.5,120.4 140.3,120.8 137,124.9 138,130.2 133.5,128 129.3,130.9 129.9,125.4 
				126.3,121.9 131.1,120.7 			"/>
			<polygon class="st18" points="136.9,124.9 138,130.2 137.4,129.9 136.4,124.9 139.8,120.8 134.9,120.4 132.9,116.3 133.1,115.7 
				135.5,120.4 140.3,120.8 			"/>
		</g>
		<g>
			<path class="st18" d="M110.6,141.3c-0.7-1.7-1.9-3.1-3.3-3.8c-0.5-0.3-1.1-0.5-1.8-0.6c-4-0.6-8,3.4-8.8,9
				c-0.8,5.6,1.8,10.5,5.8,11.1c4,0.6,8-3.4,8.8-9C111.7,145.6,111.4,143.2,110.6,141.3z"/>
			<path class="st17" d="M112.8,141.3c-0.7-1.7-1.9-3.1-3.3-3.8c-0.5-0.3-1.1-0.5-1.8-0.6c-4-0.6-8,3.4-8.8,9
				c-0.8,5.6,1.8,10.5,5.8,11.1c4,0.6,8-3.4,8.8-9C113.9,145.6,113.6,143.2,112.8,141.3z"/>
			<path class="st8" d="M107.9,145c-0.2-0.4-0.5-0.8-0.8-1c-0.1-0.1-0.3-0.1-0.4-0.1c-1-0.2-2,0.9-2.2,2.3c-0.2,1.3,0.4,2.5,1.3,2.8
				v3.8h1.1v-3.9c0.6-0.4,1.2-1.1,1.3-2.1C108.2,146.1,108.1,145.5,107.9,145z"/>
		</g>
	</g>
	<linearGradient id="SVGID_6_" gradientUnits="userSpaceOnUse" x1="206.8131" y1="139.1239" x2="206.8131" y2="99.5562">
		<stop  offset="0" style="stop-color:#EFD17D;stop-opacity:0"/>
		<stop  offset="1" style="stop-color:#EFD17D"/>
	</linearGradient>
	<path class="st19" d="M168.1,111.7c8.8-2.1,7.4,7.7,13.6,6.1s7.6-16.8,13.2-18.1s11.5,7.5,16.9,6.7c7.5-1.1,12.5,7.7,18.9,5.7
		c6.4-2,14.7,8.5,14.7,8.5l-77.3,18.5V111.7z"/>
	<circle class="st20" cx="168.1" cy="96.4" r="2"/>
	<linearGradient id="SVGID_7_" gradientUnits="userSpaceOnUse" x1="196.6384" y1="139.1239" x2="196.6384" y2="115.7794">
		<stop  offset="0" style="stop-color:#F0699C;stop-opacity:0"/>
		<stop  offset="1" style="stop-color:#F0699C"/>
	</linearGradient>
	<path class="st21" d="M168.1,125.1c6-1.1,13.7,7.8,19.4,6.5c5.7-1.3,7.2-13.7,14.2-15.6s23.4,9.5,23.4,9.5l-57,13.6V125.1z"/>
	<g class="st1">
		<path class="st8" d="M219.6,149.9c-0.3-0.7-0.8-1.3-1.4-1.6c-0.2-0.1-0.5-0.2-0.7-0.2c-1.7-0.3-3.4,1.4-3.7,3.8
			c-0.3,2.3,0.8,4.4,2.5,4.7c1.7,0.3,3.4-1.4,3.7-3.8C220,151.7,219.9,150.7,219.6,149.9z"/>
		<path class="st22" d="M220,149.9c-0.3-0.7-0.8-1.3-1.4-1.6c-0.2-0.1-0.5-0.2-0.7-0.2c-1.7-0.3-3.4,1.4-3.7,3.8
			c-0.3,2.3,0.8,4.4,2.5,4.7c1.7,0.3,3.4-1.4,3.7-3.8C220.5,151.7,220.4,150.7,220,149.9z"/>
	</g>
	<path class="st5" d="M205.4,65.6l-24.3,5.8c-0.1-7.3,5.3-14.5,12-16.1C199.9,53.7,205.4,58.3,205.4,65.6z"/>
	<path class="st5" d="M173.6,63.3l-35.1,8.4c-0.1-10.5,7.7-21,17.4-23.3C165.6,46.1,173.5,52.7,173.6,63.3z"/>
	<g class="st1">
		<path class="st8" d="M234.7,146.1c-0.3-0.7-0.8-1.3-1.4-1.6c-0.2-0.1-0.5-0.2-0.7-0.2c-1.7-0.3-3.4,1.4-3.7,3.8
			c-0.3,2.3,0.8,4.4,2.5,4.7c1.7,0.3,3.4-1.4,3.7-3.8C235.2,147.9,235,146.9,234.7,146.1z"/>
		<path class="st22" d="M235.1,146.1c-0.3-0.7-0.8-1.3-1.4-1.6c-0.2-0.1-0.5-0.2-0.7-0.2c-1.7-0.3-3.4,1.4-3.7,3.8
			c-0.3,2.3,0.8,4.4,2.5,4.7c1.7,0.3,3.4-1.4,3.7-3.8C235.6,147.9,235.5,146.9,235.1,146.1z"/>
	</g>
	<g class="st1">
		<path class="st13" d="M173.6,63.3l-1.8,0.4c-0.2-10.4-8.1-16.9-17.7-14.6c-0.6,0.2-1.2,0.3-1.8,0.6c1.2-0.6,2.4-1,3.7-1.3
			C165.6,46.1,173.5,52.7,173.6,63.3z"/>
		<path class="st8" d="M157.9,67c0,1.1-0.8,2.2-1.8,2.4s-1.8-0.5-1.8-1.5c0-1.1,0.8-2.2,1.8-2.4S157.9,65.9,157.9,67z"/>
		<polygon class="st8" points="143.7,65 156.4,66 155.8,68.9 		"/>
		<line class="st23" x1="155.9" y1="49.5" x2="156" y2="52.9"/>
		<line class="st23" x1="172.5" y1="63.5" x2="169.4" y2="64.3"/>
		<line class="st23" x1="139.6" y1="71.4" x2="142.7" y2="70.6"/>
		<line class="st23" x1="139.6" y1="71.4" x2="142.7" y2="70.6"/>
		<line class="st23" x1="141.8" y1="61.9" x2="142.7" y2="62.2"/>
		<line class="st23" x1="140.2" y1="66.5" x2="141.1" y2="66.6"/>
		<line class="st23" x1="147.7" y1="53.9" x2="148.2" y2="54.8"/>
		<line class="st23" x1="151.6" y1="51.2" x2="151.9" y2="52.2"/>
		<line class="st23" x1="164.2" y1="50" x2="163.7" y2="51.1"/>
		<line class="st23" x1="160.3" y1="49.1" x2="160" y2="50.3"/>
		<line class="st23" x1="170.3" y1="55.1" x2="169.3" y2="55.9"/>
		<line class="st23" x1="171.9" y1="58.9" x2="171" y2="59.5"/>
		<line class="st23" x1="167.4" y1="51.8" x2="165.3" y2="54.8"/>
		<line class="st23" x1="144.5" y1="57.3" x2="146.7" y2="59.2"/>
	</g>
	<g class="st1">
		<path class="st13" d="M205.4,65.6l-1.3,0.3c-0.1-7.2-5.4-11.8-12-10.3c0.4-0.1,0.7-0.2,1.1-0.3C199.9,53.7,205.4,58.3,205.4,65.6z
			"/>
		<path class="st8" d="M194.5,68.2c0,0.8-0.6,1.5-1.2,1.7s-1.3-0.3-1.3-1.1s0.6-1.5,1.2-1.7C194,67,194.5,67.5,194.5,68.2z"/>
		<polygon class="st8" points="184.7,68.9 193.2,67.5 193.3,69.6 		"/>
		<line class="st24" x1="193.2" y1="56.1" x2="193.2" y2="58.5"/>
		<line class="st24" x1="204.7" y1="65.8" x2="202.5" y2="66.3"/>
		<line class="st24" x1="181.9" y1="71.3" x2="184.1" y2="70.7"/>
		<line class="st24" x1="181.9" y1="71.3" x2="184.1" y2="70.7"/>
		<line class="st24" x1="183.4" y1="64.7" x2="184" y2="64.9"/>
		<line class="st24" x1="182.3" y1="67.9" x2="183" y2="67.9"/>
		<line class="st24" x1="187.5" y1="59.2" x2="187.9" y2="59.8"/>
		<line class="st24" x1="190.2" y1="57.3" x2="190.4" y2="58"/>
		<line class="st24" x1="198.9" y1="56.5" x2="198.6" y2="57.2"/>
		<line class="st24" x1="196.2" y1="55.9" x2="196" y2="56.6"/>
		<line class="st24" x1="203.1" y1="60" x2="202.5" y2="60.5"/>
		<line class="st24" x1="204.3" y1="62.6" x2="203.6" y2="63"/>
		<line class="st24" x1="201.1" y1="57.7" x2="199.7" y2="59.8"/>
		<line class="st24" x1="185.3" y1="61.5" x2="186.8" y2="62.8"/>
	</g>
	<polyline class="st25" points="248,120 168.1,139.1 168.1,96.4 	"/>
	<circle class="st20" cx="248" cy="119.9" r="2"/>
	<g class="st1">
		<path class="st16" d="M168.9,156.9l-1.2,0.3c-0.4,0.1-0.7,0.5-0.7,0.9v1.9c0,0.4,0.3,0.6,0.7,0.6l1.2-0.3c0.4-0.1,0.7-0.5,0.7-0.9
			v-1.9C169.6,157.1,169.3,156.8,168.9,156.9z"/>
		<path class="st10" d="M172.1,156.4l25.7-6.1c0.1,0,0.2,0.1,0.2,0.2v2.5c0,0.2-0.1,0.4-0.3,0.4l-25.7,6.1c-0.1,0-0.2-0.1-0.2-0.2
			v-2.5C171.7,156.6,171.9,156.4,172.1,156.4z"/>
		<path class="st10" d="M171.9,160.7l14.6-3.5c0.1,0,0.1,0,0.1,0.1v2.6c0,0.1-0.1,0.2-0.2,0.2l-14.6,3.5c-0.1,0-0.1,0-0.1-0.1v-2.6
			C171.7,160.8,171.8,160.7,171.9,160.7z"/>
	</g>
	<g class="st1">
		<path class="st9" d="M168.9,167.2l-1.2,0.3c-0.4,0.1-0.7,0.5-0.7,0.9v1.9c0,0.4,0.3,0.6,0.7,0.6l1.2-0.3c0.4-0.1,0.7-0.5,0.7-0.9
			v-1.9C169.6,167.4,169.3,167.1,168.9,167.2z"/>
		<path class="st10" d="M172.1,166.7l25.7-6.1c0.1,0,0.2,0.1,0.2,0.2v2.5c0,0.2-0.1,0.4-0.3,0.4l-25.7,6.1c-0.1,0-0.2-0.1-0.2-0.2
			v-2.5C171.7,166.9,171.9,166.7,172.1,166.7z"/>
		<path class="st10" d="M171.9,171l14.6-3.5c0.1,0,0.1,0,0.1,0.1v2.6c0,0.1-0.1,0.2-0.2,0.2l-14.6,3.5c-0.1,0-0.1,0-0.1-0.1v-2.6
			C171.7,171.1,171.8,171,171.9,171z"/>
	</g>
	<g class="st1">
		<path class="st17" d="M168.9,177.5l-1.2,0.3c-0.4,0.1-0.7,0.5-0.7,0.9v1.9c0,0.4,0.3,0.6,0.7,0.6l1.2-0.3c0.4-0.1,0.7-0.5,0.7-0.9
			v-1.9C169.6,177.7,169.3,177.4,168.9,177.5z"/>
		<path class="st10" d="M172.1,177l25.7-6.1c0.1,0,0.2,0.1,0.2,0.2v2.5c0,0.2-0.1,0.4-0.3,0.4l-25.7,6.1c-0.1,0-0.2-0.1-0.2-0.2
			v-2.5C171.7,177.2,171.9,177,172.1,177z"/>
		<path class="st10" d="M171.9,181.3l14.6-3.5c0.1,0,0.1,0,0.1,0.1v2.6c0,0.1-0.1,0.2-0.2,0.2l-14.6,3.5c-0.1,0-0.1,0-0.1-0.1v-2.6
			C171.7,181.4,171.8,181.3,171.9,181.3z"/>
	</g>
</g>
<g class="st0">
	<g class="st1">
		<linearGradient id="SVGID_8_" gradientUnits="userSpaceOnUse" x1="-100.6581" y1="222.2308" x2="381.908" y2="73.3646">
			<stop  offset="0" style="stop-color:#3F40B4"/>
			<stop  offset="1" style="stop-color:#FB79B1"/>
		</linearGradient>
		<path class="st26" d="M208.2,1.5c-31.3-3.6-64.9-1.1-92.4,15.2C92.6,30.4,79.6,56.2,56.6,70.8C38.1,82.5,12.9,94.6,4.3,116.7
			c-8.4,21.7-3.7,44.5,7.7,64.1C22,198,36.5,213,54.7,222.4c16.3,8.4,33.8,13.2,51.1,19c14.1,4.8,28.9,12,43.7,16.2
			c27.6,7.8,56.2,11.8,83.8,3.5c27.5-8.2,53.8-24.1,70.1-48.1c8.9-13.1,13.8-29,13.7-44.8c-0.1-18.1-7.9-32-17.6-46.3
			c-9.9-14.7-16.4-31.7-18.7-49.3c-1.4-10.9-0.6-21.2-5.3-31.4c-4.3-9.4-11.4-17.4-19.7-23.4C242,7.9,225.1,3.4,208.2,1.5z"/>
		<linearGradient id="SVGID_9_" gradientUnits="userSpaceOnUse" x1="-69.9739" y1="156.0062" x2="421.7744" y2="120.0854">
			<stop  offset="0" style="stop-color:#3F40B4"/>
			<stop  offset="1" style="stop-color:#FB79B1"/>
		</linearGradient>
		<path class="st27" d="M146.6,26.9c25.8-8.1,52.6-8.7,75.6-3.9c14.1,2.9,26.7,8.4,35.9,17.8c5.5,5.6,9.8,12.7,11.9,21.1
			c2.4,9.6,2.4,18.5,4,27.1c2.6,14.5,8,26.9,14.2,39.7c0.5,1,1,2,1.5,3c0.1,0.2,0.2,0.5,0.3,0.8c0.2,0.4,0.3,0.7,0.5,1.1
			c1.5,3.4,2.9,7,4,10.8c0.3,0.8,0.5,1.7,0.8,2.5c0.7,2.3,1.3,4.7,1.8,7.2c1.9,10.1,2.2,19.5,0.4,28.7
			c-3.4,17.4-14.1,29.8-25.6,40.4c-2.2,2-4.2,4.2-6.4,6.1c-0.3,0.3-0.7,0.6-1,0.8c-1.5,1.2-3,2.4-4.6,3.5c-0.7,0.5-1.4,1-2.1,1.5
			c-1.8,1.2-3.7,2.4-5.7,3.6c-8.2,4.8-17.1,8.4-26.1,11c-1.5,0.4-3,0.8-4.5,1.2c-0.8,0.2-1.7,0.4-2.5,0.6c-0.6,0.1-1.3,0.3-1.9,0.4
			c-0.8,0.2-1.6,0.3-2.4,0.4c-1.4,0.2-2.8,0.4-4.2,0.6c-3.5,0.4-6.9,0.6-10.4,0.7c-2,0-4,0-5.9,0c-9.4-0.3-18.2-1.6-26-3.1
			c-0.7-0.1-1.4-0.3-2-0.4c-0.7-0.1-1.4-0.3-2-0.4c-18.1-2.3-36.3-10.9-58.5-14.6c-3-0.5-6.1-0.9-9.3-1.4c-14.4-2.1-38.5-10-52-28.4
			c0,0,0,0,0,0c-3-2-5.8-4.2-8.4-6.7c-0.3-0.3-0.7-0.6-1-1c-0.7-0.6-1.3-1.3-1.9-2c-4.8-5.1-8.8-10.9-11.9-17.2
			c-0.7-1.4-1.4-2.9-2-4.4c-0.9-2-1.6-4.1-2.3-6.2c-0.3-0.9-0.5-1.8-0.7-2.7c-1.8-7.1-2.2-14.5-0.6-21.8c0.3-1.4,0.8-2.7,1.1-4.1
			c7.1-31.6,25.8-52.2,46.7-67.5C92.9,49.9,124.6,33.7,146.6,26.9z"/>
		<linearGradient id="SVGID_10_" gradientUnits="userSpaceOnUse" x1="-17.7854" y1="107.5737" x2="438.1918" y2="178.0702">
			<stop  offset="0" style="stop-color:#3F40B4"/>
			<stop  offset="1" style="stop-color:#FB79B1"/>
		</linearGradient>
		<path class="st28" d="M282.9,166.6c0,38.7-20.2,57.5-42.9,66.5c-1.5,0.6-3.1,1.2-4.6,1.7c-0.2,0.1-0.5,0.2-0.7,0.2
			c-1,0.3-2,0.7-3,1c-0.4,0.1-0.9,0.3-1.3,0.4c-1.2,0.3-2.3,0.7-3.5,0.9c-5.1,1.3-10.2,2.2-15,2.8c-0.8,0.1-1.7,0.2-2.5,0.3
			c-0.5,0.1-0.9,0.1-1.4,0.2c-0.3,0-0.7,0.1-1,0.1c-0.4,0-0.9,0.1-1.3,0.1c-0.8,0.1-1.5,0.1-2.3,0.2c-1.9,0.2-3.8,0.3-5.6,0.3
			c-1.1,0-2.1,0.1-3.2,0.1c-6.1,0.2-11,0-14.1,0c-0.4,0-0.8,0-1.1,0c-0.4,0-0.7,0-1.1,0c-24-0.4-48.1-13.4-84.9-13.4
			c-13.7,0-47-10.5-59.9-40v0c-0.5-1.2-1-2.4-1.4-3.6c-0.1-0.2-0.1-0.3-0.2-0.5c-0.1-0.3-0.2-0.6-0.3-0.9c-0.9-2.8-1.7-5.7-2.2-8.8
			c-0.1-0.8-0.3-1.5-0.4-2.3c-0.1-0.3-0.1-0.6-0.1-1c-0.3-2.5-0.5-5-0.6-7.7c0-0.5,0-1,0-1.5c0-107.5,114.9-124.6,149-124.6
			c53.4,0,86.9,9.4,86.9,45.4c0,26.8,9,38.8,14.4,56.3c0.3,0.9,0.6,1.8,0.8,2.7c0.1,0.3,0.2,0.6,0.2,0.8c0.1,0.4,0.2,0.8,0.3,1.2
			c1,3.7,1.7,7.7,2.2,12.2c0.1,0.9,0.2,1.9,0.3,2.8C282.8,161.2,282.9,163.8,282.9,166.6z"/>
	</g>
	<circle class="st5" cx="91.4" cy="208.8" r="1"/>
	<circle class="st5" cx="262.1" cy="184" r="1"/>
	<circle class="st5" cx="159.7" cy="46.6" r="1"/>
	<circle class="st5" cx="129.2" cy="54.9" r="1"/>
	<circle class="st5" cx="210.5" cy="174.3" r="1"/>
	<circle class="st5" cx="229.9" cy="72.9" r="1"/>
	<circle class="st5" cx="100.2" cy="196.9" r="1"/>
	<circle class="st5" cx="242.1" cy="167.1" r="1"/>
	<circle class="st5" cx="246.9" cy="70.9" r="1"/>
	<circle class="st5" cx="151.9" cy="113.6" r="1"/>
	<circle class="st5" cx="67" cy="97.6" r="1"/>
	<circle class="st5" cx="180.1" cy="219" r="1"/>
	<circle class="st5" cx="227.8" cy="90" r="1"/>
	<circle class="st5" cx="122.9" cy="224.8" r="1"/>
	<circle class="st5" cx="238.4" cy="206" r="1.8"/>
	<circle class="st5" cx="47.9" cy="125" r="1.8"/>
	<linearGradient id="SVGID_11_" gradientUnits="userSpaceOnUse" x1="222.7747" y1="166.2967" x2="222.7747" y2="99.1184">
		<stop  offset="0" style="stop-color:#F2F2F2;stop-opacity:0"/>
		<stop  offset="1" style="stop-color:#F2F2F2"/>
	</linearGradient>
	<path class="st29" d="M192,113.9l61.7-14.7c0.3-0.1,0.5,0.1,0.5,0.4v51c0,0.5-0.3,0.9-0.8,1l-61.7,14.7c-0.3,0.1-0.5-0.1-0.5-0.4
		v-51C191.3,114.4,191.6,114,192,113.9z"/>
	<text transform="matrix(0.866 -0.2061 2.168000e-02 0.9998 213.2513 147.3134)" class="st30 st31 st32">?</text>
	<path class="st5" d="M130.1,74.5l43.6-10.4c0.2,0,0.4,0.1,0.4,0.3v36c0,0.3-0.2,0.6-0.6,0.7L130,111.5c-0.2,0-0.4-0.1-0.4-0.3v-36
		C129.6,74.9,129.8,74.6,130.1,74.5z"/>
	<path class="st5" d="M179.7,63l43.6-10.4c0.2,0,0.4,0.1,0.4,0.3v36c0,0.3-0.2,0.6-0.6,0.7L179.5,100c-0.2,0-0.4-0.1-0.4-0.3v-36
		C179.2,63.4,179.4,63.1,179.7,63z"/>
	<path class="st33" d="M183.4,65.7l16.1-3.9c0.1,0,0.1,0,0.1,0.1v13.3c0,0.1-0.1,0.2-0.2,0.3l-16.1,3.9c-0.1,0-0.1,0-0.1-0.1V66
		C183.2,65.8,183.3,65.7,183.4,65.7z"/>
	<path class="st34" d="M203.3,60.6l16.1-3.9c0.1,0,0.1,0,0.1,0.1v13.3c0,0.1-0.1,0.2-0.2,0.3l-16.1,3.9c-0.1,0-0.1,0-0.1-0.1V60.8
		C203.1,60.7,203.2,60.6,203.3,60.6z"/>
	<path class="st35" d="M203.3,77.5l16.1-3.9c0.1,0,0.1,0,0.1,0.1v13.3c0,0.1-0.1,0.2-0.2,0.3l-16.1,3.9c-0.1,0-0.1,0-0.1-0.1V77.7
		C203.1,77.6,203.2,77.5,203.3,77.5z"/>
	<path class="st20" d="M183.4,82.2l16.1-3.9c0.1,0,0.1,0,0.1,0.1v13.3c0,0.1-0.1,0.2-0.2,0.3L183.4,96c-0.1,0-0.1,0-0.1-0.1V82.5
		C183.2,82.4,183.3,82.3,183.4,82.2z"/>
	<g class="st1">
		<path class="st6" d="M123.9,130.4l61.7-14.7c0.3-0.1,0.5,0.1,0.5,0.4v51c0,0.5-0.3,0.9-0.8,1l-61.7,14.7c-0.3,0.1-0.5-0.1-0.5-0.4
			v-51C123.1,130.9,123.4,130.5,123.9,130.4z"/>
		<polygon class="st14" points="173.4,147.8 156,152 156,156.6 173.5,152.5 		"/>
		<polygon class="st14" points="181.3,128.9 156,134.9 156,139.6 181.3,133.6 		"/>
		<polygon class="st14" points="181.3,137.3 156,143.3 156,148 181.3,141.9 		"/>
		<g>
			<path class="st36" d="M141.5,141.4c-3.7-0.5-7.4,3.2-8.1,8.3c-0.8,5.1,1.7,9.8,5.4,10.3c3.7,0.5,7.4-3.2,8.1-8.3
				c0.3-2.3,0-4.5-0.7-6.3"/>
		</g>
		<line class="st36" x1="147.3" y1="171.4" x2="164.7" y2="167.3"/>
	</g>
	<linearGradient id="SVGID_12_" gradientUnits="userSpaceOnUse" x1="86.3382" y1="199.3088" x2="86.3382" y2="132.1305">
		<stop  offset="0" style="stop-color:#F2F2F2;stop-opacity:0"/>
		<stop  offset="1" style="stop-color:#F2F2F2"/>
	</linearGradient>
	<path class="st37" d="M55.6,146.9l61.7-14.7c0.3-0.1,0.5,0.1,0.5,0.4v51c0,0.5-0.3,0.9-0.8,1l-61.7,14.7c-0.3,0.1-0.5-0.1-0.5-0.4
		v-51C54.8,147.4,55.1,147,55.6,146.9z"/>
	<polygon class="st38" points="105.2,164.3 87.7,168.5 87.7,173.1 105.2,169 	"/>
	<polygon class="st38" points="113,145.4 87.7,151.4 87.7,156.1 113,150.1 	"/>
	<polygon class="st38" points="105.2,155.6 87.7,159.8 87.7,164.5 105.2,160.3 	"/>
	<g class="st1">
		<path class="st36" d="M77.9,161.9c-0.7-1.6-1.7-2.8-3.1-3.5c-0.5-0.3-1-0.4-1.6-0.5c-3.7-0.5-7.4,3.2-8.1,8.3
			c-0.8,5.1,1.7,9.8,5.4,10.3c3.7,0.5,7.4-3.2,8.1-8.3C79,165.9,78.7,163.7,77.9,161.9z"/>
		<polyline class="st36" points="68.8,168.1 71.4,170.4 75.3,164 		"/>
	</g>
	<line class="st39" x1="79" y1="188" x2="96.4" y2="183.8"/>
	<g class="st1">
		<path class="st9" d="M138.4,151c-0.1,0-0.2,0-0.4,0c-0.1,0-0.2-0.1-0.3-0.2c-0.1-0.1-0.2-0.2-0.2-0.3c-0.1-0.1-0.1-0.3-0.1-0.5
			c0-0.2,0-0.4,0.1-0.5c0.1-0.2,0.1-0.3,0.2-0.5c0.1-0.1,0.2-0.3,0.4-0.3c0.1-0.1,0.3-0.2,0.4-0.2c0.2,0,0.3,0,0.5,0
			s0.3,0.1,0.4,0.2c0.1,0.1,0.2,0.2,0.2,0.4c0.1,0.1,0.1,0.3,0.1,0.5c0,0.2,0,0.5-0.1,0.7c-0.1,0.2-0.2,0.5-0.3,0.7l-0.8,1.5
			l-0.5-0.3l0.6-1.2l0,0C138.6,150.9,138.5,151,138.4,151z M138.6,149.1c-0.1,0-0.1,0-0.2,0.1c-0.1,0-0.1,0.1-0.2,0.2
			c0,0.1-0.1,0.1-0.1,0.2c0,0.1,0,0.2,0,0.3c0,0.1,0,0.2,0,0.2c0,0.1,0.1,0.1,0.1,0.2c0,0,0.1,0.1,0.2,0.1c0.1,0,0.1,0,0.2,0
			c0.1,0,0.1,0,0.2-0.1c0.1,0,0.1-0.1,0.2-0.2c0.1-0.1,0.1-0.1,0.1-0.2c0-0.1,0-0.2,0-0.3c0-0.1,0-0.2,0-0.2c0-0.1-0.1-0.1-0.1-0.2
			c-0.1,0-0.1-0.1-0.2-0.1C138.8,149.1,138.7,149.1,138.6,149.1z"/>
		<path class="st9" d="M141.5,151.7c-0.2,0-0.4,0-0.6,0c-0.2-0.1-0.3-0.2-0.4-0.3c-0.1-0.1-0.2-0.3-0.3-0.6
			c-0.1-0.2-0.1-0.5-0.1-0.7s0-0.5,0.1-0.8c0.1-0.3,0.1-0.5,0.3-0.7c0.1-0.2,0.3-0.4,0.4-0.5c0.2-0.1,0.3-0.2,0.6-0.3
			c0.2,0,0.4,0,0.5,0c0.2,0.1,0.3,0.2,0.4,0.3c0.1,0.1,0.2,0.3,0.3,0.6s0.1,0.5,0.1,0.7s0,0.5-0.1,0.8c-0.1,0.3-0.1,0.5-0.3,0.7
			c-0.1,0.2-0.3,0.4-0.4,0.5C141.9,151.6,141.7,151.6,141.5,151.7z M141.5,151c0.1,0,0.2-0.1,0.3-0.2c0.1-0.1,0.2-0.2,0.2-0.3
			c0.1-0.1,0.1-0.3,0.1-0.4c0-0.2,0-0.3,0-0.5c0-0.2,0-0.4,0-0.5c0-0.1-0.1-0.3-0.1-0.4c-0.1-0.1-0.1-0.2-0.2-0.2
			c-0.1,0-0.2,0-0.3,0c-0.1,0-0.2,0.1-0.3,0.2c-0.1,0.1-0.2,0.2-0.2,0.3c-0.1,0.1-0.1,0.3-0.1,0.4c0,0.2,0,0.3,0,0.5
			c0,0.2,0,0.3,0,0.5c0,0.1,0.1,0.3,0.1,0.4c0.1,0.1,0.1,0.2,0.2,0.2C141.3,151,141.4,151.1,141.5,151z"/>
	</g>
	<path class="st20" d="M138.6,154c0-0.1,0-0.2,0-0.2c0-0.1,0.1-0.1,0.1-0.2c0-0.1,0.1-0.1,0.2-0.2c0.1,0,0.1-0.1,0.2-0.1
		c0.1,0,0.1,0,0.2,0c0.1,0,0.1,0,0.2,0.1c0,0,0.1,0.1,0.1,0.2c0,0.1,0,0.1,0,0.2c0,0.1,0,0.2,0,0.2c0,0.1-0.1,0.1-0.1,0.2
		c0,0.1-0.1,0.1-0.2,0.2c-0.1,0-0.1,0.1-0.2,0.1c-0.1,0-0.1,0-0.2,0c-0.1,0-0.1,0-0.2-0.1c0,0-0.1-0.1-0.1-0.2
		C138.7,154.1,138.6,154,138.6,154z M138.9,153.9c0,0.1,0,0.1,0.1,0.2c0,0,0.1,0,0.1,0c0.1,0,0.1,0,0.1-0.1c0-0.1,0.1-0.1,0.1-0.2
		c0-0.1,0-0.1-0.1-0.2s-0.1,0-0.1,0c-0.1,0-0.1,0-0.1,0.1C139,153.8,138.9,153.8,138.9,153.9z M139,155.5l1.3-2.5l0.2,0.1l-1.3,2.5
		L139,155.5z M139.9,154.9c0-0.1,0-0.2,0-0.2c0-0.1,0.1-0.1,0.1-0.2c0-0.1,0.1-0.1,0.2-0.2c0.1,0,0.1-0.1,0.2-0.1c0.1,0,0.1,0,0.2,0
		c0.1,0,0.1,0,0.2,0.1c0,0,0.1,0.1,0.1,0.2c0,0.1,0,0.1,0,0.2c0,0.1,0,0.2,0,0.2c0,0.1-0.1,0.1-0.1,0.2c0,0.1-0.1,0.1-0.2,0.2
		c-0.1,0-0.1,0.1-0.2,0.1c-0.1,0-0.1,0-0.2,0c-0.1,0-0.1,0-0.2-0.1c0,0-0.1-0.1-0.1-0.2C139.9,155.1,139.9,155,139.9,154.9z
		 M140.2,154.9c0,0.1,0,0.1,0.1,0.2c0,0,0.1,0,0.1,0s0.1,0,0.1-0.1c0-0.1,0.1-0.1,0.1-0.2c0-0.1,0-0.1-0.1-0.2s-0.1,0-0.1,0
		c-0.1,0-0.1,0-0.1,0.1C140.2,154.7,140.2,154.8,140.2,154.9z"/>
	<g class="st1">
		<g>
			<path class="st18" d="M196.9,108.2c-1.3-2.9-3.2-5.2-5.6-6.5c-0.9-0.5-1.9-0.8-3-1c-6.9-1-13.6,5.9-15,15.4
				c-1.4,9.5,3.1,18,10,19c6.9,1,13.6-5.9,15-15.4C198.8,115.5,198.3,111.5,196.9,108.2z"/>
			<path class="st40" d="M198.7,108.2c-1.3-2.9-3.2-5.2-5.6-6.5c-0.9-0.5-1.9-0.8-3-1c-6.9-1-13.6,5.9-15,15.4
				c-1.4,9.5,3.1,18,10,19c6.9,1,13.6-5.9,15-15.4C200.7,115.5,200.2,111.5,198.7,108.2z"/>
		</g>
		<g>
			<path class="st41" d="M192.5,122.4l-9.7,2.3c-0.3,0.1-0.5-0.1-0.5-0.4l0-6.3c0-0.3,0.2-0.5,0.5-0.6l9.7-2.3
				c0.3-0.1,0.5,0.1,0.5,0.4l0,6.3C192.9,122.1,192.7,122.4,192.5,122.4z"/>
			<g>
				<path class="st41" d="M191.6,115.3c0-3.5,0-6.9-4.1-5.9c-4,1-4,4.3-4,7.9"/>
			</g>
			<path class="st18" d="M188.3,119c0,0.4-0.3,0.9-0.7,1c-0.4,0.1-0.7-0.2-0.7-0.6c0-0.4,0.3-0.9,0.7-1
				C188,118.3,188.3,118.6,188.3,119z"/>
			<polygon class="st18" points="187.9,121.4 187.3,121.5 187.3,119.3 187.9,119.1 			"/>
		</g>
	</g>
	<g class="st1">
		<g>
			<path class="st12" d="M142.7,193.2c-0.7-1.6-1.8-2.9-3.2-3.7c-0.5-0.3-1.1-0.5-1.7-0.5c-3.9-0.6-7.7,3.3-8.4,8.6
				c-0.8,5.3,1.7,10.1,5.6,10.7c3.9,0.6,7.7-3.3,8.4-8.6C143.8,197.3,143.5,195,142.7,193.2z"/>
			<path class="st22" d="M143.8,193.2c-0.7-1.6-1.8-2.9-3.2-3.7c-0.5-0.3-1.1-0.5-1.7-0.5c-3.9-0.6-7.7,3.3-8.4,8.6
				c-0.8,5.3,1.7,10.1,5.6,10.7c3.9,0.6,7.7-3.3,8.4-8.6C144.9,197.3,144.6,195,143.8,193.2z"/>
		</g>
	</g>
	<g class="st1">
		<g>
			<path class="st12" d="M182.1,183.5c-0.7-1.6-1.8-2.9-3.2-3.7c-0.5-0.3-1.1-0.5-1.7-0.5c-3.9-0.6-7.7,3.3-8.4,8.6
				c-0.8,5.3,1.7,10.1,5.6,10.7c3.9,0.6,7.7-3.3,8.4-8.6C183.2,187.6,182.9,185.3,182.1,183.5z"/>
			<path class="st22" d="M183.1,183.5c-0.7-1.6-1.8-2.9-3.2-3.7c-0.5-0.3-1.1-0.5-1.7-0.5c-3.9-0.6-7.7,3.3-8.4,8.6
				c-0.8,5.3,1.7,10.1,5.6,10.7c3.9,0.6,7.7-3.3,8.4-8.6C184.2,187.6,183.9,185.3,183.1,183.5z"/>
		</g>
	</g>
	<polyline class="st39" points="137.5,195.4 135.3,199.4 137.5,202.9 	"/>
	<polyline class="st39" points="175.8,184.9 179.2,188.9 176.8,193.5 	"/>
	<line class="st39" x1="136.4" y1="78" x2="153.6" y2="73.9"/>
	<line class="st39" x1="136.4" y1="82.6" x2="151.8" y2="78.9"/>
	<line class="st42" x1="139.8" y1="86.4" x2="150" y2="83.9"/>
	<line class="st43" x1="144.1" y1="89.9" x2="159.5" y2="86.2"/>
	<line class="st39" x1="136.4" y1="96.3" x2="156.7" y2="91.4"/>
	<line class="st39" x1="136.4" y1="100.8" x2="167.5" y2="93.4"/>
	<path class="st5" d="M79.6,85.8l43.6-10.4c0.2,0,0.4,0.1,0.4,0.3v36c0,0.3-0.2,0.6-0.6,0.7l-43.6,10.4c-0.2,0-0.4-0.1-0.4-0.3v-36
		C79.1,86.2,79.3,85.9,79.6,85.8z"/>
	<path class="st39" d="M82.1,103.9c2.6,1.3,2.9,5,6.2,4.2c2.8-0.7,4.3-5.5,6-9c1-2,2-3.6,3.5-4c0.8-0.2,1.7-0.1,2.5,0.2
		c2.5,0.9,5,3.4,7.4,4.3c0.8,0.3,1.5,0.4,2.2,0.3c4.2-0.6,7.3,3.2,10.7,4.1"/>
	<path class="st43" d="M82.1,90c5.9,1,6.5,10.6,11.8,9.2c0.1,0,0.2-0.1,0.3-0.1c3.3-0.9,4.5-2.4,6-3.7c1.1-1,2.4-2,4.8-2.6
		c2-0.5,4.3,0.8,6.8,2.6c2.9,2.2,6,5.1,8.8,6.7"/>
	<path class="st42" d="M82.1,111.4c2.9,1.2,3.6,4,7.8,2.9c6.1-1.6,7.7-13.6,13.2-15.3c1.8-0.5,3.3-1.3,4.6-2.3
		c1.7-1.2,3-2.7,4.2-4.2c3.1-4,5-8.2,8.2-8.7c0.2,0,0.4-0.1,0.6-0.1"/>
	<g class="st1">
		<path class="st9" d="M95,122l-0.5,0.1c-0.2,0-0.3,0.2-0.3,0.4v0.9c0,0.2,0.2,0.3,0.3,0.3l0.5-0.1c0.2,0,0.3-0.2,0.3-0.4v-0.9
			C95.3,122.1,95.1,122,95,122z"/>
		<path class="st16" d="M95,125l-0.5,0.1c-0.2,0-0.3,0.2-0.3,0.4v0.9c0,0.2,0.2,0.3,0.3,0.3l0.5-0.1c0.2,0,0.3-0.2,0.3-0.4v-0.9
			C95.3,125.1,95.1,125,95,125z"/>
		<path class="st10" d="M96.4,121.8l12-2.9c0.1,0,0.1,0,0.1,0.1v1.2c0,0.1-0.1,0.2-0.2,0.2l-12,2.9c-0.1,0-0.1,0-0.1-0.1V122
			C96.3,121.9,96.3,121.8,96.4,121.8z"/>
		<path class="st10" d="M96.4,124.6l12-2.9c0.1,0,0.1,0,0.1,0.1v1.2c0,0.1-0.1,0.2-0.2,0.2l-12,2.9c-0.1,0-0.1,0-0.1-0.1v-1.2
			C96.3,124.7,96.3,124.7,96.4,124.6z"/>
		<path class="st22" d="M95,128.2l-0.5,0.1c-0.2,0-0.3,0.2-0.3,0.4v0.9c0,0.2,0.2,0.3,0.3,0.3l0.5-0.1c0.2,0,0.3-0.2,0.3-0.4v-0.9
			C95.3,128.3,95.1,128.2,95,128.2z"/>
		<path class="st10" d="M96.4,127.9l12-2.9c0.1,0,0.1,0,0.1,0.1v1.2c0,0.1-0.1,0.2-0.2,0.2l-12,2.9c-0.1,0-0.1,0-0.1-0.1v-1.2
			C96.3,128,96.3,127.9,96.4,127.9z"/>
	</g>
</g>
<g>
	<g>
		<linearGradient id="SVGID_13_" gradientUnits="userSpaceOnUse" x1="-57.6251" y1="93.3056" x2="511.3515" y2="181.2724">
			<stop  offset="0" style="stop-color:#3F40B4"/>
			<stop  offset="1" style="stop-color:#FB79B1"/>
		</linearGradient>
		<path class="st44" d="M317.2,168.4c0,50.3-25.1,74.7-53.4,86.5c-1.9,0.8-3.8,1.5-5.7,2.2c-0.3,0.1-0.6,0.2-0.8,0.3
			c-1.2,0.4-2.5,0.9-3.8,1.2c-0.6,0.2-1.1,0.3-1.7,0.5c-1.5,0.4-2.9,0.8-4.4,1.2c-6.4,1.7-12.7,2.8-18.7,3.6c-1,0.1-2.1,0.3-3.1,0.4
			c-0.6,0.1-1.1,0.1-1.7,0.2c-0.4,0.1-0.9,0.1-1.3,0.1c-0.5,0.1-1.1,0.1-1.6,0.1c-1,0.1-1.9,0.2-2.9,0.2c-2.4,0.2-4.7,0.3-6.9,0.4
			c-1.3,0.1-2.7,0.1-3.9,0.1c-7.5,0.2-13.7,0-17.5,0c-0.5,0-1,0-1.4,0c-0.5,0-0.9,0-1.4,0c-29.9-0.5-60-17.5-105.8-17.5
			c-17.1,0-58.6-13.6-74.6-52v0c-0.6-1.5-1.2-3.1-1.8-4.7c-0.1-0.2-0.1-0.4-0.2-0.6c-0.1-0.4-0.3-0.8-0.4-1.2
			C3,186,2,182.2,1.3,178.2c-0.2-1-0.3-2-0.5-3c-0.1-0.4-0.1-0.8-0.2-1.2c-0.4-3.2-0.6-6.5-0.7-10c0-0.6,0-1.3,0-1.9
			C0,22.3,143.2,0,185.7,0c66.6,0,108.4,12.2,108.4,59c0,34.8,11.2,50.4,18,73.1c0.3,1.2,0.7,2.3,1,3.5c0.1,0.4,0.2,0.7,0.3,1.1
			c0.1,0.5,0.3,1.1,0.4,1.6c1.2,4.8,2.1,10.1,2.7,15.9c0.1,1.2,0.2,2.4,0.3,3.7C317.1,161.2,317.2,164.7,317.2,168.4z"/>
		<linearGradient id="SVGID_14_" gradientUnits="userSpaceOnUse" x1="-142.8671" y1="124.8712" x2="536.181" y2="141.4166">
			<stop  offset="0" style="stop-color:#3F40B4"/>
			<stop  offset="1" style="stop-color:#FB79B1"/>
		</linearGradient>
		<path class="st45" d="M169.6,15.4c17.1,0,33.1,0.5,47.6,2.1c29.5,3.2,48.1,13.2,54.3,41.1c3.1,14,6.9,26.8,12.2,38.3
			c1.4,3,2.7,5.9,4.1,8.8c5.7,12,11.2,23.6,13.8,36.8c0.3,1.4,0.5,2.8,0.7,4.3c0.1,0.3,0.1,0.6,0.2,0.9c0.1,0.5,0.2,0.9,0.2,1.4
			c0.7,4.3,1,8.7,1.1,13.4c0,1,0,2,0,3.1c-0.1,2.8-0.3,5.7-0.6,8.6c-3.8,37.1-26.6,56.7-52.9,66.8c-1.6,0.6-3.2,1.2-4.8,1.7
			c-0.2,0.1-0.5,0.2-0.7,0.2c-1.1,0.3-2.1,0.7-3.2,1c-0.5,0.1-0.9,0.3-1.4,0.4c-1.2,0.3-2.4,0.7-3.7,1c-5.3,1.3-10.6,2.3-15.7,3.1
			c-0.9,0.1-1.7,0.2-2.6,0.4c-0.5,0.1-1,0.1-1.4,0.2c-0.4,0-0.7,0.1-1.1,0.1c-0.5,0.1-0.9,0.1-1.4,0.1c-0.8,0.1-1.6,0.2-2.4,0.2
			c-2,0.2-3.9,0.3-5.8,0.5c-1.1,0.1-2.2,0.1-3.3,0.2c-5.8,0.3-10.8,0.3-14.7,0.3c-0.4,0-0.8,0-1.1,0c-0.4,0-0.8,0-1.1,0
			c-14.1-0.2-74.1-8-94.9-8.6c-2.5-0.1-5-0.1-7.5-0.2c-24.5-1-56.7-17.5-64.7-54.1c0,0,0,0,0,0c-0.3-2.5-0.7-5.1-1-7.6
			c0-0.3-0.1-0.7-0.1-1c-0.1-0.7-0.2-1.3-0.3-2c-0.8-6-1.7-12.1-2.1-18.2c-0.1-1.6-0.2-3.1-0.2-4.7c0-0.6,0-1.3,0-2
			c-0.1-5.1,0.3-10.3,1.2-15.5c0.2-1,0.4-1.9,0.6-2.9C31.3,37.7,122.9,15.4,169.6,15.4z"/>
		<linearGradient id="SVGID_15_" gradientUnits="userSpaceOnUse" x1="-204.2699" y1="172.0472" x2="547.7301" y2="93.0472">
			<stop  offset="0" style="stop-color:#3F40B4"/>
			<stop  offset="1" style="stop-color:#FB79B1"/>
		</linearGradient>
		<path class="st46" d="M274.8,110.3c8.6,14.7,15.9,30,16.8,47.3c3,57.5-59.6,77.3-106.5,77.3c0,0-91.7,0-91.7,0
			c-35.5,0-62-19-62-56.6c0-25.3-5.6-49.1,2.4-73.9c17-52.8,68.9-73.7,119.8-73.7c13.7,0,27.5,0,41.2,0c24.6,0,42.9,3.6,54.1,27.3
			c6.7,14.2,11.9,29.1,20.2,42.5C271,103.8,272.9,107.1,274.8,110.3z"/>
	</g>
	<polygon class="st10" points="198.8,203.8 239.9,194.6 205.7,178.1 164.5,187.2 	"/>
	<g class="st47">
		<path class="st13" d="M160.2,223.6c-9,2.2-18.5,1.1-26.8-2.9L31.2,171c0.1,1.5,0.1,3,0.1,4.5l100.3,48.7c6,2.9,12.6,4.4,19.3,4.4
			c3.4,0,6.9-0.4,10.2-1.2l118-28.2c1.2-1.6,2.4-3.2,3.5-4.9L160.2,223.6z M263.5,90.8c-0.7-1.3-1.3-2.6-1.9-3.9
			c-2.4,0.2-4.7,0.5-7,1.1l-225,53.8c0.1,1.4,0.1,2.7,0.2,4.1l225.7-54C258.1,91.2,260.8,90.9,263.5,90.8z"/>
	</g>
	<linearGradient id="SVGID_16_" gradientUnits="userSpaceOnUse" x1="112.5771" y1="213.5222" x2="76.0771" y2="62.0222">
		<stop  offset="0" style="stop-color:#3F40B4"/>
		<stop  offset="1" style="stop-color:#FB79B1"/>
	</linearGradient>
	<polygon class="st48" points="114,126.8 114,191.5 81.1,175.6 81.1,110.8 	"/>
	<linearGradient id="SVGID_17_" gradientUnits="userSpaceOnUse" x1="215.0967" y1="142.6604" x2="215.0967" y2="68.9179">
		<stop  offset="0" style="stop-color:#3F40B4"/>
		<stop  offset="1" style="stop-color:#FB79B1"/>
	</linearGradient>
	<polygon class="st49" points="233.8,68.9 196.4,77.9 196.4,142.7 233.8,133.7 	"/>
	<polygon class="st10" points="149,216 175.6,210.1 153.5,199.4 126.8,205.3 	"/>
	<linearGradient id="SVGID_18_" gradientUnits="userSpaceOnUse" x1="179.9027" y1="142.6604" x2="179.9027" y2="61.9128">
		<stop  offset="0" style="stop-color:#3F40B4"/>
		<stop  offset="1" style="stop-color:#FB79B1"/>
	</linearGradient>
	<polygon class="st50" points="196.4,77.9 196.4,142.7 163.4,126.7 163.4,61.9 	"/>
	<g>
		<polygon class="st16" points="151.5,117.8 114,126.8 81.1,110.8 118.6,101.9 		"/>
		<linearGradient id="SVGID_19_" gradientUnits="userSpaceOnUse" x1="97.5563" y1="191.5497" x2="97.5563" y2="110.802">
			<stop  offset="0" style="stop-color:#F0699C;stop-opacity:0"/>
			<stop  offset="1" style="stop-color:#F03B9C"/>
		</linearGradient>
		<polygon class="st51" points="114,126.8 114,191.5 81.1,175.6 81.1,110.8 		"/>
		<linearGradient id="SVGID_20_" gradientUnits="userSpaceOnUse" x1="132.7503" y1="191.5497" x2="132.7503" y2="117.8072">
			<stop  offset="0" style="stop-color:#F0699C;stop-opacity:0"/>
			<stop  offset="1" style="stop-color:#F0699C"/>
		</linearGradient>
		<polygon class="st52" points="151.5,117.8 114,126.8 114,191.5 151.5,182.6 		"/>
	</g>
	<g>
		<linearGradient id="SVGID_21_" gradientUnits="userSpaceOnUse" x1="163.4422" y1="65.419" x2="233.8302" y2="65.419">
			<stop  offset="0" style="stop-color:#AAEEFF;stop-opacity:0"/>
			<stop  offset="1" style="stop-color:#AAEEFF"/>
		</linearGradient>
		<polygon class="st53" points="233.8,68.9 196.4,77.9 163.4,61.9 200.9,53 		"/>
		<linearGradient id="SVGID_22_" gradientUnits="userSpaceOnUse" x1="179.9027" y1="142.6604" x2="179.9027" y2="61.9128">
			<stop  offset="0" style="stop-color:#2C56F2;stop-opacity:0"/>
			<stop  offset="1" style="stop-color:#2C56F2"/>
		</linearGradient>
		<polygon class="st54" points="196.4,77.9 196.4,142.7 163.4,126.7 163.4,61.9 		"/>
		<linearGradient id="SVGID_23_" gradientUnits="userSpaceOnUse" x1="215.0967" y1="142.6604" x2="215.0967" y2="68.9179">
			<stop  offset="0" style="stop-color:#AAEEFF;stop-opacity:0"/>
			<stop  offset="1" style="stop-color:#AAEEFF"/>
		</linearGradient>
		<polygon class="st55" points="233.8,68.9 196.4,77.9 196.4,142.7 233.8,133.7 		"/>
	</g>
	<polygon class="st18" points="198.6,139.4 241.5,129.8 205.8,112.5 162.9,122 	"/>
	<g>
		<circle class="st6" cx="217.3" cy="173.7" r="0.8"/>
		<linearGradient id="SVGID_24_" gradientUnits="userSpaceOnUse" x1="162.9428" y1="125.9465" x2="241.4765" y2="125.9465">
			<stop  offset="0" style="stop-color:#EFD17D;stop-opacity:0"/>
			<stop  offset="1" style="stop-color:#EFD17D"/>
		</linearGradient>
		<polygon class="st56" points="198.6,139.4 241.5,129.8 205.8,112.5 162.9,122 		"/>
		<polygon class="st18" points="162.9,122 162.9,182.7 198.6,200 198.6,139.4 		"/>
		<polygon class="st40" points="241.5,129.8 241.5,190.5 198.6,200 198.6,139.4 		"/>
	</g>
	<g>
		<linearGradient id="SVGID_25_" gradientUnits="userSpaceOnUse" x1="162.9428" y1="134.4696" x2="198.6499" y2="134.4696">
			<stop  offset="0" style="stop-color:#EFD17D;stop-opacity:0"/>
			<stop  offset="1" style="stop-color:#EFBA7D"/>
		</linearGradient>
		<polygon class="st57" points="162.9,124.5 162.9,127.1 198.6,144.4 198.6,141.8 		"/>
		<linearGradient id="SVGID_26_" gradientUnits="userSpaceOnUse" x1="162.9428" y1="139.8012" x2="198.6499" y2="139.8012">
			<stop  offset="0" style="stop-color:#EFD17D;stop-opacity:0"/>
			<stop  offset="1" style="stop-color:#EFBA7D"/>
		</linearGradient>
		<polygon class="st58" points="162.9,129.8 162.9,132.5 198.6,149.8 198.6,147.1 		"/>
		<linearGradient id="SVGID_27_" gradientUnits="userSpaceOnUse" x1="162.9428" y1="145.1328" x2="198.6499" y2="145.1328">
			<stop  offset="0" style="stop-color:#EFD17D;stop-opacity:0"/>
			<stop  offset="1" style="stop-color:#EFBA7D"/>
		</linearGradient>
		<polygon class="st59" points="162.9,135.2 162.9,137.8 198.6,155.1 198.6,152.5 		"/>
		<linearGradient id="SVGID_28_" gradientUnits="userSpaceOnUse" x1="162.9428" y1="150.4644" x2="198.6499" y2="150.4644">
			<stop  offset="0" style="stop-color:#EFD17D;stop-opacity:0"/>
			<stop  offset="1" style="stop-color:#EFBA7D"/>
		</linearGradient>
		<polygon class="st60" points="162.9,140.5 162.9,143.1 198.6,160.4 198.6,157.8 		"/>
		<linearGradient id="SVGID_29_" gradientUnits="userSpaceOnUse" x1="162.9428" y1="155.796" x2="198.6499" y2="155.796">
			<stop  offset="0" style="stop-color:#EFD17D;stop-opacity:0"/>
			<stop  offset="1" style="stop-color:#EFBA7D"/>
		</linearGradient>
		<polygon class="st61" points="162.9,145.8 162.9,148.4 198.6,165.8 198.6,163.1 		"/>
		<linearGradient id="SVGID_30_" gradientUnits="userSpaceOnUse" x1="162.9428" y1="161.1276" x2="198.6499" y2="161.1276">
			<stop  offset="0" style="stop-color:#EFD17D;stop-opacity:0"/>
			<stop  offset="1" style="stop-color:#EFBA7D"/>
		</linearGradient>
		<polygon class="st62" points="162.9,151.2 162.9,153.8 198.6,171.1 198.6,168.5 		"/>
		<linearGradient id="SVGID_31_" gradientUnits="userSpaceOnUse" x1="162.9428" y1="166.4592" x2="198.6499" y2="166.4592">
			<stop  offset="0" style="stop-color:#EFD17D;stop-opacity:0"/>
			<stop  offset="1" style="stop-color:#EFBA7D"/>
		</linearGradient>
		<polygon class="st63" points="162.9,156.5 162.9,159.1 198.6,176.4 198.6,173.8 		"/>
		<linearGradient id="SVGID_32_" gradientUnits="userSpaceOnUse" x1="162.9428" y1="171.7908" x2="198.6499" y2="171.7908">
			<stop  offset="0" style="stop-color:#EFD17D;stop-opacity:0"/>
			<stop  offset="1" style="stop-color:#EFBA7D"/>
		</linearGradient>
		<polygon class="st64" points="162.9,161.8 162.9,164.4 198.6,181.8 198.6,179.1 		"/>
		<linearGradient id="SVGID_33_" gradientUnits="userSpaceOnUse" x1="162.9428" y1="177.1224" x2="198.6499" y2="177.1224">
			<stop  offset="0" style="stop-color:#EFD17D;stop-opacity:0"/>
			<stop  offset="1" style="stop-color:#EFBA7D"/>
		</linearGradient>
		<polygon class="st65" points="162.9,167.1 162.9,169.8 198.6,187.1 198.6,184.5 		"/>
		<linearGradient id="SVGID_34_" gradientUnits="userSpaceOnUse" x1="162.9428" y1="182.454" x2="198.6499" y2="182.454">
			<stop  offset="0" style="stop-color:#EFD17D;stop-opacity:0"/>
			<stop  offset="1" style="stop-color:#EFBA7D"/>
		</linearGradient>
		<polygon class="st66" points="162.9,172.5 162.9,175.1 198.6,192.4 198.6,189.8 		"/>
		<linearGradient id="SVGID_35_" gradientUnits="userSpaceOnUse" x1="162.9428" y1="187.7856" x2="198.6499" y2="187.7856">
			<stop  offset="0" style="stop-color:#EFD17D;stop-opacity:0"/>
			<stop  offset="1" style="stop-color:#EFBA7D"/>
		</linearGradient>
		<polygon class="st67" points="162.9,177.8 162.9,180.4 198.6,197.8 198.6,195.1 		"/>
	</g>
	<g>
		<linearGradient id="SVGID_36_" gradientUnits="userSpaceOnUse" x1="198.6362" y1="138.3575" x2="241.4765" y2="138.3575">
			<stop  offset="0" style="stop-color:#F2F2F2;stop-opacity:0"/>
			<stop  offset="1" style="stop-color:#F2F2F2"/>
		</linearGradient>
		<polygon class="st68" points="241.5,132.3 241.5,134.9 198.6,144.4 198.6,141.8 		"/>
		<linearGradient id="SVGID_37_" gradientUnits="userSpaceOnUse" x1="198.6362" y1="143.6998" x2="241.4765" y2="143.6998">
			<stop  offset="0" style="stop-color:#F2F2F2;stop-opacity:0"/>
			<stop  offset="1" style="stop-color:#F2F2F2"/>
		</linearGradient>
		<polygon class="st69" points="241.5,137.6 241.5,140.3 198.6,149.8 198.6,147.1 		"/>
		<linearGradient id="SVGID_38_" gradientUnits="userSpaceOnUse" x1="198.6362" y1="149.0422" x2="241.4765" y2="149.0422">
			<stop  offset="0" style="stop-color:#F2F2F2;stop-opacity:0"/>
			<stop  offset="1" style="stop-color:#F2F2F2"/>
		</linearGradient>
		<polygon class="st70" points="241.5,143 241.5,145.6 198.6,155.1 198.6,152.5 		"/>
		<linearGradient id="SVGID_39_" gradientUnits="userSpaceOnUse" x1="198.6362" y1="154.3846" x2="241.4765" y2="154.3846">
			<stop  offset="0" style="stop-color:#F2F2F2;stop-opacity:0"/>
			<stop  offset="1" style="stop-color:#F2F2F2"/>
		</linearGradient>
		<polygon class="st71" points="241.5,148.3 241.5,150.9 198.6,160.5 198.6,157.8 		"/>
		<linearGradient id="SVGID_40_" gradientUnits="userSpaceOnUse" x1="198.6362" y1="159.7269" x2="241.4765" y2="159.7269">
			<stop  offset="0" style="stop-color:#F2F2F2;stop-opacity:0"/>
			<stop  offset="1" style="stop-color:#F2F2F2"/>
		</linearGradient>
		<polygon class="st72" points="241.5,153.6 241.5,156.3 198.6,165.8 198.6,163.2 		"/>
		<linearGradient id="SVGID_41_" gradientUnits="userSpaceOnUse" x1="198.6362" y1="165.0693" x2="241.4765" y2="165.0693">
			<stop  offset="0" style="stop-color:#F2F2F2;stop-opacity:0"/>
			<stop  offset="1" style="stop-color:#F2F2F2"/>
		</linearGradient>
		<polygon class="st73" points="241.5,159 241.5,161.6 198.6,171.2 198.6,168.5 		"/>
		<linearGradient id="SVGID_42_" gradientUnits="userSpaceOnUse" x1="198.6362" y1="170.4116" x2="241.4765" y2="170.4116">
			<stop  offset="0" style="stop-color:#F2F2F2;stop-opacity:0"/>
			<stop  offset="1" style="stop-color:#F2F2F2"/>
		</linearGradient>
		<polygon class="st74" points="241.5,164.3 241.5,167 198.6,176.5 198.6,173.9 		"/>
		<linearGradient id="SVGID_43_" gradientUnits="userSpaceOnUse" x1="198.6362" y1="175.754" x2="241.4765" y2="175.754">
			<stop  offset="0" style="stop-color:#F2F2F2;stop-opacity:0"/>
			<stop  offset="1" style="stop-color:#F2F2F2"/>
		</linearGradient>
		<polygon class="st75" points="241.5,169.7 241.5,172.3 198.6,181.8 198.6,179.2 		"/>
		<linearGradient id="SVGID_44_" gradientUnits="userSpaceOnUse" x1="198.6362" y1="181.0964" x2="241.4765" y2="181.0964">
			<stop  offset="0" style="stop-color:#F2F2F2;stop-opacity:0"/>
			<stop  offset="1" style="stop-color:#F2F2F2"/>
		</linearGradient>
		<polygon class="st76" points="241.5,175 241.5,177.7 198.6,187.2 198.6,184.5 		"/>
		<linearGradient id="SVGID_45_" gradientUnits="userSpaceOnUse" x1="198.6362" y1="186.4387" x2="241.4765" y2="186.4387">
			<stop  offset="0" style="stop-color:#F2F2F2;stop-opacity:0"/>
			<stop  offset="1" style="stop-color:#F2F2F2"/>
		</linearGradient>
		<polygon class="st77" points="241.5,180.4 241.5,183 198.6,192.5 198.6,189.9 		"/>
		<linearGradient id="SVGID_46_" gradientUnits="userSpaceOnUse" x1="198.6362" y1="191.7811" x2="241.4765" y2="191.7811">
			<stop  offset="0" style="stop-color:#F2F2F2;stop-opacity:0"/>
			<stop  offset="1" style="stop-color:#F2F2F2"/>
		</linearGradient>
		<polygon class="st78" points="241.5,185.7 241.5,188.3 198.6,197.9 198.6,195.2 		"/>
	</g>
	<g>
		<linearGradient id="SVGID_47_" gradientUnits="userSpaceOnUse" x1="111.2377" y1="67.4979" x2="84.0982" y2="80.6625">
			<stop  offset="0" style="stop-color:#F0699C;stop-opacity:0"/>
			<stop  offset="1" style="stop-color:#F03B9C"/>
		</linearGradient>
		<path class="st79" d="M109.2,76.9v6.4c-0.2,0-0.4-0.1-0.6-0.1c-0.2-0.1-0.4-0.2-0.7-0.3L86.2,72.4C85.4,72,85,71.3,85,70.5v-5.1
			L109.2,76.9z"/>
		<path class="st80" d="M137.2,70.4v4.3c0,1.2-0.8,2.3-2,2.6l-24.7,5.9c-0.2,0.1-0.4,0.1-0.5,0.1c-0.3,0-0.5,0-0.8,0v-6.4
			L137.2,70.4z"/>
		<path class="st16" d="M136.2,68.8l-21.8-10.6c-0.9-0.4-1.9-0.5-2.8-0.3l-25.2,6c-0.8,0.2-1.3,0.8-1.4,1.5C85,65.5,85,65.7,85,65.8
			c0,0.7,0.3,1.3,1.1,1.7L107.8,78c0.4,0.2,0.9,0.3,1.4,0.4c0.5,0.1,1,0.1,1.4-0.1l25.2-6c0.9-0.2,1.4-1,1.4-1.8v-0.1
			C137.2,69.7,136.9,69.1,136.2,68.8z"/>
	</g>
	<g>
		<polygon class="st81" points="254.4,127.5 258.5,126.6 255.1,125 251,125.9 		"/>
		<polygon class="st12" points="251,125.9 251,130.3 254.4,132 254.4,127.5 		"/>
		<polygon class="st9" points="258.5,126.6 258.5,131.1 254.4,132 254.4,127.5 		"/>
	</g>
	<g>
		<path class="st18" d="M116.3,102.6c0.1-0.2,0-0.4-0.3-0.6c-0.4-0.3-0.9-0.4-1.3-0.6c-0.7-0.4-1.5-0.7-2.2-1.1
			c-0.8-0.4-1.7-0.8-2.5-1.2c-0.3-0.2-0.7-0.2-1-0.1c-1.2,0.3-2.4,0.6-3.7,0.9c-0.8,0.2-1.5,0.4-2.3,0.5c-0.3,0.1-0.7,0.1-0.8,0.4
			c-0.1,0.3-0.2,0.6-0.1,0.9c0.1,0.4,0.4,0.7,0.7,0.9c0.3,0.2,0.7,0.4,1,0.5c0.8,0.3,1.5,0.7,2.2,1.1c0.4,0.2,0.7,0.5,1.1,0.6
			c0.4,0.1,0.8,0.2,1.2,0.2c0.6,0,1.4-0.3,2-0.4c1.8-0.3,3.5-0.8,5.2-1.5C115.8,103,116.1,102.8,116.3,102.6z M103.9,101.9l4.9-1.2
			c0.2,0,0.4,0,0.5,0.1l4.2,2c0.3,0.2,0.3,0.6-0.1,0.7l-4.9,1.2c-0.2,0-0.4,0-0.5-0.1l-4.2-2.1C103.5,102.5,103.6,102,103.9,101.9z"
			/>
		<linearGradient id="SVGID_48_" gradientUnits="userSpaceOnUse" x1="108.7696" y1="101.3579" x2="98.8146" y2="106.1868">
			<stop  offset="0" style="stop-color:#EFD17D;stop-opacity:0"/>
			<stop  offset="1" style="stop-color:#EFD17D"/>
		</linearGradient>
		<path class="st82" d="M108,104.8v2.3c-0.1,0-0.1,0-0.2,0c-0.1,0-0.2-0.1-0.3-0.1l-8-3.8c-0.3-0.1-0.4-0.4-0.4-0.7v-1.9L108,104.8z
			"/>
		<path class="st18" d="M118.3,102.4v1.6c0,0.5-0.3,0.8-0.7,1l-9.1,2.2c-0.1,0-0.1,0-0.2,0c-0.1,0-0.2,0-0.3,0v-2.3L118.3,102.4z"/>
		<path class="st40" d="M117.9,101.8l-8-3.9c-0.3-0.2-0.7-0.2-1-0.1l-9.2,2.2c-0.3,0.1-0.5,0.3-0.5,0.5c0,0,0,0.1,0,0.1
			c0,0.2,0.1,0.5,0.4,0.6l8,3.9c0.2,0.1,0.3,0.1,0.5,0.1c0.2,0,0.4,0,0.5,0l9.2-2.2c0.3-0.1,0.5-0.4,0.5-0.7v0
			C118.3,102.2,118.2,102,117.9,101.8z M103.9,100.8l4.9-1.2c0.2,0,0.4,0,0.5,0.1l4.2,2c0.3,0.2,0.3,0.6-0.1,0.7l-4.9,1.2
			c-0.2,0-0.4,0-0.5-0.1l-4.2-2.1C103.5,101.3,103.6,100.9,103.9,100.8z"/>
	</g>
	<g>
		<linearGradient id="SVGID_49_" gradientUnits="userSpaceOnUse" x1="86.3783" y1="87.8733" x2="70.4338" y2="95.6076">
			<stop  offset="0" style="stop-color:#2C56F2;stop-opacity:0"/>
			<stop  offset="1" style="stop-color:#003AAA"/>
		</linearGradient>
		<path class="st83" d="M85.2,93.4v3.8c-0.1,0-0.2,0-0.4-0.1c-0.1-0.1-0.2-0.1-0.4-0.2l-12.8-6.2c-0.4-0.2-0.7-0.7-0.7-1.1v-3
			L85.2,93.4z"/>
		<path class="st12" d="M101.6,89.6v2.5c0,0.7-0.5,1.4-1.2,1.5l-14.5,3.5c-0.1,0-0.2,0.1-0.3,0.1c-0.2,0-0.3,0-0.4,0v-3.8
			L101.6,89.6z"/>
		<path class="st9" d="M101,88.6l-12.8-6.2c-0.5-0.2-1.1-0.3-1.6-0.2l-14.8,3.5c-0.5,0.1-0.7,0.5-0.8,0.9c0,0.1,0,0.1,0,0.2
			c0,0.4,0.2,0.8,0.6,1l12.8,6.2c0.2,0.1,0.5,0.2,0.8,0.2c0.3,0.1,0.6,0,0.8,0l14.8-3.5c0.5-0.1,0.8-0.6,0.8-1.1v-0.1
			C101.6,89.2,101.4,88.8,101,88.6z"/>
	</g>
	<linearGradient id="SVGID_50_" gradientUnits="userSpaceOnUse" x1="187.9882" y1="125.9465" x2="216.431" y2="125.9465">
		<stop  offset="0" style="stop-color:#CE9B1D;stop-opacity:0"/>
		<stop  offset="1" style="stop-color:#CE9B1D"/>
	</linearGradient>
	<polygon class="st84" points="200.9,130.8 216.4,127.4 203.5,121.1 188,124.5 	"/>
	<path class="st9" d="M169.1,105.8"/>
	<g>
		<g>
			<polygon class="st9" points="171,69.3 171,107.3 172,102.6 170.1,93.1 164.6,91.1 158.6,93.1 153.9,96.8 151.2,102.6 
				149.4,112.1 149.4,74.1 			"/>
			<linearGradient id="SVGID_51_" gradientUnits="userSpaceOnUse" x1="162.8515" y1="87.3505" x2="181.4765" y2="63.7255">
				<stop  offset="0" style="stop-color:#AAEEFF;stop-opacity:0"/>
				<stop  offset="1" style="stop-color:#AAEEFF"/>
			</linearGradient>
			<polygon class="st85" points="171,69.3 171,107.3 172,102.6 170.1,93.1 164.6,91.1 158.6,93.1 153.9,96.8 151.2,102.6 
				149.4,112.1 149.4,74.1 			"/>
			<g>
				<polygon class="st12" points="131.5,65.4 131.5,103.4 149.4,112.1 149.4,74.1 				"/>
				<linearGradient id="SVGID_52_" gradientUnits="userSpaceOnUse" x1="139.3877" y1="87.4076" x2="126.3877" y2="71.1576">
					<stop  offset="0" style="stop-color:#2C56F2;stop-opacity:0"/>
					<stop  offset="1" style="stop-color:#2C56F2"/>
				</linearGradient>
				<polygon class="st86" points="131.5,65.4 131.5,103.4 149.4,112.1 149.4,74.1 				"/>
				<polygon class="st9" points="149.4,74.1 171,69.3 153.1,60.6 131.5,65.4 				"/>
				<path class="st12" d="M131.5,65.4l0,38l17.9,8.7v-38L131.5,65.4z M134.9,102.5l-1.9-0.9V69l1.9,0.9V102.5z M138.1,88.3
					c-1.1-0.4-1.8-0.5-1.8-0.5l1.8,3V104l-1.9-0.9V70.5l1.9,0.9V88.3z M141.3,89.8c-0.7-0.4-1.3-0.7-1.9-1V71.9l1.9,0.9V89.8z
					 M144.5,92.3c-0.6-0.6-1.3-1.2-1.9-1.6V73.4l1.9,0.9V92.3z M147.8,96.9c-0.5-1.2-1.2-2.2-1.9-3.1l0-18.9l1.9,0.9V96.9z"/>
				<path class="st9" d="M149.4,74.1v38l1.8-9.5l2.7-5.8l4.7-3.8l6-1.9L167,92V72.7l2.1-0.5V92l-1.2,0.3l2.2,0.8l0.8,4.4V69.3
					L149.4,74.1z M153.9,94.5c-0.7,0.7-1.5,1.5-2.1,2.4V76.1l2.1-0.5V94.5z M157.8,91.8c-0.7,0.3-1.4,0.7-2.1,1.2V75.2l2.1-0.5V91.8
					z M161.7,90.6c-0.7,0.1-1.4,0.3-2.1,0.5V74.3l2.1-0.5V90.6z M165.4,90.4c-0.6,0-1.3-0.1-2.1,0V73.5l2.1-0.5V90.4z"/>
				<polygon class="st9" points="171,107.3 171,97.4 172,102.7 				"/>
				<g>
					<linearGradient id="SVGID_53_" gradientUnits="userSpaceOnUse" x1="167.558" y1="92.5523" x2="167.0351" y2="91.8988">
						<stop  offset="0" style="stop-color:#AAEEFF;stop-opacity:0"/>
						<stop  offset="1" style="stop-color:#AAEEFF"/>
					</linearGradient>
					<polygon class="st87" points="167.9,92.3 167,92.5 167,92 					"/>
				</g>
			</g>
		</g>
		<g>
			<polygon class="st12" points="125.6,151.7 125.6,201 148.9,212.3 148.9,163 			"/>
			<linearGradient id="SVGID_54_" gradientUnits="userSpaceOnUse" x1="139.0241" y1="185.6392" x2="119.1907" y2="144.8058">
				<stop  offset="0" style="stop-color:#2C56F2;stop-opacity:0"/>
				<stop  offset="1" style="stop-color:#2C56F2"/>
			</linearGradient>
			<polygon class="st88" points="125.6,151.7 125.6,201 148.9,212.3 148.9,163 			"/>
			<polygon class="st9" points="176.9,156.7 176.9,206.1 148.9,212.3 148.9,163 			"/>
			<linearGradient id="SVGID_55_" gradientUnits="userSpaceOnUse" x1="157.8518" y1="190.6479" x2="182.7268" y2="160.3979">
				<stop  offset="0" style="stop-color:#AAEEFF;stop-opacity:0"/>
				<stop  offset="1" style="stop-color:#AAEEFF"/>
			</linearGradient>
			<polygon class="st89" points="176.9,156.7 176.9,206.1 148.9,212.3 148.9,163 			"/>
			<polygon class="st12" points="148.9,163 176.9,156.7 153.6,145.5 125.6,151.7 			"/>
			<path class="st12" d="M125.6,151.7l0,49.3l23.3,11.3V163L125.6,151.7z M130,199.8l-2.5-1.2v-42.4l2.5,1.2V199.8z M134.2,201.8
				l-2.4-1.2v-42.4l2.4,1.2V201.8z M138.4,203.7l-2.4-1.2v-42.4l2.4,1.2V203.7z M142.5,205.6l-2.4-1.2V162l2.4,1.2V205.6z
				 M146.7,207.5l-2.4-1.2V164l2.4,1.2V207.5z"/>
			<path class="st9" d="M148.9,163v49.4l27.9-6.2v-49.4L148.9,163z M154.7,208.2l-2.8,0.6v-43.3l2.8-0.6V208.2z M159.8,207.1
				l-2.8,0.6v-43.3l2.8-0.6V207.1z M164.8,206l-2.8,0.6v-43.3l2.8-0.6V206z M169.7,204.9l-2.8,0.6v-43.3l2.8-0.6V204.9z
				 M174.4,203.8l-2.8,0.6v-43.3l2.8-0.6V203.8z"/>
		</g>
		<path class="st9" d="M173,98.5v57.9l-23.8,5.3v-53.9c0-8.3,5.8-15.5,13.8-17.2l0,0C168.2,89.3,173,93.2,173,98.5z"/>
		<linearGradient id="SVGID_56_" gradientUnits="userSpaceOnUse" x1="159.0003" y1="130.5566" x2="183.7503" y2="105.6816">
			<stop  offset="0" style="stop-color:#AAEEFF;stop-opacity:0"/>
			<stop  offset="1" style="stop-color:#AAEEFF"/>
		</linearGradient>
		<path class="st90" d="M173,98.5v57.9l-23.8,5.3v-53.9c0-8.3,5.8-15.5,13.8-17.2l0,0C168.2,89.3,173,93.2,173,98.5z"/>
		<g>
			<linearGradient id="SVGID_57_" gradientUnits="userSpaceOnUse" x1="136.2975" y1="98.5597" x2="167.6661" y2="98.5597">
				<stop  offset="0" style="stop-color:#AAEEFF;stop-opacity:0"/>
				<stop  offset="1" style="stop-color:#AAEEFF"/>
			</linearGradient>
			<path class="st91" d="M149.2,101.4c6.1-14.1,18.4-10.6,18.4-10.6l-5.2,0.4l-5.7,2.9l-5,6.5l-2.5,8.7l-13-21.5
				C136.3,87.8,146.8,89.4,149.2,101.4z"/>
			<path class="st12" d="M129.4,94.2l0,57.8l19.8,9.6v-56.3c0-7.2-4.1-13.8-10.6-16.9l0,0C134.4,86.3,129.4,89.5,129.4,94.2z"/>
			<linearGradient id="SVGID_58_" gradientUnits="userSpaceOnUse" x1="139.3403" y1="127.4759" x2="121.6736" y2="61.3092">
				<stop  offset="0" style="stop-color:#2C56F2;stop-opacity:0"/>
				<stop  offset="1" style="stop-color:#2C56F2"/>
			</linearGradient>
			<path class="st92" d="M129.4,94.2l0,57.8l19.8,9.6v-56.3c0-7.2-4.1-13.8-10.6-16.9l0,0C134.4,86.3,129.4,89.5,129.4,94.2z"/>
			<path class="st12" d="M138.7,88.4c-0.9-0.4-1.9-0.7-2.8-0.7c-3.4,0-6.4,2.7-6.4,6.4l0,57.8l19.8,9.6v-56.3
				C149.2,98.1,145.1,91.6,138.7,88.4z M133.2,151l-1.8-0.9l0-56c0-1.6,0.7-2.8,1.8-3.6V151z M136.7,152.7l-2.1-1l0-61.8
				c0.4-0.1,0.8-0.2,1.2-0.2c0.3,0,0.6,0,0.9,0.1V152.7z M140.3,154.3l-2.1-1V90.4c0.7,0.4,1.4,0.8,2.1,1.3V154.3z M143.8,155.9
				l-2.1-1V92.8c0.8,0.7,1.5,1.5,2.1,2.3V155.9z M147.3,157.5l-2-1V97.4c1.3,2.4,2,5.1,2,7.9V157.5z"/>
			<path class="st9" d="M164.9,90.3c-0.6,0-1.2,0.1-1.8,0.2c-8.1,1.8-13.8,9-13.8,17.3v53.9l23.8-5.3V98.5
				C173,93.8,169.3,90.3,164.9,90.3z M154.2,158.2l-2.4,0.5v-55.4c0.5-1.8,1.3-3.4,2.4-4.8V158.2z M158.5,157.2l-2.4,0.5V96.2
				c0.7-0.7,1.5-1.3,2.4-1.8V157.2z M162.8,156.2l-2.4,0.5V93.4c0.8-0.3,1.5-0.6,2.4-0.9V156.2z M167,155.3l-2.4,0.5V92.2
				c0.1,0,0.2,0,0.3,0c0.6,0,1.1,0.1,1.6,0.2c0.1,0,0.3,0.1,0.4,0.1V155.3z M171,154.4l-2.4,0.5V93.5c1.2,0.9,2.1,2.3,2.4,3.8V154.4
				z"/>
		</g>
		<linearGradient id="SVGID_59_" gradientUnits="userSpaceOnUse" x1="138.6498" y1="145.5559" x2="135.8768" y2="170.8392">
			<stop  offset="0" style="stop-color:#1D1D56"/>
			<stop  offset="0.9946" style="stop-color:#2F2B70;stop-opacity:0"/>
		</linearGradient>
		<polygon class="st93" points="148.9,163 149.2,161.7 129.4,152 129.4,150.8 125.6,151.7 		"/>
		<linearGradient id="SVGID_60_" gradientUnits="userSpaceOnUse" x1="131.5144" y1="67.3843" x2="170.9516" y2="67.3843">
			<stop  offset="0" style="stop-color:#AAEEFF;stop-opacity:0"/>
			<stop  offset="1" style="stop-color:#AAEEFF"/>
		</linearGradient>
		<polygon class="st94" points="149.4,74.1 171,69.3 153.1,60.6 131.5,65.4 		"/>
		<linearGradient id="SVGID_61_" gradientUnits="userSpaceOnUse" x1="145.1194" y1="67.3843" x2="157.3466" y2="67.3843">
			<stop  offset="0" style="stop-color:#2C56F2;stop-opacity:0"/>
			<stop  offset="1" style="stop-color:#003AAA"/>
		</linearGradient>
		<polygon class="st95" points="150.7,69.5 157.3,68 151.8,65.3 145.1,66.8 		"/>
	</g>
	<rect x="238.3" y="131" class="st40" width="3.2" height="59"/>
	<rect x="198.6" y="139.4" class="st40" width="3.2" height="59"/>
	<rect x="219.1" y="135.4" class="st40" width="3.2" height="59"/>
	<rect x="209.9" y="137" class="st40" width="3.2" height="59"/>
	<rect x="228.7" y="133.5" class="st40" width="3.2" height="59"/>
	<linearGradient id="SVGID_62_" gradientUnits="userSpaceOnUse" x1="116.8004" y1="40.9831" x2="151.5504" y2="63.9831">
		<stop  offset="0" style="stop-color:#AAEEFF;stop-opacity:0"/>
		<stop  offset="1" style="stop-color:#AAEEFF"/>
	</linearGradient>
	<circle class="st96" cx="127.5" cy="48.1" r="4.9"/>
	<linearGradient id="SVGID_63_" gradientUnits="userSpaceOnUse" x1="252.1075" y1="99.0296" x2="264.1075" y2="117.5296">
		<stop  offset="0" style="stop-color:#F0699C;stop-opacity:0"/>
		<stop  offset="1" style="stop-color:#F0699C"/>
	</linearGradient>
	<circle class="st97" cx="257.4" cy="107.1" r="9.3"/>
	<g>
		<path class="st6" d="M252.6,93.8c-0.4,3.2-2.6,5.8-5.8,6.6l-13,3.1l-37.5,9l-96.4,23.2c-1.3,0.3-2.7,0.5-4.1,0.5
			c-2.6,0-5.3-0.6-7.6-1.8l-9.3-4.5c-2.9-1.4-4.6-4.4-4.2-7.7c0.4-3.3,2.6-5.8,5.8-6.6l0.6-0.1v2.1l-0.1,0c-2.8,0.7-4.1,2.9-4.3,4.8
			c-0.2,1.9,0.5,4.4,3.1,5.7l9.3,4.5c3.2,1.6,6.9,2,10.4,1.1l96.9-23.3l37.5-9l12.6-3c2.8-0.7,4.1-2.9,4.3-4.8
			c0.2-1.9-0.5-4.4-3.1-5.6l-13.7-6.7V79l14.6,7.1C251.3,87.5,253,90.6,252.6,93.8z"/>
	</g>
	<g>
		<path class="st6" d="M257.1,156.9c-0.4,3.2-2.6,5.8-5.8,6.6L160,185.4c-1.3,0.3-2.7,0.5-4.1,0.5c-2.6,0-5.3-0.6-7.6-1.8L102,161.5
			c-2.9-1.4-4.6-4.4-4.2-7.7c0.4-3.2,2.6-5.8,5.8-6.6l25.9-6.2v2.1l-25.4,6.1c-2.8,0.7-4.1,2.9-4.3,4.8c-0.2,1.9,0.5,4.4,3.1,5.7
			l46.3,22.5c3.2,1.6,6.9,2,10.4,1.1l91.3-21.9c2.8-0.7,4.1-2.9,4.3-4.8c0.2-1.9-0.5-4.4-3.1-5.6l-10.5-5.1v-2.2l11.4,5.5
			C255.8,150.7,257.4,153.7,257.1,156.9z"/>
	</g>
	<g>
		<path class="st6" d="M201.2,186.8c-0.4,3.2-2.6,5.8-5.8,6.6L153,203.5c-1.3,0.3-2.7,0.5-4.1,0.5c-2.6,0-5.3-0.6-7.6-1.8L66,165.6
			c-2.9-1.4-4.6-4.4-4.2-7.7c0.4-3.3,2.7-5.8,5.9-6.6l13.5-3.1v2.1l-13.1,3c-2.8,0.7-4.1,2.9-4.3,4.8c-0.2,1.9,0.5,4.4,3.1,5.7
			l75.3,36.7c3.2,1.6,6.9,2,10.4,1.1l42.4-10.1c2.8-0.7,4.1-2.9,4.3-4.8s-0.5-4.4-3.1-5.6l-19.2-9.4v-2.2l20.1,9.8
			C199.9,180.6,201.5,183.6,201.2,186.8z"/>
	</g>
	<g>
		<polygon class="st81" points="59.9,130.3 70.6,127.9 61.7,123.6 51,126 		"/>
		<polygon class="st12" points="51,126 51,137.7 59.9,142.1 59.9,130.3 		"/>
		<polygon class="st9" points="70.6,127.9 70.6,139.7 59.9,142.1 59.9,130.3 		"/>
	</g>
	<circle class="st6" cx="222.3" cy="105.4" r="2.8"/>
	<circle class="st6" cx="126.8" cy="172.5" r="3.8"/>
	<circle class="st6" cx="231.3" cy="52.2" r="1"/>
	<circle class="st6" cx="276" cy="154.2" r="1"/>
	<circle class="st6" cx="71.9" cy="208.4" r="1"/>
	<circle class="st6" cx="49.1" cy="157.7" r="1"/>
	<circle class="st6" cx="258.5" cy="175.9" r="1"/>
	<circle class="st6" cx="152.9" cy="43.2" r="1"/>
	<circle class="st6" cx="66.3" cy="107.1" r="1"/>
	<circle class="st6" cx="188" cy="51" r="1"/>
	<circle class="st6" cx="38.5" cy="114.3" r="1"/>
	<circle class="st6" cx="71" cy="74.9" r="1"/>
	<circle class="st6" cx="206.2" cy="42.9" r="1.7"/>
	<circle class="st6" cx="52.9" cy="204" r="1.7"/>
	<circle class="st6" cx="275" cy="139.4" r="1.7"/>
</g>
</svg>
