<?xml version="1.0" encoding="utf-8"?>
<!-- Generator: Adobe Illustrator 21.1.0, SVG Export Plug-In . SVG Version: 6.00 Build 0)  -->
<svg version="1.1" id="Layer_1" xmlns="http://www.w3.org/2000/svg" xmlns:xlink="http://www.w3.org/1999/xlink" x="0px" y="0px"
	 width="1980px" height="879.1px" viewBox="0 0 1980 879.1" style="enable-background:new 0 0 1980 879.1;" xml:space="preserve">
<style type="text/css">
	.st0{fill:url(#SVGID_1_);}
	.st1{opacity:0.3;clip-path:url(#SVGID_3_);fill:url(#SVGID_4_);}
	.st2{opacity:0.3;clip-path:url(#SVGID_3_);fill:url(#SVGID_5_);}
	.st3{opacity:0.2;clip-path:url(#SVGID_3_);fill:url(#SVGID_6_);}
	.st4{opacity:0.7;}
	.st5{fill:#FFFFFF;}
</style>
<g>
	<linearGradient id="SVGID_1_" gradientUnits="userSpaceOnUse" x1="870.0148" y1="-119.5688" x2="1111.3093" y2="1000.9631">
		<stop  offset="0" style="stop-color:#371B4C"/>
		<stop  offset="5.408452e-02" style="stop-color:#38215D"/>
		<stop  offset="0.2668" style="stop-color:#3D379B"/>
		<stop  offset="0.3676" style="stop-color:#3F40B4"/>
		<stop  offset="1" style="stop-color:#FB79B1"/>
	</linearGradient>
	<rect y="112.6" class="st0" width="1980" height="650"/>
	<g>
		<defs>
			<rect id="SVGID_2_" x="2.5" width="1977.5" height="879.1"/>
		</defs>
		<clipPath id="SVGID_3_">
			<use xlink:href="#SVGID_2_"  style="overflow:visible;"/>
		</clipPath>
		
			<linearGradient id="SVGID_4_" gradientUnits="userSpaceOnUse" x1="-200.7167" y1="-68.0301" x2="1002.0192" y2="-68.0301" gradientTransform="matrix(1 0 0 1.1067 0 609.8584)">
			<stop  offset="0" style="stop-color:#00A994"/>
			<stop  offset="0" style="stop-color:#3C3794"/>
			<stop  offset="0.5056" style="stop-color:#A43593"/>
			<stop  offset="1" style="stop-color:#DA2128"/>
		</linearGradient>
		<path class="st1" d="M-166.8,540.3c-41.2-50.5-46.4-130.1-7-182.1c39.4-52.1,142.7-104.5,200.2-48.3c38,37.2,64.9,74.3,119,82.9
			c94.9,15,189-63.8,282.5-40.2c73,18.5,122.1,91.1,173.2,145.9c54.5,58.4,132.5,89.5,208.1,81.6c46.1-4.9,94.8-41,142-31.6
			c40.7,8.1,61,52.7,45.9,91c-28.8,73.4-158.1,106.9-225.3,127.6c-65.4,20.1-136.2,20.2-203.1,8C470,757,377.9,714.2,285.9,674.4
			c-92-39.8-187.2-77.4-287.3-83.8c-44-2.8-90.6,0-129.6-20.7C-144.8,562.6-156.9,552.4-166.8,540.3z"/>
		
			<linearGradient id="SVGID_5_" gradientUnits="userSpaceOnUse" x1="3608.946" y1="-3686.1682" x2="4160.2671" y2="-2719.5664" gradientTransform="matrix(0.8875 0.4609 -0.4609 0.8875 -3055.7593 1219.6726)">
			<stop  offset="0" style="stop-color:#7E1B4C"/>
			<stop  offset="0.1471" style="stop-color:#74175D"/>
			<stop  offset="0.7257" style="stop-color:#4E069B"/>
			<stop  offset="1" style="stop-color:#3F00B4"/>
		</linearGradient>
		<path class="st2" d="M2039.9,281.5c3.2,29.6,11.7,57.4,11.5,87.5c-0.2,27.3-6.4,54.1-7.9,81.5c-0.9,16.1-8.2,30.3-10,45.9
			c-1.7,14.8,1.8,31.8,1.2,46.9c-1.4,37.4-7,74.7-16.6,110.9c-43.7-4.1-83.6-36-97.1-77.8c-9.9-30.3-6.5-63.3-12.5-94.6
			c-8.3-43.1-36-81.4-72.7-105c-39.8-25.6-84.3-23.2-122-55c-35.2-29.6-46.5-87.6-10.5-127.9c39.9-44.6,108.1-36.7,144-91.8
			C1874.7,60,1897.4,9.9,1950.2,1c32.1-5.4,65.3,11.8,86.3,34.4c27.1,29.1,16.9,60.3,10.7,98.2
			C2039,183.9,2034.4,231.4,2039.9,281.5z"/>
		
			<linearGradient id="SVGID_6_" gradientUnits="userSpaceOnUse" x1="880.351" y1="1006.5593" x2="1815.3943" y2="1006.5593" gradientTransform="matrix(0.5244 -0.8514 0.8514 0.5244 -667.0419 1149.1255)">
			<stop  offset="0" style="stop-color:#021652"/>
			<stop  offset="0.3106" style="stop-color:#0056AD"/>
			<stop  offset="0.7223" style="stop-color:#38C4DD"/>
			<stop  offset="1" style="stop-color:#68EFD8"/>
		</linearGradient>
		<path class="st3" d="M581,529.4c17.6,15.8,35.2,31.7,52.7,47.5c53.2,48,87.9,108.9,163,126.8c99,23.5,203.1-36.5,302.7-15.5
			c107.6,22.7,176,131.4,278,172.6c80.8,32.6,174,18.5,253.8-16.3c72-31.4,140.1-83.6,166.2-157.7s-4.6-170.7-78.5-197.2
			c-88.2-31.7-183.7,43.4-276.1,27.3c-101.9-17.7-160.9-137.8-262.4-157.9c-108.7-21.6-232.4,78.9-323.3,15.4
			c-36.3-25.3-61.4-75.5-85.6-111.8C716.7,180.5,661.6,94.7,558.7,70c-81-19.4-171,3.4-233,59.1c-55.4,49.7-86.1,119.3-132.6,176.3
			c-52.3,64.2-126.2,99.4-206.2,117.3c-13.3,3-27.9,5.7-36.7,16.1c-9,10.7-9,26-8.6,40c0.2,5.2,0.7,11.1,4.9,14.2
			c2.8,2,6.4,2.2,9.9,2.3c62.5,1.4,116.3-17.6,173.8-39.2c51.2-19.2,96.4-50.8,148.3-69.1c46.9-16.6,114.1-27.5,154.1,8.5
			C482,440.2,531.5,484.8,581,529.4z"/>
	</g>
	<g class="st4">
		<g id="звёзды_1_">
			<circle id="XMLID_926_" class="st5" cx="1336" cy="205.8" r="2.3"/>
			<circle id="XMLID_925_" class="st5" cx="1284.8" cy="229.2" r="2.3"/>
			<circle id="XMLID_924_" class="st5" cx="1562" cy="621.8" r="2.3"/>
			<circle id="XMLID_923_" class="st5" cx="905.9" cy="157.8" r="1.1"/>
			<circle id="XMLID_922_" class="st5" cx="470.8" cy="268.6" r="2.3"/>
			<circle id="XMLID_920_" class="st5" cx="1512.8" cy="447.9" r="2.3"/>
			<circle id="XMLID_919_" class="st5" cx="1417.4" cy="311.1" r="1.4"/>
			<circle id="XMLID_918_" class="st5" cx="1604.5" cy="273.2" r="2.3"/>
			<circle id="XMLID_748_" class="st5" cx="1544.3" cy="502.8" r="2.3"/>
			<circle id="XMLID_746_" class="st5" cx="1247.7" cy="311.1" r="2.3"/>
			<circle id="XMLID_745_" class="st5" cx="1180" cy="138" r="2.3"/>
			<circle id="XMLID_744_" class="st5" cx="425" cy="500.5" r="1"/>
			<circle id="XMLID_743_" class="st5" cx="691.5" cy="313.4" r="2.3"/>
			<circle id="XMLID_742_" class="st5" cx="688.8" cy="182.6" r="2.3"/>
			<circle id="XMLID_739_" class="st5" cx="1527.4" cy="187.2" r="2.3"/>
			<circle id="XMLID_738_" class="st5" cx="575.8" cy="443.3" r="2.3"/>
		</g>
		<circle id="XMLID_731_" class="st5" cx="1709.9" cy="475.2" r="1.1"/>
		<circle id="XMLID_727_" class="st5" cx="1689.1" cy="605" r="2.3"/>
		<circle id="XMLID_726_" class="st5" cx="1856" cy="288.9" r="2.3"/>
		<circle id="XMLID_724_" class="st5" cx="1738.3" cy="184.9" r="2.3"/>
		<circle id="XMLID_722_" class="st5" cx="1918.6" cy="229.2" r="2.3"/>
		<circle id="XMLID_720_" class="st5" cx="1920.9" cy="551.1" r="2.3"/>
		<circle id="XMLID_706_" class="st5" cx="1845.3" cy="637.7" r="2.3"/>
		<circle id="XMLID_703_" class="st5" cx="133.6" cy="678.6" r="2.3"/>
		<circle id="XMLID_694_" class="st5" cx="265.6" cy="266.3" r="2.3"/>
		<circle id="XMLID_597_" class="st5" cx="160.7" cy="227.6" r="0.9"/>
		<circle id="XMLID_585_" class="st5" cx="237.3" cy="588.3" r="2.3"/>
		<circle id="XMLID_584_" class="st5" cx="61.1" cy="149" r="2.3"/>
		<circle id="XMLID_583_" class="st5" cx="135.9" cy="313.4" r="2.3"/>
		<circle id="XMLID_576_" class="st5" cx="65.6" cy="270.2" r="2.3"/>
	</g>
</g>
</svg>
