<?xml version="1.0" encoding="utf-8"?>
<!-- Generator: Adobe Illustrator 21.1.0, SVG Export Plug-In . SVG Version: 6.00 Build 0)  -->
<svg version="1.1" id="Layer_1" xmlns="http://www.w3.org/2000/svg" xmlns:xlink="http://www.w3.org/1999/xlink" x="0px" y="0px"
	 width="1980px" height="724px" viewBox="0 0 1980 724" style="enable-background:new 0 0 1980 724;" xml:space="preserve">
<style type="text/css">
	.st0{fill:#FFFFFF;}
</style>
<g>
	<circle id="XMLID_14_" class="st0" cx="1335" cy="70.1" r="2.3"/>
	<circle id="XMLID_1731_" class="st0" cx="1283.8" cy="93.5" r="2.3"/>
	<circle id="XMLID_1842_" class="st0" cx="1561" cy="486.1" r="2.3"/>
	<circle id="XMLID_1958_" class="st0" cx="904.9" cy="22.1" r="2.3"/>
	<circle id="XMLID_1738_" class="st0" cx="469.8" cy="132.9" r="2.3"/>
	<circle id="XMLID_1744_" class="st0" cx="562.1" cy="247.9" r="2.3"/>
	<circle id="XMLID_1808_" class="st0" cx="380.5" cy="552.5" r="2.3"/>
	<circle id="XMLID_1850_" class="st0" cx="486.7" cy="670.9" r="2.3"/>
	<circle id="XMLID_1732_" class="st0" cx="1511.8" cy="312.2" r="2.3"/>
	<circle id="XMLID_1809_" class="st0" cx="1416.4" cy="175.5" r="2.3"/>
	<circle id="XMLID_1877_" class="st0" cx="1603.5" cy="137.5" r="2.3"/>
	<circle id="XMLID_1872_" class="st0" cx="1543.3" cy="367.1" r="2.3"/>
	<circle id="XMLID_1730_" class="st0" cx="1246.7" cy="175.5" r="2.3"/>
	<circle id="XMLID_1852_" class="st0" cx="1179" cy="2.3" r="2.3"/>
	<circle id="XMLID_1742_" class="st0" cx="424" cy="364.9" r="2.3"/>
	<circle id="XMLID_1741_" class="st0" cx="690.5" cy="177.7" r="2.3"/>
	<circle id="XMLID_1739_" class="st0" cx="687.8" cy="46.9" r="2.3"/>
	<circle id="XMLID_1876_" class="st0" cx="426.3" cy="721.2" r="2.3"/>
	<circle id="XMLID_1828_" class="st0" cx="1526.4" cy="51.5" r="2.3"/>
	<circle id="XMLID_1875_" class="st0" cx="574.8" cy="307.6" r="2.3"/>
	<circle id="XMLID_1855_" class="st0" cx="1708.9" cy="339.5" r="2.3"/>
	<circle id="XMLID_9_" class="st0" cx="1688.1" cy="469.4" r="2.3"/>
	<circle id="XMLID_835_" class="st0" cx="1855" cy="153.2" r="2.3"/>
	<circle id="XMLID_838_" class="st0" cx="1737.3" cy="49.2" r="2.3"/>
	<circle id="XMLID_843_" class="st0" cx="1917.6" cy="93.5" r="2.3"/>
	<circle id="XMLID_873_" class="st0" cx="1919.9" cy="415.4" r="2.3"/>
	<circle id="XMLID_876_" class="st0" cx="1844.3" cy="502" r="2.3"/>
	<circle id="XMLID_924_" class="st0" cx="132.6" cy="542.9" r="2.3"/>
	<circle id="XMLID_1212_" class="st0" cx="264.6" cy="130.7" r="2.3"/>
	<circle id="XMLID_1175_" class="st0" cx="159.7" cy="91.9" r="2.3"/>
	<circle id="XMLID_1113_" class="st0" cx="238.6" cy="612.1" r="2.3"/>
	<circle id="XMLID_1110_" class="st0" cx="236.3" cy="452.7" r="2.3"/>
	<circle id="XMLID_1250_" class="st0" cx="60.1" cy="13.3" r="2.3"/>
	<circle id="XMLID_1200_" class="st0" cx="134.9" cy="177.7" r="2.3"/>
	<circle id="XMLID_1147_" class="st0" cx="64.6" cy="134.6" r="2.3"/>
</g>
</svg>
