<?xml version="1.0" encoding="utf-8"?>
<!-- Generator: Adobe Illustrator 21.1.0, SVG Export Plug-In . SVG Version: 6.00 Build 0)  -->
<svg version="1.1" id="Layer_1" xmlns="http://www.w3.org/2000/svg" xmlns:xlink="http://www.w3.org/1999/xlink" x="0px" y="0px"
	 width="1980px" height="803.8px" viewBox="0 0 1980 803.8" style="enable-background:new 0 0 1980 803.8;" xml:space="preserve">
<style type="text/css">
	.st0{fill:url(#SVGID_1_);}
	.st1{opacity:0.3;fill:url(#SVGID_2_);}
	.st2{opacity:0.6;fill:url(#SVGID_3_);}
	.st3{opacity:0.6;clip-path:url(#SVGID_5_);fill:url(#SVGID_6_);}
	.st4{opacity:0.4;clip-path:url(#SVGID_5_);fill:url(#SVGID_7_);}
	.st5{opacity:0.7;}
	.st6{fill:#FFFFFF;}
</style>
<g>
	<linearGradient id="SVGID_1_" gradientUnits="userSpaceOnUse" x1="762.8938" y1="-277.6666" x2="1216.8621" y2="969.601">
		<stop  offset="0" style="stop-color:#371B4C"/>
		<stop  offset="5.408452e-02" style="stop-color:#38215D"/>
		<stop  offset="0.2668" style="stop-color:#3D379B"/>
		<stop  offset="0.3676" style="stop-color:#3F40B4"/>
		<stop  offset="1" style="stop-color:#FB79B1"/>
	</linearGradient>
	<polygon class="st0" points="1980,0 1980,691.8 1819.6,691.9 0,692.6 0,0 	"/>
	
		<linearGradient id="SVGID_2_" gradientUnits="userSpaceOnUse" x1="4397.647" y1="-5618.0859" x2="4664.8467" y2="-5830.8247" gradientTransform="matrix(0.6631 0.7485 -0.7485 0.6631 -6629.439 736.3494)">
		<stop  offset="0" style="stop-color:#7E1B4C"/>
		<stop  offset="0.1471" style="stop-color:#74175D"/>
		<stop  offset="0.7257" style="stop-color:#4E069B"/>
		<stop  offset="1" style="stop-color:#3F00B4"/>
	</linearGradient>
	<path class="st1" d="M721.3,247.5c-14.9-26-8.1-56.4-45.7-69.1c-30.1-10.2-69.2-5.3-93.4,16.4c-17.6,15.9-27.4,39.5-45,54.9
		c-22.1,19.3-53,21.1-74.5,42.9c-20.2,20.4-29,48.7-20,76.6c5,15.5,19.5,25.8,34,33.2c26.4,13.4,55.9,15.8,82.8,28
		c28.5,12.9,53.3,33.4,79.7,50.1c23.1,14.7,53.9,14.3,79.8,5.4c39.6-13.5,71.2-63.8,79.2-102.8c8.8-43-1.3-68.1-35.2-95.7
		c-12.7-10.3-26.6-19.5-36.7-32.3C724.4,252.6,722.7,250.1,721.3,247.5z"/>
	<linearGradient id="SVGID_3_" gradientUnits="userSpaceOnUse" x1="1451.9573" y1="-28.9363" x2="1434.3208" y2="914.6191">
		<stop  offset="0" style="stop-color:#371B4C"/>
		<stop  offset="5.408452e-02" style="stop-color:#38215D"/>
		<stop  offset="0.2668" style="stop-color:#3D379B"/>
		<stop  offset="0.3676" style="stop-color:#3F40B4"/>
		<stop  offset="1" style="stop-color:#FB79B1"/>
	</linearGradient>
	<path class="st2" d="M1939.7,585.9c2.6,30.8-5.3,63.1-23.6,85.2c-23.3,28.2-68.9,44.1-103.2,53.7c-103.5,29.1-216,24.8-317-12.1
		c-50.3-18.4-99.2-44.9-152.6-47.6c-45.7-2.4-90.3,13-133,29.3c-42.7,16.3-86,34-131.6,36.7c-45.7,2.7-95.3-12.4-121.4-50
		c-49.8-71.8,15.1-151,86.5-169.6c33.5-8.7,80.8-17.3,105.9-45.2c25.4-28.2,35.5-66.8,67.9-91.3c46-34.6,98.8-25.6,151-36.1
		c48.9-9.9,88.7-62.1,117.8-98.5c34.5-43.3,59.8-89.3,122.8-90.3c47.6-0.8,94.8,31.4,113.9,74.6c24.3,54.9-30.1,98.4-17.3,154.1
		c7.5,32.8,38.9,67.7,68.9,81.8c23.2,11,48.6,16,73.1,23.4c24.5,7.4,49.2,17.9,66.2,37.1C1929.1,538,1937.7,561.5,1939.7,585.9z"/>
	<g>
		<defs>
			<rect id="SVGID_4_" y="0" width="1980" height="810.7"/>
		</defs>
		<clipPath id="SVGID_5_">
			<use xlink:href="#SVGID_4_"  style="overflow:visible;"/>
		</clipPath>
		<linearGradient id="SVGID_6_" gradientUnits="userSpaceOnUse" x1="745.1635" y1="-267.0887" x2="994.465" y2="417.8616">
			<stop  offset="0" style="stop-color:#371B4C"/>
			<stop  offset="5.408452e-02" style="stop-color:#38215D"/>
			<stop  offset="0.2668" style="stop-color:#3D379B"/>
			<stop  offset="0.3676" style="stop-color:#3F40B4"/>
			<stop  offset="1" style="stop-color:#FB79B1"/>
		</linearGradient>
		<path class="st3" d="M178.3-19c-24.5-4.4-48.7-9.5-72.3-15.4c4.4,29.1,25,53.8,49.7,69.8s53.3,24.9,81.4,33.5
			c92,28.1,184,56.2,275.9,84.3c48.1,14.7,99,31.2,131.2,69.7c38.2,45.7,49.2,109.8,86.7,154.5c70.9,84.3,214.3,90.7,290.3,12.1
			c48.4-50,81.8-117.1,144.2-152.1c54.5-30.5,114.2-21.1,171.2-38.7c53.3-16.4,108.8-30.1,149.4-69.8c40.2-39.3,67.5-92,74.9-147.8
			c-1.5,8.9-77.6,17.9-89.7,18.1c-20,0.5-40,0-59.9,0c-45.1,0-90.1,0-135.2,0c-102.9,0-205.8,0-308.7,0c-195.4,0-390.7,0-586.1,0
			C315.1-0.8,245.5-7,178.3-19z"/>
		<linearGradient id="SVGID_7_" gradientUnits="userSpaceOnUse" x1="45.7876" y1="637.2808" x2="484.377" y2="508.7515">
			<stop  offset="0" style="stop-color:#021652"/>
			<stop  offset="0.3106" style="stop-color:#0056AD"/>
			<stop  offset="0.7223" style="stop-color:#38C4DD"/>
			<stop  offset="1" style="stop-color:#68EFD8"/>
		</linearGradient>
		<path class="st4" d="M90.2,367.2c43.3,23.7,33,67,86.3,96.2c53.3,29.2,111.4-15.6,178.8,21.4s46.6,114.8,125.2,157.9
			c113.5,62.2,9.1,201.4-81.4,151.8c-42.2-23.1-40-48.6-73.2-66.8c-28.1-15.4-60.8-6.4-90.5-2.4c-30.9,4.1-60,0.7-90.9-0.7
			C92.9,722.2,3,700.6-32,658.3c-43.5-52.6-81.2-147-51.4-213.5C-56.4,384.4,25.8,331.9,90.2,367.2z"/>
	</g>
	<g class="st5">
		<g id="звёзды">
			<circle id="XMLID_948_" class="st6" cx="1336" cy="164.7" r="2.3"/>
			<circle id="XMLID_1731_" class="st6" cx="1284.8" cy="188.1" r="2.3"/>
			<circle id="XMLID_1842_" class="st6" cx="1562" cy="580.7" r="2.3"/>
			<circle id="XMLID_1958_" class="st6" cx="905.9" cy="116.7" r="1.1"/>
			<circle id="XMLID_1738_" class="st6" cx="470.8" cy="227.5" r="2.3"/>
			<circle id="XMLID_1732_" class="st6" cx="1512.8" cy="406.8" r="2.3"/>
			<circle id="XMLID_1809_" class="st6" cx="1417.4" cy="270.1" r="1.4"/>
			<circle id="XMLID_1877_" class="st6" cx="1604.5" cy="232.1" r="2.3"/>
			<circle id="XMLID_1872_" class="st6" cx="1544.3" cy="461.7" r="2.3"/>
			<circle id="XMLID_1730_" class="st6" cx="1247.7" cy="270.1" r="2.3"/>
			<circle id="XMLID_1852_" class="st6" cx="1180" cy="96.9" r="2.3"/>
			<circle id="XMLID_1742_" class="st6" cx="425" cy="459.5" r="1"/>
			<circle id="XMLID_1741_" class="st6" cx="691.6" cy="272.3" r="2.3"/>
			<circle id="XMLID_1739_" class="st6" cx="688.8" cy="141.5" r="2.3"/>
			<circle id="XMLID_1828_" class="st6" cx="1527.4" cy="146.1" r="2.3"/>
		</g>
		<circle id="XMLID_1855_" class="st6" cx="1709.9" cy="434.1" r="1.1"/>
		<circle id="XMLID_947_" class="st6" cx="1689.1" cy="564" r="2.3"/>
		<circle id="XMLID_946_" class="st6" cx="1856" cy="247.8" r="2.3"/>
		<circle id="XMLID_945_" class="st6" cx="1738.3" cy="143.8" r="2.3"/>
		<circle id="XMLID_944_" class="st6" cx="1918.6" cy="188.1" r="2.3"/>
		<circle id="XMLID_943_" class="st6" cx="1920.9" cy="510" r="2.3"/>
		<circle id="XMLID_942_" class="st6" cx="1845.3" cy="596.6" r="2.3"/>
		<circle id="XMLID_941_" class="st6" cx="133.6" cy="637.5" r="2.3"/>
		<circle id="XMLID_1212_" class="st6" cx="265.6" cy="225.3" r="2.3"/>
		<circle id="XMLID_1175_" class="st6" cx="160.7" cy="186.6" r="0.9"/>
		<circle id="XMLID_1110_" class="st6" cx="237.3" cy="547.3" r="2.3"/>
		<circle id="XMLID_1250_" class="st6" cx="61.1" cy="107.9" r="2.3"/>
		<circle id="XMLID_1200_" class="st6" cx="135.9" cy="272.3" r="2.3"/>
		<circle id="XMLID_1147_" class="st6" cx="65.6" cy="229.2" r="2.3"/>
	</g>
</g>
</svg>
