<?xml version="1.0" encoding="utf-8"?>
<!-- Generator: Adobe Illustrator 21.1.0, SVG Export Plug-In . SVG Version: 6.00 Build 0)  -->
<svg version="1.1" id="Layer_1" xmlns="http://www.w3.org/2000/svg" xmlns:xlink="http://www.w3.org/1999/xlink" x="0px" y="0px"
	 width="1980px" height="823.5px" viewBox="0 0 1980 823.5" style="enable-background:new 0 0 1980 823.5;" xml:space="preserve">
<style type="text/css">
	.st0{fill:none;}
	.st1{opacity:0.9;fill:#2F2B70;}
	.st2{fill:url(#SVGID_1_);}
	.st3{opacity:0.2;fill:url(#SVGID_2_);}
	.st4{opacity:0.7;}
	.st5{fill:#FFFFFF;}
	.st6{opacity:0.4;clip-path:url(#SVGID_4_);fill:url(#SVGID_5_);}
</style>
<pattern  x="734" width="80" height="80" patternUnits="userSpaceOnUse" id="New_Pattern_2" viewBox="9 -87.8 80 80" style="overflow:visible;">
	<g>
		<rect x="9" y="-87.8" class="st0" width="80" height="80"/>
		<polygon class="st1" points="69,-15.6 60,0 78,0 		"/>
		<polygon class="st1" points="29,-15.6 20,0 38,0 		"/>
		<polygon class="st1" points="89,-55.6 80,-40 98,-40 		"/>
		<polygon class="st1" points="49,-55.6 40,-40 58,-40 		"/>
		<polygon class="st1" points="9,-55.6 0,-40 18,-40 		"/>
		<polygon class="st1" points="69,-95.6 60,-80 78,-80 		"/>
		<polygon class="st1" points="29,-95.6 20,-80 38,-80 		"/>
	</g>
</pattern>
<g>
	<linearGradient id="SVGID_1_" gradientUnits="userSpaceOnUse" x1="722.3034" y1="-531.0849" x2="1238.4557" y2="1368.6">
		<stop  offset="0" style="stop-color:#371B4C"/>
		<stop  offset="5.408452e-02" style="stop-color:#38215D"/>
		<stop  offset="0.2668" style="stop-color:#3D379B"/>
		<stop  offset="0.3676" style="stop-color:#3F40B4"/>
		<stop  offset="1" style="stop-color:#FB79B1"/>
	</linearGradient>
	<rect y="179.2" class="st2" width="1980" height="550"/>
	
		<linearGradient id="SVGID_2_" gradientUnits="userSpaceOnUse" x1="-1841.249" y1="-2913.2583" x2="-670.6207" y2="-4194.543" gradientTransform="matrix(0.7062 0.708 -0.8939 0.8916 -1124.8627 4463.3271)">
		<stop  offset="0" style="stop-color:#021652"/>
		<stop  offset="0.3106" style="stop-color:#0056AD"/>
		<stop  offset="0.7223" style="stop-color:#38C4DD"/>
		<stop  offset="1" style="stop-color:#68EFD8"/>
	</linearGradient>
	<path class="st3" d="M1144.7,236.2c11.6,73.2,25.7,143.6-23.9,207.6c-22.2,28.7-61.3,35.5-95.3,44.4
		c-78,20.2-160.2,24.7-239.6,10.7c-58.1-10.3-114.6-29.5-173.2-36.5C508.2,449.9,435.6,476.2,439.4,588c0.1,4,0.3,8.1,0.6,12.2
		c13.6,199.2,214.3,212.2,362.8,220.1c121.4,6.5,248.9,14.1,322.9-99.2c37.7-57.7,63.4-126.1,117.9-168.4
		c94-72.9,226.2-23.9,334.3-52.1c70.1-18.2,112.4-81.4,119.5-151.2c8.5-83-17.9-162.2-76.4-222c-36.7-37.5-81.9-65.9-129.4-88
		c-59.4-27.6-125.3-46.1-190.2-37.4c-64.9,8.7-128.3,48.7-151.3,110.1C1135.5,151.4,1138.2,194.9,1144.7,236.2z"/>
	<g class="st4">
		<g id="звёзды_2_">
			<circle id="XMLID_1262_" class="st5" cx="1336" cy="240.4" r="2.3"/>
			<circle id="XMLID_1261_" class="st5" cx="1284.8" cy="263.8" r="2.3"/>
			<circle id="XMLID_1260_" class="st5" cx="1562" cy="656.3" r="2.3"/>
			<circle id="XMLID_1259_" class="st5" cx="905.9" cy="192.3" r="1.1"/>
			<circle id="XMLID_1258_" class="st5" cx="470.8" cy="303.2" r="2.3"/>
			<circle id="XMLID_1257_" class="st5" cx="563.1" cy="418.1" r="2.3"/>
			<circle id="XMLID_1255_" class="st5" cx="1512.8" cy="482.4" r="2.3"/>
			<circle id="XMLID_1253_" class="st5" cx="1417.4" cy="345.7" r="1.4"/>
			<circle id="XMLID_1251_" class="st5" cx="1604.5" cy="307.7" r="2.3"/>
			<circle id="XMLID_1235_" class="st5" cx="1544.3" cy="537.4" r="2.3"/>
			<circle id="XMLID_1234_" class="st5" cx="1247.7" cy="345.7" r="2.3"/>
			<circle id="XMLID_1232_" class="st5" cx="1180" cy="172.5" r="2.3"/>
			<circle id="XMLID_1231_" class="st5" cx="425" cy="535.1" r="1"/>
			<circle id="XMLID_1230_" class="st5" cx="691.5" cy="348" r="2.3"/>
			<circle id="XMLID_1229_" class="st5" cx="688.8" cy="217.2" r="2.3"/>
			<circle id="XMLID_1228_" class="st5" cx="1527.4" cy="221.7" r="2.3"/>
			<circle id="XMLID_1227_" class="st5" cx="575.8" cy="477.9" r="2.3"/>
		</g>
		<circle id="XMLID_1226_" class="st5" cx="1709.9" cy="509.8" r="1.1"/>
		<circle id="XMLID_1225_" class="st5" cx="1689.1" cy="639.6" r="2.3"/>
		<circle id="XMLID_1224_" class="st5" cx="1856" cy="323.4" r="2.3"/>
		<circle id="XMLID_1223_" class="st5" cx="1738.3" cy="219.4" r="2.3"/>
		<circle id="XMLID_1222_" class="st5" cx="1918.6" cy="263.8" r="2.3"/>
		<circle id="XMLID_1220_" class="st5" cx="1920.9" cy="585.7" r="2.3"/>
		<circle id="XMLID_1218_" class="st5" cx="1845.3" cy="672.2" r="2.3"/>
		<circle id="XMLID_1216_" class="st5" cx="133.6" cy="713.1" r="2.3"/>
		<circle id="XMLID_1120_" class="st5" cx="265.6" cy="300.9" r="2.3"/>
		<circle id="XMLID_1109_" class="st5" cx="160.7" cy="262.2" r="0.9"/>
		<circle id="XMLID_1096_" class="st5" cx="237.3" cy="622.9" r="2.3"/>
		<circle id="XMLID_1083_" class="st5" cx="61.1" cy="183.6" r="2.3"/>
		<circle id="XMLID_1075_" class="st5" cx="135.9" cy="348" r="2.3"/>
		<circle id="XMLID_435_" class="st5" cx="65.6" cy="304.8" r="2.3"/>
	</g>
	<g>
		<defs>
			<rect id="SVGID_3_" y="179.2" width="1980" height="550"/>
		</defs>
		<clipPath id="SVGID_4_">
			<use xlink:href="#SVGID_3_"  style="overflow:visible;"/>
		</clipPath>
		<pattern  id="SVGID_5_" xlink:href="#New_Pattern_2" patternTransform="matrix(1 0 0 1 -200.7231 396.7425)">
		</pattern>
		<path class="st6" d="M63.1,376.1c-5.6,75.9,9.6,162.4,72.4,205.5c61.6,42.3,148.8,28.8,211.4,69.5c67.7,44,85.8,136.6,144.7,191.8
			c46.7,43.7,114.3,58.8,178.2,56c57.6-2.5,118-20.1,155.5-64c37.5-43.8,42-118.1-1.6-155.9c-52-45.1-137.3-18.9-196.3-54.4
			c-65.1-39.1-73.7-137-137.9-177.6c-68.8-43.5-180-7.5-225.5-75.1c-26.4-39.2-13-91.2-11.1-138.4c1.3-32.7-4-66.7-22.4-93.8
			c-37.8-56-123.5-52.9-145.9,12.7C63.6,214.3,68,310.6,63.1,376.1z"/>
	</g>
</g>
</svg>
