<?xml version="1.0" encoding="utf-8"?>
<!-- Generator: Adobe Illustrator 21.1.0, SVG Export Plug-In . SVG Version: 6.00 Build 0)  -->
<svg version="1.1" id="Layer_1" xmlns="http://www.w3.org/2000/svg" xmlns:xlink="http://www.w3.org/1999/xlink" x="0px" y="0px"
	 width="137px" height="26.2px" viewBox="0 0 137 26.2" style="enable-background:new 0 0 137 26.2;" xml:space="preserve">
<style type="text/css">
	.st0{fill:#FFFFFF;}
</style>
<g id="XMLID_4583_">
	<g id="XMLID_4101_">
		<g>
			<path id="XMLID_53_" class="st0" d="M136.9,6.2H134V3.1V2.9v-1V0.7c-2.5,0.4-4.1,2.2-4.5,4.7c-0.1,0.4-0.1,0.8-0.1,1.3v0.5v2.9
				v5.5c0,0.8,0.1,1.7,0.3,2.5c0.9,3.1,4.6,3.7,7.2,2.5l0-0.1l0-3.2l0-0.2c-1.8,0.5-3,0.3-3-2.1l0-4.8h2.9h0.2V9.9V6.4V6.2H136.9z"
				/>
			<path id="XMLID_52_" class="st0" d="M93,6.3L93,5V2.8V2.6v-1V0.5V0.3c-0.9,0.1-1.8,0.5-2.4,1c-1.1,0.9-1.9,2.2-2.1,3.8
				c-0.1,0.4-0.1,0.9-0.1,1.3v0.5v1.4v0.3v2.4v1.5v7.9v0.2h0.2h0h4.2h0.1h0.1H93v-0.2v-8.2l0-0.2V12c0.7-2.5,4.3-2.2,4.3,0.8v7.6
				v0.2h0.2h4.2h0.2v-0.2v-7.9C101.9,7.2,96.9,5.1,93,6.3z"/>
			<path id="XMLID_49_" class="st0" d="M110.1,5.9c-2.1,0-3.8,0.7-5.1,2.2c-1.3,1.5-1.9,3.2-1.9,5.4c0,2.2,0.6,3.9,1.9,5.4
				c1.3,1.4,3,2.1,5.1,2.1c2,0,3.7-0.7,5.1-2.2c1.3-1.4,1.9-3.2,1.9-5.3c0-2.1-0.7-3.8-2-5.3C113.9,6.7,112.2,5.9,110.1,5.9z
				 M110,17c-1.9,0-2.8-1.9-2.8-3.6c0-1,0.2-1.8,0.7-2.4c0.5-0.7,1.2-1.1,2.2-1.1c0.9,0,1.6,0.4,2.1,1.1c0.4,0.6,0.7,1.4,0.7,2.4
				C113,15.3,112,17,110,17z"/>
			<path id="XMLID_48_" class="st0" d="M126.8,13.1c-0.5-0.4-1.6-0.8-3.1-1.4c-1.1-0.4-1.7-0.8-1.7-1.1c0-0.6,0.3-0.8,1-0.8
				c0.6,0,2.4,0.2,4,1.5l0.9-3.6c-0.3-0.3-1.1-0.8-1.6-1c-0.9-0.5-1.9-0.7-3-0.7c-1.5,0-2.8,0.4-3.8,1.3c-1.1,0.9-1.7,2.1-1.7,3.5
				c0,0.4,0,0.9,0.1,1.2c0.2,0.8,0.9,1.6,2,2.2c0.3,0.2,1.3,0.6,2.8,1.2c0.8,0.3,1.2,0.5,1.4,0.7c0.2,0.1,0.3,0.3,0.3,0.6
				c0,0.6-0.4,0.7-1.3,0.7c-0.7,0-2.7-0.4-4.5-1.7l-1.1,3.7c0.4,0.4,1.5,1,2.2,1.3c1,0.4,2.2,0.6,3.4,0.6c1.5,0,2.8-0.4,3.8-1.2
				c1.1-0.9,1.6-2.1,1.6-3.5C128.5,15.1,127.9,13.9,126.8,13.1z"/>
		</g>
	</g>
	<path id="XMLID_4098_" class="st0" d="M40.4,6c-1.3,0-2.3,0.4-3.1,1.1V6.2h-4.1v2.2V21v5.2c1.7,0,4.5-2,4.5-5.3l0-0.7
		c0.9,0.5,1.8,0.7,2.9,0.7c1.1,0,2.1-0.3,3.1-1c2.2-1.5,3.1-3.7,3.1-6.6c0-2-0.5-3.6-1.7-5.1C43.9,6.8,42.3,6,40.4,6z M42.5,15.9
		c-0.5,0.7-1.2,1.1-2.1,1.1c-0.9,0-1.7-0.3-2.2-1.1c-0.5-0.6-0.7-1.4-0.7-2.4c0-0.9,0.3-1.7,0.7-2.4c0.5-0.7,1.3-1.1,2.2-1.1
		c0.9,0,1.6,0.4,2.1,1.1c0.5,0.7,0.7,1.5,0.7,2.4C43.2,14.4,42.9,15.2,42.5,15.9z"/>
	<path id="XMLID_4097_" class="st0" d="M51.1,7c-1.7,1.1-2.9,3-2.9,5.6v7.9v0.2h0.2h4.2h0.2v-0.2l0-7.1c0,0,0-0.1,0-0.1
		c0-0.1,0-0.1,0-0.2c0-1.5,1.2-2.7,2.7-2.7c0.5,0,1,0.1,1.4,0.4l0-4.4C54.7,5.6,52.6,6,51.1,7z"/>
	<path id="XMLID_4096_" class="st0" d="M30.3,13.2c-0.5-0.4-1.6-0.8-3.1-1.4c-1.1-0.4-1.7-0.8-1.7-1.1c0-0.6,0.3-0.8,1-0.8
		c0.6,0,2.4,0.2,4,1.5l0.9-3.6c-0.3-0.3-1.1-0.8-1.6-1c-0.9-0.5-1.9-0.7-3-0.7c-1.5,0-2.8,0.4-3.8,1.3c-1.1,0.9-1.7,2.1-1.7,3.5
		c0,0.4,0,0.9,0.1,1.2c0.2,0.8,0.9,1.6,2,2.2c0.3,0.2,1.3,0.6,2.8,1.2c0.8,0.3,1.2,0.5,1.4,0.7c0.2,0.1,0.3,0.3,0.3,0.6
		c0,0.6-0.4,0.7-1.3,0.7c-0.7,0-2.7-0.4-4.5-1.7L21,19.2c0.4,0.4,1.5,1,2.2,1.3c1,0.4,2.2,0.6,3.4,0.6c1.5,0,2.8-0.4,3.8-1.2
		c1.1-0.9,1.6-2.1,1.6-3.5C32,15.1,31.4,14,30.3,13.2z"/>
	<polygon id="XMLID_4095_" class="st0" points="58.3,6.4 58.1,6.4 58.1,6.6 58.1,20.5 58.1,20.7 58.3,20.7 62.6,20.7 62.8,20.7 
		62.8,20.5 62.8,6.6 62.8,6.4 62.6,6.4 	"/>
	<circle id="XMLID_4094_" class="st0" cx="60.5" cy="2.8" r="2.8"/>
	<path id="XMLID_4093_" class="st0" d="M83.8,6.2V3.1V2.9v-1V0.7c-2.5,0.4-4.1,2.2-4.5,4.7c-0.1,0.4-0.1,0.8-0.1,1.3v0.5v2.9v5.5
		c0,0.8,0.1,1.7,0.3,2.5c0.9,3.1,4.6,3.7,7.2,2.5l0-0.1l0-3.2l0-0.2c-1.8,0.5-3,0.3-3-2.1v-4.8h2.9h0.2V9.9V6.4V6.2h-0.2H83.8z"/>
	<path id="XMLID_4092_" class="st0" d="M64.3,12.6v7.9v0.2h0.2h4.2h0.2v-0.2l0-7.6c0-3.3,4.4-3.4,4.4,0v7.6v0.2h0.2h4.2h0.2v-0.2
		v-7.9C77.8,3.7,64.3,3.8,64.3,12.6z"/>
</g>
</svg>
