<?xml version="1.0" encoding="utf-8"?>
<!-- Generator: Adobe Illustrator 21.1.0, SVG Export Plug-In . SVG Version: 6.00 Build 0)  -->
<svg version="1.1" id="Layer_1" xmlns="http://www.w3.org/2000/svg" xmlns:xlink="http://www.w3.org/1999/xlink" x="0px" y="0px"
	 width="51px" height="51px" viewBox="0 0 51 51" style="enable-background:new 0 0 51 51;" xml:space="preserve">
<style type="text/css">
	.st0{fill:#2E2170;}
	.st1{fill:#F45178;}
</style>
<g id="XMLID_4419_">
	<g id="XMLID_4442_">
		<circle class="st0" cx="25.5" cy="25.5" r="25.4"/>
	</g>
	<path class="st1" d="M37.1,26.4c0.2-2.7-0.5-5.4-2.1-7.7c-1.8-2.6-4.5-4.4-7.7-4.9c-2.9-0.5-5.7,0-8,1.4c-6.4-3-10.2-3.6-11.4-1.7
		c-1.3,2.1,1.7,5.6,5.8,9.1c-0.1,0.3-0.1,0.5-0.2,0.8c-1.2,6.5,3.1,12.7,9.6,13.8c0.7,0.1,1.4,0.2,2.1,0.2c2.8,0,5.5-1,7.6-2.7
		c3.1,1.4,6.1,2.4,8.1,2.4c1.2,0,2.1-0.3,2.5-1.1C44.6,34.1,42.5,30.9,37.1,26.4z M25.2,15.7c0.6,0,1.2,0.1,1.8,0.2
		c2.6,0.5,4.8,1.9,6.3,4.1s2,4.7,1.6,7.3c-0.3,1.9-1.2,3.6-2.5,4.9c-1.3-0.6-2.8-1.4-4.4-2.3c0.2-1-0.2-2.1-1.1-2.8
		c-1.1-0.9-2.6-0.9-3.7-0.1c-2.8-1.8-5.1-3.5-7-5.1C17.6,18.1,21.2,15.7,25.2,15.7z M9.7,14.6c0.4-0.3,2.8-0.2,7.7,2
		c-1.2,1.1-2.2,2.4-2.9,3.8C11.1,17.4,9.5,15.2,9.7,14.6z M23.4,35.1c-2.6-0.5-4.8-1.9-6.3-4.1c-1.4-2-2-4.5-1.6-7
		c2.2,1.7,4.5,3.3,6.5,4.6c-0.2,1.1,0.1,2.2,1.1,3c1.1,0.9,2.7,0.9,3.8,0c1.2,0.7,2.4,1.3,3.7,2C28.5,34.9,26,35.5,23.4,35.1z
		 M41.6,34.8c-0.5,0.4-3.2,0-7.3-1.8c1-1.2,1.8-2.6,2.2-4.2C40.6,32.3,41.7,34.4,41.6,34.8z"/>
</g>
</svg>
