<?xml version="1.0" encoding="utf-8"?>
<!-- Generator: Adobe Illustrator 21.1.0, SVG Export Plug-In . SVG Version: 6.00 Build 0)  -->
<svg version="1.1" xmlns="http://www.w3.org/2000/svg" xmlns:xlink="http://www.w3.org/1999/xlink" x="0px" y="0px" width="27.7px"
	 height="27.7px" viewBox="0 0 27.7 27.7" style="enable-background:new 0 0 27.7 27.7;" xml:space="preserve">
<style type="text/css">
	.st0{fill:#FFFFFF;}
</style>
<g id="Layer_1">
</g>
<g id="Layer_3">
</g>
<g id="Layer_2">
	<g id="XMLID_284_">
		<g id="XMLID_752_">
			<path class="st0" d="M13.9,27.7c-3.6,0-7.1-1.4-9.8-4.1c-5.4-5.4-5.4-14.2,0-19.6c5.4-5.4,14.2-5.4,19.6,0
				c5.4,5.4,5.4,14.2,0,19.6C21,26.4,17.4,27.7,13.9,27.7z M13.9,2.1c-3,0-6,1.1-8.3,3.4c-4.6,4.6-4.6,12,0,16.6
				c4.6,4.6,12,4.6,16.6,0c4.6-4.6,4.6-12,0-16.6C19.9,3.3,16.9,2.1,13.9,2.1z"/>
		</g>
		<g id="XMLID_695_">
			<g id="XMLID_750_">
				<path class="st0" d="M9.3,19.5c-0.3,0-0.5-0.1-0.8-0.3c-0.4-0.4-0.4-1.1,0-1.5l9.2-9.2c0.4-0.4,1.1-0.4,1.5,0
					c0.4,0.4,0.4,1.1,0,1.5L10,19.2C9.8,19.4,9.6,19.5,9.3,19.5z"/>
			</g>
			<g id="XMLID_741_">
				<path class="st0" d="M18.5,19.5c-0.3,0-0.5-0.1-0.8-0.3L8.5,10c-0.4-0.4-0.4-1.1,0-1.5c0.4-0.4,1.1-0.4,1.5,0l9.2,9.2
					c0.4,0.4,0.4,1.1,0,1.5C19,19.4,18.7,19.5,18.5,19.5z"/>
			</g>
		</g>
	</g>
</g>
</svg>
