<?xml version="1.0" encoding="utf-8"?>
<!-- Generator: Adobe Illustrator 21.1.0, SVG Export Plug-In . SVG Version: 6.00 Build 0)  -->
<svg version="1.1" id="Layer_1" xmlns="http://www.w3.org/2000/svg" xmlns:xlink="http://www.w3.org/1999/xlink" x="0px" y="0px"
	 width="75px" height="101px" viewBox="0 0 75 101" style="enable-background:new 0 0 75 101;" xml:space="preserve">
<style type="text/css">
	.st0{fill:#2F2B70;}
	.st1{fill:url(#SVGID_1_);}
	.st2{opacity:0.2;fill:#FFFFFF;}
	.st3{fill:#AAEEFF;}
	.st4{fill:none;stroke:#AAEEFF;stroke-width:3.4288;stroke-linecap:round;stroke-miterlimit:10;}
	.st5{fill:#3C3C99;}
	.st6{opacity:0.2;fill:#2F2B70;}
</style>
<g>
	<ellipse transform="matrix(0.7071 -0.7071 0.7071 0.7071 -23.3939 56.478)" class="st0" cx="56.5" cy="56.5" rx="12" ry="4.1"/>
	<polygon class="st0" points="64.9,48 57.9,42.7 50.8,49.7 57,55.9 	"/>
	<polygon class="st0" points="48,64.9 42.7,57.9 49.7,50.8 55.9,57 	"/>
	
		<linearGradient id="SVGID_1_" gradientUnits="userSpaceOnUse" x1="-4722.3022" y1="-2036.7834" x2="-4822.5054" y2="-1931.2468" gradientTransform="matrix(0.7071 -0.7071 0.7071 0.7071 4813.2212 -1925.5964)">
		<stop  offset="0" style="stop-color:#FB79B1"/>
		<stop  offset="0.6324" style="stop-color:#3F40B4"/>
		<stop  offset="0.7332" style="stop-color:#3D379B"/>
		<stop  offset="0.9459" style="stop-color:#38215D"/>
		<stop  offset="1" style="stop-color:#371B4C"/>
	</linearGradient>
	<path class="st1" d="M55.3,15.6c11,11,11,28.7,0,39.7c-11,11-28.7,11-39.7,0C8.4,48.1,6,38,8.2,28.9c0.1-0.4,0.2-0.7,0.3-1.1
		c0.3-1.1,0.7-2.3,1.2-3.4c0.1-0.4,0.3-0.7,0.5-1.1c1.3-2.8,3.2-5.4,5.5-7.7c2.3-2.3,4.9-4.1,7.7-5.5c0.3-0.2,0.7-0.3,1.1-0.5
		c1.1-0.5,2.2-0.9,3.4-1.2c0.4-0.1,0.7-0.2,1.1-0.3C38,6,48.1,8.4,55.3,15.6z"/>
	<path class="st2" d="M55.3,15.6c11,11,11,28.7,0,39.7c-1.3,1.3-2.7,2.4-4.1,3.4c7.4-10.9,6.3-25.9-3.4-35.6
		c-7.2-7.2-17.2-9.6-26.4-7.4c-0.4,0.1-0.7,0.2-1.1,0.3c-1.1,0.3-2.3,0.7-3.4,1.2c-0.4,0.1-0.7,0.3-1.1,0.5
		c-1.3,0.6-2.5,1.3-3.6,2.1c1-1.5,2.1-2.8,3.4-4.1c2.3-2.3,4.9-4.1,7.7-5.5c0.3-0.2,0.7-0.3,1.1-0.5c1.1-0.5,2.2-0.9,3.4-1.2
		c0.4-0.1,0.7-0.2,1.1-0.3C38,6,48.1,8.4,55.3,15.6z"/>
	
		<ellipse transform="matrix(0.7071 -0.7071 0.7071 0.7071 -14.6765 35.4322)" class="st3" cx="35.4" cy="35.4" rx="10.6" ry="10.6"/>
	<path class="st3" d="M23.3,10.1c1.5,1.7-0.1,6.1-3.6,9.6c-3.5,3.5-7.8,5.1-9.6,3.6C10,23.7,9.8,24,9.7,24.4c2.3,1.6,7,0,10.9-3.9
		c3.9-3.9,5.5-8.5,3.9-10.9C24,9.8,23.7,10,23.3,10.1z"/>
	<line class="st4" x1="41.1" y1="58" x2="31.9" y2="57.9"/>
	<path class="st5" d="M15.2,16.8L2,2l14.8,13.2c0.5,0.4,0.5,1.1,0.1,1.6S15.8,17.3,15.2,16.8C15.3,16.9,15.2,16.8,15.2,16.8z"/>
	<path class="st0" d="M41.1,58l0.2,6c0.1,1.5,0.7,2.9,1.9,3.8l6.5,5.4c0.9,0.5,0.4,1.9-0.6,1.7l-12.3-2.1c-1.9-0.3-3.3-1.9-3.5-3.8
		l-1.2-11.2L41.1,58z"/>
	<path class="st5" d="M41.3,29.6c3.2,3.2,3.2,8.5,0,11.7c-0.4,0.4-0.8,0.7-1.2,1c-0.5,0.4-1.1,0.6-1.6,0.9c-0.5,0.2-1,0.3-1.5,0.4
		c-2.4,0.4-5-0.2-7-2c-0.1-0.1-0.2-0.2-0.3-0.3c-3.2-3.2-3.2-8.5,0-11.8c0.1-0.1,0.2-0.2,0.3-0.3c2-1.8,4.6-2.4,7-2
		c0.5,0.1,1,0.2,1.5,0.4c0.6,0.2,1.1,0.5,1.6,0.9C40.5,28.8,40.9,29.2,41.3,29.6z"/>
	<path class="st3" d="M27.8,8.5c1.2,3.5-0.9,9.1-5.5,13.7C17.6,26.8,12,29,8.5,27.8c-0.1,0.4-0.2,0.7-0.3,1.1c4,1.2,10-1,14.8-5.8
		c4.9-4.9,7.1-10.9,5.8-14.8C28.5,8.3,28.1,8.4,27.8,8.5z"/>
	<line class="st4" x1="58" y1="41.1" x2="57.9" y2="31.9"/>
	<path class="st5" d="M58,41.1l6,0.2c1.5,0.1,2.9,0.7,3.8,1.9l5.4,6.5c0.5,0.9,1.9,0.4,1.7-0.6l-2.1-12.3c-0.3-1.9-1.9-3.3-3.8-3.5
		l-11.2-1.2L58,41.1z"/>
	<path class="st2" d="M36.9,27.3l0,16.4c-2.4,0.4-5-0.2-7-2l0-12.3C31.8,27.5,34.4,26.8,36.9,27.3z"/>
	<path class="st2" d="M40.1,28.6v13.8c-0.5,0.4-1.1,0.6-1.6,0.9l0-15.5C39,27.9,39.6,28.2,40.1,28.6z"/>
	<ellipse transform="matrix(0.7071 -0.7071 0.7071 0.7071 -6.4634 15.601)" class="st5" cx="15.6" cy="15.6" rx="4.3" ry="2"/>
	<ellipse class="st6" cx="38.5" cy="95.2" rx="19.9" ry="5.8"/>
	<circle class="st5" cx="2" cy="2" r="2"/>
</g>
</svg>
