<svg xmlns="http://www.w3.org/2000/svg" viewBox="0 0 30.91 30.91"><defs><style>.cls-1{fill:#fff;}</style></defs><title>telegram_white_logo</title><g id="Layer_2" data-name="Layer 2"><g id="Layer_1-2" data-name="Layer 1"><path class="cls-1" d="M15.46,30.91A15.46,15.46,0,1,1,30.91,15.46,15.47,15.47,0,0,1,15.46,30.91ZM15.46,1A14.46,14.46,0,1,0,29.91,15.46,14.47,14.47,0,0,0,15.46,1Z"/><g id="Layer_3" data-name="Layer 3"><path id="path5" class="cls-1" d="M6.72,15.33,16.8,11.18c1-.44,4.36-1.82,4.36-1.82s1.56-.6,1.43.87c0,.6-.39,2.72-.74,5C21.33,18.48,20.77,22,20.77,22s-.08,1-.82,1.16-1.94-.6-2.16-.77-3.24-2.08-4.37-3A.82.82,0,0,1,13.47,18c1.55-1.43,3.41-3.2,4.54-4.33.52-.51,1-1.72-1.13-.26-3.07,2.12-6.09,4.11-6.09,4.11a2.55,2.55,0,0,1-2,0c-1.3-.38-2.81-.9-2.81-.9S5,16,6.72,15.33Z"/></g></g></g></svg>